<svg width="97" height="26" viewBox="0 0 97 26" fill="none" xmlns="http://www.w3.org/2000/svg">
  <path
    d="M12.0006 17.9928H6.11309L5.29514 20.7631H0L6.30794 3.98047H11.9646L18.271 20.7631H12.8403L12.0006 17.9928ZM10.9249 14.3638L9.07243 8.3309L7.23922 14.3638H10.9249Z"
    fill="#3166AC" fill-opacity="0.9" />
  <path d="M18.3965 3.98047H34.1601V8.1244H28.8712V20.7631H23.6854V8.1244H18.3965V3.98047Z"
    fill="#3166AC" fill-opacity="0.9" />
  <path
    d="M46.4946 17.9928H40.6068L39.7888 20.7631H34.4941L40.8016 3.98047H46.4587L52.7651 20.7631H47.3345L46.4946 17.9928ZM45.419 14.3638L43.5663 8.3309L41.7331 14.3638H45.419Z"
    fill="#3166AC" fill-opacity="0.9" />
  <path
    d="M55.6953 3.98047H65.4029C67.0209 3.98047 68.2631 4.38115 69.1291 5.18252C69.9952 5.9839 70.4286 6.97609 70.4286 8.15889C70.4286 9.15131 70.1198 10.0017 69.5014 10.7119C69.0895 11.185 68.4861 11.559 67.6924 11.8336C68.8985 12.1241 69.7854 12.622 70.3543 13.3277C70.9227 14.0334 71.2074 14.921 71.2074 15.9892C71.2074 16.8591 71.0047 17.6416 70.6006 18.3364C70.1961 19.0309 69.6427 19.5803 68.9403 19.9846C68.5056 20.2368 67.8489 20.4198 66.9716 20.5345C65.8038 20.687 65.0291 20.7634 64.6479 20.7634H55.6955V3.98047H55.6953ZM60.9268 10.5628H63.1822C63.991 10.5628 64.5541 10.4239 64.8708 10.1451C65.1875 9.86667 65.3458 9.46397 65.3458 8.93741C65.3458 8.44871 65.1875 8.06751 64.8708 7.79247C64.5541 7.51765 64.0027 7.38059 63.2167 7.38059H60.9268V10.5628ZM60.9268 17.157H63.5713C64.464 17.157 65.0941 16.9986 65.4605 16.6819C65.8267 16.3652 66.0099 15.9397 66.0099 15.4053C66.0099 14.9094 65.8287 14.5105 65.4663 14.2093C65.1035 13.9076 64.4681 13.7571 63.5603 13.7571H60.9271V17.157H60.9268Z"
    fill="#3166AC" fill-opacity="0.9" />
  <path
    d="M88.6943 0.000225558C89.6767 0.514465 89.6028 2.1667 89.6028 2.1667V15.7925C89.6028 15.7925 90.3598 15.0355 92.5164 14.8608C94.673 14.6861 94.727 12.9998 94.727 12.9998C94.727 12.9998 94.727 3.6223 94.727 2.39941C94.727 1.17652 96.1871 0 96.1871 0H88.6943V0.000225558ZM92.4282 4.98203C91.6682 4.98203 91.0523 4.36611 91.0523 3.60617C91.0523 2.84646 91.6682 2.23031 92.4282 2.23031C93.1879 2.23031 93.804 2.84623 93.804 3.60617C93.8038 4.36611 93.1879 4.98203 92.4282 4.98203Z"
    fill="#3166AC" fill-opacity="0.9" />
  <path
    d="M82.551 0C82.3758 0.000447944 82.2036 0.000895149 82.0311 0.00134309L84.3989 4.61068L80.0503 0.00470253C79.7435 0.00492651 79.4436 0.00515023 79.1567 0.00515023L81.5245 4.93343L76.8896 0.00380714C75.8544 0.00246331 75.2246 0.00022214 75.2246 0.00022214L81.7606 9.03346V10.576H75.4437V15.4238H81.7606V16.9663L75.2246 25.9998C75.2246 25.9998 75.8544 25.9978 76.8896 25.9962L81.5245 21.0666L79.1567 25.9946C79.4436 25.9946 79.7435 25.9948 80.0503 25.9951L84.3989 21.3891L82.0311 25.9982C82.2036 25.9987 82.3758 25.9991 82.551 25.9995C87.5039 25.5581 88.0298 20.7203 88.0298 20.7203V5.27924C88.0298 5.27924 87.5039 0.441449 82.551 0ZM85.347 14.3754C84.5871 14.3754 83.9712 13.7595 83.9712 12.9996C83.9712 12.2396 84.5871 11.6237 85.347 11.6237C86.107 11.6237 86.7229 12.2396 86.7229 12.9996C86.7229 13.7595 86.107 14.3754 85.347 14.3754Z"
    fill="#3166AC" fill-opacity="0.9" />
</svg>