<svg width="105" height="43" viewBox="0 0 105 43" fill="none" xmlns="http://www.w3.org/2000/svg">
  <mask id="mask0_2130_10307" style="mask-type:luminance" maskUnits="userSpaceOnUse" x="4" y="0"
    width="97" height="43">
    <path d="M100.289 0H4.10449V43H100.289V0Z" fill="white" />
  </mask>
  <g mask="url(#mask0_2130_10307)">
    <path
      d="M13.7207 25.7425H15.0774C15.5752 25.7359 16.125 25.8329 16.125 26.2842C16.125 26.4783 15.9703 26.6355 15.7424 26.7193C16.0516 26.7864 16.2423 26.9865 16.2423 27.2316C16.2423 27.7456 15.7339 27.9036 15.1135 27.9036H13.7207V25.7425ZM14.4755 26.5921H15.0603C15.1905 26.5921 15.3689 26.5416 15.3689 26.3861C15.3689 26.229 15.2193 26.1775 15.0603 26.1775H14.4755V26.5921ZM14.4755 27.4525H15.0809C15.3203 27.4525 15.487 27.388 15.487 27.2095C15.487 27.0194 15.3083 26.9564 15.0809 26.9564H14.4755V27.4525Z"
      fill="#808285" />
  </g>
  <mask id="mask1_2130_10307" style="mask-type:luminance" maskUnits="userSpaceOnUse" x="4" y="0"
    width="97" height="43">
    <path d="M100.289 0H4.10449V43H100.289V0Z" fill="white" />
  </mask>
  <g mask="url(#mask1_2130_10307)">
    <path
      d="M16.9534 26.8168C16.9662 26.6102 17.0966 26.4782 17.2826 26.3962C17.4696 26.3174 17.7141 26.2871 17.9532 26.2871C18.4531 26.2871 18.9359 26.3681 18.9359 26.8135V27.5011C18.9359 27.6336 18.9359 27.7788 19.0171 27.9036H18.3232C18.297 27.8546 18.2906 27.8072 18.2807 27.7547C18.1031 27.8936 17.8394 27.9492 17.5866 27.9492C17.185 27.9492 16.8682 27.7967 16.8682 27.473C16.8682 26.962 17.6155 27.0014 18.0948 26.9295C18.2131 26.9098 18.2778 26.88 18.2778 26.7834C18.2778 26.6659 18.0865 26.6196 17.9446 26.6196C17.7536 26.6196 17.632 26.6845 17.6002 26.817L16.9534 26.8168ZM17.8479 27.6307C18.1763 27.6307 18.2855 27.4911 18.27 27.1674C18.172 27.2134 17.9935 27.2224 17.8426 27.2526C17.6892 27.2797 17.5591 27.3275 17.5591 27.4527C17.5591 27.5795 17.6921 27.6307 17.8479 27.6307Z"
      fill="#808285" />
  </g>
  <mask id="mask2_2130_10307" style="mask-type:luminance" maskUnits="userSpaceOnUse" x="4" y="0"
    width="97" height="43">
    <path d="M100.289 0H4.10449V43H100.289V0Z" fill="white" />
  </mask>
  <g mask="url(#mask2_2130_10307)">
    <path
      d="M19.7412 26.3323H20.4124V26.5469H20.4201C20.546 26.386 20.831 26.2871 21.083 26.2871C21.7849 26.2871 21.8418 26.6677 21.8418 26.8955V27.9036H21.1514V27.1435C21.1514 26.9295 21.1834 26.7103 20.8065 26.7103C20.546 26.7103 20.4329 26.8744 20.4329 27.0464V27.9036H19.7412V26.3323Z"
      fill="#808285" />
  </g>
  <mask id="mask3_2130_10307" style="mask-type:luminance" maskUnits="userSpaceOnUse" x="4" y="0"
    width="97" height="43">
    <path d="M100.289 0H4.10449V43H100.289V0Z" fill="white" />
  </mask>
  <g mask="url(#mask3_2130_10307)">
    <path
      d="M24.6938 27.7119C24.6938 27.9695 24.6294 28.4536 23.6419 28.4536C23.1506 28.4536 22.6867 28.3716 22.6069 27.9512H23.2967C23.3127 28.0216 23.3496 28.0636 23.4145 28.0877C23.476 28.1118 23.5601 28.1218 23.6665 28.1218C23.9959 28.1218 24.028 27.9492 24.028 27.7547V27.6066H24.0197C23.8944 27.7517 23.6828 27.8361 23.4592 27.8361C22.8214 27.8361 22.5342 27.4975 22.5342 27.0553C22.5342 26.6381 22.8633 26.2871 23.4592 26.2871C23.7111 26.2871 23.9032 26.3681 24.024 26.5294H24.0325V26.3323H24.6938V27.7119ZM23.6269 26.6801C23.3208 26.6801 23.2238 26.8798 23.2238 27.0738C23.2238 27.2574 23.3381 27.4425 23.6213 27.4425C23.9142 27.4425 24.0408 27.2745 24.0408 27.0764C24.0405 26.8772 23.9339 26.6801 23.6269 26.6801Z"
      fill="#808285" />
  </g>
  <mask id="mask4_2130_10307" style="mask-type:luminance" maskUnits="userSpaceOnUse" x="4" y="0"
    width="97" height="43">
    <path d="M100.289 0H4.10449V43H100.289V0Z" fill="white" />
  </mask>
  <g mask="url(#mask4_2130_10307)">
    <path d="M26.2219 25.7441H25.5312V27.9049H26.2219V25.7441Z" fill="#808285" />
  </g>
  <mask id="mask5_2130_10307" style="mask-type:luminance" maskUnits="userSpaceOnUse" x="4" y="0"
    width="97" height="43">
    <path d="M100.289 0H4.10449V43H100.289V0Z" fill="white" />
  </mask>
  <g mask="url(#mask5_2130_10307)">
    <path
      d="M27.0403 26.8168C27.0539 26.6102 27.1838 26.4782 27.3689 26.3962C27.556 26.3174 27.8002 26.2871 28.0396 26.2871C28.54 26.2871 29.023 26.3681 29.023 26.8135V27.5011C29.023 27.6336 29.023 27.7788 29.1037 27.9036H28.4101C28.3853 27.8546 28.3775 27.8072 28.3685 27.7547C28.19 27.8936 27.9271 27.9492 27.6733 27.9492C27.272 27.9492 26.9551 27.7967 26.9551 27.473C26.9551 26.962 27.7026 27.0014 28.1814 26.9295C28.3001 26.9098 28.3647 26.88 28.3647 26.7834C28.3647 26.6659 28.1742 26.6196 28.0313 26.6196C27.8405 26.6196 27.7184 26.6845 27.6871 26.817L27.0403 26.8168ZM27.9348 27.6307C28.2632 27.6307 28.3735 27.4911 28.3572 27.1674C28.2589 27.2134 28.0799 27.2224 27.9295 27.2526C27.7761 27.2797 27.6463 27.3275 27.6463 27.4527C27.6463 27.5795 27.7791 27.6307 27.9348 27.6307Z"
      fill="#808285" />
  </g>
  <mask id="mask6_2130_10307" style="mask-type:luminance" maskUnits="userSpaceOnUse" x="4" y="0"
    width="97" height="43">
    <path d="M100.289 0H4.10449V43H100.289V0Z" fill="white" />
  </mask>
  <g mask="url(#mask6_2130_10307)">
    <path
      d="M31.9203 27.9033H31.2614V27.7214H31.2531C31.1195 27.8693 30.9159 27.9489 30.6736 27.9489C30.0099 27.9489 29.7305 27.5253 29.7305 27.0832C29.7305 26.6741 30.0228 26.2869 30.6199 26.2869C30.8812 26.2869 31.0789 26.3583 31.2213 26.5009H31.2293V25.7422H31.9203V27.9033ZM30.4209 27.1003C30.4209 27.3157 30.5264 27.5554 30.843 27.5554C31.1812 27.5554 31.2531 27.3157 31.2531 27.1152C31.2531 26.8891 31.1438 26.6798 30.843 26.6798C30.5264 26.68 30.4209 26.9016 30.4209 27.1003Z"
      fill="#808285" />
  </g>
  <mask id="mask7_2130_10307" style="mask-type:luminance" maskUnits="userSpaceOnUse" x="4" y="0"
    width="97" height="43">
    <path d="M100.289 0H4.10449V43H100.289V0Z" fill="white" />
  </mask>
  <g mask="url(#mask7_2130_10307)">
    <path
      d="M33.3394 27.2425C33.3514 27.4581 33.5176 27.6004 33.8104 27.6004C33.9771 27.6004 34.1388 27.5429 34.2042 27.4284H34.8503C34.7247 27.7915 34.2734 27.949 33.8024 27.949C33.1157 27.949 32.6484 27.6394 32.6484 27.1135C32.6484 26.6323 33.1646 26.2871 33.7858 26.2871C34.5409 26.2871 34.9181 26.7103 34.8863 27.2427L33.3394 27.2425ZM34.1967 26.9564C34.1844 26.7802 34.0167 26.6353 33.7858 26.6353C33.5422 26.6353 33.3789 26.7653 33.3394 26.9564H34.1967Z"
      fill="#808285" />
  </g>
  <mask id="mask8_2130_10307" style="mask-type:luminance" maskUnits="userSpaceOnUse" x="4" y="0"
    width="97" height="43">
    <path d="M100.289 0H4.10449V43H100.289V0Z" fill="white" />
  </mask>
  <g mask="url(#mask8_2130_10307)">
    <path
      d="M36.1248 27.3866C36.1248 27.4636 36.1702 27.5222 36.2394 27.5612C36.3046 27.5978 36.3976 27.6151 36.4951 27.6151C36.6297 27.6151 36.8208 27.5729 36.8208 27.4485C36.8208 27.3275 36.6052 27.3034 36.4831 27.2835C36.0486 27.2005 35.5041 27.1925 35.5041 26.7679C35.5041 26.3892 36.0524 26.2871 36.4668 26.2871C36.9306 26.2871 37.4134 26.3862 37.4369 26.7953H36.7997C36.7997 26.7289 36.7676 26.6863 36.7107 26.6592C36.6538 26.6323 36.5768 26.6192 36.4908 26.6192C36.3778 26.6192 36.1945 26.6293 36.1945 26.7374C36.1945 26.8865 36.6573 26.9134 36.9739 26.9646C37.4011 27.0285 37.5101 27.2576 37.5101 27.3882C37.5101 27.8088 36.9739 27.9492 36.4977 27.9492C36 27.9492 35.4875 27.8248 35.4678 27.3866H36.1248Z"
      fill="#808285" />
  </g>
  <mask id="mask9_2130_10307" style="mask-type:luminance" maskUnits="userSpaceOnUse" x="4" y="0"
    width="97" height="43">
    <path d="M100.289 0H4.10449V43H100.289V0Z" fill="white" />
  </mask>
  <g mask="url(#mask9_2130_10307)">
    <path
      d="M38.209 25.7441H38.8999V26.5484H38.9082C39.014 26.3877 39.2977 26.2886 39.5492 26.2886C40.2521 26.2886 40.3093 26.6692 40.3093 26.897V27.9049H39.6181V27.145C39.6181 26.931 39.6509 26.7118 39.2734 26.7118C39.014 26.7118 38.8999 26.8759 38.8999 27.0479V27.9049H38.209V25.7441Z"
      fill="#808285" />
  </g>
  <mask id="mask10_2130_10307" style="mask-type:luminance" maskUnits="userSpaceOnUse" x="4" y="0"
    width="97" height="43">
    <path d="M100.289 0H4.10449V43H100.289V0Z" fill="white" />
  </mask>
  <g mask="url(#mask10_2130_10307)">
    <path
      d="M43.5798 25.7441H44.3484L45.4329 27.9051H44.6445L44.4668 27.5181H43.4537L43.2714 27.9051H42.4961L43.5798 25.7441ZM43.6284 27.0998H44.2865L43.9669 26.3426H43.9581L43.6284 27.0998Z"
      fill="#808285" />
  </g>
  <mask id="mask11_2130_10307" style="mask-type:luminance" maskUnits="userSpaceOnUse" x="4" y="0"
    width="97" height="43">
    <path d="M100.289 0H4.10449V43H100.289V0Z" fill="white" />
  </mask>
  <g mask="url(#mask11_2130_10307)">
    <path
      d="M46.5213 27.3866C46.5213 27.4636 46.5675 27.5222 46.6359 27.5612C46.7021 27.5978 46.7951 27.6151 46.8926 27.6151C47.0257 27.6151 47.217 27.5729 47.217 27.4485C47.217 27.3275 47.0024 27.3034 46.8809 27.2835C46.4451 27.2005 45.9009 27.1925 45.9009 26.7679C45.9009 26.3892 46.4488 26.2871 46.863 26.2871C47.3271 26.2871 47.8098 26.3862 47.8342 26.7953H47.1969C47.1969 26.7289 47.163 26.6863 47.1072 26.6592C47.0503 26.6323 46.9736 26.6192 46.887 26.6192C46.774 26.6192 46.5918 26.6293 46.5918 26.7374C46.5918 26.8865 47.0537 26.9134 47.3711 26.9646C47.7976 27.0285 47.9071 27.2576 47.9071 27.3882C47.9071 27.8088 47.3711 27.9492 46.8948 27.9492C46.3965 27.9492 45.8846 27.8248 45.8643 27.3866H46.5213Z"
      fill="#808285" />
  </g>
  <mask id="mask12_2130_10307" style="mask-type:luminance" maskUnits="userSpaceOnUse" x="4" y="0"
    width="97" height="43">
    <path d="M100.289 0H4.10449V43H100.289V0Z" fill="white" />
  </mask>
  <g mask="url(#mask12_2130_10307)">
    <path
      d="M49.1475 27.3866C49.1475 27.4636 49.1921 27.5222 49.2613 27.5612C49.3262 27.5978 49.42 27.6151 49.517 27.6151C49.6517 27.6151 49.843 27.5729 49.843 27.4485C49.843 27.3275 49.6271 27.3034 49.5063 27.2835C49.0705 27.2005 48.5263 27.1925 48.5263 26.7679C48.5263 26.3892 49.0743 26.2871 49.4889 26.2871C49.9517 26.2871 50.435 26.3862 50.4593 26.7953H49.8216C49.8216 26.7289 49.789 26.6863 49.7326 26.6592C49.6757 26.6323 49.5988 26.6192 49.5125 26.6192C49.4 26.6192 49.2162 26.6293 49.2162 26.7374C49.2162 26.8865 49.6797 26.9134 49.9963 26.9646C50.423 27.0285 50.5333 27.2576 50.5333 27.3882C50.5333 27.8088 49.9963 27.9492 49.5215 27.9492C49.0219 27.9492 48.51 27.8248 48.4902 27.3866H49.1475Z"
      fill="#808285" />
  </g>
  <mask id="mask13_2130_10307" style="mask-type:luminance" maskUnits="userSpaceOnUse" x="4" y="0"
    width="97" height="43">
    <path d="M100.289 0H4.10449V43H100.289V0Z" fill="white" />
  </mask>
  <g mask="url(#mask13_2130_10307)">
    <path
      d="M52.2261 26.2871C52.8791 26.2871 53.3389 26.6468 53.3389 27.1194C53.3389 27.591 52.8791 27.9494 52.2261 27.9494C51.5728 27.9494 51.1162 27.591 51.1162 27.1194C51.1162 26.6468 51.5728 26.2871 52.2261 26.2871ZM52.2261 27.5556C52.5464 27.5556 52.6482 27.3185 52.6482 27.1194C52.6482 26.92 52.5464 26.6805 52.2261 26.6805C51.9036 26.6805 51.8071 26.92 51.8071 27.1194C51.8071 27.3185 51.9036 27.5556 52.2261 27.5556Z"
      fill="#808285" />
  </g>
  <mask id="mask14_2130_10307" style="mask-type:luminance" maskUnits="userSpaceOnUse" x="4" y="0"
    width="97" height="43">
    <path d="M100.289 0H4.10449V43H100.289V0Z" fill="white" />
  </mask>
  <g mask="url(#mask14_2130_10307)">
    <path
      d="M55.4281 26.9074C55.4228 26.7744 55.2659 26.6803 55.0904 26.6803C54.7054 26.6803 54.6434 26.9263 54.6434 27.1435C54.6434 27.3462 54.7628 27.5556 55.0541 27.5556C55.2951 27.5556 55.4156 27.4525 55.4476 27.2861H56.119C56.0565 27.7067 55.6202 27.9492 55.0583 27.9492C54.4233 27.9492 53.9541 27.6251 53.9541 27.1435C53.9541 26.6438 54.3819 26.2871 55.0583 26.2871C55.582 26.2871 56.0485 26.4932 56.1001 26.9072L55.4281 26.9074Z"
      fill="#808285" />
  </g>
  <mask id="mask15_2130_10307" style="mask-type:luminance" maskUnits="userSpaceOnUse" x="4" y="0"
    width="97" height="43">
    <path d="M100.289 0H4.10449V43H100.289V0Z" fill="white" />
  </mask>
  <g mask="url(#mask15_2130_10307)">
    <path
      d="M57.5442 26.1367H56.8535V25.7441H57.5442V26.1367ZM56.8535 26.3338H57.5442V27.9053H56.8535V26.3338Z"
      fill="#808285" />
  </g>
  <mask id="mask16_2130_10307" style="mask-type:luminance" maskUnits="userSpaceOnUse" x="4" y="0"
    width="97" height="43">
    <path d="M100.289 0H4.10449V43H100.289V0Z" fill="white" />
  </mask>
  <g mask="url(#mask16_2130_10307)">
    <path
      d="M58.3621 26.8168C58.375 26.6102 58.5037 26.4782 58.6918 26.3962C58.8775 26.3174 59.122 26.2871 59.3622 26.2871C59.8605 26.2871 60.3451 26.3681 60.3451 26.8135V27.5011C60.3451 27.6336 60.3451 27.7788 60.4245 27.9036H59.7309C59.7052 27.8546 59.698 27.8072 59.69 27.7547C59.5107 27.8936 59.2478 27.9492 58.9967 27.9492C58.5924 27.9492 58.2764 27.7967 58.2764 27.473C58.2764 26.962 59.0234 27.0014 59.5035 26.9295C59.6221 26.9098 59.6852 26.88 59.6852 26.7834C59.6852 26.6659 59.496 26.6196 59.3526 26.6196C59.1618 26.6196 59.0405 26.6845 59.0095 26.817L58.3621 26.8168ZM59.2564 27.6307C59.5853 27.6307 59.6943 27.4911 59.6785 27.1674C59.5813 27.2134 59.4023 27.2224 59.2508 27.2526C59.0966 27.2797 58.9684 27.3275 58.9684 27.4527C58.9684 27.5795 59.1025 27.6307 59.2564 27.6307Z"
      fill="#808285" />
  </g>
  <mask id="mask17_2130_10307" style="mask-type:luminance" maskUnits="userSpaceOnUse" x="4" y="0"
    width="97" height="43">
    <path d="M100.289 0H4.10449V43H100.289V0Z" fill="white" />
  </mask>
  <g mask="url(#mask17_2130_10307)">
    <path
      d="M62.4222 26.6672H61.9944V27.3805C61.9944 27.5049 62.0917 27.5314 62.2429 27.5314C62.2993 27.5314 62.3604 27.527 62.4222 27.527V27.9051C62.295 27.9073 62.1697 27.9196 62.0428 27.9196C61.4555 27.9196 61.3051 27.793 61.3051 27.366V26.6672H60.9551V26.3336H61.3051V25.8594H61.9944V26.3336H62.4222V26.6672Z"
      fill="#808285" />
  </g>
  <mask id="mask18_2130_10307" style="mask-type:luminance" maskUnits="userSpaceOnUse" x="4" y="0"
    width="97" height="43">
    <path d="M100.289 0H4.10449V43H100.289V0Z" fill="white" />
  </mask>
  <g mask="url(#mask18_2130_10307)">
    <path
      d="M63.8014 26.1367H63.1126V25.7441H63.8014V26.1367ZM63.1123 26.3338H63.8011V27.9053H63.1123V26.3338Z"
      fill="#808285" />
  </g>
  <mask id="mask19_2130_10307" style="mask-type:luminance" maskUnits="userSpaceOnUse" x="4" y="0"
    width="97" height="43">
    <path d="M100.289 0H4.10449V43H100.289V0Z" fill="white" />
  </mask>
  <g mask="url(#mask19_2130_10307)">
    <path
      d="M65.6721 26.2871C66.3256 26.2871 66.7849 26.6468 66.7849 27.1194C66.7849 27.591 66.3256 27.9494 65.6721 27.9494C65.0183 27.9494 64.5625 27.591 64.5625 27.1194C64.5625 26.6468 65.0183 26.2871 65.6721 26.2871ZM65.6721 27.5556C65.9914 27.5556 66.0942 27.3185 66.0942 27.1194C66.0942 26.92 65.9914 26.6805 65.6721 26.6805C65.3507 26.6805 65.2532 26.92 65.2532 27.1194C65.2529 27.3185 65.3507 27.5556 65.6721 27.5556Z"
      fill="#808285" />
  </g>
  <mask id="mask20_2130_10307" style="mask-type:luminance" maskUnits="userSpaceOnUse" x="4" y="0"
    width="97" height="43">
    <path d="M100.289 0H4.10449V43H100.289V0Z" fill="white" />
  </mask>
  <g mask="url(#mask20_2130_10307)">
    <path
      d="M67.4971 26.3323H68.1672V26.5469H68.1765C68.3021 26.386 68.5858 26.2871 68.8378 26.2871C69.5405 26.2871 69.5984 26.6677 69.5984 26.8955V27.9036H68.9083V27.1435C68.9083 26.9295 68.9404 26.7103 68.5618 26.7103C68.3021 26.7103 68.188 26.8744 68.188 27.0464V27.9036H67.4973V26.3323H67.4971Z"
      fill="#808285" />
  </g>
  <mask id="mask21_2130_10307" style="mask-type:luminance" maskUnits="userSpaceOnUse" x="4" y="0"
    width="97" height="43">
    <path d="M100.289 0H4.10449V43H100.289V0Z" fill="white" />
  </mask>
  <g mask="url(#mask21_2130_10307)">
    <path
      d="M73.0566 26.2871C73.7088 26.2871 74.1689 26.6468 74.1689 27.1194C74.1689 27.591 73.7088 27.9494 73.0566 27.9494C72.4015 27.9494 71.9443 27.591 71.9443 27.1194C71.9443 26.6468 72.4015 26.2871 73.0566 26.2871ZM73.0566 27.5556C73.3767 27.5556 73.4774 27.3185 73.4774 27.1194C73.4774 26.92 73.3767 26.6805 73.0566 26.6805C72.7344 26.6805 72.6371 26.92 72.6371 27.1194C72.6371 27.3185 72.7344 27.5556 73.0566 27.5556Z"
      fill="#808285" />
  </g>
  <mask id="mask22_2130_10307" style="mask-type:luminance" maskUnits="userSpaceOnUse" x="4" y="0"
    width="97" height="43">
    <path d="M100.289 0H4.10449V43H100.289V0Z" fill="white" />
  </mask>
  <g mask="url(#mask22_2130_10307)">
    <path
      d="M75.0425 26.6674H74.7109V26.3338H75.0425C75.0425 25.8831 75.2533 25.7441 75.8432 25.7441C75.952 25.7441 76.0661 25.7495 76.1761 25.7531V26.1156C76.1126 26.1096 76.0503 26.1073 75.9897 26.1073C75.8304 26.1073 75.7332 26.1216 75.7332 26.2637V26.3338H76.1481V26.6674H75.7332V27.9053H75.0425V26.6674Z"
      fill="#808285" />
  </g>
  <mask id="mask23_2130_10307" style="mask-type:luminance" maskUnits="userSpaceOnUse" x="4" y="0"
    width="97" height="43">
    <path d="M100.289 0H4.10449V43H100.289V0Z" fill="white" />
  </mask>
  <g mask="url(#mask23_2130_10307)">
    <path
      d="M14.4768 30.2006C14.4934 30.4546 14.7047 30.5367 15.0245 30.5367C15.2527 30.5367 15.4878 30.4757 15.4878 30.3159C15.4878 30.1258 15.0737 30.0887 14.6561 30.0017C14.2404 29.9138 13.807 29.7746 13.807 29.3771C13.807 28.9054 14.4437 28.7207 14.9882 28.7207C15.5656 28.7207 16.1467 28.9293 16.1507 29.4165H15.3954C15.4066 29.2204 15.1589 29.1563 14.9278 29.1563C14.7648 29.1563 14.561 29.1983 14.561 29.3414C14.561 29.5074 14.981 29.5385 15.4031 29.6255C15.821 29.7135 16.2426 29.8586 16.2426 30.2498C16.2426 30.7974 15.6182 30.972 14.981 30.972C14.3144 30.972 13.7244 30.7548 13.7207 30.2008L14.4768 30.2006Z"
      fill="#808285" />
  </g>
  <mask id="mask24_2130_10307" style="mask-type:luminance" maskUnits="userSpaceOnUse" x="4" y="0"
    width="97" height="43">
    <path d="M100.289 0H4.10449V43H100.289V0Z" fill="white" />
  </mask>
  <g mask="url(#mask24_2130_10307)">
    <path
      d="M17.4651 29.3105C18.118 29.3105 18.5784 29.6715 18.5784 30.1429C18.5784 30.6155 18.118 30.972 17.4651 30.972C16.8105 30.972 16.3555 30.6155 16.3555 30.1429C16.3557 29.6715 16.8105 29.3105 17.4651 29.3105ZM17.4651 30.5788C17.7857 30.5788 17.8867 30.3425 17.8867 30.1429C17.8867 29.9442 17.7857 29.7047 17.4651 29.7047C17.1439 29.7047 17.0459 29.9442 17.0459 30.1429C17.0461 30.3427 17.1439 30.5788 17.4651 30.5788Z"
      fill="#808285" />
  </g>
  <mask id="mask25_2130_10307" style="mask-type:luminance" maskUnits="userSpaceOnUse" x="4" y="0"
    width="97" height="43">
    <path d="M100.289 0H4.10449V43H100.289V0Z" fill="white" />
  </mask>
  <g mask="url(#mask25_2130_10307)">
    <path
      d="M18.9873 29.6889H18.6533V29.3557H18.9873C18.9873 28.9046 19.1976 28.7656 19.787 28.7656C19.8965 28.7656 20.0109 28.771 20.1204 28.7746V29.1381C20.0549 29.1317 19.9935 29.1285 19.9339 29.1285C19.7747 29.1285 19.6769 29.1435 19.6769 29.2856V29.3557H20.0915V29.6889H19.6769V30.9274H18.9873V29.6889Z"
      fill="#808285" />
  </g>
  <mask id="mask26_2130_10307" style="mask-type:luminance" maskUnits="userSpaceOnUse" x="4" y="0"
    width="97" height="43">
    <path d="M100.289 0H4.10449V43H100.289V0Z" fill="white" />
  </mask>
  <g mask="url(#mask26_2130_10307)">
    <path
      d="M21.7465 29.6895H21.3215V30.4042C21.3215 30.5266 21.4169 30.5547 21.5681 30.5547C21.625 30.5547 21.6864 30.5487 21.7465 30.5487V30.9279C21.6199 30.9293 21.4938 30.9419 21.369 30.9419C20.7799 30.9419 20.6295 30.8147 20.6295 30.3886V29.6895H20.2803V29.3562H20.6295V28.8809H21.3215V29.3562H21.7465V29.6895Z"
      fill="#808285" />
  </g>
  <mask id="mask27_2130_10307" style="mask-type:luminance" maskUnits="userSpaceOnUse" x="4" y="0"
    width="97" height="43">
    <path d="M100.289 0H4.10449V43H100.289V0Z" fill="white" />
  </mask>
  <g mask="url(#mask27_2130_10307)">
    <path
      d="M24.6516 30.9274H23.9522L23.6192 29.883H23.6115L23.2826 30.9274H22.5829L21.9248 29.3555H22.6248L22.9786 30.3727H22.9863L23.2863 29.3555H23.9447L24.253 30.3701H24.2621L24.6065 29.3555H25.31L24.6516 30.9274Z"
      fill="#808285" />
  </g>
  <mask id="mask28_2130_10307" style="mask-type:luminance" maskUnits="userSpaceOnUse" x="4" y="0"
    width="97" height="43">
    <path d="M100.289 0H4.10449V43H100.289V0Z" fill="white" />
  </mask>
  <g mask="url(#mask28_2130_10307)">
    <path
      d="M25.3958 29.8407C25.4086 29.6356 25.539 29.5015 25.7257 29.4194C25.9112 29.3414 26.1556 29.3105 26.3956 29.3105C26.8954 29.3105 27.379 29.3924 27.379 29.8377V30.5241C27.379 30.6577 27.379 30.8026 27.4595 30.9278H26.7648C26.7405 30.8789 26.733 30.8303 26.7237 30.7791C26.5452 30.9177 26.2817 30.9718 26.0298 30.9718C25.6272 30.9718 25.3105 30.8213 25.3105 30.4976C25.3105 29.986 26.0589 30.0254 26.5369 29.9538C26.6553 29.934 26.7202 29.9042 26.7202 29.8076C26.7202 29.6896 26.5297 29.6436 26.3865 29.6436C26.1965 29.6436 26.0736 29.7075 26.0426 29.8407H25.3958ZM26.2895 30.6549C26.6195 30.6549 26.729 30.5153 26.7124 30.1918C26.6157 30.2368 26.4359 30.2468 26.286 30.2769C26.1313 30.3039 26.0023 30.3523 26.0023 30.4759C26.0023 30.6039 26.1364 30.6549 26.2895 30.6549Z"
      fill="#808285" />
  </g>
  <mask id="mask29_2130_10307" style="mask-type:luminance" maskUnits="userSpaceOnUse" x="4" y="0"
    width="97" height="43">
    <path d="M100.289 0H4.10449V43H100.289V0Z" fill="white" />
  </mask>
  <g mask="url(#mask29_2130_10307)">
    <path
      d="M27.7598 29.3566H28.4298V29.6318H28.4379C28.5391 29.4327 28.7742 29.3262 29.0708 29.3262C29.1237 29.3262 29.1809 29.3298 29.2338 29.3387V29.8079C29.144 29.7898 29.0628 29.7781 28.9701 29.7781C28.6289 29.7781 28.4499 29.9541 28.4499 30.1499V30.9283H27.7598V29.3566Z"
      fill="#808285" />
  </g>
  <mask id="mask30_2130_10307" style="mask-type:luminance" maskUnits="userSpaceOnUse" x="4" y="0"
    width="97" height="43">
    <path d="M100.289 0H4.10449V43H100.289V0Z" fill="white" />
  </mask>
  <g mask="url(#mask30_2130_10307)">
    <path
      d="M30.0412 30.2677C30.0543 30.4821 30.2205 30.6242 30.5128 30.6242C30.6801 30.6242 30.8409 30.5673 30.9064 30.4522H31.5519C31.4271 30.8148 30.9756 30.9718 30.5051 30.9718C29.8173 30.9718 29.3506 30.6639 29.3506 30.1377C29.3506 29.6555 29.8668 29.3105 30.488 29.3105C31.2441 29.3105 31.6211 29.7346 31.5898 30.2679L30.0412 30.2677ZM30.8989 29.9794C30.8874 29.8043 30.7201 29.6583 30.488 29.6583C30.2451 29.6583 30.0819 29.7893 30.0412 29.9794H30.8989Z"
      fill="#808285" />
  </g>
  <mask id="mask31_2130_10307" style="mask-type:luminance" maskUnits="userSpaceOnUse" x="4" y="0"
    width="97" height="43">
    <path d="M100.289 0H4.10449V43H100.289V0Z" fill="white" />
  </mask>
  <g mask="url(#mask31_2130_10307)">
    <path
      d="M34.482 30.7449C34.2311 30.8988 33.9759 30.972 33.6505 30.972C33.1346 30.972 32.6836 30.7154 32.6836 30.3127C32.6836 30.0035 32.9919 29.8045 33.3419 29.6826C33.1987 29.5656 33.0852 29.4324 33.0852 29.2684C33.0852 28.9323 33.4955 28.7207 33.914 28.7207C34.3489 28.7207 34.7347 28.9359 34.7347 29.2809C34.7347 29.5325 34.5274 29.7075 34.2388 29.8164L34.5394 30.0856C34.5966 30.0217 34.6332 29.9486 34.6452 29.8739H35.2376C35.214 30.0676 35.0965 30.2582 34.9177 30.4001L35.5282 30.9278H34.6864L34.482 30.7449ZM33.686 30.0217C33.5455 30.0706 33.3497 30.1761 33.3497 30.3067C33.3497 30.4578 33.5455 30.5548 33.7315 30.5548C33.8616 30.5548 34.008 30.4759 34.1181 30.4003L33.686 30.0217ZM34.1702 29.2504C34.1702 29.1473 34.0678 29.0844 33.9268 29.0844C33.8007 29.0844 33.6994 29.1545 33.6994 29.2445C33.6994 29.3625 33.8122 29.4324 33.9025 29.517C34.0438 29.4525 34.1702 29.3806 34.1702 29.2504Z"
      fill="#808285" />
  </g>
  <mask id="mask32_2130_10307" style="mask-type:luminance" maskUnits="userSpaceOnUse" x="4" y="0"
    width="97" height="43">
    <path d="M100.289 0H4.10449V43H100.289V0Z" fill="white" />
  </mask>
  <g mask="url(#mask32_2130_10307)">
    <path d="M37.3302 28.7656H36.5732V30.9272H37.3302V28.7656Z" fill="#808285" />
  </g>
  <mask id="mask33_2130_10307" style="mask-type:luminance" maskUnits="userSpaceOnUse" x="4" y="0"
    width="97" height="43">
    <path d="M100.289 0H4.10449V43H100.289V0Z" fill="white" />
  </mask>
  <g mask="url(#mask33_2130_10307)">
    <path
      d="M37.7139 29.3565H38.3839V29.5715H38.393C38.5194 29.4103 38.8032 29.3105 39.0554 29.3105C39.7578 29.3105 39.8147 29.6926 39.8147 29.9197V30.928H39.123V30.1678C39.123 29.9538 39.1556 29.7346 38.7786 29.7346C38.5194 29.7346 38.4045 29.8986 38.4045 30.0706V30.928H37.7139V29.3565Z"
      fill="#808285" />
  </g>
  <mask id="mask34_2130_10307" style="mask-type:luminance" maskUnits="userSpaceOnUse" x="4" y="0"
    width="97" height="43">
    <path d="M100.289 0H4.10449V43H100.289V0Z" fill="white" />
  </mask>
  <g mask="url(#mask34_2130_10307)">
    <path
      d="M40.3095 29.6889H39.9766V29.3557H40.3095C40.3095 28.9046 40.5213 28.7656 41.1081 28.7656C41.2189 28.7656 41.3325 28.771 41.4426 28.7746V29.1381C41.3771 29.1317 41.317 29.1285 41.2563 29.1285C41.0968 29.1285 40.9996 29.1435 40.9996 29.2856V29.3557H41.4137V29.6889H40.9996V30.9274H40.3095V29.6889Z"
      fill="#808285" />
  </g>
  <mask id="mask35_2130_10307" style="mask-type:luminance" maskUnits="userSpaceOnUse" x="4" y="0"
    width="97" height="43">
    <path d="M100.289 0H4.10449V43H100.289V0Z" fill="white" />
  </mask>
  <g mask="url(#mask35_2130_10307)">
    <path
      d="M42.5699 29.3105C43.2237 29.3105 43.6832 29.6715 43.6832 30.1429C43.6832 30.6155 43.2237 30.972 42.5699 30.972C41.9167 30.972 41.4619 30.6155 41.4619 30.1429C41.4619 29.6715 41.9167 29.3105 42.5699 29.3105ZM42.5699 30.5788C42.8911 30.5788 42.992 30.3425 42.992 30.1429C42.992 29.9442 42.8911 29.7047 42.5699 29.7047C42.2488 29.7047 42.151 29.9442 42.151 30.1429C42.151 30.3427 42.2488 30.5788 42.5699 30.5788Z"
      fill="#808285" />
  </g>
  <mask id="mask36_2130_10307" style="mask-type:luminance" maskUnits="userSpaceOnUse" x="4" y="0"
    width="97" height="43">
    <path d="M100.289 0H4.10449V43H100.289V0Z" fill="white" />
  </mask>
  <g mask="url(#mask36_2130_10307)">
    <path
      d="M43.9551 29.3566H44.6249V29.6318H44.6326C44.735 29.4327 44.9704 29.3262 45.2667 29.3262C45.319 29.3262 45.3767 29.3298 45.4278 29.3387V29.8079C45.3391 29.7898 45.2584 29.7781 45.1657 29.7781C44.8239 29.7781 44.6463 29.9541 44.6463 30.1499V30.9283H43.9551V29.3566Z"
      fill="#808285" />
  </g>
  <mask id="mask37_2130_10307" style="mask-type:luminance" maskUnits="userSpaceOnUse" x="4" y="0"
    width="97" height="43">
    <path d="M100.289 0H4.10449V43H100.289V0Z" fill="white" />
  </mask>
  <g mask="url(#mask37_2130_10307)">
    <path
      d="M45.5645 29.3565H46.2367V29.5715H46.2442C46.3708 29.4141 46.5934 29.3105 46.8496 29.3105C47.1136 29.3105 47.3492 29.3744 47.4622 29.5656C47.6295 29.3983 47.8357 29.3105 48.1205 29.3105C48.7906 29.3105 48.8636 29.6896 48.8636 29.9896V30.928H48.1737V30.0035C48.1737 29.8345 48.0636 29.7344 47.8844 29.7344C47.5889 29.7344 47.5603 29.904 47.5603 30.158V30.9278H46.8699V30.0336C46.8699 29.8494 46.7975 29.7344 46.6094 29.7344C46.3614 29.7344 46.2548 29.8405 46.2548 30.1616V30.928H45.5645V29.3565Z"
      fill="#808285" />
  </g>
  <mask id="mask38_2130_10307" style="mask-type:luminance" maskUnits="userSpaceOnUse" x="4" y="0"
    width="97" height="43">
    <path d="M100.289 0H4.10449V43H100.289V0Z" fill="white" />
  </mask>
  <g mask="url(#mask38_2130_10307)">
    <path
      d="M49.1847 29.8407C49.1973 29.6356 49.3266 29.5015 49.5144 29.4194C49.7012 29.3414 49.9443 29.3105 50.184 29.3105C50.6839 29.3105 51.1675 29.3924 51.1675 29.8377V30.5241C51.1675 30.6577 51.1675 30.8026 51.2482 30.9278H50.5532C50.5287 30.8789 50.5206 30.8303 50.5132 30.7791C50.3344 30.9177 50.0712 30.9718 49.8182 30.9718C49.4153 30.9718 49.1006 30.8213 49.1006 30.4976C49.1006 29.986 49.8476 30.0254 50.3261 29.9538C50.444 29.934 50.5083 29.9042 50.5083 29.8076C50.5083 29.6896 50.3176 29.6436 50.1757 29.6436C49.9849 29.6436 49.8628 29.7075 49.831 29.8407H49.1847ZM50.0777 30.6549C50.4074 30.6549 50.5174 30.5153 50.5009 30.1918C50.4044 30.2368 50.2246 30.2468 50.0739 30.2769C49.92 30.3039 49.7902 30.3523 49.7902 30.4759C49.7902 30.6039 49.9238 30.6549 50.0777 30.6549Z"
      fill="#808285" />
  </g>
  <mask id="mask39_2130_10307" style="mask-type:luminance" maskUnits="userSpaceOnUse" x="4" y="0"
    width="97" height="43">
    <path d="M100.289 0H4.10449V43H100.289V0Z" fill="white" />
  </mask>
  <g mask="url(#mask39_2130_10307)">
    <path
      d="M52.7864 29.6895H52.3597V30.4042C52.3597 30.5266 52.4567 30.5547 52.6079 30.5547C52.6648 30.5547 52.725 30.5487 52.7864 30.5487V30.9279C52.6598 30.9293 52.5337 30.9419 52.4078 30.9419C51.8198 30.9419 51.6688 30.8147 51.6688 30.3886V29.6895H51.3193V29.3562H51.6688V28.8809H52.3597V29.3562H52.7864V29.6895Z"
      fill="#808285" />
  </g>
  <mask id="mask40_2130_10307" style="mask-type:luminance" maskUnits="userSpaceOnUse" x="4" y="0"
    width="97" height="43">
    <path d="M100.289 0H4.10449V43H100.289V0Z" fill="white" />
  </mask>
  <g mask="url(#mask40_2130_10307)">
    <path
      d="M53.6979 29.1586H53.0078V28.7656H53.6979V29.1586ZM53.0078 29.3557H53.6979V30.9276H53.0078V29.3557Z"
      fill="#808285" />
  </g>
  <mask id="mask41_2130_10307" style="mask-type:luminance" maskUnits="userSpaceOnUse" x="4" y="0"
    width="97" height="43">
    <path d="M100.289 0H4.10449V43H100.289V0Z" fill="white" />
  </mask>
  <g mask="url(#mask41_2130_10307)">
    <path
      d="M55.0898 29.3105C55.7436 29.3105 56.2029 29.6715 56.2029 30.1429C56.2029 30.6155 55.7436 30.972 55.0898 30.972C54.4347 30.972 53.9805 30.6155 53.9805 30.1429C53.9802 29.6715 54.4344 29.3105 55.0898 29.3105ZM55.0898 30.5788C55.4093 30.5788 55.5119 30.3425 55.5119 30.1429C55.5119 29.9442 55.4093 29.7047 55.0898 29.7047C54.7684 29.7047 54.6711 29.9442 54.6711 30.1429C54.6709 30.3427 54.7681 30.5788 55.0898 30.5788Z"
      fill="#808285" />
  </g>
  <mask id="mask42_2130_10307" style="mask-type:luminance" maskUnits="userSpaceOnUse" x="4" y="0"
    width="97" height="43">
    <path d="M100.289 0H4.10449V43H100.289V0Z" fill="white" />
  </mask>
  <g mask="url(#mask42_2130_10307)">
    <path
      d="M56.4551 29.3565H57.1257V29.5715H57.1329C57.2585 29.4103 57.5452 29.3105 57.7974 29.3105C58.4969 29.3105 58.5572 29.6926 58.5572 29.9197V30.928H57.8652V30.1678C57.8652 29.9538 57.8981 29.7346 57.5195 29.7346C57.2582 29.7346 57.1457 29.8986 57.1457 30.0706V30.928H56.4551V29.3565Z"
      fill="#808285" />
  </g>
  <mask id="mask43_2130_10307" style="mask-type:luminance" maskUnits="userSpaceOnUse" x="4" y="0"
    width="97" height="43">
    <path d="M100.289 0H4.10449V43H100.289V0Z" fill="white" />
  </mask>
  <g mask="url(#mask43_2130_10307)">
    <path
      d="M60.4179 30.2006C60.4358 30.4546 60.6475 30.5367 60.9686 30.5367C61.1962 30.5367 61.4306 30.4757 61.4306 30.3159C61.4306 30.1258 61.0175 30.0887 60.5975 30.0017C60.1847 29.9138 59.7489 29.7746 59.7489 29.3771C59.7489 28.9054 60.3867 28.7207 60.9317 28.7207C61.5091 28.7207 62.0883 28.9293 62.0937 29.4165H61.3373C61.3501 29.2204 61.1017 29.1563 60.8703 29.1563C60.7078 29.1563 60.5042 29.1983 60.5042 29.3414C60.5042 29.5074 60.9237 29.5385 61.3459 29.6255C61.7635 29.7135 62.1883 29.8586 62.1883 30.2498C62.1883 30.7974 61.5612 30.972 60.9237 30.972C60.2571 30.972 59.6685 30.7548 59.665 30.2008L60.4179 30.2006Z"
      fill="#808285" />
  </g>
  <mask id="mask44_2130_10307" style="mask-type:luminance" maskUnits="userSpaceOnUse" x="4" y="0"
    width="97" height="43">
    <path d="M100.289 0H4.10449V43H100.289V0Z" fill="white" />
  </mask>
  <g mask="url(#mask44_2130_10307)">
    <path
      d="M63.0071 30.2677C63.0196 30.4821 63.1861 30.6242 63.4789 30.6242C63.6454 30.6242 63.8067 30.5673 63.8738 30.4522H64.5196C64.3926 30.8148 63.9417 30.9718 63.4703 30.9718C62.7829 30.9718 62.3164 30.6639 62.3164 30.1377C62.3164 29.6555 62.8345 29.3105 63.4549 29.3105C64.2102 29.3105 64.5888 29.7346 64.5546 30.2679L63.0071 30.2677ZM63.8642 29.9794C63.8527 29.8043 63.6862 29.6583 63.4546 29.6583C63.2104 29.6583 63.0479 29.7893 63.0071 29.9794H63.8642Z"
      fill="#808285" />
  </g>
  <mask id="mask45_2130_10307" style="mask-type:luminance" maskUnits="userSpaceOnUse" x="4" y="0"
    width="97" height="43">
    <path d="M100.289 0H4.10449V43H100.289V0Z" fill="white" />
  </mask>
  <g mask="url(#mask45_2130_10307)">
    <path
      d="M64.8008 29.3566H65.4709V29.6318H65.4789C65.5809 29.4327 65.8166 29.3262 66.1118 29.3262C66.1647 29.3262 66.2232 29.3298 66.2769 29.3387V29.8079C66.1864 29.7898 66.1043 29.7781 66.0111 29.7781C65.6696 29.7781 65.4917 29.9541 65.4917 30.1499V30.9283H64.8008V29.3566Z"
      fill="#808285" />
  </g>
  <mask id="mask46_2130_10307" style="mask-type:luminance" maskUnits="userSpaceOnUse" x="4" y="0"
    width="97" height="43">
    <path d="M100.289 0H4.10449V43H100.289V0Z" fill="white" />
  </mask>
  <g mask="url(#mask46_2130_10307)">
    <path
      d="M67.8284 30.9274H67.0317L66.3301 29.3555H67.0485L67.433 30.394H67.4437L67.8295 29.3555H68.5351L67.8284 30.9274Z"
      fill="#808285" />
  </g>
  <mask id="mask47_2130_10307" style="mask-type:luminance" maskUnits="userSpaceOnUse" x="4" y="0"
    width="97" height="43">
    <path d="M100.289 0H4.10449V43H100.289V0Z" fill="white" />
  </mask>
  <g mask="url(#mask47_2130_10307)">
    <path
      d="M69.3547 29.1586H68.6641V28.7656H69.3547V29.1586ZM68.6641 29.3557H69.3547V30.9276H68.6641V29.3557Z"
      fill="#808285" />
  </g>
  <mask id="mask48_2130_10307" style="mask-type:luminance" maskUnits="userSpaceOnUse" x="4" y="0"
    width="97" height="43">
    <path d="M100.289 0H4.10449V43H100.289V0Z" fill="white" />
  </mask>
  <g mask="url(#mask48_2130_10307)">
    <path
      d="M71.1107 29.9301C71.1067 29.7959 70.9494 29.703 70.773 29.703C70.3864 29.703 70.3258 29.947 70.3258 30.1662C70.3258 30.3693 70.4455 30.5771 70.7367 30.5771C70.9764 30.5771 71.0979 30.474 71.1308 30.3079H71.8014C71.7391 30.7284 71.3028 30.9701 70.7423 30.9701C70.1059 30.9701 69.6367 30.6472 69.6367 30.166C69.6367 29.6655 70.0642 29.3086 70.7423 29.3086C71.2657 29.3086 71.7322 29.515 71.7827 29.9297H71.1107V29.9301Z"
      fill="#808285" />
  </g>
  <mask id="mask49_2130_10307" style="mask-type:luminance" maskUnits="userSpaceOnUse" x="4" y="0"
    width="97" height="43">
    <path d="M100.289 0H4.10449V43H100.289V0Z" fill="white" />
  </mask>
  <g mask="url(#mask49_2130_10307)">
    <path
      d="M72.6355 30.2677C72.6484 30.4821 72.8148 30.6242 73.1074 30.6242C73.2738 30.6242 73.4339 30.5673 73.5017 30.4522H74.1467C74.0211 30.8148 73.5696 30.9718 73.0975 30.9718C72.4116 30.9718 71.9443 30.6639 71.9443 30.1377C71.9443 29.6555 72.4619 29.3105 73.0822 29.3105C73.8373 29.3105 74.2159 29.7346 74.183 30.2679L72.6355 30.2677ZM73.4913 29.9794C73.4814 29.8043 73.315 29.6583 73.082 29.6583C72.8375 29.6583 72.6764 29.7893 72.6355 29.9794H73.4913Z"
      fill="#808285" />
  </g>
  <mask id="mask50_2130_10307" style="mask-type:luminance" maskUnits="userSpaceOnUse" x="4" y="0"
    width="97" height="43">
    <path d="M100.289 0H4.10449V43H100.289V0Z" fill="white" />
  </mask>
  <g mask="url(#mask50_2130_10307)">
    <path
      d="M74.9532 30.4098C74.9532 30.4881 74.9983 30.546 75.0675 30.585C75.1311 30.622 75.2246 30.64 75.3232 30.64C75.4547 30.64 75.6468 30.5974 75.6468 30.4733C75.6468 30.3523 75.4333 30.3282 75.3117 30.3067C74.8754 30.2247 74.3322 30.2157 74.3322 29.7921C74.3322 29.4141 74.8802 29.3105 75.2938 29.3105C75.7595 29.3105 76.2391 29.4103 76.2663 29.8198H75.627C75.627 29.7531 75.5944 29.7107 75.5377 29.6828C75.4803 29.6557 75.4036 29.6438 75.3192 29.6438C75.2051 29.6438 75.0213 29.6528 75.0213 29.7624C75.0213 29.91 75.4856 29.938 75.8006 29.99C76.2284 30.0521 76.3377 30.2832 76.3377 30.4132C76.3377 30.8333 75.8006 30.9724 75.3267 30.9724C74.8268 30.9724 74.3154 30.849 74.2959 30.4102H74.9532V30.4098Z"
      fill="#808285" />
  </g>
  <mask id="mask51_2130_10307" style="mask-type:luminance" maskUnits="userSpaceOnUse" x="4" y="0"
    width="97" height="43">
    <path d="M100.289 0H4.10449V43H100.289V0Z" fill="white" />
  </mask>
  <g mask="url(#mask51_2130_10307)">
    <path
      d="M13.7207 12.249H20.0317C22.9205 12.249 25.8666 12.7608 25.8666 15.3044C25.8666 16.2697 25.2128 17.2193 23.909 17.5279V17.6141C25.5297 18.0403 26.5578 18.9156 26.5578 20.2311C26.5578 22.498 23.7105 23.2741 21.0996 23.2741H13.7207V12.249ZM19.2403 16.4887C20.0317 16.4887 20.9222 16.4304 20.9222 15.6715C20.9222 14.8511 19.912 14.91 19.1206 14.91H18.745V16.4887H19.2403ZM18.745 20.6414H19.3584C20.2487 20.6414 21.5362 20.6271 21.5362 19.7199C21.5362 18.7994 20.1495 18.8129 19.2788 18.8129H18.745V20.6414Z"
      fill="#808285" />
  </g>
  <mask id="mask52_2130_10307" style="mask-type:luminance" maskUnits="userSpaceOnUse" x="4" y="0"
    width="97" height="43">
    <path d="M100.289 0H4.10449V43H100.289V0Z" fill="white" />
  </mask>
  <g mask="url(#mask52_2130_10307)">
    <path
      d="M32.7098 23.2749H26.9727L32.1559 12.25H38.1487L43.4709 23.2749H37.7335L37.2379 21.8995H33.1455L32.7098 23.2749ZM36.2889 19.2819L35.6541 17.3371C35.4967 16.8695 35.3997 16.3868 35.3003 15.9195H35.1021L34.1125 19.2819H36.2889Z"
      fill="#808285" />
  </g>
  <mask id="mask53_2130_10307" style="mask-type:luminance" maskUnits="userSpaceOnUse" x="4" y="0"
    width="97" height="43">
    <path d="M100.289 0H4.10449V43H100.289V0Z" fill="white" />
  </mask>
  <g mask="url(#mask53_2130_10307)">
    <path
      d="M45.4937 19.3257L45.7705 19.4867C46.739 20.0422 47.9063 20.4951 49.1532 20.4951C49.6868 20.4951 50.5364 20.3342 50.5364 19.8371C50.5364 19.341 49.8239 19.2954 49.3312 19.2228L48.2419 19.077C46.1256 18.7997 44.3451 17.8782 44.3451 16.1525C44.3451 13.535 47.5686 12.0742 50.8122 12.0742C52.5136 12.0742 54.0765 12.3804 55.5418 13.0391L54.0765 15.8604C53.1481 15.3928 52.0992 15.0269 50.9308 15.0269C50.4571 15.0269 49.7648 15.1595 49.7648 15.6124C49.7648 16.0215 50.4389 16.0806 50.8533 16.1525L52.0802 16.3581C54.3752 16.7379 56.0347 17.6443 56.0347 19.5158C56.0347 22.1478 52.793 23.4497 49.5684 23.4497C47.6875 23.4497 45.5119 23.0695 43.8311 22.441L45.4937 19.3257Z"
      fill="#808285" />
  </g>
  <mask id="mask54_2130_10307" style="mask-type:luminance" maskUnits="userSpaceOnUse" x="4" y="0"
    width="97" height="43">
    <path d="M100.289 0H4.10449V43H100.289V0Z" fill="white" />
  </mask>
  <g mask="url(#mask54_2130_10307)">
    <path d="M63.1826 12.25H57.7637V23.2749H63.1826V12.25Z" fill="#808285" />
  </g>
  <mask id="mask55_2130_10307" style="mask-type:luminance" maskUnits="userSpaceOnUse" x="4" y="0"
    width="97" height="43">
    <path d="M100.289 0H4.10449V43H100.289V0Z" fill="white" />
  </mask>
  <g mask="url(#mask55_2130_10307)">
    <path
      d="M66.5765 19.3257L66.8549 19.4867C67.8242 20.0422 68.9897 20.4951 70.2387 20.4951C70.771 20.4951 71.6209 20.3342 71.6209 19.8371C71.6209 19.341 70.9107 19.2954 70.4153 19.2228L69.3287 19.077C67.2087 18.7997 65.4301 17.8782 65.4301 16.1525C65.4301 13.535 68.6546 12.0742 71.8982 12.0742C73.599 12.0742 75.1626 12.3804 76.6251 13.0391L75.1623 15.8604C74.2307 15.3928 73.1841 15.0269 72.0179 15.0269C71.5434 15.0269 70.85 15.1595 70.85 15.6124C70.85 16.0215 71.522 16.0806 71.9388 16.1525L73.1646 16.3581C75.4589 16.7379 77.1188 17.6443 77.1188 19.5158C77.1188 22.1478 73.8758 23.4497 70.6529 23.4497C68.7733 23.4497 66.5963 23.0695 64.916 22.441L66.5765 19.3257Z"
      fill="#808285" />
  </g>
  <mask id="mask56_2130_10307" style="mask-type:luminance" maskUnits="userSpaceOnUse" x="4" y="0"
    width="97" height="43">
    <path d="M100.289 0H4.10449V43H100.289V0Z" fill="white" />
  </mask>
  <g mask="url(#mask56_2130_10307)">
    <path
      d="M80.3516 20.6357V17.7754L83.6138 19.2061L86.907 20.6357L83.6285 22.0654L80.3516 23.4954V20.6357Z"
      fill="#6EC8BF" />
  </g>
  <mask id="mask57_2130_10307" style="mask-type:luminance" maskUnits="userSpaceOnUse" x="4" y="0"
    width="97" height="43">
    <path d="M100.289 0H4.10449V43H100.289V0Z" fill="white" />
  </mask>
  <g mask="url(#mask57_2130_10307)">
    <path
      d="M80.3516 14.8884V12.0283L83.6138 13.4591L86.907 14.8884L83.6285 16.3192L80.3516 17.7487V14.8884Z"
      fill="#007F3E" />
  </g>
  <mask id="mask58_2130_10307" style="mask-type:luminance" maskUnits="userSpaceOnUse" x="0" y="0"
    width="105" height="43">
    <path d="M104.072 0H0.293945V43H104.072V0Z" fill="white" />
  </mask>
  <g mask="url(#mask58_2130_10307)">
    <path
      d="M81.6553 16.4319V13.7812L84.8721 15.1058L88.1418 16.4319L84.8999 17.7574L81.6553 19.0831V16.4319Z"
      fill="#ED1C24" />
  </g>
  <path
    d="M88.8161 12.0283C89.0803 12.0283 89.3299 12.0638 89.5642 12.135C89.799 12.2063 90.0069 12.3098 90.1899 12.446C90.3673 12.5796 90.5044 12.734 90.6003 12.9094C90.6967 13.0848 90.7448 13.2691 90.7448 13.4624C90.7448 13.6583 90.6975 13.8419 90.603 14.0129C90.5084 14.1837 90.3705 14.335 90.1899 14.4658C90.0007 14.6031 89.7875 14.7091 89.55 14.7833C89.3133 14.8578 89.068 14.895 88.8161 14.895C88.562 14.895 88.3197 14.8588 88.0896 14.7863C87.8593 14.7138 87.6512 14.6081 87.465 14.4696C87.2811 14.3334 87.1406 14.1789 87.0433 14.0061C86.9461 13.8333 86.8975 13.6522 86.8975 13.4624C86.8975 13.2705 86.9469 13.0868 87.0447 12.9114C87.1425 12.7358 87.2843 12.5782 87.4703 12.4384C87.6461 12.3048 87.8492 12.2031 88.0795 12.1332C88.3092 12.0634 88.5548 12.0283 88.8161 12.0283ZM90.3505 13.4617C90.3505 13.309 90.312 13.1636 90.2353 13.0253C90.1586 12.8867 90.0486 12.7641 89.9059 12.6574C89.7573 12.5469 89.5917 12.4633 89.4081 12.407C89.2249 12.3504 89.0293 12.322 88.8209 12.322C88.6114 12.322 88.4153 12.3496 88.2331 12.405C88.0506 12.4603 87.8882 12.5417 87.7468 12.6498C87.6004 12.7603 87.4877 12.8853 87.4096 13.0253C87.3308 13.165 87.2921 13.3106 87.2921 13.4617C87.2921 13.6128 87.3311 13.7573 87.4086 13.895C87.4861 14.0332 87.5972 14.1558 87.742 14.2639C87.8892 14.3734 88.0543 14.4566 88.2384 14.5146C88.4223 14.5725 88.6168 14.6012 88.8211 14.6012C89.0245 14.6012 89.2195 14.5721 89.4057 14.5136C89.5925 14.455 89.7608 14.3706 89.9112 14.2601C90.056 14.1546 90.1653 14.0342 90.2396 13.8988C90.3136 13.7636 90.3505 13.6181 90.3505 13.4617ZM89.1602 13.1917C89.1551 13.1117 89.1231 13.0486 89.0637 13.003C89.0042 12.9572 88.9248 12.9343 88.8262 12.9343C88.702 12.9343 88.6047 12.9799 88.5337 13.0707C88.4631 13.1615 88.4281 13.2897 88.4281 13.4549C88.4281 13.6215 88.4626 13.7465 88.5323 13.8297C88.6023 13.913 88.7071 13.9548 88.8468 13.9548C88.9486 13.9548 89.0266 13.9315 89.0808 13.8851C89.1359 13.8385 89.1653 13.7708 89.1706 13.6818L89.8054 13.68C89.795 13.8696 89.7023 14.0205 89.5262 14.1329C89.351 14.2454 89.1193 14.3017 88.8313 14.3017C88.4992 14.3017 88.2374 14.2281 88.0471 14.0806C87.8572 13.9331 87.7626 13.7296 87.7626 13.4702C87.7626 13.2158 87.8572 13.0104 88.0461 12.8531C88.2355 12.696 88.4821 12.6176 88.7853 12.6176C89.0854 12.6176 89.3229 12.6681 89.4976 12.7693C89.6724 12.8704 89.7664 13.0111 89.78 13.1917H89.1602Z"
    fill="#808285" />
</svg>