<svg width="53" height="31" viewBox="0 0 53 31" fill="none" xmlns="http://www.w3.org/2000/svg">
  <g clip-path="url(#clip0_2130_10546)">
    <path
      d="M39.6975 23.6781C38.5432 23.2433 37.8699 24.0994 37.1254 25.0863C35.671 27.0101 34.0819 28.8358 31.8888 29.9939C30.1343 30.9192 28.2952 31.3117 26.3637 30.7191C25.3864 30.419 24.6169 29.7419 24.0282 28.9012C23.0297 27.4737 22.7258 25.8885 22.8585 24.1513C23.1298 20.5846 24.6515 17.4873 26.3579 14.4554C28.1678 11.2142 30.3557 8.19911 32.8757 5.47321C34.7129 3.49747 36.6829 1.6564 39.1915 0.534833C40.3458 0.0173322 41.5789 -0.178895 42.8217 0.190474C44.0645 0.559842 44.9379 1.88149 44.9956 3.31471C45.061 5.01727 44.5685 6.58516 43.8298 8.0761C42.9108 9.98863 41.6357 11.7084 40.0726 13.1434C39.7183 13.4717 39.3161 13.7441 38.8799 13.9514C38.0218 14.3361 37.2773 14.0956 36.7387 13.3281C36.5132 13.0035 36.4072 12.6108 36.4388 12.2169C36.4704 11.8229 36.6375 11.4521 36.9118 11.1676C37.3045 10.7498 37.7297 10.3638 38.1834 10.0134C39.8703 8.74738 41.1724 7.0377 41.9445 5.07498C42.0959 4.65657 42.1815 4.21722 42.1984 3.77258C42.235 3.12233 41.8463 2.82222 41.2846 3.13195C40.2534 3.69947 39.1973 4.27276 38.3027 5.02304C35.0188 7.77791 32.3524 11.083 30.1266 14.7324C28.7844 16.9079 27.7688 19.2685 27.112 21.7389C26.8004 22.9278 26.5714 24.1417 26.7677 25.371C27.0678 27.2467 28.6915 28.2894 30.5229 27.3236C32.2736 26.4002 33.6798 25.042 34.8668 23.4761C36.9099 20.7828 38.9068 18.0587 40.9095 15.3442C41.0634 15.1364 41.1807 14.9017 41.3231 14.6843C41.4402 14.4737 41.5788 14.2758 41.7367 14.0937C41.8953 13.9096 42.1055 13.7774 42.3402 13.7143C42.5748 13.6512 42.823 13.66 43.0526 13.7397C43.6028 13.9148 43.7259 14.3496 43.749 14.8286C43.8086 15.9964 43.8067 17.1699 43.8875 18.3376C44.0452 20.6346 44.2184 22.9336 44.4415 25.2267C44.507 25.9 44.7647 26.5561 44.936 27.2198C45.0495 27.6507 44.4666 28.9165 44.0703 29.0839C44.007 29.1157 43.934 29.1219 43.8663 29.1012C43.2199 28.6972 42.4543 28.426 42.3273 27.4968C42.1734 26.3579 41.981 25.2229 41.7636 24.0955C41.7274 23.9957 41.6675 23.906 41.5891 23.8344C41.5107 23.7627 41.4162 23.711 41.3135 23.6838C40.7753 23.6517 40.2358 23.6497 39.6975 23.6781ZM41.6424 19.2533L41.3943 19.2052C41.0441 19.6939 40.6825 20.1671 40.3477 20.6769C40.2149 20.9093 40.0979 21.1503 39.9976 21.3984C40.2573 21.4465 40.517 21.5023 40.7786 21.5369C40.9427 21.5667 41.1109 21.5667 41.275 21.5369C41.4077 21.5061 41.6232 21.4003 41.6251 21.3195C41.6482 20.6385 41.6367 19.9498 41.6367 19.261L41.6424 19.2533Z"
      fill="#3166AC" />
    <path
      d="M0.0712891 25.1274C0.202107 23.1613 0.80233 21.6857 1.81809 20.3929C3.49837 18.1981 5.78212 16.5408 8.38977 15.6238C9.01085 15.427 9.66382 15.3506 10.3136 15.3988C12.0296 15.4892 12.8145 17.1109 11.9161 18.7038C10.7387 20.82 8.96691 22.2609 6.7507 23.144C5.82728 23.5095 4.82691 23.7211 3.86501 23.9577C3.3552 24.0885 3.234 24.3425 3.54951 24.783C4.0824 25.5256 4.86923 25.541 5.66568 25.4852C6.76609 25.4083 7.7376 24.9408 8.65141 24.3733C9.4517 23.8769 10.2039 23.2998 10.985 22.7727C11.3054 22.5547 11.6403 22.3586 11.9873 22.1859C12.175 22.0821 12.3932 22.0471 12.604 22.0872C12.8148 22.1272 13.0049 22.2397 13.1415 22.4052C13.3018 22.5658 13.4037 22.7753 13.4313 23.0005C13.4588 23.2256 13.4103 23.4535 13.2935 23.648C13.09 24.022 12.8224 24.3573 12.5028 24.6387C10.1943 26.5625 7.66258 28.0188 4.61529 28.3093C2.97045 28.4671 1.43911 28.0939 0.532999 26.5202C0.263668 26.0258 0.167479 25.4217 0.0712891 25.1274ZM4.88077 21.7396C4.93708 21.7333 4.99297 21.7236 5.04814 21.7107C6.75455 21.2105 8.25318 20.3891 9.26317 18.8674C9.39784 18.675 9.39014 18.371 9.45555 18.119C9.19199 18.0863 8.89573 17.9593 8.6668 18.0344C6.92384 18.6 5.65414 19.785 4.62683 21.2452C4.41329 21.5145 4.471 21.7511 4.88077 21.7396Z"
      fill="#3166AC" />
    <path
      d="M51.7192 15.9674C51.7346 17.0909 51.2421 18.0086 50.5264 18.8223C50.2609 19.1244 50.1917 19.3456 50.588 19.5592C52.127 20.3979 52.5445 21.81 52.3309 23.3914C52.0174 25.6999 50.738 27.2832 48.4583 27.9873C47.9024 28.1585 47.3656 28.3836 46.8154 28.5644C46.7152 28.595 46.6072 28.5861 46.5134 28.5394C46.1286 28.322 45.615 27.2332 45.7266 26.7965C46.0728 25.4325 46.1113 24.0551 46.0497 22.6565C45.994 21.5022 46.017 20.3479 46.0151 19.1936C46.0151 18.755 46.0151 18.4241 45.3803 18.4434C44.6973 18.4645 44.1721 17.4699 44.5838 16.9043C45.6515 15.4269 46.9251 14.1437 48.7508 13.6454C50.4379 13.1837 51.7076 14.2129 51.7192 15.9674ZM48.3121 25.825C49.5895 25.2959 50.4187 23.5491 50.082 22.2025C50.0313 21.9859 49.9538 21.7765 49.8512 21.5791C49.6261 21.1578 49.1086 20.9905 48.5911 21.1617C48.1698 21.3002 48.1428 21.6292 48.1563 22.0158C48.1986 23.1701 48.2102 24.3244 48.2371 25.4671C48.2535 25.5849 48.2785 25.7013 48.3121 25.8153V25.825ZM47.81 16.8274C47.8504 17.2852 47.8639 17.6585 47.9293 18.022C47.9428 18.0971 48.2486 18.199 48.264 18.1798C48.745 17.4892 49.2163 16.7927 49.6549 16.0752C49.6915 16.0175 49.5184 15.7289 49.3991 15.6904C48.9585 15.5538 47.8158 16.458 47.81 16.8178V16.8274Z"
      fill="#3166AC" />
    <path
      d="M18.149 19.0137C19.2186 19.0695 19.9439 19.0925 20.6653 19.1503C21.5195 19.2195 21.9504 19.8005 21.8773 20.7374C21.8119 21.555 21.3002 22.0071 20.4595 21.9494C19.0339 21.8513 17.6161 21.8089 16.2002 22.1148C15.4672 22.2726 14.7689 21.6762 14.6496 20.8644C14.5303 20.0525 15.0998 19.2426 15.8847 19.158C16.7408 19.0656 17.6142 19.0464 18.149 19.0137Z"
      fill="#3166AC" />
  </g>
  <defs>
    <clipPath id="clip0_2130_10546">
      <rect width="52.3079" height="31" fill="white" transform="translate(0.0712891)" />
    </clipPath>
  </defs>
</svg>