<svg width="52" height="40" viewBox="0 0 52 40" fill="none" xmlns="http://www.w3.org/2000/svg">
  <path d="M10.1799 27.4531H13.0848L10.9166 39.9995H8.01172L10.1799 27.4531Z" fill="#3166AC" />
  <path
    d="M20.4354 37.9286H17.1447L16.3296 39.9995H13.3701L19.0639 27.4531H22.2256L23.582 39.9995H20.5468L20.4354 37.9286ZM20.303 35.2156L20.0471 30.7054L18.2431 35.2156H20.303Z"
    fill="#3166AC" />
  <path
    d="M26.4054 27.4531H35.2161L34.6808 30.5512H31.7247L30.0918 39.9995H27.1934L28.8263 30.5512H25.8701L26.4054 27.4531Z"
    fill="#3166AC" />
  <path
    d="M40.9238 37.9286H37.633L36.8179 39.9995H33.8584L39.5521 27.4531H42.7137L44.0703 39.9995H41.0352L40.9238 37.9286ZM40.7913 35.2156L40.5354 30.7054L38.7314 35.2156H40.7913Z"
    fill="#3166AC" />
  <path
    d="M0.5 13.0381H16.4674C16.4674 13.0381 16.5315 14.9194 18.1667 17.5061C19.8019 20.0928 22.944 21.7781 22.944 21.7781C22.944 21.7781 22.0783 24.992 19.6095 24.992C17.1406 24.992 11.2089 24.992 10.5035 24.992C9.22106 24.992 8.03476 22.562 8.03476 22.562C8.03476 22.562 16.5595 22.562 16.8721 22.562C17.1847 22.562 17.2328 21.8271 16.8721 21.8271C16.5114 21.8271 8.84035 21.8271 7.9025 21.8271C6.70014 21.8271 5.44969 19.4315 5.44969 19.4315C5.44969 19.4315 15.3331 19.4315 15.6096 19.4315C15.8862 19.4315 15.8862 18.6819 15.6096 18.6819C15.3331 18.6819 5.75028 18.6819 5.05291 18.6819C4.01888 18.6819 3.12913 16.2127 3.12913 16.2127C3.12913 16.2127 13.9263 16.2127 14.2149 16.2127C14.5035 16.2127 14.6477 15.4779 14.2149 15.4779C13.7821 15.4779 3.02092 15.4779 2.52795 15.4779C1.75844 15.4779 0.5 13.0381 0.5 13.0381Z"
    fill="#3166AC" />
  <path
    d="M51.4998 13.0381H35.5324C35.5324 13.0381 35.4682 14.9194 33.833 17.5061C32.1978 20.0928 29.0557 21.7781 29.0557 21.7781C29.0557 21.7781 29.9214 24.992 32.3901 24.992C34.8591 24.992 40.7907 24.992 41.4962 24.992C42.7785 24.992 43.9649 22.562 43.9649 22.562C43.9649 22.562 35.4402 22.562 35.1276 22.562C34.815 22.562 34.7669 21.8271 35.1276 21.8271C35.4883 21.8271 43.1594 21.8271 44.0972 21.8271C45.2996 21.8271 46.55 19.4315 46.55 19.4315C46.55 19.4315 36.6666 19.4315 36.3901 19.4315C36.1135 19.4315 36.1135 18.6819 36.3901 18.6819C36.6666 18.6819 46.2494 18.6819 46.9468 18.6819C47.9808 18.6819 48.8706 16.2127 48.8706 16.2127C48.8706 16.2127 38.0734 16.2127 37.7848 16.2127C37.4962 16.2127 37.352 15.4779 37.7848 15.4779C38.2177 15.4779 48.9788 15.4779 49.4718 15.4779C50.2413 15.4779 51.4998 13.0381 51.4998 13.0381Z"
    fill="#3166AC" />
  <path
    d="M25.7442 14.1611V10.1299H22.2002C22.2411 11.9558 22.5942 13.4919 23.0749 14.753C23.8035 14.4333 24.6902 14.1974 25.7442 14.1611Z"
    fill="#3166AC" />
  <path
    d="M22.7916 3.87105C23.0951 3.17816 23.423 2.59167 23.7321 2.11207C24.4061 1.06608 25.077 0.37401 25.4839 0.00292969C23.7392 0.144378 22.1472 0.966373 20.8848 2.25622C21.0196 2.44329 21.6394 3.24259 22.7916 3.87105Z"
    fill="#3166AC" />
  <path
    d="M25.7411 4.66231V0.663086C25.1697 1.20912 24.147 2.34976 23.3457 4.13591C24.0056 4.4181 24.8017 4.6268 25.7411 4.66231Z"
    fill="#3166AC" />
  <path
    d="M28.69 15.3898C28.0342 15.1106 27.2445 14.9035 26.3135 14.8672V18.8588C26.8929 18.2993 27.9009 17.1594 28.69 15.3898Z"
    fill="#3166AC" />
  <path
    d="M29.4912 4.52174C29.9851 5.83392 30.3661 7.4671 30.407 9.42432H34.0353C33.959 6.79396 33.0353 4.42885 31.5868 2.72266C31.4057 2.97827 30.7299 3.84742 29.4912 4.52174Z"
    fill="#3166AC" />
  <path
    d="M31.1589 2.25012C29.8894 0.955568 28.2873 0.133335 26.5322 0C26.9389 0.370375 27.6116 1.06339 28.2876 2.11231C28.5985 2.59474 28.9284 3.18534 29.2333 3.88353C30.4161 3.24425 31.0374 2.42237 31.1589 2.25012Z"
    fill="#3166AC" />
  <path
    d="M26.3135 0.691406V4.66147C27.2425 4.62549 28.0296 4.42126 28.6833 4.14494C27.895 2.38396 26.8913 1.24908 26.3135 0.691406Z"
    fill="#3166AC" />
  <path
    d="M25.7443 9.42411V5.36728C24.6937 5.33094 23.8093 5.09649 23.0822 4.77832C22.5975 6.04371 22.2408 7.58741 22.2002 9.42411H25.7443Z"
    fill="#3166AC" />
  <path
    d="M21.6149 9.42434C21.656 7.46276 22.0385 5.82653 22.5341 4.51293C21.315 3.84497 20.6458 2.99111 20.4594 2.72949C19.0143 4.43522 18.0928 6.79762 18.0166 9.42446H21.6149V9.42434Z"
    fill="#3166AC" />
  <path
    d="M22.5274 15.0194C22.0355 13.7097 21.6563 12.0809 21.615 10.1299H18.0166C18.0927 12.7507 19.0099 15.1084 20.4494 16.8132C20.6208 16.5697 21.2903 15.6991 22.5274 15.0194Z"
    fill="#3166AC" />
  <path
    d="M28.9484 4.78516C28.2267 5.09874 27.3516 5.32966 26.3135 5.36682V9.42389H29.8276C29.7871 7.5906 29.4317 6.04925 28.9484 4.78516Z"
    fill="#3166AC" />
  <path
    d="M30.4101 10.1299C30.3688 12.0764 29.9913 13.7023 29.501 15.0105C30.7622 15.699 31.437 16.587 31.5997 16.82C33.0426 15.1148 33.9623 12.7543 34.0384 10.1299H30.4101Z"
    fill="#3166AC" />
  <path
    d="M29.2247 15.6523C28.9181 16.3565 28.5859 16.9518 28.273 17.4374C27.5941 18.4906 26.9188 19.1849 26.5127 19.5541C28.2745 19.4217 29.8821 18.5945 31.1546 17.2927C31.0604 17.1582 30.4356 16.3103 29.2247 15.6523Z"
    fill="#3166AC" />
  <path
    d="M26.3135 10.1299V14.1613C27.3549 14.1986 28.2324 14.4309 28.9555 14.746C29.4348 13.4863 29.7868 11.9525 29.8275 10.13H26.3135V10.1299Z"
    fill="#3166AC" />
  <path
    d="M20.875 17.2864C22.1404 18.5837 23.7381 19.4106 25.4896 19.5512C25.0831 19.1812 24.4096 18.4877 23.7328 17.4375C23.4211 16.9539 23.0903 16.3616 22.7847 15.6611C21.6014 16.3085 20.9826 17.1342 20.875 17.2864Z"
    fill="#3166AC" />
  <path
    d="M25.7287 18.887V14.8662C24.7854 14.9017 23.9867 15.1121 23.3252 15.3959C24.1276 17.1923 25.1553 18.3389 25.7287 18.887Z"
    fill="#3166AC" />
</svg>
  