<svg width="213" height="71" viewBox="0 0 213 71" fill="none" xmlns="http://www.w3.org/2000/svg">
<g clip-path="url(#clip0_2009_25148)">
<path d="M1.87941 0.2H43.1206C44.0798 0.2 44.8 0.854926 44.8 1.5975V28.4025C44.8 29.1451 44.0798 29.8 43.1206 29.8H1.87941C0.920187 29.8 0.2 29.1451 0.2 28.4025V1.5975C0.2 0.854926 0.920187 0.2 1.87941 0.2Z" fill="white" stroke="#EDEDED" stroke-width="0.4"/>
<path d="M19.2872 19.0653H16.6719L18.3078 10.4688H20.923L19.2872 19.0653Z" fill="#00579F"/>
<path d="M28.7642 10.6786C28.0161 10.4336 27.2207 10.3094 26.4189 10.3126C23.8363 10.3126 22.0178 11.4833 22.0072 13.1566C21.986 14.3911 23.3095 15.0773 24.3013 15.4891C25.3134 15.9098 25.6566 16.1843 25.6566 16.5593C25.646 17.1353 24.8386 17.4008 24.086 17.4008C23.2364 17.4209 22.3939 17.2638 21.6322 16.9433L21.2881 16.8061L20.9219 18.7358C21.8516 19.0422 22.8409 19.1974 23.838 19.1933C26.5822 19.1933 28.3681 18.0406 28.3892 16.2578C28.3998 15.2828 27.701 14.5328 26.1939 13.9163C25.2789 13.5233 24.7195 13.2578 24.7195 12.8551C24.7301 12.4891 25.1934 12.1141 26.2257 12.1141C26.896 12.0974 27.5621 12.21 28.1739 12.4433L28.4104 12.5348L28.7633 10.6786H28.7642Z" fill="#00579F"/>
<path d="M32.24 16.0188C32.4553 15.5253 33.2839 13.6136 33.2839 13.6136C33.2733 13.6316 33.4991 13.1103 33.6279 12.7886L33.8106 13.5296C33.8106 13.5296 34.3056 15.5876 34.4133 16.0174L32.24 16.0188ZM35.4677 10.4689H33.4445C33.1554 10.4392 32.8629 10.4935 32.6148 10.623C32.3666 10.7525 32.1774 10.9495 32.0777 11.1821L28.1953 19.0654H30.9394L31.4882 17.7761H34.8456C34.9206 18.0761 35.158 19.0654 35.158 19.0654H37.5791L35.4685 10.4673L35.4677 10.4689Z" fill="#00579F"/>
<path d="M14.4874 10.4688L11.9286 16.3308L11.6489 15.142C11.0103 13.602 9.72088 12.3189 8.03125 11.542L10.3774 19.06H13.1427L17.2536 10.4725L14.4874 10.4688Z" fill="#00579F"/>
<path d="M9.54717 10.4671H5.34011L5.29688 10.6411C6.7102 10.8878 8.02981 11.4278 9.13822 12.2129C10.2466 12.9981 11.1094 14.004 11.6498 15.1411L10.7348 11.1901C10.679 10.966 10.5268 10.7676 10.3079 10.6339C10.089 10.5001 9.81933 10.4406 9.55158 10.4671H9.54717Z" fill="#FAA61A"/>
</g>
<g clip-path="url(#clip1_2009_25148)">
<path d="M57.8794 0.2H99.1206C100.08 0.2 100.8 0.854925 100.8 1.5975V28.4025C100.8 29.1451 100.08 29.8 99.1206 29.8H57.8794C56.9202 29.8 56.2 29.1451 56.2 28.4025V1.5975C56.2 0.854927 56.9202 0.2 57.8794 0.2Z" fill="white" stroke="#EDEDED" stroke-width="0.4"/>
<path fill-rule="evenodd" clip-rule="evenodd" d="M66.5859 5.25H89.8801V25.05H66.5859V5.25Z" fill="#2F6EB7"/>
<path fill-rule="evenodd" clip-rule="evenodd" d="M75.0625 21.9153V14.8203H89.8801V16.8003L88.1977 18.3404L89.8801 19.9353V21.9153H87.1625L85.6742 20.5403L84.2507 21.9153H75.0625Z" fill="#FFF8F8"/>
<path fill-rule="evenodd" clip-rule="evenodd" d="M76.0391 21.1448V15.5898H81.539V16.8548H77.8508V17.7348H81.4744V18.9998H77.8508V19.8248H81.539V21.1448H76.0391Z" fill="#2F6EB7"/>
<path fill-rule="evenodd" clip-rule="evenodd" d="M81.5391 21.1448L84.5803 18.3398L81.5391 15.5898H83.8685L85.745 17.3498L87.6214 15.5898H89.8861V15.6448L86.9097 18.3398L89.8861 21.0348V21.1448H87.6214L85.745 19.3298L83.8038 21.1448H81.5391Z" fill="#2F6EB7"/>
<path fill-rule="evenodd" clip-rule="evenodd" d="M75.7117 8.49609H79.3352L80.5646 10.9161V8.49609H85.0293L85.7411 10.3111L86.5176 8.49609H89.8823V15.5911H72.0234L75.7117 8.49609Z" fill="#FFF8F8"/>
<path fill-rule="evenodd" clip-rule="evenodd" d="M76.4274 9.26562L73.5156 14.8207H75.5215L76.0392 13.7206H79.0156L79.5333 14.8207H81.5391L78.6921 9.26562H76.4274ZM76.6862 12.4557L77.5274 10.6957L78.3686 12.4557H76.6862Z" fill="#2F6EB7"/>
<path fill-rule="evenodd" clip-rule="evenodd" d="M81.5391 14.8207V9.26562H84.3214L85.8096 12.6756L87.2331 9.26562H89.8861V14.8207H88.2037V11.0256L86.5214 14.8207H84.9685L83.2861 11.0256V14.8207H81.5391Z" fill="#2F6EB7"/>
</g>
<g clip-path="url(#clip2_2009_25148)">
<path d="M113.879 0.2H155.121C156.08 0.2 156.8 0.854926 156.8 1.5975V28.4025C156.8 29.1451 156.08 29.8 155.121 29.8H113.879C112.92 29.8 112.2 29.1451 112.2 28.4025V1.5975C112.2 0.854926 112.92 0.2 113.879 0.2Z" fill="white" stroke="#EDEDED" stroke-width="0.4"/>
<path d="M138.027 9.69531H131.078V20.3078H138.027V9.69531Z" fill="#FF5F00"/>
<path d="M131.519 15C131.519 12.8438 132.71 10.9313 134.541 9.69375C133.196 8.79375 131.497 8.25 129.644 8.25C125.255 8.25 121.703 11.2688 121.703 15C121.703 18.7312 125.255 21.75 129.644 21.75C131.497 21.75 133.196 21.2063 134.541 20.3063C132.71 19.0875 131.519 17.1562 131.519 15Z" fill="#EB001B"/>
<path d="M147.401 15C147.401 18.7312 143.849 21.75 139.46 21.75C137.607 21.75 135.908 21.2063 134.562 20.3063C136.415 19.0688 137.585 17.1562 137.585 15C137.585 12.8438 136.393 10.9313 134.562 9.69375C135.908 8.79375 137.607 8.25 139.46 8.25C143.849 8.25 147.401 11.2875 147.401 15Z" fill="#F79E1B"/>
</g>
<g clip-path="url(#clip3_2009_25148)">
<path d="M169.879 0.2H211.121C212.08 0.2 212.8 0.854925 212.8 1.5975V28.4025C212.8 29.1451 212.08 29.8 211.121 29.8H169.879C168.92 29.8 168.2 29.1451 168.2 28.4025V1.5975C168.2 0.854927 168.92 0.2 169.879 0.2Z" fill="white" stroke="#EDEDED" stroke-width="0.4"/>
<path d="M180.572 6H188.694C189.854 6 190.526 6.77857 190.282 7.76475L186.496 21.6232C186.251 22.6095 185.091 23.388 183.931 23.388H175.809C174.649 23.388 173.978 22.6095 174.222 21.6232L178.008 7.76475C178.252 6.77857 179.412 6 180.572 6Z" fill="#DF1F2E"/>
<path d="M188.026 6H197.368C198.529 6 197.979 6.77857 197.735 7.76475L193.949 21.6232C193.705 22.6095 193.766 23.388 192.605 23.388H183.263C182.102 23.388 181.431 22.6095 181.675 21.6232L185.461 7.76475C185.766 6.77857 186.865 6 188.026 6Z" fill="#15336F"/>
<path d="M197.002 6H205.185C206.345 6 207.017 6.77857 206.772 7.76475L202.986 21.6232C202.742 22.6095 201.582 23.388 200.422 23.388H192.239C191.079 23.388 190.407 22.6095 190.651 21.6232L194.437 7.76475C194.743 6.77857 195.903 6 197.002 6Z" fill="#007C82"/>
<path fill-rule="evenodd" clip-rule="evenodd" d="M195.657 19.0261H196.451L196.695 18.4033H195.902L195.657 19.0261ZM196.268 17.3133L196.024 18.04C196.024 18.04 196.329 17.9362 196.451 17.8843C196.634 17.8324 196.879 17.8324 196.879 17.8324L197.062 17.3133H196.268ZM196.634 16.2233L196.39 16.95C196.39 16.95 196.695 16.8462 196.818 16.7943C197.001 16.7424 197.184 16.7424 197.184 16.7424L197.367 16.2233H196.634ZM198.344 16.2233L197.367 19.0261H197.611L197.428 19.5971H197.184L197.123 19.7528H196.207L196.268 19.5971H194.375L194.558 19.078H194.741L195.779 16.2233L195.963 15.6523H196.94L196.818 15.9638C196.818 15.9638 197.062 15.8081 197.306 15.7562C197.55 15.7043 198.955 15.7043 198.955 15.7043L198.772 16.2752H198.344V16.2233Z" fill="#FFF8F8"/>
<path d="M198.773 15.6523H199.812V15.9638C199.812 16.0157 199.873 16.0676 199.995 16.0676H200.178L199.995 16.5867H199.445C198.957 16.6386 198.773 16.4309 198.773 16.2233V15.6523Z" fill="#FFF8F8"/>
<path d="M198.894 18.1982H197.917L198.1 17.7312H199.199L199.382 17.3159H198.283L198.466 16.7969H201.52L201.336 17.3159H200.298L200.176 17.7312H201.214L201.031 18.1982H199.932L199.688 18.4059H200.115L200.237 19.0287C200.237 19.0806 200.237 19.1325 200.298 19.1325C200.298 19.1325 200.481 19.1844 200.543 19.1844H200.665L200.481 19.7554H200.115C200.054 19.7554 199.993 19.7554 199.871 19.7554C199.749 19.7554 199.688 19.7035 199.627 19.6516C199.565 19.5997 199.443 19.5478 199.443 19.444L199.321 18.8211L198.833 19.3921C198.65 19.5997 198.466 19.7035 198.1 19.7035H197.367L197.55 19.1844H197.856C197.917 19.1844 197.978 19.1325 198.039 19.1325C198.1 19.1325 198.161 19.0806 198.161 19.0287L198.894 18.1982Z" fill="#FFF8F8"/>
<path d="M188.146 16.8984H190.772L190.589 17.4174H189.551L189.368 17.8846H190.406L190.222 18.4036H189.184L188.94 19.1303C188.94 19.2341 189.184 19.2341 189.306 19.2341L189.856 19.1822L189.673 19.8051H188.452C188.329 19.8051 188.268 19.8051 188.207 19.7532C188.085 19.7532 188.085 19.7013 188.024 19.6494C187.963 19.5975 187.902 19.5456 187.963 19.4418L188.329 18.4555H187.719L187.902 17.8846H188.513L188.696 17.4174H188.085L188.146 16.8984Z" fill="#FFF8F8"/>
<path d="M189.923 15.9638H190.961L190.778 16.5347H189.312L189.129 16.6386C189.068 16.6905 189.068 16.6905 188.946 16.6905C188.885 16.7424 188.701 16.7943 188.457 16.7943H187.969L188.152 16.2752H188.274C188.396 16.2752 188.457 16.2752 188.518 16.2233C188.579 16.2233 188.64 16.1195 188.701 16.0676L188.946 15.6523H189.984L189.923 15.9638Z" fill="#FFF8F8"/>
<path fill-rule="evenodd" clip-rule="evenodd" d="M191.995 16.8462C191.995 16.8462 192.3 16.6386 192.788 16.5347C192.911 16.5347 193.582 16.5347 193.582 16.5347L193.704 16.2233H192.178L191.995 16.8462ZM193.399 17.1057H191.934L191.811 17.3652H193.094C193.277 17.3652 193.277 17.3652 193.277 17.3652L193.399 17.1057ZM191.445 15.6523H192.361L192.239 16.0676C192.239 16.0676 192.544 15.86 192.727 15.8081C192.911 15.7562 193.399 15.7043 193.399 15.7043H194.865L194.376 17.1057C194.315 17.3652 194.193 17.521 194.132 17.5729C194.071 17.6248 194.01 17.7286 193.888 17.7805C193.765 17.8324 193.643 17.8843 193.521 17.8843C193.399 17.8843 193.277 17.8843 193.094 17.8843H191.689L191.262 19.0261C191.201 19.13 191.201 19.1819 191.201 19.2338C191.201 19.2857 191.262 19.2857 191.323 19.2857L191.934 19.2338L191.75 19.7528H191.079C190.834 19.7528 190.712 19.7528 190.59 19.7528C190.468 19.7528 190.346 19.7528 190.285 19.7009C190.224 19.649 190.102 19.5971 190.102 19.5452C190.102 19.4933 190.163 19.3895 190.163 19.2338L191.445 15.6523Z" fill="#FFF8F8"/>
<path d="M194.076 17.9375L194.015 18.3008C193.954 18.4047 193.954 18.5085 193.832 18.5604C193.71 18.6123 193.588 18.7161 193.343 18.7161H192.855V19.0794C192.855 19.1832 192.855 19.1832 192.916 19.1832L192.977 19.2351H193.16H193.649L193.466 19.806H192.916C192.55 19.806 192.244 19.806 192.122 19.7541C192 19.7022 192 19.6503 192 19.5465L192.061 18.0413H192.916V18.3528H193.099C193.16 18.3528 193.221 18.3528 193.282 18.3528C193.282 18.3528 193.343 18.3008 193.343 18.2489L193.404 17.9894H194.076V17.9375Z" fill="#FFF8F8"/>
<path d="M181.492 10.4113C181.431 10.5151 180.881 12.747 180.881 12.747C180.759 13.2141 180.698 13.5256 180.393 13.7332C180.21 13.837 180.027 13.8889 179.782 13.8889C179.416 13.8889 179.172 13.7332 179.172 13.4218V13.3179L179.294 12.6951C179.294 12.6951 179.904 10.6708 179.965 10.4113C179.965 10.4113 179.965 10.4113 179.965 10.3594C178.805 10.3594 178.622 10.3594 178.561 10.3594L178.5 10.5151L177.889 12.7989L177.95 13.0584L177.828 13.6813C177.828 13.8889 177.889 14.0446 177.95 14.1484C178.256 14.5636 178.988 14.6155 179.477 14.6155C180.027 14.6155 180.576 14.5117 180.942 14.3041C181.553 13.9927 181.736 13.4737 181.858 13.0584L181.919 12.8508C181.919 12.8508 182.53 10.7746 182.652 10.4632C182.652 10.4632 182.652 10.4632 182.652 10.4113C181.858 10.4632 181.614 10.4113 181.492 10.4113Z" fill="#FFF8F8"/>
<path d="M184.913 14.5629C184.486 14.5629 184.364 14.5629 183.875 14.5629V14.511C183.936 14.3553 183.936 14.1996 183.997 14.0438L184.059 13.8362C184.12 13.5248 184.242 13.1095 184.242 13.0057C184.242 12.9538 184.303 12.7462 184.059 12.7462C183.936 12.7462 183.875 12.7981 183.753 12.85C183.692 13.0057 183.57 13.5248 183.509 13.7324C183.387 14.1996 183.387 14.2515 183.326 14.511L183.265 14.5629C182.837 14.5629 182.715 14.5629 182.227 14.5629V14.511C182.288 14.2515 182.41 13.94 182.471 13.6805C182.654 12.9019 182.715 12.6424 182.776 12.2271L182.837 12.1752C183.326 12.1233 183.448 12.1233 183.936 12.0195L183.997 12.0714L183.814 12.3829C183.875 12.3309 183.997 12.279 184.059 12.2271C184.303 12.1233 184.547 12.0714 184.73 12.0714C184.974 12.0714 185.219 12.1233 185.28 12.3309C185.402 12.5386 185.341 12.7462 185.158 13.2653V13.5767C185.036 14.0958 185.036 14.1996 184.913 14.5629Z" fill="#FFF8F8"/>
<path d="M186.56 14.5661C186.316 14.5661 186.133 14.5661 186.011 14.5661C185.827 14.5661 185.705 14.5661 185.461 14.5661C185.522 14.3585 185.583 14.3066 185.583 14.2028C185.644 14.1509 185.644 14.0471 185.705 13.8394C185.766 13.5799 185.827 13.3723 185.827 13.2166C185.888 13.0608 185.888 12.9051 185.888 12.7494C186.133 12.6975 186.316 12.6976 186.438 12.6976C186.621 12.6976 186.743 12.6456 186.987 12.5938C186.926 12.7494 186.865 12.9052 186.865 13.1128C186.804 13.2685 186.743 13.4242 186.743 13.6318C186.621 13.9952 186.621 14.099 186.621 14.2028C186.621 14.3066 186.621 14.3585 186.56 14.5661Z" fill="#FFF8F8"/>
<path d="M189.189 13.3707C189.189 13.4745 189.067 13.786 188.945 13.9417C188.884 14.0455 188.762 14.0974 188.64 14.0974C188.579 14.0974 188.395 14.0974 188.395 13.8379C188.395 13.7341 188.395 13.5783 188.457 13.4226C188.579 13.0074 188.701 12.696 189.006 12.696C189.25 12.696 189.311 12.9555 189.189 13.3707ZM190.227 13.3707C190.349 12.8517 190.288 12.5922 190.105 12.4365C189.861 12.2288 189.495 12.125 189.128 12.125C188.884 12.125 188.334 12.125 187.907 12.4884C187.602 12.7479 187.418 13.0593 187.357 13.3707C187.296 13.6821 187.174 14.305 187.785 14.5126C187.968 14.5645 188.273 14.6164 188.457 14.6164C188.945 14.6164 189.434 14.5126 189.739 14.2012C190.105 13.9417 190.227 13.5264 190.227 13.3707Z" fill="#FFF8F8"/>
<path d="M200.24 14.6164C199.751 14.6164 199.629 14.6164 199.141 14.6164V14.5645C199.263 14.1493 199.385 13.7859 199.507 13.3707C199.629 12.8517 199.69 12.6441 199.751 12.3327L199.812 12.2808C200.301 12.2288 200.423 12.2288 200.972 12.125V12.1769C200.85 12.4884 200.789 12.8517 200.667 13.1632C200.423 13.8898 200.362 14.2531 200.24 14.6164Z" fill="#FFF8F8"/>
<path d="M199.508 13.3711C199.508 13.4749 199.386 13.7862 199.264 13.942C199.203 14.0458 198.959 14.0977 198.836 14.0977C198.775 14.0977 198.592 14.0977 198.592 13.8382C198.592 13.7344 198.592 13.5787 198.653 13.423C198.775 13.0077 198.897 12.6963 199.203 12.6963C199.508 12.7482 199.63 13.0077 199.508 13.3711ZM200.485 13.423C200.607 12.9039 200.058 13.3711 199.936 13.2154C199.813 12.9558 199.875 12.3849 199.325 12.1772C199.081 12.1253 198.592 12.1772 198.165 12.5406C197.859 12.8001 197.676 13.1115 197.615 13.423C197.554 13.7344 197.432 14.3572 198.043 14.5648C198.226 14.6167 198.409 14.6686 198.592 14.6686C199.203 14.6167 199.691 13.8382 200.058 13.4749C200.424 13.2154 200.485 13.5787 200.485 13.423Z" fill="#FFF8F8"/>
<path d="M193.031 14.5656C192.603 14.5656 192.481 14.5656 191.992 14.5656V14.5137C192.053 14.358 192.053 14.2023 192.115 14.0466L192.176 13.839C192.237 13.5795 192.359 13.1642 192.359 13.0604C192.359 13.0085 192.42 12.8009 192.176 12.8009C192.053 12.8009 191.992 12.8528 191.87 12.9047C191.809 13.0604 191.687 13.5795 191.626 13.7871C191.504 14.2542 191.504 14.3061 191.443 14.5656L191.382 14.6175C190.954 14.6175 190.832 14.6175 190.344 14.6175V14.5656C190.405 14.3061 190.527 13.9947 190.588 13.7352C190.771 12.9566 190.832 12.6971 190.893 12.2818L190.954 12.2299C191.443 12.178 191.565 12.178 192.053 12.0742L192.115 12.1261L192.053 12.3856C192.115 12.3337 192.237 12.2818 192.298 12.2299C192.542 12.1261 192.786 12.0742 192.969 12.0742C193.214 12.0742 193.458 12.1261 193.519 12.3337C193.641 12.5414 193.58 12.749 193.397 13.268L193.336 13.5795C193.214 14.0985 193.153 14.2023 193.031 14.5656Z" fill="#FFF8F8"/>
<path d="M196.572 10.4102H196.205C195.289 10.4102 194.984 10.4102 194.801 10.4102C194.801 10.4621 194.74 10.5659 194.74 10.5659L194.434 11.8116C194.434 11.8116 193.702 14.4587 193.641 14.6144C194.434 14.6144 194.74 14.6144 194.862 14.6144C194.923 14.5106 195.045 13.7321 195.045 13.7321L195.228 13.1611C195.228 13.1611 195.289 13.1092 195.35 13.0573H195.412C196.083 13.0573 196.816 13.0573 197.427 12.694C197.854 12.4345 198.098 12.0711 198.22 11.604C198.282 11.5001 198.282 11.3444 198.282 11.2406C198.282 11.0849 198.22 10.8773 198.098 10.7735C197.915 10.4102 197.305 10.4102 196.572 10.4102ZM197.06 11.7078C196.999 11.9673 196.755 12.2268 196.511 12.3306C196.266 12.4345 196.022 12.4345 195.717 12.4345H195.534V12.3825C195.534 12.3825 195.9 11.1368 195.839 11.1368V11.0849V11.033H195.961C195.961 11.033 196.633 11.0849 196.694 11.0849C196.999 11.1887 197.121 11.3963 197.06 11.7078Z" fill="#FFF8F8"/>
<path d="M204.327 12.1758C203.778 12.2277 203.717 12.2277 203.228 12.2796L203.167 12.3316C202.801 13.0063 202.801 12.8506 202.556 13.4215V13.3696L202.495 12.2277L202.434 12.1758C201.885 12.2796 201.885 12.2796 201.396 12.3316L201.335 12.3835V12.4354C201.396 12.6949 201.396 12.643 201.457 13.0582C201.457 13.2658 201.518 13.4734 201.579 13.681C201.64 14.0444 201.64 14.2001 201.701 14.7191C201.396 15.1863 201.274 15.342 200.969 15.7573V15.8092C201.457 15.8092 201.579 15.8092 201.885 15.8092L201.946 15.7573C202.251 15.1344 204.327 12.1758 204.327 12.1758Z" fill="#FFF8F8"/>
<path d="M186.993 12.4348C187.238 12.2791 187.299 12.0715 187.054 11.9158C186.81 11.812 186.444 11.812 186.138 12.0196C185.894 12.1753 185.833 12.3829 186.077 12.5386C186.322 12.6425 186.749 12.5905 186.993 12.4348Z" fill="#FFF8F8"/>
<path d="M201.951 15.6523L201.523 16.2233C201.401 16.4309 201.157 16.5867 200.79 16.5867H200.18L200.363 16.0676H200.485C200.546 16.0676 200.607 16.0676 200.607 16.0676C200.668 16.0676 200.668 16.0157 200.668 16.0157L200.912 15.7043H201.951V15.6523Z" fill="#FFF8F8"/>
</g>
<g clip-path="url(#clip4_2009_25148)">
<path d="M1.87941 41.2H43.1206C44.0798 41.2 44.8 41.8549 44.8 42.5975V69.4025C44.8 70.1451 44.0798 70.8 43.1206 70.8H1.87941C0.920187 70.8 0.2 70.1451 0.2 69.4025V42.5975C0.2 41.8549 0.920187 41.2 1.87941 41.2Z" fill="white" stroke="#EDEDED" stroke-width="0.4"/>
<mask id="mask0_2009_25148" style="mask-type:luminance" maskUnits="userSpaceOnUse" x="10" y="45" width="26" height="14">
<path d="M35.2918 45.5H10.5859V58.25H35.2918V45.5Z" fill="white"/>
</mask>
<g mask="url(#mask0_2009_25148)">
<path d="M35.276 52.2204C35.276 55.5501 29.7491 58.2488 22.9306 58.2488C16.1137 58.2488 10.5859 55.5501 10.5859 52.2204C10.5859 48.8914 16.1137 46.1914 22.9306 46.1914C29.7491 46.1914 35.276 48.8914 35.276 52.2204Z" fill="url(#paint0_linear_2009_25148)"/>
<path d="M35.2785 51.6093C35.2785 54.9768 29.7632 57.7069 22.9596 57.7069C16.156 57.7069 10.6406 54.9768 10.6406 51.6093C10.6406 48.2418 16.156 45.5117 22.9596 45.5117C29.7632 45.5117 35.2785 48.2418 35.2785 51.6093Z" fill="url(#paint1_linear_2009_25148)" stroke="#C5C5C6" stroke-width="0.3854" stroke-miterlimit="10"/>
<path fill-rule="evenodd" clip-rule="evenodd" d="M26.8422 57.5164C26.5004 57.5633 26.1844 57.6179 25.8667 57.6465C25.1608 57.7095 24.4524 57.7613 23.7456 57.8138C23.5864 57.8256 23.428 57.8256 23.2687 57.8256C23.2347 57.8256 23.1924 57.8096 23.1683 57.79C21.6445 56.5838 20.1971 55.323 19.0133 53.8809C18.6384 53.4248 18.3174 52.9455 18.0694 52.4326C17.6638 51.5931 17.8172 50.8164 18.4318 50.0825C18.9064 49.5144 19.5201 49.0596 20.1879 48.6482C21.1999 48.024 22.304 47.5245 23.4429 47.0746C24.7137 46.5729 26.0218 46.1412 27.3623 45.7739C27.4402 45.7522 27.5373 45.748 27.6178 45.762C27.9065 45.8152 28.1918 45.8796 28.4788 45.9579C28.2681 46.0223 28.0558 46.0853 27.8458 46.151C26.3321 46.6247 24.8713 47.1844 23.5142 47.91C22.7851 48.299 22.1016 48.7349 21.5308 49.275C21.0996 49.6823 20.7553 50.1286 20.6118 50.6611C20.4932 51.0998 20.5396 51.5244 20.7586 51.9394C21.0547 52.5005 21.4686 53.0015 21.9232 53.4822C22.7735 54.3819 23.7366 55.1991 24.751 55.975C25.4146 56.4823 26.1014 56.97 26.7775 57.466C26.7924 57.4779 26.8057 57.4891 26.8422 57.5164Z" fill="#E8242A"/>
<path fill-rule="evenodd" clip-rule="evenodd" d="M22.004 57.8216C21.7377 57.8111 21.5021 57.809 21.2674 57.7922C20.7855 57.7587 20.3011 57.7328 19.8224 57.6747C19.1911 57.5984 18.5641 57.4956 17.9361 57.4025C17.9087 57.3983 17.8797 57.3802 17.8606 57.3619C16.7533 56.274 15.7297 55.1398 14.9831 53.8573C14.6994 53.3689 14.4812 52.8631 14.3792 52.3258C14.2664 51.7318 14.4273 51.1881 14.7965 50.6773C15.1888 50.133 15.7263 49.6901 16.317 49.2885C17.2161 48.6784 18.209 48.1831 19.2409 47.7374C21.2874 46.8523 23.4382 46.1687 25.6339 45.5698C25.95 45.4837 26.2353 45.5362 26.5356 45.5775C26.6708 45.5971 26.8051 45.6195 26.9686 45.6454C26.7322 45.7153 26.5207 45.7762 26.3116 45.8406C24.5664 46.3737 22.8684 46.988 21.2583 47.7535C20.3284 48.1949 19.4401 48.684 18.657 49.2885C18.2455 49.6062 17.8764 49.9518 17.5853 50.3506C17.0934 51.0237 17.0063 51.7227 17.3372 52.4615C17.6433 53.1423 18.0813 53.7649 18.5716 54.366C19.4052 55.3868 20.3608 56.3299 21.362 57.2451C21.5652 57.4312 21.7734 57.6145 22.004 57.8216Z" fill="#214596"/>
<path fill-rule="evenodd" clip-rule="evenodd" d="M30.9181 56.4353C30.6095 56.5423 30.3225 56.6473 30.0322 56.7424C29.3512 56.9656 28.6519 57.1461 27.9418 57.2979C27.8779 57.3113 27.8307 57.305 27.7776 57.2714C26.3052 56.3408 24.8893 55.3613 23.6011 54.2635C22.9084 53.6716 22.2573 53.0524 21.7604 52.3374C21.5646 52.0575 21.4029 51.7651 21.3282 51.446C21.2046 50.924 21.3316 50.4336 21.631 49.9683C21.9429 49.4834 22.3833 49.0818 22.8811 48.7194C23.767 48.0757 24.7715 47.5754 25.82 47.129C26.7656 46.726 27.7436 46.3832 28.7423 46.076C28.8269 46.0502 28.9016 46.0467 28.9871 46.0718C29.2583 46.1523 29.5303 46.2279 29.8207 46.3097C29.5113 46.4091 29.221 46.4972 28.9347 46.5945C27.7901 46.9849 26.6951 47.4474 25.7155 48.0722C25.1223 48.4507 24.594 48.8796 24.2207 49.4184C23.9221 49.8487 23.7828 50.309 23.8192 50.803C23.8466 51.1745 24.0282 51.4999 24.2663 51.8091C24.6562 52.3192 25.144 52.7649 25.6691 53.1846C26.7026 54.0109 27.8415 54.7323 29.0285 55.4054C29.6249 55.744 30.2379 56.0631 30.8434 56.3912C30.86 56.3996 30.8775 56.4101 30.9181 56.4353Z" fill="#0D984A"/>
</g>
<path d="M12.0312 67.25V61.918H13.9614C14.5129 61.918 15.0054 62.0242 15.4392 62.2366C15.8758 62.4466 16.2161 62.7469 16.4602 63.1375C16.7044 63.5257 16.8264 63.9676 16.8264 64.4632V64.7085C16.8264 65.2041 16.7058 65.6448 16.4645 66.0305C16.2261 66.4162 15.8886 66.7153 15.452 66.9277C15.0155 67.1401 14.5229 67.2475 13.9743 67.25H12.0312ZM13.3237 62.8078V66.3674H13.9484C14.4539 66.3674 14.8403 66.2271 15.1074 65.9463C15.3745 65.6656 15.511 65.2639 15.5167 64.7415V64.4595C15.5167 63.9175 15.3845 63.5074 15.1203 63.229C14.8561 62.9482 14.4697 62.8078 13.9614 62.8078H13.3237ZM17.77 67.25V61.918H19.9672C20.7283 61.918 21.3057 62.0425 21.6992 62.2915C22.0927 62.5381 22.2894 62.9006 22.2894 63.3792C22.2894 63.6404 22.2104 63.8711 22.0525 64.0713C21.8945 64.2691 21.6747 64.4143 21.3933 64.5071C21.715 64.5754 21.9678 64.7134 22.1516 64.9209C22.3383 65.1284 22.4316 65.3824 22.4316 65.6827C22.4316 66.1954 22.2392 66.5835 21.8543 66.8472C21.4694 67.1109 20.9208 67.2451 20.2085 67.25H17.77ZM19.0625 64.9282V66.3674H20.1697C20.4742 66.3674 20.7111 66.3064 20.8806 66.1843C21.053 66.0598 21.1391 65.8889 21.1391 65.6716C21.1391 65.1834 20.8418 64.9356 20.2473 64.9282H19.0625ZM19.0625 64.1518H20.0189C20.6709 64.1421 20.9969 63.9211 20.9969 63.4891C20.9969 63.2473 20.9136 63.074 20.747 62.969C20.5833 62.8616 20.3234 62.8078 19.9672 62.8078H19.0625V64.1518ZM23.4053 67.25V61.918H25.6025C26.3637 61.918 26.9411 62.0425 27.3345 62.2915C27.728 62.5381 27.9248 62.9006 27.9248 63.3792C27.9248 63.6404 27.8457 63.8711 27.6878 64.0713C27.5299 64.2691 27.3101 64.4143 27.0286 64.5071C27.3503 64.5754 27.6031 64.7134 27.7869 64.9209C27.9736 65.1284 28.067 65.3824 28.067 65.6827C28.067 66.1954 27.8745 66.5835 27.4896 66.8472C27.1047 67.1109 26.5562 67.2451 25.8439 67.25H23.4053ZM24.6978 64.9282V66.3674H25.805C26.1095 66.3674 26.3465 66.3064 26.516 66.1843C26.6883 66.0598 26.7745 65.8889 26.7745 65.6716C26.7745 65.1834 26.4771 64.9356 25.8826 64.9282H24.6978ZM24.6978 64.1518H25.6542C26.3063 64.1421 26.6322 63.9211 26.6322 63.4891C26.6322 63.2473 26.549 63.074 26.3824 62.969C26.2187 62.8616 25.9587 62.8078 25.6025 62.8078H24.6978V64.1518ZM30.3332 66.3674H33.0776V67.25H29.0406V61.918H30.3332V66.3674Z" fill="black"/>
</g>
<g clip-path="url(#clip5_2009_25148)">
<path d="M57.8794 41.2H99.1206C100.08 41.2 100.8 41.8549 100.8 42.5975V69.4025C100.8 70.1451 100.08 70.8 99.1206 70.8H57.8794C56.9202 70.8 56.2 70.1451 56.2 69.4025V42.5975C56.2 41.8549 56.9202 41.2 57.8794 41.2Z" fill="white" stroke="#EDEDED" stroke-width="0.4"/>
<path d="M93.4719 56.3449L85.6328 55.3008L86.6721 59.2714L93.4719 56.3449Z" fill="#D12053"/>
<path d="M93.4704 56.3472L87.5634 49.3711L85.6328 55.3043L93.4704 56.3472Z" fill="#E2136E"/>
<path d="M85.455 55.2235L79.2656 48.5L87.3708 49.323L85.455 55.2235Z" fill="#D12053"/>
<path d="M82.6323 52.4132L79.1953 49.6602H80.1L82.6323 52.4132Z" fill="#9E1638"/>
<path d="M95.1405 52.957L93.6859 56.3107L91.3281 53.5388L95.1405 52.957Z" fill="#D12053"/>
<path d="M87.5859 59.0722L93.2934 57.1234L93.5329 56.5039L87.5859 59.0722Z" fill="#E2136E"/>
<path d="M83.0234 62.7512L85.4684 55.4609L86.7087 60.2042L83.0234 62.7512Z" fill="#9E1638"/>
<path d="M95.3744 52.9805L94.7743 54.3651L96.9384 54.335L95.3744 52.9805ZM60.4141 53.5358C60.519 53.5433 60.6254 53.5597 60.7378 53.5597C60.8501 53.5597 60.9418 53.5433 61.0615 53.5358V56.4848C61.403 55.991 61.8332 55.6656 62.4659 55.6656C63.61 55.6656 64.1008 56.6281 64.1008 57.5126C64.1008 58.5719 63.4356 59.5859 62.2693 59.5859C62.0357 59.5902 61.8053 59.5402 61.6028 59.4412C61.4003 59.3422 61.2336 59.198 61.1207 59.0243C60.9255 59.17 60.7526 59.3447 60.5678 59.503H60.42L60.4141 53.5358ZM61.0467 57.8733C61.0467 58.7327 61.4754 59.3321 62.1806 59.3321C63.0956 59.3321 63.3898 58.2866 63.3898 57.5453C63.3898 56.6846 63.0557 56.0074 62.2633 55.9998C61.338 55.9936 61.0467 56.9246 61.0467 57.8745V57.8733Z" fill="#E2136E"/>
<path d="M67.0858 55.445L66.397 56.1989C67.0444 57.0031 67.7155 57.7909 68.366 58.6052L69.0223 59.4847V59.5286C68.8612 59.5199 68.7148 59.5023 68.5788 59.5023C68.4429 59.5023 68.2713 59.5199 68.1265 59.5286C67.9476 59.2472 67.7703 58.9871 67.5678 58.7321L65.7939 56.5017C65.7539 56.4665 65.6578 56.4389 65.6578 56.4754V59.5286C65.5278 59.5199 65.4139 59.5023 65.3016 59.5023C65.1892 59.5023 65.0591 59.5199 64.9453 59.5286V53.5376C65.0591 53.5452 65.1819 53.564 65.3016 53.564C65.4213 53.564 65.5278 53.5452 65.6578 53.5376V56.2417C65.6578 56.2944 65.779 56.2592 65.8589 56.1889C66.0129 56.0532 66.157 55.9097 66.2905 55.7591L68.2847 53.5352C68.3897 53.5427 68.4946 53.5616 68.6084 53.5616C68.7222 53.5616 68.8095 53.5427 68.9247 53.5352L67.0858 55.445ZM72.4503 58.8539C72.4503 59.1656 72.4267 59.3239 72.9041 59.2208V59.3955C72.8261 59.4287 72.7444 59.4552 72.6603 59.4746C72.2389 59.5463 71.8901 59.4821 71.825 59.0135L71.7526 59.0826C71.6118 59.2394 71.4301 59.3665 71.2218 59.4537C71.0136 59.5409 70.7845 59.5859 70.5523 59.5852C69.9787 59.5852 69.4761 59.2007 69.4761 58.6114C69.4761 57.703 70.2153 57.5836 70.9735 57.4643C71.6151 57.3612 71.8339 57.3134 71.8339 56.9302C71.8339 56.3396 71.494 55.9979 70.8864 55.9979C70.6788 55.9944 70.4752 56.0453 70.3028 56.1434C70.1304 56.2417 69.9977 56.3825 69.9226 56.547H69.8339V56.1047C70.1987 55.835 70.6618 55.6805 71.1451 55.6674C71.995 55.6674 72.4578 56.1047 72.4578 57.0056L72.4503 58.8539ZM71.8029 57.5384L71.5176 57.5936C70.9662 57.6967 70.1399 57.7758 70.1399 58.5034C70.1399 59.006 70.4355 59.2573 70.9322 59.2573C71.1891 59.2304 71.4241 59.1206 71.5885 58.9507C71.6477 58.8929 71.8103 58.7572 71.8103 58.6994L71.8029 57.5384ZM73.8946 58.7484C74.0868 59.0612 74.4445 59.3414 74.8259 59.3414C75.0435 59.332 75.2483 59.2509 75.3967 59.1153C75.5452 58.9798 75.6257 58.8004 75.6212 58.6152C75.6212 57.5396 73.7068 58.2383 73.7068 56.846C73.7068 56.0821 74.2982 55.6687 75.0269 55.6687C75.3491 55.6627 75.667 55.734 75.9434 55.8748C75.8636 56.0591 75.7994 56.2481 75.7512 56.4402H75.6774C75.5709 56.1776 75.2886 55.9137 74.9885 55.9137C74.5834 55.9137 74.2494 56.1461 74.2494 56.5772C74.2494 57.5962 76.1637 57.0533 76.1637 58.3287C76.1637 59.1818 75.3861 59.5852 74.6707 59.5852C74.3124 59.585 73.9615 59.4978 73.6595 59.3339C73.7321 59.1428 73.7889 58.9475 73.8295 58.7496L73.8946 58.7484ZM77.2547 53.5376C77.3626 53.5452 77.4675 53.5616 77.5798 53.5616C77.6922 53.5616 77.7838 53.5452 77.905 53.5376V56.4389C78.1889 55.9526 78.6338 55.6674 79.2103 55.6674C80.1505 55.6674 80.5157 56.2153 80.5157 57.2204V59.5286C80.3929 59.5199 80.2983 59.5048 80.1904 59.5048C80.0825 59.5048 79.9716 59.5211 79.8652 59.5286V57.4027C79.8652 56.5231 79.6568 56.0795 78.9664 56.0795C78.2362 56.0795 77.905 56.5269 77.905 57.3549V59.5286C77.7838 59.5199 77.6877 59.5048 77.5798 59.5048C77.4719 59.5048 77.364 59.5211 77.2547 59.5286V53.5376Z" fill="#231F20"/>
</g>
<g clip-path="url(#clip6_2009_25148)">
<path d="M113.879 41.2H155.121C156.08 41.2 156.8 41.8549 156.8 42.5975V69.4025C156.8 70.1451 156.08 70.8 155.121 70.8H113.879C112.92 70.8 112.2 70.1451 112.2 69.4025V42.5975C112.2 41.8549 112.92 41.2 113.879 41.2Z" fill="white" stroke="#EDEDED" stroke-width="0.4"/>
<path d="M131.125 56.2945C131.125 56.4445 131.118 56.5945 131.103 56.7445C131.009 57.7026 130.623 58.6232 129.981 59.4147C129.339 60.2062 128.464 60.841 127.444 61.256C126.424 61.671 125.294 61.8516 124.166 61.78C123.038 61.7083 121.952 61.3869 121.015 60.8476C120.079 60.3084 119.325 59.5701 118.829 58.7063C118.333 57.8425 118.111 56.8832 118.186 55.924C118.261 54.9648 118.631 54.039 119.258 53.2389C119.885 52.4387 120.747 51.7921 121.759 51.3633C121.587 51.5505 121.432 51.7486 121.294 51.9558C121.283 51.9723 121.272 51.9895 121.261 52.0068L121.255 52.0113C121.169 52.0708 121.085 52.1325 121.003 52.1965C120.903 52.2745 120.807 52.3555 120.714 52.4395C120.693 52.4583 120.672 52.477 120.652 52.4965C120.633 52.516 120.611 52.5348 120.59 52.5543C120.556 52.5865 120.522 52.6195 120.491 52.6533C120.424 52.72 120.36 52.7883 120.298 52.8588C120.03 53.162 119.806 53.4914 119.629 53.8398C119.612 53.8743 119.594 53.9088 119.578 53.9433C119.562 53.9778 119.54 54.0258 119.522 54.0678C119.512 54.0888 119.503 54.109 119.495 54.1308C119.468 54.1945 119.444 54.259 119.42 54.3235C119.404 54.3655 119.39 54.4083 119.376 54.4503C119.368 54.4728 119.361 54.496 119.354 54.5178C119.342 54.5605 119.329 54.6033 119.317 54.6468C119.279 54.7848 119.248 54.925 119.229 55.0675C119.223 55.1028 119.217 55.1425 119.212 55.1755C119.207 55.2085 119.204 55.2318 119.202 55.2603C119.196 55.3023 119.193 55.3443 119.189 55.3863C119.19 55.3898 119.19 55.3933 119.189 55.3968C119.189 55.4403 119.183 55.4838 119.18 55.528C119.18 55.5993 119.175 55.6705 119.175 55.7425C119.178 56.8081 119.597 57.8427 120.366 58.6839C121.136 59.525 122.212 60.1251 123.426 60.3898C124.641 60.6546 125.924 60.569 127.075 60.1464C128.226 59.7239 129.179 58.9885 129.784 58.0555C129.837 57.973 129.889 57.889 129.935 57.8043V57.7975C130.265 57.2045 130.447 56.5601 130.471 55.9045C130.471 55.8528 130.471 55.8003 130.471 55.7478C130.471 55.5908 130.462 55.4358 130.444 55.2828L130.472 55.3023C130.56 55.3638 130.648 55.4275 130.727 55.4935C130.806 55.381 130.89 55.2723 130.98 55.1665C131.032 55.3792 131.069 55.5944 131.091 55.8108C131.108 55.9708 131.116 56.133 131.116 56.2975" fill="#EA2227"/>
<path d="M130.474 55.7451C130.474 55.7976 130.474 55.8501 130.474 55.9018C130.463 56.5588 130.28 57.2056 129.938 57.7948V57.8016C129.892 57.8871 129.84 57.9711 129.787 58.0528C129.381 58.68 128.816 59.2228 128.133 59.6421C127.288 60.1594 126.292 60.4685 125.254 60.5354C124.216 60.6023 123.176 60.4242 122.25 60.0209C121.323 59.6176 120.545 59.0047 120.002 58.2497C119.459 57.4947 119.172 56.627 119.172 55.7421C119.172 55.6671 119.172 55.5988 119.177 55.5276C119.177 55.4841 119.182 55.4398 119.186 55.3963C119.186 55.3963 119.186 55.3896 119.186 55.3866C119.186 55.3446 119.193 55.3018 119.198 55.2606C119.198 55.2321 119.205 55.2043 119.209 55.1758C119.212 55.1473 119.22 55.1008 119.226 55.0678C119.249 54.9258 119.279 54.7855 119.314 54.647C119.325 54.6035 119.339 54.5608 119.351 54.5181C119.358 54.4956 119.366 54.4731 119.373 54.4506C119.387 54.4086 119.401 54.3658 119.417 54.3238C119.44 54.2593 119.466 54.1948 119.492 54.1311C119.5 54.1101 119.509 54.089 119.52 54.068C119.538 54.026 119.557 53.9848 119.575 53.9443C119.594 53.9038 119.61 53.8753 119.626 53.8408C119.803 53.4924 120.027 53.163 120.295 52.8598C120.357 52.7893 120.42 52.7211 120.487 52.6543C120.52 52.6206 120.554 52.5875 120.587 52.5553C120.607 52.5358 120.627 52.5163 120.649 52.4976C120.671 52.4788 120.69 52.4593 120.711 52.4406C120.804 52.3566 120.9 52.2756 121.001 52.1976C121.082 52.1331 121.167 52.0715 121.252 52.0123L121.258 52.0078L121.225 52.0603C121.213 52.0791 121.201 52.0986 121.19 52.1181C120.85 52.7284 120.64 53.3854 120.572 54.0583C120.552 54.2488 120.54 54.443 120.54 54.6403C120.54 57.1535 122.277 59.1898 124.423 59.1898H124.449C124.515 59.1898 124.582 59.1951 124.649 59.1951C125.098 59.1952 125.542 59.12 125.957 58.974C126.372 58.828 126.749 58.614 127.067 58.3441C127.384 58.0742 127.636 57.7537 127.808 57.4011C127.98 57.0484 128.068 56.6705 128.068 56.2888C128.068 56.2618 128.068 56.2355 128.068 56.2085C128.044 55.4444 127.666 54.7191 127.016 54.191C128.261 54.217 129.461 54.5919 130.429 55.2576L130.458 55.2763C130.476 55.4263 130.485 55.5846 130.485 55.7421" fill="#F69220"/>
<path d="M130.503 55.7455C130.503 55.798 130.503 55.8504 130.503 55.9029C130.491 56.5669 130.305 57.2202 129.959 57.8154C129.913 57.8994 129.861 57.985 129.808 58.0667C129.399 58.6964 128.831 59.2416 128.146 59.6635C126.947 60.3991 125.457 60.7083 123.994 60.5253C122.531 60.3424 121.21 59.6818 120.311 58.6838C119.412 57.6858 119.006 56.4292 119.18 55.181C119.354 53.9328 120.093 52.7913 121.241 51.9992L121.297 51.9609C121.286 51.9782 121.275 51.9947 121.263 52.012C121.252 52.0292 121.241 52.0472 121.23 52.0644C120.118 52.8594 119.41 53.9892 119.255 55.2175C119.1 56.4457 119.51 57.6773 120.4 58.6545C121.289 59.6316 122.588 60.2786 124.025 60.4601C125.463 60.6416 126.927 60.3435 128.112 59.6282C128.791 59.2102 129.354 58.6698 129.759 58.0457C129.812 57.9639 129.863 57.88 129.91 57.796C130.252 57.2067 130.436 56.5601 130.449 55.9029C130.449 55.8497 130.449 55.7972 130.449 55.7455C130.449 55.5955 130.44 55.4364 130.421 55.2827V55.2617L130.45 55.2805L130.478 55.3C130.494 55.45 130.503 55.6 130.503 55.7455Z" fill="#F69220"/>
<path d="M128.96 52.7518C128.96 52.7518 124.342 52.0115 122.172 55.4233C122.383 54.6285 122.833 53.8941 123.479 53.2922C124.125 52.6903 124.944 52.2417 125.856 51.9905L125.202 50.9533C125.716 50.623 126.305 50.3861 126.932 50.2571C127.559 50.1281 128.21 50.1097 128.845 50.2033L128.96 52.7518Z" fill="#EA2227"/>
<path d="M123.232 54.5706C123.232 54.5706 125.076 52.5209 129.294 53.0541L129.242 51.8594C130.407 51.8723 131.53 52.2244 132.426 52.8569L130.67 55.1069C130.18 54.7027 129.6 54.3864 128.963 54.1765C128.326 53.9666 127.647 53.8675 126.964 53.8851C125.672 53.8603 124.392 54.0944 123.227 54.5684" fill="#F69220"/>
<path d="M121.42 56.4245C121.42 56.4245 119.312 52.5163 124.21 50L125.377 51.8278C124.775 52.0284 124.219 52.3184 123.735 52.6843C122.467 53.6593 121.647 54.9843 121.419 56.4245" fill="#F69220"/>
<path d="M139.929 53.0195H134.395C134.372 53.0195 134.349 53.0234 134.328 53.0309C134.306 53.0385 134.287 53.0495 134.27 53.0635C134.254 53.0774 134.241 53.0939 134.232 53.1121C134.223 53.1303 134.219 53.1498 134.219 53.1695V53.5325C134.219 53.5522 134.223 53.5718 134.232 53.59C134.241 53.6081 134.254 53.6247 134.27 53.6386C134.287 53.6525 134.306 53.6636 134.328 53.6711C134.349 53.6787 134.372 53.6825 134.395 53.6825H138.518V55.6243C138.4 55.4797 138.268 55.3433 138.125 55.2163C137.932 55.0258 137.695 54.871 137.428 54.7614C137.162 54.6517 136.872 54.5896 136.576 54.5788C136.357 54.5825 136.143 54.6324 135.952 54.7241C135.761 54.8157 135.6 54.9462 135.483 55.1038C135.251 55.364 135.117 55.6777 135.098 56.0038C135.081 56.3777 135.197 56.7473 135.433 57.0636C135.583 57.2506 135.787 57.4018 136.026 57.5027C136.264 57.6037 136.529 57.651 136.795 57.6403C137.081 57.6567 137.363 57.5767 137.579 57.4178C137.796 57.2589 137.931 57.0338 137.954 56.7913C137.955 56.6539 137.911 56.5189 137.827 56.4017C137.742 56.2845 137.621 56.1898 137.476 56.1283L137.173 55.982V56.282C137.172 56.302 137.169 56.3219 137.163 56.3413C137.16 56.3537 137.157 56.3662 137.155 56.3788C137.111 56.4591 137.041 56.5273 136.953 56.5757C136.865 56.624 136.764 56.6507 136.659 56.6525C136.46 56.654 136.268 56.5886 136.125 56.4703C136.039 56.3841 135.996 56.273 136.005 56.1605C136.013 56.02 136.075 55.8855 136.182 55.778C136.237 55.7139 136.309 55.6621 136.393 55.627C136.476 55.5918 136.569 55.5744 136.662 55.5763C136.944 55.5753 137.222 55.6382 137.466 55.7585C137.71 55.8789 137.912 56.0523 138.051 56.261C138.336 56.6061 138.495 57.0153 138.507 57.437L138.519 58.4165L139.333 58.8418C139.36 58.8559 139.39 58.8635 139.422 58.8641C139.454 58.8646 139.485 58.8579 139.512 58.8448C139.54 58.8316 139.563 58.8124 139.578 58.7892C139.594 58.766 139.602 58.7396 139.602 58.7128V53.6878H139.929C139.976 53.6878 140.021 53.672 140.054 53.6438C140.087 53.6157 140.106 53.5775 140.106 53.5378V53.1748C140.107 53.1547 140.103 53.1346 140.094 53.1158C140.086 53.0969 140.073 53.0798 140.056 53.0653C140.04 53.0508 140.02 53.0393 139.998 53.0314C139.976 53.0236 139.953 53.0195 139.929 53.0195Z" fill="#EA2227"/>
<path d="M150.99 53.0209H143.97C143.923 53.0209 143.878 53.0367 143.845 53.0649C143.812 53.093 143.793 53.1312 143.793 53.1709V53.8309C143.573 53.5823 143.296 53.3737 142.979 53.2173C142.662 53.0609 142.312 52.96 141.948 52.9204C141.472 52.899 141.002 53.0191 140.618 53.2602C140.449 53.3586 140.309 53.4901 140.211 53.6436C140.113 53.7971 140.059 53.9683 140.055 54.1429C140.055 55.1884 141.429 55.1764 141.769 55.0189C141.836 54.9794 141.915 54.9566 141.997 54.9529C142.05 54.9515 142.102 54.9597 142.151 54.977C142.2 54.9944 142.244 55.0204 142.28 55.0534C142.315 55.0864 142.343 55.1256 142.359 55.1683C142.376 55.211 142.381 55.2562 142.375 55.3009C142.375 55.5439 141.968 55.7509 141.485 55.7509C141.381 55.7611 141.276 55.7481 141.179 55.7133C141.083 55.6785 140.999 55.6229 140.935 55.5522L140.721 55.2762L140.576 55.5837C140.529 55.6709 140.502 55.7652 140.498 55.8612C140.504 55.9907 140.544 56.1174 140.614 56.2322C140.685 56.347 140.785 56.447 140.907 56.5249C141.155 56.7032 141.471 56.7996 141.796 56.7964C142.032 56.8046 142.267 56.765 142.482 56.6809C142.696 56.5968 142.885 56.4706 143.031 56.3127C143.267 56.0511 143.392 55.7289 143.384 55.3992C143.373 55.1741 143.281 54.9574 143.119 54.7789C143.037 54.6586 142.92 54.5579 142.78 54.4862C142.64 54.4145 142.481 54.374 142.317 54.3687C142.184 54.3772 142.053 54.3993 141.927 54.4347C141.865 54.4489 141.771 54.4714 141.751 54.4729C141.673 54.4661 141.602 54.4344 141.551 54.3844C141.481 54.3247 141.441 54.2439 141.441 54.1594C141.451 54.082 141.48 54.0071 141.524 53.939C141.569 53.871 141.629 53.8111 141.701 53.7629C141.773 53.7147 141.856 53.6792 141.944 53.6583C142.032 53.6374 142.125 53.6315 142.216 53.6411H142.238C142.609 53.6632 142.956 53.8055 143.208 54.0387C143.445 54.2238 143.645 54.4407 143.8 54.6807V58.3872L144.616 58.7974C144.643 58.8109 144.674 58.8181 144.705 58.8184C144.728 58.8184 144.751 58.8145 144.772 58.807C144.794 58.7995 144.813 58.7884 144.829 58.7745C144.846 58.7605 144.859 58.744 144.868 58.7258C144.877 58.7076 144.881 58.6881 144.881 58.6684V53.6877H146.132V56.9126L147.129 57.2524C147.15 57.2597 147.172 57.2636 147.195 57.2637C147.238 57.2639 147.28 57.2508 147.312 57.2266C147.345 57.2024 147.366 57.1689 147.371 57.1324L147.376 57.1077C147.416 56.6975 147.571 56.3016 147.829 55.9532C148.087 55.6048 148.439 55.3142 148.857 55.1059C148.857 55.1599 148.857 55.2184 148.857 55.2814C148.857 55.4119 148.868 55.7629 148.878 55.9564C148.881 56.0415 148.888 56.1263 148.901 56.2107C148.903 56.6661 148.972 57.1196 149.106 57.5607C149.371 58.3624 149.838 58.5402 150.184 58.5484H150.206C150.289 58.5533 150.372 58.5444 150.45 58.522C150.529 58.4996 150.602 58.4642 150.664 58.4179C150.71 58.3785 150.746 58.3316 150.769 58.28C150.793 58.2284 150.804 58.1733 150.802 58.1179C150.809 57.999 150.782 57.8803 150.723 57.7722L150.648 57.6559L150.497 57.6867C150.417 57.7083 150.333 57.7194 150.248 57.7197H150.219C150.191 57.7216 150.162 57.7155 150.137 57.7024C150.084 57.6784 149.981 57.5997 149.901 57.3454C149.852 57.1541 149.825 56.9592 149.821 56.7634C149.821 55.7239 150.074 54.9364 150.466 54.7572L150.486 54.7489C150.507 54.7399 150.526 54.7273 150.541 54.712C150.556 54.6967 150.568 54.679 150.575 54.6598C150.582 54.6406 150.585 54.6205 150.582 54.6005C150.58 54.5805 150.573 54.5611 150.562 54.5434L150.55 54.5247C150.424 54.3496 150.257 54.1988 150.059 54.0817C149.86 53.9645 149.636 53.8838 149.399 53.8444L149.356 53.8347L149.312 53.8414C148.704 53.9805 148.146 54.2445 147.686 54.6102C147.517 54.7309 147.36 54.8487 147.215 54.9657V53.6817H150.991C151.014 53.6817 151.037 53.6778 151.058 53.6703C151.079 53.6627 151.099 53.6516 151.115 53.6377C151.132 53.6238 151.145 53.6073 151.154 53.5891C151.162 53.5709 151.167 53.5513 151.167 53.5317V53.1694C151.167 53.1298 151.148 53.0919 151.114 53.064C151.081 53.0362 151.036 53.0207 150.99 53.0209Z" fill="#EA2227"/>
<path d="M134.777 60.2117V60.5005L135.067 60.4014L135.155 60.4712C135.16 60.4985 135.162 60.5261 135.163 60.5537C135.169 60.6403 135.135 60.7255 135.069 60.7915C135.033 60.8225 134.991 60.8468 134.944 60.8625C134.896 60.8783 134.846 60.8853 134.795 60.883C134.734 60.882 134.673 60.8699 134.618 60.8474C134.562 60.8248 134.513 60.7925 134.474 60.7525C134.392 60.6739 134.329 60.5821 134.289 60.4825L134.37 60.4375C134.472 60.678 134.616 60.798 134.804 60.7975C134.837 60.7973 134.87 60.7913 134.9 60.7798C134.931 60.7683 134.958 60.7516 134.98 60.7307C135.005 60.7103 135.024 60.686 135.037 60.6592C135.05 60.6324 135.056 60.6037 135.056 60.5747C135.056 60.549 135.051 60.5235 135.039 60.4997L134.775 60.5972L134.672 60.5282V60.2117H134.211V60.1367H135.231V60.2117H134.777Z" fill="#231F20"/>
<path d="M135.434 60.2117V60.8807H135.331V60.2117H135.203V60.1367H135.556V60.2117H135.434Z" fill="#231F20"/>
<path d="M136.109 60.2126V60.2591C136.19 60.2592 136.269 60.2793 136.337 60.3169C136.372 60.3327 136.402 60.3561 136.424 60.3848C136.445 60.4135 136.457 60.4465 136.458 60.4804C136.459 60.5056 136.452 60.5306 136.439 60.5533C136.427 60.5759 136.408 60.5957 136.384 60.6109C136.337 60.6422 136.279 60.6587 136.22 60.6574H136.196V60.5734H136.249C136.264 60.5755 136.28 60.5745 136.294 60.5706C136.309 60.5667 136.322 60.5599 136.333 60.5508C136.345 60.5417 136.353 60.5305 136.358 60.5182C136.363 60.5058 136.365 60.4926 136.363 60.4796C136.363 60.4046 136.274 60.3596 136.11 60.3469V60.8861H136.014C135.97 60.8124 135.91 60.7463 135.838 60.6911C135.77 60.6329 135.68 60.5977 135.584 60.5922L135.553 60.4894C135.614 60.4526 135.763 60.3761 136.003 60.2591V60.2157H135.516V60.1406H136.523V60.2157H136.105L136.109 60.2126ZM136.006 60.3536C135.953 60.3718 135.904 60.3971 135.861 60.4286L135.728 60.5231C135.783 60.5503 135.832 60.585 135.873 60.6259C135.896 60.6484 135.94 60.6919 136.007 60.7556V60.3529L136.006 60.3536Z" fill="#231F20"/>
<path d="M137.884 60.0054C137.754 59.9254 137.602 59.8773 137.442 59.8666C137.351 59.8625 137.261 59.8856 137.188 59.9319C137.153 59.9565 137.126 59.9878 137.107 60.0232C137.089 60.0587 137.081 60.0973 137.084 60.1358H137.192V60.2109H137.089V60.8776H136.984V60.2109H136.875V60.1358H136.984C136.981 60.0861 136.992 60.0365 137.016 59.9909C137.039 59.9453 137.075 59.9051 137.12 59.8734C137.214 59.812 137.33 59.781 137.449 59.7856C137.537 59.7861 137.625 59.8022 137.706 59.8329C137.788 59.8649 137.866 59.9025 137.94 59.9454L137.884 60.0054Z" fill="#231F20"/>
<path d="M137.972 60.2117V60.8822H137.878C137.807 60.7993 137.712 60.733 137.603 60.6895C137.498 60.6352 137.38 60.6019 137.259 60.592L137.226 60.4885C137.323 60.4339 137.427 60.3893 137.536 60.3558L137.873 60.247V60.2117H137.156V60.1367H138.081V60.2117H137.972ZM137.873 60.3452C137.71 60.3963 137.551 60.4544 137.396 60.5192C137.571 60.5707 137.732 60.6495 137.873 60.7517V60.3452Z" fill="#231F20"/>
<path d="M138.039 60.1367H139.027V60.2117H138.039V60.1367ZM138.601 60.877C138.541 60.8755 138.483 60.8633 138.429 60.841C138.375 60.8188 138.328 60.7871 138.29 60.748C138.207 60.672 138.147 60.5808 138.113 60.4817L138.175 60.4269C138.207 60.5148 138.258 60.5969 138.325 60.6692C138.355 60.7069 138.395 60.7382 138.442 60.7606C138.488 60.783 138.541 60.7958 138.594 60.7982C138.629 60.7992 138.664 60.7933 138.695 60.7809C138.727 60.7686 138.755 60.7501 138.777 60.727C138.822 60.6806 138.845 60.622 138.844 60.5619C138.786 60.6001 138.715 60.6216 138.642 60.6235C138.578 60.6246 138.517 60.605 138.471 60.5687C138.446 60.5519 138.427 60.5307 138.414 60.5067C138.401 60.4827 138.394 60.4564 138.395 60.43C138.392 60.382 138.412 60.3351 138.449 60.2995C138.469 60.283 138.493 60.2702 138.519 60.2619C138.545 60.2537 138.573 60.2501 138.601 60.2514C138.643 60.2501 138.684 60.2607 138.718 60.2815C138.734 60.2918 138.746 60.3052 138.754 60.3205C138.762 60.3358 138.766 60.3525 138.764 60.3692C138.763 60.3861 138.757 60.4025 138.748 60.4174C138.738 60.4323 138.725 60.4453 138.709 60.4555L138.639 60.4112C138.65 60.4066 138.659 60.3996 138.665 60.3908C138.671 60.3821 138.675 60.372 138.674 60.3617C138.674 60.3332 138.653 60.319 138.611 60.319C138.595 60.3186 138.58 60.3209 138.566 60.3258C138.552 60.3307 138.539 60.3381 138.528 60.3475C138.517 60.3574 138.508 60.3691 138.502 60.382C138.497 60.3949 138.494 60.4087 138.495 60.4225C138.495 60.439 138.498 60.4554 138.506 60.4706C138.514 60.4858 138.526 60.4993 138.54 60.5102C138.569 60.5329 138.608 60.5452 138.647 60.5447C138.688 60.5442 138.729 60.5363 138.767 60.5215C138.804 60.5066 138.838 60.4851 138.865 60.4584L138.96 60.5424C138.963 60.6283 138.929 60.7122 138.865 60.7787C138.833 60.8119 138.793 60.8384 138.747 60.856C138.701 60.8737 138.651 60.8822 138.6 60.8807" fill="#231F20"/>
<path d="M139.23 60.2117V60.8807H139.128V60.2117H139V60.1367H139.353V60.2117H139.23Z" fill="#231F20"/>
<path d="M139.744 60.9302C139.663 60.9391 139.58 60.9217 139.514 60.8815C139.442 60.8172 139.397 60.7344 139.387 60.6461C139.377 60.5579 139.403 60.4693 139.459 60.3947C139.509 60.3297 139.566 60.2685 139.628 60.2117H139.32V60.1367H139.814V60.2117C139.725 60.2437 139.648 60.2955 139.591 60.3617C139.527 60.4244 139.491 60.5038 139.487 60.5867C139.487 60.7667 139.575 60.8567 139.752 60.8567C139.781 60.8552 139.808 60.8457 139.83 60.8297V60.9167C139.803 60.9286 139.773 60.9343 139.742 60.9332" fill="#231F20"/>
<path d="M140.409 60.2117V60.8717H140.307V60.4315C140.298 60.403 140.283 60.3762 140.263 60.3527C140.24 60.3139 140.205 60.2811 140.162 60.2577C140.119 60.2343 140.069 60.2213 140.018 60.2199C139.977 60.2223 139.939 60.2379 139.911 60.2634C139.901 60.2717 139.88 60.289 139.845 60.3145C139.88 60.302 139.918 60.2949 139.956 60.2935C140.001 60.2926 140.045 60.3036 140.082 60.325C140.1 60.3356 140.115 60.35 140.125 60.3667C140.135 60.3835 140.14 60.4021 140.139 60.4209C140.139 60.4764 140.114 60.5299 140.07 60.571C140.03 60.6154 139.975 60.6492 139.912 60.6685L139.846 60.5934C139.893 60.5784 139.935 60.5549 139.97 60.5244C139.989 60.5118 140.005 60.496 140.017 60.478C140.029 60.4599 140.037 60.44 140.039 60.4194C140.039 60.3984 140.011 60.382 139.951 60.3692C139.914 60.3601 139.876 60.3553 139.837 60.3549C139.825 60.355 139.813 60.357 139.801 60.3609L139.75 60.2784C139.785 60.2449 139.823 60.2136 139.863 60.1847C139.905 60.1571 139.956 60.142 140.009 60.1419C140.069 60.1433 140.128 60.1582 140.179 60.1852C140.231 60.2122 140.273 60.2504 140.301 60.2957V60.1367H140.516V60.2117H140.409Z" fill="#231F20"/>
<path d="M141.285 60.2117V60.8822H141.19C141.122 60.8009 141.031 60.7352 140.926 60.691C140.823 60.638 140.707 60.6059 140.588 60.5972L140.555 60.4945C140.753 60.3927 140.963 60.3097 141.182 60.247V60.2117H140.484V60.1367H141.379V60.2117H141.291H141.285ZM141.184 60.3452C141.023 60.3923 140.869 60.4526 140.722 60.5252C140.892 60.5734 141.049 60.6499 141.184 60.7503V60.3452ZM140.919 60.9062C140.875 60.8713 140.825 60.8427 140.77 60.8215L140.814 60.751C140.877 60.7741 140.933 60.8087 140.978 60.8522L140.919 60.9062Z" fill="#231F20"/>
<path d="M142.745 60.0054C142.616 59.9253 142.463 59.8773 142.304 59.8666C142.212 59.8624 142.122 59.8854 142.049 59.9319C142.013 59.9565 141.986 59.9878 141.967 60.0232C141.949 60.0587 141.941 60.0972 141.943 60.1359H142.051V60.2109H141.943V60.8776H141.839V60.2109H141.734V60.1359H141.844C141.841 60.0861 141.852 60.0365 141.875 59.991C141.899 59.9454 141.935 59.9051 141.98 59.8734C142.073 59.812 142.19 59.7809 142.308 59.7856C142.397 59.7861 142.485 59.8022 142.566 59.8329C142.647 59.8651 142.725 59.9027 142.799 59.9454L142.745 60.0054Z" fill="#231F20"/>
<path d="M142.566 60.2117V60.5005L142.855 60.4014L142.943 60.4712C142.948 60.4985 142.951 60.5261 142.951 60.5537C142.957 60.6403 142.923 60.7254 142.857 60.7915C142.822 60.8225 142.779 60.8468 142.732 60.8625C142.685 60.8783 142.634 60.8853 142.583 60.883C142.522 60.882 142.462 60.8699 142.406 60.8474C142.351 60.8248 142.302 60.7925 142.263 60.7525C142.181 60.674 142.118 60.5822 142.079 60.4825L142.159 60.4375C142.261 60.678 142.405 60.798 142.593 60.7975C142.626 60.7972 142.659 60.7912 142.689 60.7797C142.72 60.7682 142.747 60.7516 142.769 60.7307C142.794 60.7103 142.813 60.686 142.826 60.6592C142.839 60.6324 142.845 60.6037 142.845 60.5747C142.845 60.549 142.839 60.5235 142.828 60.4997L142.563 60.5972L142.461 60.5282V60.2117H142V60.1367H143.016V60.2117H142.566Z" fill="#231F20"/>
<path d="M144 60.0054C143.871 59.9254 143.718 59.8774 143.559 59.8667C143.467 59.8624 143.377 59.8855 143.304 59.9319C143.269 59.9565 143.241 59.9878 143.223 60.0232C143.204 60.0587 143.196 60.0972 143.199 60.1359H143.306V60.2109H143.199V60.8776H143.094V60.2109H142.984V60.1359H143.094C143.091 60.0861 143.102 60.0366 143.125 59.991C143.149 59.9454 143.185 59.9052 143.23 59.8734C143.324 59.812 143.44 59.7809 143.559 59.7856C143.648 59.7861 143.735 59.8022 143.816 59.8329C143.897 59.865 143.975 59.9026 144.049 59.9454L144 60.0054Z" fill="#231F20"/>
<path d="M143.923 60.211C143.936 60.2528 143.967 60.2892 144.009 60.3136C144.051 60.3379 144.102 60.3486 144.153 60.3437C144.168 60.3445 144.184 60.3445 144.199 60.3437L144.277 60.424C144.229 60.4966 144.199 60.5767 144.189 60.6595C144.18 60.7369 144.197 60.8147 144.237 60.8845L144.168 60.916C144.119 60.8548 144.093 60.7822 144.095 60.7082C144.095 60.6623 144.101 60.6165 144.113 60.5717C144.118 60.5527 144.134 60.5052 144.16 60.4292C144.083 60.4225 144.01 60.3998 143.946 60.3632C143.914 60.3461 143.886 60.3237 143.864 60.2973C143.842 60.2709 143.826 60.241 143.818 60.2095C143.772 60.2315 143.734 60.2627 143.705 60.3004C143.677 60.338 143.659 60.3809 143.655 60.4255C143.655 60.4757 143.679 60.5005 143.727 60.5005C143.756 60.4997 143.783 60.4927 143.808 60.4802C143.832 60.4697 143.853 60.4533 143.868 60.433H143.973C143.999 60.4775 144.011 60.5272 144.006 60.577C144.006 60.747 143.901 60.832 143.691 60.832C143.649 60.8313 143.608 60.8223 143.57 60.8057C143.553 60.799 143.517 60.781 143.463 60.7517C143.429 60.706 143.385 60.6347 143.328 60.5379L143.386 60.4907C143.421 60.5692 143.471 60.6426 143.533 60.7082L143.538 60.7022L143.609 60.7322C143.632 60.7432 143.658 60.7493 143.684 60.7502C143.739 60.7522 143.794 60.7382 143.838 60.7105C143.86 60.6963 143.878 60.6778 143.889 60.6566C143.901 60.6354 143.906 60.6123 143.905 60.589C143.905 60.5622 143.896 60.536 143.878 60.514C143.859 60.5346 143.834 60.5514 143.807 60.5633C143.779 60.5752 143.749 60.5819 143.718 60.5829C143.694 60.5841 143.67 60.5805 143.649 60.5725C143.627 60.5644 143.608 60.5521 143.593 60.5365C143.563 60.5032 143.548 60.4621 143.55 60.4202C143.558 60.3428 143.595 60.2696 143.656 60.2117H143.258V60.1367H144.352V60.2117L143.923 60.211Z" fill="#231F20"/>
<path d="M144.512 60.2119V60.7962H144.568C144.659 60.7973 144.749 60.7773 144.828 60.7384C144.87 60.725 144.907 60.7017 144.934 60.6712C144.962 60.6406 144.978 60.6042 144.982 60.566C144.982 60.491 144.939 60.4497 144.852 60.4497C144.805 60.457 144.761 60.4723 144.721 60.4947L144.68 60.4197C144.743 60.3826 144.818 60.3636 144.894 60.3657C144.922 60.3648 144.951 60.3699 144.976 60.3803C145.002 60.3908 145.024 60.4063 145.041 60.4257C145.074 60.4657 145.09 60.5136 145.088 60.5622C145.087 60.6018 145.074 60.6406 145.053 60.6756C145.031 60.7106 145 60.7408 144.962 60.7639C144.889 60.8141 144.804 60.8484 144.712 60.8637C144.612 60.8778 144.51 60.8838 144.409 60.8817V60.2127H144.32V60.1377H144.938V60.1144C144.938 60.0906 144.931 60.0671 144.919 60.0458C144.906 60.0245 144.887 60.0062 144.865 59.9922C144.82 59.9629 144.764 59.9476 144.708 59.9487C144.599 59.9577 144.495 59.9877 144.402 60.0364L144.372 59.9749C144.474 59.916 144.594 59.8828 144.718 59.8789C144.803 59.8777 144.884 59.9046 144.946 59.9539C144.977 59.9772 145.001 60.0058 145.018 60.038C145.034 60.0701 145.042 60.1049 145.041 60.1399H145.159V60.2149L144.512 60.2119Z" fill="#231F20"/>
<path d="M145.372 60.2117V60.8807H145.269V60.2117H145.141V60.1367H145.489V60.2117H145.372Z" fill="#231F20"/>
<path d="M146.399 60.2102V60.8792H146.303C146.303 60.8635 146.303 60.8402 146.303 60.8102C146.303 60.7802 146.303 60.7569 146.303 60.7412C146.303 60.5837 146.256 60.5049 146.162 60.5049C146.144 60.5055 146.127 60.5098 146.111 60.5172C146.096 60.5247 146.083 60.5351 146.073 60.5477C146.052 60.5717 146.038 60.6007 146.035 60.631H145.917C145.915 60.5985 145.902 60.5672 145.879 60.541C145.869 60.5269 145.854 60.5153 145.837 60.5072C145.82 60.4992 145.801 60.495 145.781 60.495C145.761 60.495 145.742 60.4992 145.725 60.5072C145.708 60.5153 145.693 60.5269 145.682 60.541C145.66 60.5702 145.648 60.6049 145.65 60.64C145.65 60.7225 145.709 60.7637 145.826 60.7637H145.863L145.829 60.8507H145.789C145.755 60.8516 145.721 60.8464 145.69 60.8354C145.659 60.8244 145.63 60.8079 145.607 60.787C145.559 60.7438 145.533 60.6864 145.535 60.6272C145.532 60.5681 145.557 60.5104 145.604 60.4667C145.628 60.4459 145.657 60.4297 145.689 60.4191C145.721 60.4085 145.755 60.4037 145.789 60.4052C145.831 60.4076 145.871 60.4194 145.905 60.4395C145.939 60.4595 145.967 60.4871 145.984 60.5192C146.044 60.4442 146.105 60.4052 146.168 60.4052C146.23 60.4052 146.264 60.4405 146.299 60.5117V60.2117H145.453V60.1367H146.496V60.2117H146.395L146.399 60.2102Z" fill="#231F20"/>
<path d="M147.026 60.5798C147.026 60.6285 147.039 60.6766 147.063 60.7208C147.071 60.7443 147.088 60.7651 147.11 60.7804C147.133 60.7957 147.16 60.8047 147.189 60.8063C147.216 60.8058 147.242 60.7994 147.266 60.7876L147.298 60.8626C147.266 60.878 147.231 60.8863 147.195 60.8866C147.023 60.8866 146.938 60.7718 146.938 60.5423C146.95 60.461 146.982 60.3826 147.031 60.3122C147.081 60.2418 147.147 60.1807 147.225 60.1328H147.374V60.2078C147.324 60.2146 147.276 60.2299 147.234 60.2527C147.191 60.2755 147.154 60.3054 147.125 60.3405C147.061 60.4082 147.026 60.4923 147.026 60.579" fill="#231F20"/>
<path d="M148.235 60.2117V60.8807H148.139C148.139 60.865 148.139 60.8417 148.139 60.8117C148.139 60.7817 148.139 60.7585 148.139 60.7427C148.139 60.5852 148.092 60.5065 147.997 60.5065C147.98 60.507 147.963 60.5113 147.947 60.5187C147.932 60.5262 147.919 60.5366 147.909 60.5492C147.887 60.5733 147.874 60.6022 147.871 60.6325H147.76C147.758 60.5999 147.745 60.5686 147.722 60.5425C147.712 60.5287 147.698 60.5173 147.682 60.5092C147.665 60.501 147.647 60.4965 147.628 60.496C147.607 60.4954 147.587 60.4992 147.569 60.507C147.551 60.5149 147.536 60.5266 147.525 60.541C147.502 60.5704 147.491 60.605 147.493 60.64C147.493 60.7225 147.551 60.7637 147.669 60.7637H147.706L147.672 60.8507H147.632C147.598 60.8517 147.564 60.8465 147.533 60.8355C147.501 60.8245 147.473 60.808 147.45 60.787C147.405 60.7424 147.38 60.6856 147.38 60.6268C147.38 60.5681 147.405 60.5113 147.45 60.4667C147.474 60.4461 147.502 60.4299 147.534 60.4193C147.566 60.4087 147.6 60.4039 147.634 60.4052C147.675 60.4077 147.715 60.4195 147.749 60.4396C147.784 60.4596 147.811 60.4872 147.828 60.5192C147.887 60.4442 147.949 60.4052 148.012 60.4052C148.076 60.4052 148.108 60.4405 148.143 60.5117V60.2117H147.297V60.1367H148.341V60.2117H148.239H148.235Z" fill="#231F20"/>
<path d="M149.115 60.2117V60.8807H149.012V60.8297C149.008 60.7889 148.994 60.7493 148.971 60.7134C148.948 60.6774 148.917 60.6457 148.879 60.6204C148.815 60.5579 148.724 60.519 148.627 60.5117C148.591 60.5115 148.556 60.5228 148.529 60.5432C148.516 60.5525 148.506 60.564 148.499 60.5769C148.492 60.5898 148.488 60.6039 148.487 60.6182C148.487 60.6329 148.49 60.6475 148.497 60.6611C148.504 60.6747 148.514 60.6869 148.526 60.6969C148.552 60.7176 148.586 60.7289 148.622 60.7285C148.645 60.7282 148.667 60.7241 148.689 60.7164L148.72 60.799C148.68 60.8131 148.636 60.8195 148.592 60.8177C148.564 60.8181 148.535 60.813 148.509 60.8029C148.483 60.7928 148.46 60.7778 148.442 60.7592C148.402 60.7216 148.381 60.6729 148.382 60.6227C148.381 60.5964 148.386 60.5701 148.397 60.5456C148.409 60.5211 148.426 60.4989 148.448 60.4802C148.469 60.4611 148.494 60.446 148.523 60.436C148.551 60.4259 148.582 60.4211 148.613 60.4217C148.697 60.4265 148.778 60.4497 148.848 60.4892C148.918 60.5286 148.975 60.5829 149.012 60.6467V60.2117H148.297V60.1367H149.203V60.2117H149.115Z" fill="#231F20"/>
<path d="M149.596 60.9295C149.515 60.9384 149.433 60.921 149.366 60.8807C149.324 60.8431 149.291 60.7987 149.269 60.7502C149.247 60.7016 149.236 60.6499 149.238 60.598C149.24 60.5254 149.266 60.4548 149.312 60.394C149.362 60.3293 149.418 60.2683 149.48 60.2117H149.172V60.1367H149.666V60.2117C149.577 60.2438 149.5 60.2956 149.442 60.3617C149.378 60.4246 149.342 60.5039 149.338 60.5867C149.338 60.7667 149.426 60.8567 149.602 60.8567C149.632 60.8552 149.659 60.8457 149.682 60.8297V60.9167C149.655 60.9286 149.624 60.9343 149.594 60.9332" fill="#231F20"/>
<path d="M149.717 60.2126V60.5126C149.846 60.439 149.983 60.3767 150.126 60.3266L150.227 60.4384C150.184 60.5173 150.158 60.6022 150.15 60.6889C150.152 60.7541 150.168 60.8185 150.196 60.8794L150.12 60.9094C150.09 60.851 150.07 60.789 150.062 60.7256C150.063 60.6324 150.074 60.5395 150.095 60.4481C149.951 60.5044 149.817 60.5787 149.699 60.6686L149.611 60.5996V60.2156H149.531V60.1406H150.295V60.2156H149.714L149.717 60.2126Z" fill="#231F20"/>
<path d="M151.068 60.2117V60.8807H150.966V60.8297C150.961 60.7889 150.947 60.7493 150.924 60.7134C150.901 60.6774 150.87 60.6457 150.832 60.6204C150.768 60.558 150.677 60.5191 150.58 60.5117C150.544 60.5115 150.509 60.5227 150.482 60.5432C150.469 60.5525 150.459 60.5639 150.452 60.5769C150.444 60.5898 150.441 60.6039 150.441 60.6182C150.44 60.6328 150.443 60.6474 150.45 60.6609C150.456 60.6745 150.466 60.6867 150.478 60.6969C150.504 60.7178 150.539 60.7291 150.575 60.7285C150.598 60.7283 150.621 60.7242 150.643 60.7164L150.673 60.799C150.632 60.8132 150.588 60.8195 150.545 60.8177C150.516 60.818 150.488 60.8129 150.462 60.8028C150.436 60.7927 150.413 60.7778 150.395 60.7592C150.355 60.7217 150.333 60.673 150.334 60.6227C150.333 60.5964 150.338 60.5702 150.35 60.5457C150.361 60.5212 150.378 60.4989 150.4 60.4802C150.421 60.4611 150.447 60.4461 150.475 60.4361C150.504 60.426 150.534 60.4211 150.565 60.4217C150.649 60.4264 150.73 60.4496 150.8 60.4891C150.871 60.5285 150.928 60.5829 150.966 60.6467V60.2117H150.25V60.1367H151.158V60.2117H151.068Z" fill="#231F20"/>
<path d="M124.204 55.371C124.204 55.371 123.81 55.446 123.821 55.2742C123.826 55.2165 123.866 55.1947 123.909 55.1992C123.909 55.1677 123.832 55.077 124.004 55.0417C124.055 54.9901 124.097 54.9328 124.13 54.8715C124.147 54.828 124.195 54.768 124.351 54.7965C124.489 54.8287 124.612 54.8963 124.704 54.99C124.792 54.99 124.891 55.0042 124.856 55.02C124.822 55.0357 124.802 55.065 124.809 55.0695C124.816 55.074 124.865 55.098 124.706 55.101C124.711 55.1295 124.742 55.1369 124.769 55.1504C124.796 55.1639 124.761 55.182 124.769 55.188C124.777 55.194 124.791 55.263 124.711 55.233C124.631 55.203 124.623 55.1835 124.602 55.1865C124.582 55.1895 124.522 55.197 124.531 55.2157C124.54 55.2345 124.619 55.278 124.518 55.2907C124.498 55.3065 124.55 55.3312 124.511 55.3439C124.473 55.3567 124.304 55.4692 124.223 55.494C124.143 55.494 124.118 55.4752 124.125 55.4474C124.132 55.4197 124.167 55.3987 124.218 55.3942C124.218 55.3755 124.225 55.3612 124.211 55.3627" fill="#EC1C24"/>
<path d="M124.169 55.7303C124.131 55.7303 124.019 55.6666 124.081 55.6306C124.203 55.5577 124.33 55.4925 124.463 55.4356C124.521 55.4213 124.599 55.4873 124.528 55.5376C124.456 55.5878 124.175 55.7311 124.175 55.7311" fill="#EC1C24"/>
<path d="M124.578 55.5665C124.587 55.4965 124.602 55.4271 124.622 55.3588C124.622 55.3303 124.756 55.3183 124.725 55.4398C124.695 55.5613 124.585 55.604 124.578 55.5665Z" fill="#EC1C24"/>
<path d="M124.768 55.3072C125.032 55.2934 125.297 55.2934 125.562 55.3072C125.654 55.3955 125.725 55.4992 125.768 55.6116C125.811 55.724 125.827 55.8428 125.813 55.9605C125.753 56.2537 125.646 56.3287 125.171 56.3767C125.168 56.2392 125.144 56.1026 125.1 55.9702C125.053 55.9035 124.894 55.7497 124.821 55.752C124.821 55.8202 124.806 56.0243 124.806 56.0243C124.806 56.0243 124.571 56.0385 124.541 55.9973C124.537 55.9223 124.541 55.6912 124.541 55.6912C124.625 55.6317 124.702 55.5649 124.77 55.4917C124.806 55.5082 124.811 55.6035 125.075 55.5825C125.07 55.5607 124.762 55.5878 124.77 55.308" fill="#EC1C24"/>
<path d="M124.488 55.582C124.488 55.582 124.255 55.7493 124.209 55.7808C124.184 55.8348 124.158 56.0058 124.462 56.0058C124.481 55.9015 124.488 55.582 124.488 55.582Z" fill="#EC1C24"/>
<path d="M123.922 55.8362C123.851 55.8362 123.79 55.8205 123.798 55.7702C123.811 55.7406 123.835 55.7156 123.867 55.6994C123.9 55.6832 123.937 55.6767 123.974 55.681C124.04 55.693 124.151 55.7185 124.151 55.933C124.251 56.0158 124.383 56.0653 124.523 56.0724C124.699 56.0807 124.809 56.0619 124.809 56.1077V56.3987C124.534 56.3436 124.279 56.233 124.065 56.0762C124.041 56.0557 124.023 56.0313 124.011 56.0044C124 55.9775 123.995 55.9488 123.997 55.9202C123.993 55.8722 123.953 55.8362 123.928 55.8355" fill="#EC1C24"/>
<path d="M123.77 55.8672C123.682 55.8672 123.425 56.0487 123.615 56.1244C123.651 56.0971 123.685 56.0676 123.716 56.0359C123.716 56.0359 123.669 56.1409 123.77 56.1672C123.87 56.1934 123.831 56.1147 123.886 56.1177C123.917 56.1604 123.925 56.1867 123.974 56.1867C124.024 56.1867 124.04 56.0584 123.974 55.9857C123.909 55.9129 123.866 55.8702 123.769 55.8672" fill="#EC1C24"/>
<path d="M124.859 55.8906V56.4659C124.859 56.4659 125.085 56.4066 125.107 56.3586C125.098 56.2588 125.061 55.8869 124.859 55.8906Z" fill="#EC1C24"/>
<path d="M124.322 56.2703C124.459 56.3498 124.603 56.4199 124.753 56.4803C124.729 56.5058 124.617 56.6303 124.576 56.619C124.458 56.5228 124.369 56.4025 124.32 56.2695" fill="#EC1C24"/>
<path d="M123.388 56.5993H123.046L123.023 56.4883H123.388V56.5993Z" fill="#EC1C24"/>
<path d="M125.705 56.5917H126.967V56.4297H125.453L125.705 56.5917Z" fill="#EC1C24"/>
<path d="M125.161 56.4211C125.189 56.3971 125.362 56.5179 125.312 56.5404C125.131 56.6142 124.941 56.6735 124.747 56.7173C124.701 56.7038 124.716 56.6026 124.762 56.5823C124.903 56.5445 125.037 56.4903 125.161 56.4211Z" fill="#EC1C24"/>
<path d="M124.643 56.6931C124.586 56.6684 124.284 56.9182 124.416 56.9362C124.598 56.96 124.778 56.9946 124.954 57.0397C125.029 57.0112 125.1 56.9579 125.087 56.9271C125.139 56.9271 125.227 56.9977 125.294 56.9714C125.46 56.887 125.615 56.7893 125.759 56.6796C125.671 56.6145 125.566 56.5689 125.452 56.5469C125.385 56.5469 124.885 56.7996 124.641 56.6969" fill="#EC1C24"/>
<path d="M124.486 57.0057C124.652 57.0558 124.823 57.092 124.998 57.1137C125.094 57.098 125.112 57.0185 125.166 57.023C125.22 57.0275 125.247 57.0695 125.337 57.023C125.438 56.9647 125.532 56.8981 125.618 56.8242C125.623 56.8752 125.618 57.014 125.265 57.149C124.912 57.284 124.096 57.4827 124.075 57.578C124.146 57.5779 124.216 57.561 124.277 57.5292C124.319 57.5636 124.351 57.6064 124.369 57.6538C124.388 57.7012 124.392 57.7517 124.381 57.8007C124.36 57.9507 124.225 58.2095 124.225 58.2822C124.225 58.355 124.217 58.6752 124.225 58.7082C124.233 58.7412 124.295 58.925 124.191 58.9115C124.123 58.8994 124.053 58.8964 123.984 58.9025C123.942 58.9092 123.859 58.9662 123.786 58.958C123.713 58.9497 123.589 58.9182 123.594 58.8875C123.599 58.8567 123.682 58.8567 123.75 58.8342C123.818 58.8117 123.867 58.7457 124.002 58.7037C123.997 58.6287 123.957 58.0707 123.957 57.9537C123.932 57.7996 123.936 57.643 123.972 57.4902C124.032 57.3867 124.345 57.0042 124.489 57.0095" fill="#EC1C24"/>
<path d="M124.985 57.3408C124.975 57.3768 125.221 57.8823 125.326 57.8906C125.746 57.8268 126.171 57.786 126.597 57.7683C126.652 57.832 126.773 57.9543 126.764 58.0218C126.775 58.0793 126.779 58.1377 126.774 58.1958C126.801 58.1973 126.829 58.1921 126.853 58.1808C126.877 58.1695 126.896 58.1526 126.909 58.1321C126.919 58.0296 126.924 57.9267 126.921 57.8238C126.928 57.7848 127.045 57.5853 126.887 57.5891C126.633 57.5977 126.379 57.5874 126.127 57.5583C125.946 57.5098 125.755 57.4929 125.566 57.5088C125.485 57.5517 125.423 57.616 125.39 57.6918C125.355 57.6986 125.345 57.6693 125.379 57.5831C125.456 57.4299 125.503 57.2674 125.52 57.1016C125.4 57.1376 124.991 57.3408 124.991 57.3408" fill="#EC1C24"/>
<path d="M124.425 56.5446C124.435 56.5761 124.454 56.6051 124.48 56.6293L123.695 56.5866C123.695 56.5866 123.607 56.5386 123.64 56.5273L124.425 56.5446Z" fill="#EC1C24"/>
<path d="M123.561 56.4917H124.345C124.312 56.4535 124.285 56.4116 124.265 56.3672C124.127 56.3672 123.541 56.3769 123.541 56.3769C123.541 56.3769 123.453 56.3717 123.453 56.5022C123.453 56.5375 123.516 56.59 123.557 56.4925" fill="#EC1C24"/>
<path d="M122.811 56.603H122.972C122.972 56.603 123.024 56.5843 122.972 56.528C122.92 56.4718 122.818 56.4463 122.892 56.354C122.816 56.3428 122.705 56.3233 122.723 56.528H122.645C122.633 56.4909 122.605 56.4588 122.567 56.4374C122.529 56.416 122.483 56.4066 122.438 56.411C122.223 56.4416 122.013 56.4942 121.812 56.5678C122.019 56.6183 122.229 56.6573 122.441 56.6848C122.483 56.6813 122.523 56.67 122.56 56.6517C122.596 56.6335 122.627 56.6086 122.651 56.579H122.713C122.728 56.6193 122.748 56.6578 122.773 56.6938C122.773 56.7493 122.773 56.8235 122.773 56.8235C122.751 56.8315 122.732 56.8457 122.72 56.8638C122.709 56.8819 122.704 56.9029 122.708 56.9233C122.719 56.9983 122.768 56.9983 122.783 56.9983C122.798 56.9983 122.819 56.9743 122.882 56.9743C122.896 56.9498 122.899 56.9217 122.89 56.8956C122.88 56.8695 122.86 56.8472 122.833 56.8333C122.833 56.789 122.827 56.7403 122.827 56.7403C122.827 56.7403 122.892 56.705 122.885 56.6735C122.877 56.642 122.81 56.6435 122.81 56.5985" fill="#EC1C24"/>
<path d="M123.764 57.2451H123.768C123.803 57.2217 123.829 57.189 123.84 57.152V57.1468C123.84 57.1468 123.833 56.8423 123.833 56.7546C123.833 56.6541 123.634 56.5888 123.626 56.5858L123.614 56.582L123.604 56.5895C123.574 56.6141 123.536 56.6308 123.494 56.6376C123.47 56.6387 123.446 56.635 123.424 56.6267C123.403 56.6183 123.383 56.6056 123.368 56.5895L123.362 56.5843H123.353C123.193 56.5843 123.115 56.7485 123.111 56.7553V56.7613C123.103 56.8822 123.103 57.0034 123.111 57.1243C123.127 57.162 123.151 57.1967 123.182 57.2263C123.15 57.3223 122.987 57.8428 123.206 57.9088V57.998H123.735V57.9043C123.935 57.8293 123.808 57.3793 123.765 57.2473M123.156 56.7658C123.166 56.7463 123.232 56.6256 123.349 56.6203C123.368 56.638 123.391 56.6518 123.416 56.6609C123.442 56.67 123.47 56.6741 123.498 56.6728C123.545 56.6674 123.59 56.6499 123.625 56.6225C123.681 56.6428 123.794 56.6975 123.794 56.7538C123.794 56.8378 123.801 57.1145 123.802 57.1445C123.793 57.1702 123.776 57.1934 123.753 57.2113H123.649V57.041H123.296V57.2068H123.224C123.196 57.1808 123.174 57.1506 123.16 57.1176C123.152 57.0009 123.152 56.8839 123.16 56.7673M123.526 57.8353H123.431C123.42 57.8353 123.409 57.8315 123.401 57.8249C123.393 57.8182 123.389 57.8091 123.389 57.7997C123.389 57.7902 123.393 57.7812 123.401 57.7745C123.409 57.7678 123.42 57.7641 123.431 57.7641H123.526C123.537 57.7641 123.548 57.7678 123.556 57.7745C123.564 57.7812 123.568 57.7902 123.568 57.7997C123.568 57.8091 123.564 57.8182 123.556 57.8249C123.548 57.8315 123.537 57.8353 123.526 57.8353ZM123.724 57.8721L123.465 57.6268L123.228 57.8773C123.068 57.8331 123.17 57.4153 123.228 57.2413L123.725 57.248C123.781 57.4205 123.873 57.8098 123.725 57.8721" fill="#EC1C24"/>
<path d="M123.648 57.4191C123.664 57.4011 123.672 57.3781 123.669 57.3552C123.666 57.3324 123.653 57.3114 123.632 57.2969H123.322C123.223 57.2969 123.255 57.4139 123.255 57.4139L123.451 57.5564C123.526 57.5214 123.593 57.4749 123.648 57.4191Z" fill="#EC1C24"/>
<path d="M123.516 57.5829L123.701 57.7727C123.701 57.7727 123.682 57.5477 123.674 57.4727C123.63 57.4787 123.516 57.5806 123.516 57.5806" fill="#EC1C24"/>
<path d="M123.245 57.4766C123.238 57.5516 123.219 57.7766 123.219 57.7766L123.404 57.5868C123.404 57.5868 123.289 57.4848 123.245 57.4788" fill="#EC1C24"/>
<path d="M123.614 56.9844H123.646V56.9574C123.646 56.9501 123.643 56.943 123.637 56.9378C123.631 56.9326 123.622 56.9297 123.614 56.9297H123.322C123.313 56.9297 123.305 56.9326 123.299 56.9378C123.293 56.943 123.289 56.9501 123.289 56.9574V56.9844H123.614Z" fill="#EC1C24"/>
<path d="M123.191 58.0234H123.156V58.0535C123.156 58.0613 123.16 58.0688 123.166 58.0744C123.173 58.08 123.181 58.0833 123.191 58.0835H123.736C123.745 58.0835 123.754 58.0803 123.761 58.0747C123.768 58.069 123.771 58.0614 123.771 58.0535V58.0234H123.191Z" fill="#EC1C24"/>
</g>
<g clip-path="url(#clip7_2009_25148)">
<path d="M169.879 41.2H211.121C212.08 41.2 212.8 41.8549 212.8 42.5975V69.4025C212.8 70.1451 212.08 70.8 211.121 70.8H169.879C168.92 70.8 168.2 70.1451 168.2 69.4025V42.5975C168.2 41.8549 168.92 41.2 169.879 41.2Z" fill="white" stroke="#EDEDED" stroke-width="0.4"/>
<path d="M199.047 60.5391C199.062 60.5397 199.077 60.5408 199.092 60.5414V60.5397C199.077 60.5397 199.062 60.5397 199.047 60.5391Z" fill="#807AB7"/>
<path d="M199.109 57.3242V57.3265H199.115" fill="#4A4A49"/>
<path d="M183.993 54.8477C184.833 54.8477 185.517 54.2721 185.517 53.5644C185.517 52.8568 184.833 52.2812 183.993 52.2812C183.152 52.2812 182.469 52.8568 182.469 53.5644C182.469 54.2721 183.152 54.8477 183.993 54.8477Z" fill="#004899"/>
<path d="M174.805 54.8477C175.646 54.8477 176.33 54.2721 176.33 53.5644C176.33 52.8568 175.646 52.2812 174.805 52.2812C173.965 52.2812 173.281 52.8568 173.281 53.5644C173.281 54.2721 173.965 54.8477 174.805 54.8477Z" fill="#FFD600"/>
<path d="M184.855 55.5781H183.374C183.011 55.5781 182.717 55.8262 182.717 56.1312V56.6437C182.717 58.0756 181.599 58.6615 180.847 58.8935C180.832 58.8983 180.818 58.9027 180.803 58.907C180.788 58.9118 180.773 58.9157 180.758 58.9204C180.289 59.0651 179.829 59.1129 179.422 59.1116V59.1129C180.108 59.1186 180.664 59.5894 180.664 60.1685C180.664 60.7445 180.113 61.2142 179.432 61.2237C180.686 61.2315 181.466 61.0378 181.556 61.0138C182.526 60.8184 183.333 60.4752 183.957 59.9817C184.989 59.1646 185.513 57.9622 185.513 56.4083V56.1307C185.512 55.8262 185.218 55.5781 184.855 55.5781Z" fill="#004899"/>
<path d="M179.409 59.1129H179.406V59.1115C178.563 59.1072 177.946 58.8939 177.946 58.8939C177.194 58.6615 176.076 58.0759 176.076 56.6437V56.1311C176.076 55.8262 175.782 55.5781 175.419 55.5781H173.938C173.576 55.5781 173.281 55.8262 173.281 56.1311V56.4087C173.281 57.9625 173.804 59.165 174.837 59.9821C175.458 60.4734 176.26 60.8157 177.225 61.0116H177.204C177.244 61.019 177.284 61.0255 177.323 61.0321C177.582 61.0811 177.853 61.1198 178.135 61.148C178.583 61.1976 178.995 61.2189 179.367 61.2232C179.388 61.2236 179.41 61.2241 179.432 61.2241C180.113 61.2141 180.665 60.7449 180.665 60.1689C180.664 59.5868 180.101 59.1129 179.409 59.1129Z" fill="#FFD600"/>
<path d="M194.55 58.1905C194.509 58.3374 194.517 58.4842 194.656 58.6571C194.904 58.9655 195.408 59.1341 195.825 58.9846C196.323 58.8066 197.603 58.1871 198.526 57.4182V59.3622C198.526 59.5011 198.66 59.6141 198.825 59.6141H199.568C199.734 59.6141 199.868 59.5011 199.868 59.3622V55.959C199.868 55.8791 199.945 55.8139 200.04 55.8139H200.663C200.735 55.8139 200.793 55.863 200.793 55.9234V59.3622C200.793 59.5011 200.928 59.6141 201.093 59.6141H201.836C202.002 59.6141 202.135 59.5011 202.135 59.3622V54.9747C202.135 54.8356 202.001 54.7227 201.836 54.7227H198.825C198.66 54.7227 198.526 54.8356 198.526 54.9747C198.526 55.0963 198.523 55.4881 198.527 55.6093C197.865 55.1567 197.567 54.936 196.267 54.82C195.877 54.7852 195.482 54.8109 195.107 54.9082C194.211 55.141 194.215 55.5633 194.212 55.6428C194.201 55.9134 194.304 56.1801 194.503 56.3921C194.71 56.6115 194.82 56.883 194.832 57.1614C194.841 57.3626 194.799 57.5637 194.73 57.7553C194.671 57.9138 194.589 58.052 194.55 58.1905ZM195.709 56.0993C195.636 56.0463 195.654 55.9464 195.743 55.9143C196.222 55.7409 197.968 56.1453 197.897 56.4395C197.825 56.7401 195.724 58.0611 195.895 57.6089C195.922 57.5372 196.015 57.2826 196.036 57.2014C196.072 57.0689 196.093 56.9351 196.086 56.7987C196.07 56.4985 195.921 56.323 195.709 56.0993Z" fill="#4A4A49"/>
<path d="M207.493 54.7227H202.891C202.723 54.7227 202.587 54.8326 202.591 54.966L202.57 55.6236C202.57 55.6271 202.571 55.6311 202.571 55.6354C202.583 55.8117 202.54 56.2231 202.709 56.4859C202.797 56.6245 202.981 56.7092 203.257 56.7435C203.532 56.7783 203.809 56.7978 203.897 56.8752C204.236 57.1758 203.624 57.3083 203.231 57.4242C202.697 57.582 202.584 57.7236 202.584 58.0776C202.584 58.462 202.513 58.6701 202.696 59.0316C202.892 59.4208 203.335 59.36 203.777 59.3343C206.451 59.1792 206.478 59.8482 207.308 59.5242C207.664 59.3852 207.786 59.1519 207.796 58.8135C207.801 58.6753 207.793 58.5346 207.793 58.396V57.0837V54.9603C207.793 54.8291 207.659 54.7227 207.493 54.7227ZM206.133 58.3378C205.388 58.2166 204.445 58.2566 204.357 58.2431C204.139 58.2105 204.111 58.0341 204.36 57.9108C204.502 57.84 205.434 57.5997 205.449 56.9816V56.9738C205.456 56.6693 205.228 56.3943 204.881 56.2878L204.449 56.1554C204.232 56.1201 204.139 55.962 204.139 55.8721C204.139 55.8352 204.166 55.8195 204.194 55.813C204.228 55.8057 204.712 55.8113 204.712 55.8113H206.102C206.267 55.8113 206.401 55.9177 206.401 56.049C206.42 56.3751 206.434 56.5845 206.444 56.9103C206.451 57.1632 206.457 57.416 206.455 57.6684C206.454 57.734 206.492 58.0142 206.493 58.2053C206.494 58.4377 206.223 58.3526 206.133 58.3378Z" fill="#4A4A49"/>
<path d="M193.64 55.8109C193.805 55.8109 193.939 55.695 193.939 55.552V54.9886C193.939 54.8457 193.805 54.7297 193.64 54.7297L192.912 54.7184C193.216 54.3396 193.194 53.3626 191.996 53.1897C191.272 53.085 190.143 53.5933 189.446 53.145C189.175 52.9708 188.894 52.9447 188.777 53.2041C188.722 53.3257 188.68 53.4564 188.664 53.5646C188.649 53.6641 188.634 53.9325 188.968 54.1202C189.342 54.3305 190.119 54.4091 191.329 54.1975C191.936 54.0915 192.14 54.7297 191.497 54.7297H189.97H188.802C188.637 54.7297 188.503 54.8457 188.503 54.9891V55.552C188.503 55.695 188.637 55.8109 188.802 55.8109L190.553 55.8105C190.553 55.8105 190.553 56.486 190.556 57.1637C190.558 57.6558 190.875 57.8561 191.807 57.761L192.566 57.6524C192.648 57.6384 192.722 57.6997 192.708 57.771C192.608 58.2922 191.902 58.5564 191.094 58.5134C190.546 58.4843 190.182 58.3401 190.03 58.1089C189.642 57.5211 189.734 56.4096 189.734 56.4096C189.734 56.2666 189.6 56.1507 189.435 56.1507H188.833C188.76 56.1507 188.692 56.1737 188.64 56.2119C188.575 56.2593 188.487 56.5012 188.463 56.7171C188.43 57.0351 188.416 57.5251 188.503 57.86C188.816 59.0629 189.592 59.6515 191.28 59.6515C192.16 59.6515 192.787 59.38 193.209 59.0802C193.678 58.7475 193.94 58.3135 193.94 57.7887V56.9868C193.94 56.8692 193.904 56.6163 193.609 56.5299C193.494 56.4964 193.369 56.5029 193.254 56.5381L192.401 56.7088C192.395 56.7106 192.388 56.7127 192.382 56.7136C192.126 56.7627 191.998 56.7436 191.895 56.6646C191.819 56.6059 191.781 56.5194 191.782 56.4326L191.785 55.8123L193.64 55.8109Z" fill="#4A4A49"/>
<path d="M204.93 61.2067C205.511 61.2688 206.002 60.8557 205.928 60.3666C205.878 60.0329 205.558 59.7636 205.162 59.7211C204.58 59.6589 204.09 60.0721 204.164 60.5616C204.214 60.8953 204.534 61.1646 204.93 61.2067Z" fill="#4A4A49"/>
</g>
<defs>
<linearGradient id="paint0_linear_2009_25148" x1="11.0062" y1="52.2201" x2="34.6457" y2="52.2201" gradientUnits="userSpaceOnUse">
<stop stop-color="#949494"/>
<stop offset="0.055" stop-color="#A6A6A6"/>
<stop offset="0.165" stop-color="#D5D5D5"/>
<stop offset="0.2527" stop-color="white"/>
<stop offset="0.3697" stop-color="#CACACA"/>
<stop offset="0.5142" stop-color="#8F8F8F"/>
<stop offset="0.621" stop-color="#6A6A6A"/>
<stop offset="0.6774" stop-color="#5C5C5C"/>
<stop offset="0.7181" stop-color="#636464"/>
<stop offset="0.7796" stop-color="#787878"/>
<stop offset="0.8543" stop-color="#9A9A9A"/>
<stop offset="0.9386" stop-color="#C9C9C9"/>
<stop offset="1" stop-color="#EFF0F0"/>
</linearGradient>
<linearGradient id="paint1_linear_2009_25148" x1="22.9596" y1="44.8745" x2="22.9596" y2="58.2628" gradientUnits="userSpaceOnUse">
<stop stop-color="#C2C4C6"/>
<stop offset="0.2146" stop-color="#DCDDDE"/>
<stop offset="0.4462" stop-color="white"/>
<stop offset="0.766" stop-color="#C2C4C6"/>
<stop offset="1" stop-color="#9C9FA1"/>
</linearGradient>
<clipPath id="clip0_2009_25148">
<rect width="45" height="30" fill="white"/>
</clipPath>
<clipPath id="clip1_2009_25148">
<rect width="45" height="30" fill="white" transform="translate(56)"/>
</clipPath>
<clipPath id="clip2_2009_25148">
<rect width="45" height="30" fill="white" transform="translate(112)"/>
</clipPath>
<clipPath id="clip3_2009_25148">
<rect width="45" height="30" fill="white" transform="translate(168)"/>
</clipPath>
<clipPath id="clip4_2009_25148">
<rect width="45" height="30" fill="white" transform="translate(0 41)"/>
</clipPath>
<clipPath id="clip5_2009_25148">
<rect width="45" height="30" fill="white" transform="translate(56 41)"/>
</clipPath>
<clipPath id="clip6_2009_25148">
<rect width="45" height="30" fill="white" transform="translate(112 41)"/>
</clipPath>
<clipPath id="clip7_2009_25148">
<rect width="45" height="30" fill="white" transform="translate(168 41)"/>
</clipPath>
</defs>
</svg>
