<svg width="62" height="26" viewBox="0 0 62 26" fill="none" xmlns="http://www.w3.org/2000/svg">
  <path
    d="M10.3227 12.7207H9.89551V14.3279H9.99926C10.0577 13.7545 10.1655 13.2172 10.3227 12.7207Z"
    fill="#00994E" />
  <path d="M9.9043 18.082V18.4477H10.0048C9.93702 18.2133 9.9043 18.082 9.9043 18.082Z"
    fill="#00994E" />
  <path d="M9.89551 15.7392C9.89551 15.5259 9.90366 15.3325 9.9243 15.1396H9.89551V15.7392Z"
    fill="#00994E" />
  <path
    d="M14.584 9.97168H11.6948C11.2537 10.5547 10.8789 11.2125 10.5869 11.9785H13.3879C13.7006 11.2015 14.1137 10.5321 14.584 9.97168Z"
    fill="#00994E" />
  <path d="M9.91433 25.1641H4.11914V25.7976H9.91433V25.1641Z" fill="#00994E" />
  <path d="M9.91433 23.9102H4.11914V24.6346H9.91433V23.9102Z" fill="#00994E" />
  <path d="M9.91433 22.4336H4.11914V23.2112H9.91433V22.4336Z" fill="#00994E" />
  <path
    d="M9.91433 18.0817C9.91433 18.0817 9.94705 18.2131 10.0148 18.4474H14.2622L14.1947 18.3385C13.9945 17.9601 13.8066 17.5937 13.6545 17.2285H4.11914V18.4474H9.91433V18.0817Z"
    fill="#00994E" />
  <path
    d="M13.1612 12.7207H10.3332C10.176 13.217 10.0682 13.7545 10.0098 14.3279H12.9905C12.9749 13.7545 13.0472 13.2248 13.1612 12.7207Z"
    fill="#00994E" />
  <path d="M9.91433 21.0352H4.11914V21.791H9.91433V21.0352Z" fill="#00994E" />
  <path
    d="M13.4307 23.9102C13.8447 24.2105 14.2722 24.4675 14.7749 24.634H20.6217C20.8588 24.5276 21.2692 24.2964 21.7608 23.9102H13.4307Z"
    fill="#00994E" />
  <path d="M9.91433 19.2441H4.11914V20.2268H9.91433V19.2441Z" fill="#00994E" />
  <path
    d="M14.7731 19.2441H10.2695C10.3816 19.5516 10.5117 19.8687 10.6708 20.2261H15.4748C15.2463 19.9454 14.9978 19.6155 14.7731 19.2441Z"
    fill="#00994E" />
  <path
    d="M24.555 20.2261C24.695 19.9328 24.8333 19.6022 24.9445 19.2441H17.9048C17.8564 19.6022 17.8315 19.9328 17.8174 20.2261H24.555Z"
    fill="#00994E" />
  <path d="M17.9735 0.00976562H0.186523V2.92033H17.9735V0.00976562Z" fill="#00994E" />
  <path
    d="M23.2334 22.4336H11.9512C12.1522 22.7116 12.3778 22.9794 12.6026 23.2112H22.543C22.7683 22.9792 22.9955 22.734 23.2334 22.4336Z"
    fill="#00994E" />
  <path
    d="M25.7194 15.8128C25.7409 15.6475 25.7516 15.424 25.7327 15.1396H19.4582C19.1399 15.5278 18.8839 15.9639 18.6787 16.4092H25.642C25.6619 16.2157 25.6993 16.0018 25.7194 15.8128Z"
    fill="#00994E" />
  <path
    d="M25.3082 12.7207H20.9635L21.568 13.4733C21.0656 13.698 20.6274 13.9863 20.2393 14.3277H25.656C25.5882 13.8295 25.4788 13.2934 25.3082 12.7207Z"
    fill="#00994E" />
  <path
    d="M25.4867 17.2285H18.3533C18.2043 17.6397 18.1086 18.0426 18.0293 18.4474H25.2106C25.3063 18.0567 25.416 17.6635 25.4867 17.2285Z"
    fill="#00994E" />
  <path
    d="M15.3458 9.16671C16.2369 8.32693 17.0455 7.89849 17.0455 7.89849L18.0785 9.16671H23.2479C22.2827 8.17959 20.9728 7.38992 19.2068 7.02734H16.1491C15.0543 7.31687 13.6268 7.96313 12.415 9.16671H15.3458Z"
    fill="#00994E" />
  <path d="M9.90618 7.02734H4.11914V9.16671H9.90618V7.02734Z" fill="#00994E" />
  <path
    d="M17.793 21.0352C17.793 21.3259 17.8234 21.5815 17.8234 21.791H23.6945C23.8515 21.543 24.008 21.3023 24.1578 21.0352H17.793Z"
    fill="#00994E" />
  <path
    d="M13.0534 15.1396H9.93497C9.91433 15.3325 9.90618 15.5259 9.90618 15.7392V15.1396H4.11914V16.4092H13.3432C13.2055 15.9806 13.1084 15.5591 13.0534 15.1396Z"
    fill="#00994E" />
  <path d="M17.9735 3.83496H0.186523V6.19785H4.11272V6.21265H17.9735V3.83496Z" fill="#00994E" />
  <path d="M9.90618 9.97168H4.11914V11.9785H9.90618V9.97168Z" fill="#00994E" />
  <path
    d="M25.0392 11.9785C24.7772 11.3066 24.4113 10.6129 23.9444 9.97168H18.7441L20.3739 11.9785H25.0392Z"
    fill="#00994E" />
  <path d="M9.90618 12.7207H4.11914V14.3279H9.90618V12.7207Z" fill="#00994E" />
  <path
    d="M16.1712 21.0352H11.0576C11.1858 21.2933 11.3379 21.543 11.5052 21.791H17.0179C16.7735 21.5982 16.4921 21.3471 16.1712 21.0352Z"
    fill="#00994E" />
  <path d="M53.2832 24.634H58.0663C58.3664 24.4271 58.6361 24.1747 58.9122 23.9102H53.2832V24.634Z"
    fill="#00994E" />
  <path
    d="M26.8371 20.2261H35.0892V19.4735C33.9716 19.8251 33.153 19.6157 32.597 19.2441H26.5029C26.607 19.6022 26.7136 19.9328 26.8371 20.2261Z"
    fill="#00994E" />
  <path d="M45.207 11.9785H50.2063C50.2063 11.238 50.1945 10.5547 50.1739 9.97168H45.207V11.9785Z"
    fill="#00994E" />
  <path
    d="M45.207 9.16671H50.1406C50.1406 9.01421 50.1324 8.87393 50.1296 8.76189C50.0785 8.02777 50.1406 7.47127 50.2586 7.02734H45.2374C45.207 7.13625 45.207 7.19451 45.207 7.19451V9.16671Z"
    fill="#00994E" />
  <path
    d="M37.0261 18.4474H42.0513L42.0304 17.2285H37.0176C37.0261 17.6096 37.0261 18.0214 37.0261 18.4474Z"
    fill="#00994E" />
  <path
    d="M33.5511 7.04628C31.4792 7.35889 29.9771 8.15833 28.9004 9.1665H39.4835C36.9878 6.81515 33.5511 7.04628 33.5511 7.04628Z"
    fill="#00994E" />
  <path
    d="M26.3086 14.3279H31.6937C32.2739 13.4221 33.1693 13.1217 33.1693 13.1217C35.5622 12.3287 36.4613 13.4412 36.8039 14.3279H41.9239C41.8459 13.7545 41.7201 13.2172 41.5886 12.7207H26.6896C26.5214 13.2587 26.3932 13.8076 26.3086 14.3279Z"
    fill="#00994E" />
  <path
    d="M37.001 15.2165C37.001 15.2165 37.001 15.6968 37.0139 16.4092H42.0076L41.9979 15.1396H37.001V15.2165Z"
    fill="#00994E" />
  <path d="M45.207 14.3279H50.2131C50.2131 13.7788 50.2131 13.2422 50.2131 12.7207H45.207V14.3279Z"
    fill="#00994E" />
  <path
    d="M37.0359 23.2112H50.0615C50.123 22.8743 50.1327 22.5989 50.1327 22.4336H37.001C37.0008 22.7269 37.0139 22.9792 37.0359 23.2112Z"
    fill="#00994E" />
  <path d="M45.207 20.2261H50.1552C50.1676 19.9328 50.1676 19.6022 50.1739 19.2441H45.207V20.2261Z"
    fill="#00994E" />
  <path
    d="M37.0176 21.791H50.1392C50.1392 21.5944 50.1474 21.3297 50.1474 21.0352H37.0261C37.026 21.3144 37.0176 21.5777 37.0176 21.791Z"
    fill="#00994E" />
  <path
    d="M52.4336 0.00867987C49.3248 0.173946 47.5613 1.36014 46.5479 2.91992H57.9235C56.6765 0.966192 54.7268 -0.108514 52.4336 0.00867987Z"
    fill="#00994E" />
  <path d="M27.5791 21.791H35.0906V21.0352H27.1699C27.3022 21.3021 27.4317 21.543 27.5791 21.791Z"
    fill="#00994E" />
  <path d="M45.207 16.4082H50.1945C50.2063 15.9926 50.2063 15.5614 50.2063 15.1387H45.207V16.4082Z"
    fill="#00994E" />
  <path
    d="M45.3213 6.21265H50.571C50.7544 5.91987 50.9144 5.78855 50.9144 5.78855C53.0519 4.36729 54.2143 5.47921 54.6961 6.21265H59.2109C59.1865 6.07359 59.1654 5.9397 59.1196 5.78855C58.9777 5.1173 58.7409 4.44605 58.4414 3.83496H46.0363C45.6312 4.72838 45.4278 5.5945 45.3213 6.21265Z"
    fill="#00994E" />
  <path d="M45.2072 18.4474H50.1816C50.1816 18.0464 50.1816 17.6397 50.1945 17.2285H45.207V18.4474"
    fill="#00994E" />
  <path
    d="M37.1875 23.9102C37.2532 24.1907 37.3587 24.4399 37.4571 24.634H49.5211C49.675 24.4182 49.7896 24.1536 49.8742 23.9102H37.1875Z"
    fill="#00994E" />
  <path
    d="M51.9102 11.2809V11.9785H58.9376C59.0383 11.6569 59.2232 10.9536 59.3336 9.97168H54.9057C54.1006 11.6914 51.9102 11.2809 51.9102 11.2809Z"
    fill="#00994E" />
  <path
    d="M41.338 11.9785C41.0292 11.1849 40.6583 10.5321 40.2324 9.97168H28.1357C27.6268 10.6014 27.255 11.2809 26.9746 11.9785H41.338Z"
    fill="#00994E" />
  <path d="M51.9102 14.3279H60.3525C60.009 13.6406 59.6392 13.0955 59.3474 12.7207H51.9102V14.3279Z"
    fill="#00994E" />
  <path d="M29.3066 23.9102C29.6236 24.1792 29.9442 24.4399 30.2742 24.634H35.0926V23.9102H29.3066Z"
    fill="#00994E" />
  <path d="M53.2832 25.9315C54.6368 26.1487 56.0277 25.8457 57.2618 25.166H53.2832V25.9315Z"
    fill="#00994E" />
  <path
    d="M55.1492 9.16671H59.3915C59.4226 8.51651 59.4087 7.79528 59.3315 7.02734H55.0381C55.2008 7.90487 55.2313 8.60627 55.1492 9.16671Z"
    fill="#00994E" />
  <path
    d="M31.339 15.1396H26.1971C26.1583 15.5989 26.1299 16.0255 26.1299 16.4092H31.2124C31.1843 15.9352 31.2277 15.5086 31.339 15.1396Z"
    fill="#00994E" />
  <path
    d="M37.0254 19.2441C37.0254 19.5881 37.0254 19.9328 37.0254 20.2261H42.0746L42.0507 19.2441H37.0254Z"
    fill="#00994E" />
  <path
    d="M31.6356 18.17C31.5057 17.8312 31.4103 17.5301 31.3511 17.2285H26.1455C26.18 17.8114 26.2358 18.17 26.2358 18.17C26.246 18.2577 26.2764 18.3501 26.2871 18.4474H31.7925C31.6819 18.2789 31.6356 18.17 31.6356 18.17Z"
    fill="#00994E" />
  <path
    d="M53.2833 23.2112H59.5662C59.7711 22.9794 59.9457 22.7116 60.1187 22.4336H53.2832L53.2833 23.2112Z"
    fill="#00994E" />
  <path
    d="M55.5882 18.4474H61.2931C61.2965 18.0214 61.2691 17.618 61.2406 17.2285H55.3145C55.4888 17.6743 55.5729 18.0817 55.5882 18.4474Z"
    fill="#00994E" />
  <path
    d="M51.9102 16.0832C53.2264 15.8378 54.0805 16.108 54.5897 16.4092H61.0894C60.991 15.9641 60.8564 15.5279 60.6977 15.1396H51.9103L51.9102 16.0832Z"
    fill="#00994E" />
  <path
    d="M55.0059 20.2261H61.0504C61.1339 19.9045 61.2022 19.5721 61.242 19.2441H55.5241C55.4248 19.6452 55.2337 19.9757 55.0059 20.2261Z"
    fill="#00994E" />
  <path
    d="M27.9824 22.4336C28.1882 22.7269 28.3852 22.9794 28.5904 23.2112H35.0878V22.4336H27.9824Z"
    fill="#00994E" />
  <path
    d="M53.2832 21.3145V21.791H60.4664C60.5437 21.6604 60.6058 21.5277 60.6527 21.399C60.7119 21.2721 60.7501 21.1537 60.8011 21.0352H53.9902C53.5874 21.228 53.2832 21.3145 53.2832 21.3145Z"
    fill="#00994E" />
  <path
    d="M20.6261 24.6348H14.7793L14.9645 24.6975C14.9645 24.6975 15.4398 24.9781 16.2405 25.1657H19.202C19.6205 25.0601 20.0431 24.9076 20.4961 24.6975L20.6261 24.6348Z"
    fill="#00994E" />
  <path
    d="M49.5279 24.6348H37.4639C37.5824 24.8488 37.7031 25.032 37.8449 25.1657H49.1057C49.2809 24.9998 49.4085 24.8231 49.5279 24.6348Z"
    fill="#00994E" />
  <path d="M30.2734 24.6348C30.6 24.8488 30.9147 24.9999 31.2463 25.1657H35.0918V24.6348H30.2734Z"
    fill="#00994E" />
</svg>