<svg width="866" height="471" viewBox="0 0 866 471" fill="none" xmlns="http://www.w3.org/2000/svg">
  <path
    d="M712.428 96.1439C712.306 95.3645 712.032 94.6168 711.62 93.9435C711.209 93.2701 710.67 92.6844 710.032 92.2196C709.395 91.7549 708.672 91.4202 707.905 91.2348C707.138 91.0494 706.343 91.0168 705.563 91.1389C704.784 91.261 704.036 91.5355 703.363 91.9466C702.689 92.3577 702.104 92.8974 701.639 93.5348C701.174 94.1723 700.839 94.8951 700.654 95.6619C700.469 96.4287 700.436 97.2245 700.558 98.0039C701.418 103.604 702.558 121.144 696.468 128.194C695.232 129.687 693.5 130.684 691.588 131.004L692.138 97.6039C692.173 96.4386 691.972 95.2783 691.549 94.1919C691.126 93.1056 690.489 92.1156 689.675 91.2807C688.861 90.4459 687.888 89.7833 686.813 89.3324C685.738 88.8815 684.583 88.6516 683.417 88.6563C682.251 88.661 681.098 88.9002 680.027 89.3598C678.955 89.8193 677.987 90.4897 677.18 91.3311C676.373 92.1725 675.744 93.1676 675.329 94.2573C674.915 95.347 674.724 96.5089 674.768 97.6739L676.338 161.064C674.352 160.777 672.54 159.77 671.248 158.234C665.248 151.174 666.298 133.634 667.158 128.034C667.28 127.255 667.246 126.459 667.06 125.692C666.874 124.926 666.539 124.203 666.074 123.566C665.609 122.929 665.023 122.39 664.349 121.98C663.675 121.569 662.928 121.295 662.148 121.174C661.369 121.052 660.573 121.086 659.806 121.272C659.04 121.458 658.318 121.793 657.681 122.258C657.043 122.723 656.504 123.31 656.094 123.983C655.683 124.657 655.41 125.405 655.288 126.184C654.848 128.934 651.378 153.494 662.108 166.034C663.911 168.156 666.132 169.885 668.631 171.113C671.131 172.342 673.856 173.043 676.638 173.174L677.318 200.764H690.438L691.438 143.124C694.156 142.946 696.812 142.225 699.246 141.002C701.68 139.779 703.843 138.079 705.608 136.004C716.338 123.464 712.858 98.9039 712.428 96.1439Z"
    fill="#F07E80" />
  <path
    d="M152.429 149.883C152.273 148.88 151.724 147.979 150.904 147.38C150.083 146.781 149.058 146.532 148.054 146.688C147.05 146.845 146.15 147.394 145.551 148.214C144.952 149.035 144.703 150.06 144.859 151.063C145.409 154.633 146.109 165.813 142.259 170.313C141.468 171.26 140.366 171.895 139.149 172.103L139.499 150.813C139.499 149.344 138.916 147.935 137.877 146.896C136.838 145.857 135.429 145.273 133.959 145.273C132.49 145.273 131.081 145.857 130.042 146.896C129.003 147.935 128.419 149.344 128.419 150.813L129.419 191.223C128.153 191.042 126.998 190.397 126.179 189.413C122.329 184.923 123.029 173.743 123.579 170.173C123.657 169.676 123.637 169.169 123.519 168.68C123.401 168.191 123.188 167.729 122.891 167.323C122.595 166.916 122.222 166.572 121.793 166.309C121.363 166.047 120.886 165.872 120.389 165.793C119.892 165.715 119.385 165.736 118.896 165.854C118.406 165.972 117.945 166.185 117.539 166.481C117.132 166.778 116.788 167.151 116.525 167.58C116.263 168.01 116.087 168.486 116.009 168.983C115.729 170.743 113.509 186.403 120.359 194.393C121.511 195.744 122.926 196.844 124.519 197.626C126.111 198.409 127.847 198.857 129.619 198.943L130.049 216.533H138.409L139.019 179.783C140.757 179.677 142.455 179.221 144.011 178.443C145.568 177.664 146.952 176.579 148.079 175.253C154.919 167.293 152.709 151.643 152.429 149.883Z"
    fill="#F07E80" />
  <path
    d="M432.998 470.99C671.867 470.99 865.508 402.436 865.508 317.87C865.508 233.304 671.867 164.75 432.998 164.75C194.13 164.75 0.488281 233.304 0.488281 317.87C0.488281 402.436 194.13 470.99 432.998 470.99Z"
    fill="url(#paint0_linear_2231_6117)" fill-opacity="0.95" />
  <path
    d="M359.588 157.453H347.748C343.009 157.448 338.466 155.564 335.114 152.214C331.763 148.864 329.876 144.322 329.868 139.583C329.868 138.365 329.385 137.196 328.524 136.334C327.664 135.472 326.496 134.986 325.278 134.983H311.558C309.797 134.983 308.108 134.284 306.863 133.038C305.618 131.793 304.918 130.104 304.918 128.343C304.918 126.582 305.618 124.893 306.863 123.648C308.108 122.403 309.797 121.703 311.558 121.703H325.278C330.018 121.708 334.563 123.594 337.915 126.946C341.267 130.298 343.153 134.843 343.158 139.583C343.161 140.8 343.645 141.966 344.505 142.826C345.366 143.686 346.531 144.17 347.748 144.173H359.588C360.46 144.173 361.323 144.345 362.129 144.679C362.935 145.012 363.667 145.501 364.283 146.118C364.9 146.735 365.389 147.467 365.723 148.272C366.056 149.078 366.228 149.941 366.228 150.813C366.228 151.685 366.056 152.549 365.723 153.354C365.389 154.16 364.9 154.892 364.283 155.508C363.667 156.125 362.935 156.614 362.129 156.948C361.323 157.281 360.46 157.453 359.588 157.453Z"
    fill="#F07E80" />
  <path
    d="M398.641 0C363.331 0 333.461 29.64 332.641 64.81C331.821 102.48 332.361 139.68 338.641 176.92C341.578 191.628 345.435 206.136 350.191 220.36C352.191 226.02 358.711 230.6 364.421 230.6H365.421C371.141 230.6 373.671 226.11 371.421 220.54C369.891 216.74 371.831 213.69 375.611 213.74C379.381 213.8 383.611 216.91 385.251 220.66C387.641 226.17 394.531 230.6 400.251 230.6H401.251C406.971 230.6 409.121 226.26 406.501 220.85C404.711 217.15 406.501 214.18 410.241 214.23C414.011 214.28 418.431 217.32 420.321 220.97C423.101 226.33 430.321 230.6 436.081 230.6H437.081C442.801 230.6 444.571 226.42 441.571 221.16C439.571 217.57 441.111 214.66 444.881 214.71C448.651 214.77 453.251 217.71 455.401 221.28C458.551 226.48 466.191 230.6 471.911 230.6H472.431C478.431 230.6 479.891 226.37 476.371 221C468.721 208.387 462.776 194.815 458.691 180.64C450.271 142.5 453.801 104.79 458.121 66.34C462.401 30.26 434.911 0 398.641 0Z"
    fill="#F50308" />
  <path
    d="M345.069 77.943C351.299 82.343 361.439 74.543 356.509 57.203C356.459 56.9997 356.345 56.8175 356.185 56.6821C356.026 56.5468 355.827 56.465 355.618 56.4484C355.409 56.4319 355.201 56.4813 355.021 56.5898C354.842 56.6982 354.702 56.8603 354.619 57.053C350.069 67.863 337.649 72.713 345.069 77.943Z"
    fill="white" />
  <path
    d="M373.186 53.3364C365.746 56.4764 379.066 98.1264 399.806 84.9964C412.426 76.9964 401.036 69.1364 388.226 64.3764C380.446 61.4964 377.666 51.4464 373.186 53.3364Z"
    fill="white" />
  <path
    d="M369.648 113.092C375.072 113.092 379.468 106.69 379.468 98.7922C379.468 90.8945 375.072 84.4922 369.648 84.4922C364.225 84.4922 359.828 90.8945 359.828 98.7922C359.828 106.69 364.225 113.092 369.648 113.092Z"
    fill="white" />
  <path
    d="M407.629 157.453H395.789C391.05 157.448 386.507 155.564 383.156 152.214C379.804 148.864 377.917 144.322 377.909 139.583C377.909 138.365 377.426 137.196 376.565 136.334C375.705 135.472 374.537 134.986 373.319 134.983H359.589C357.828 134.983 356.139 134.284 354.894 133.038C353.649 131.793 352.949 130.104 352.949 128.343C352.949 126.582 353.649 124.893 354.894 123.648C356.139 122.403 357.828 121.703 359.589 121.703H373.319C378.058 121.711 382.6 123.598 385.95 126.949C389.3 130.301 391.184 134.844 391.189 139.583C391.192 140.801 391.678 141.969 392.54 142.829C393.402 143.69 394.571 144.173 395.789 144.173H407.629C408.501 144.173 409.365 144.345 410.17 144.679C410.976 145.012 411.708 145.501 412.324 146.118C412.941 146.735 413.43 147.467 413.764 148.272C414.097 149.078 414.269 149.941 414.269 150.813C414.269 151.685 414.097 152.549 413.764 153.354C413.43 154.16 412.941 154.892 412.324 155.508C411.708 156.125 410.976 156.614 410.17 156.948C409.365 157.281 408.501 157.453 407.629 157.453Z"
    fill="#F07E80" />
  <defs>
    <linearGradient id="paint0_linear_2231_6117" x1="432.998" y1="95.36" x2="432.998" y2="317.869"
      gradientUnits="userSpaceOnUse">
      <stop stop-color="#FDFDFD" />
      <stop stop-color="white" />
      <stop offset="0.963542" stop-color="#F7F7F7" />
    </linearGradient>
  </defs>
</svg>
  