<svg width="51" height="51" viewBox="0 0 51 51" fill="none" xmlns="http://www.w3.org/2000/svg">
  <g clip-path="url(#clip0_2334_696)">
    <path fillRule="evenodd" clipRule="evenodd"
      d="M37.0269 30.2169C35.033 31.6314 33.5999 30.978 32.2929 29.6353C30.5399 27.9677 28.9557 28.6989 27.4541 29.8355L21.0467 34.5265L7.66003 34.5647L20.5128 25.0681L1.86291 25.2588L4.57077 22.7416C12.0587 22.7289 19.5466 22.7162 27.0346 22.7035C28.7288 22.6886 29.8694 23.068 30.8103 24.0384C31.7256 24.941 32.641 25.8436 33.5563 26.7462C34.6175 27.7341 35.8004 27.6272 37.0651 26.7844L42.4808 23.3137L40.9171 21.8263L48.6593 21.7882C44.7818 24.5977 40.9044 27.4073 37.0269 30.2169ZM50.4853 25.3017C50.4853 11.4946 39.301 0.301758 25.5044 0.301758C11.7078 0.301758 0.523438 11.4946 0.523438 25.3017C0.523438 39.1089 11.7078 50.3018 25.5044 50.3018C39.301 50.3018 50.4853 39.1089 50.4853 25.3017Z"
      fill="currentColor" />
    <g opacity="0.194805">
      <path fillRule="evenodd" clipRule="evenodd"
        d="M0.607517 0.389499L0.592613 0.425405H0.622474L0.607517 0.389499ZM0.601316 0.379883H0.613772L0.644721 0.452032H0.633298L0.625901 0.433523H0.589295L0.581898 0.452032H0.570312L0.601316 0.379883Z"
        fill="black" />
      <path fillRule="evenodd" clipRule="evenodd"
        d="M0.664062 0.379883H0.673218V0.452032H0.664062V0.379883Z" fill="black" />
      <path fillRule="evenodd" clipRule="evenodd"
        d="M0.726009 0.418204C0.728366 0.418913 0.730651 0.420427 0.732863 0.422747C0.735111 0.425067 0.737359 0.428256 0.739607 0.432315L0.750758 0.452032H0.738955L0.728566 0.433523C0.725883 0.428691 0.723272 0.425485 0.720733 0.423907C0.718231 0.422328 0.714805 0.421539 0.710453 0.421539H0.698487V0.452032H0.6875V0.379883H0.712303C0.721586 0.379883 0.728511 0.381606 0.73308 0.385054C0.737649 0.388501 0.739934 0.393704 0.739934 0.400662C0.739934 0.405205 0.738737 0.408974 0.736344 0.411971C0.733987 0.414967 0.730542 0.417045 0.726009 0.418204ZM0.698487 0.387905V0.413517H0.712303C0.717597 0.413517 0.721586 0.412438 0.724269 0.410279C0.726988 0.408088 0.728348 0.404883 0.728348 0.400662C0.728348 0.396442 0.726988 0.393269 0.724269 0.391142C0.721586 0.388984 0.717597 0.387905 0.712303 0.387905H0.698487Z"
        fill="black" />
      <path fillRule="evenodd" clipRule="evenodd"
        d="M0.765625 0.379883H0.776612V0.409458H0.816536V0.379883H0.827523V0.452032H0.816536V0.417673H0.776612V0.452032H0.765625V0.379883Z"
        fill="black" />
      <path fillRule="evenodd" clipRule="evenodd"
        d="M0.84375 0.379883H0.895096V0.388098H0.854737V0.409458H0.89341V0.417673H0.854737V0.443817H0.896075V0.452032H0.84375V0.379883Z"
        fill="black" />
      <path fillRule="evenodd" clipRule="evenodd"
        d="M0.917761 0.379883H0.929564L0.949744 0.406703L0.970032 0.379883H0.981835L0.955727 0.414532L0.983575 0.452032H0.971772L0.948928 0.421346L0.92592 0.452032H0.914062L0.943053 0.413517L0.917761 0.379883Z"
        fill="black" />
      <path fillRule="evenodd" clipRule="evenodd"
        d="M0.992188 0.43457H1.00175V0.444799H0.992188V0.43457Z" fill="black" />
      <path fillRule="evenodd" clipRule="evenodd"
        d="M1.09674 0.386745V0.397038C1.09304 0.393977 1.08909 0.39169 1.08488 0.390176C1.08071 0.388662 1.07627 0.387905 1.07155 0.387905C1.06227 0.387905 1.05516 0.390434 1.05023 0.395492C1.0453 0.400518 1.04284 0.407798 1.04284 0.417335C1.04284 0.426838 1.0453 0.434119 1.05023 0.439177C1.05516 0.444203 1.06227 0.446716 1.07155 0.446716C1.07627 0.446716 1.08071 0.445959 1.08488 0.444445C1.08909 0.442931 1.09304 0.440643 1.09674 0.437583V0.447779C1.09289 0.450099 1.08881 0.451839 1.0845 0.452998C1.08022 0.454158 1.07569 0.454738 1.0709 0.454738C1.05861 0.454738 1.04893 0.451404 1.04186 0.444735C1.03479 0.438034 1.03125 0.4289 1.03125 0.417335C1.03125 0.405737 1.03479 0.396603 1.04186 0.389934C1.04893 0.383233 1.05861 0.379883 1.0709 0.379883C1.07576 0.379883 1.08033 0.380463 1.08461 0.381623C1.08892 0.38275 1.09297 0.384457 1.09674 0.386745Z"
        fill="black" />
      <path fillRule="evenodd" clipRule="evenodd"
        d="M1.14701 0.387808C1.13904 0.387808 1.13269 0.39045 1.12798 0.395733C1.1233 0.401017 1.12096 0.408217 1.12096 0.417335C1.12096 0.42642 1.1233 0.433604 1.12798 0.438888C1.13269 0.444171 1.13904 0.446813 1.14701 0.446813C1.15499 0.446813 1.1613 0.444171 1.16594 0.438888C1.17062 0.433604 1.17296 0.42642 1.17296 0.417335C1.17296 0.408217 1.17062 0.401017 1.16594 0.395733C1.1613 0.39045 1.15499 0.387808 1.14701 0.387808ZM1.14701 0.379883C1.1584 0.379883 1.1675 0.383282 1.17432 0.390079C1.18114 0.396845 1.18454 0.40593 1.18454 0.417335C1.18454 0.428707 1.18114 0.437792 1.17432 0.44459C1.1675 0.451355 1.1584 0.454738 1.14701 0.454738C1.13559 0.454738 1.12645 0.451355 1.1196 0.44459C1.11278 0.437824 1.10938 0.428739 1.10938 0.417335C1.10938 0.40593 1.11278 0.396845 1.1196 0.390079C1.12645 0.383282 1.13559 0.379883 1.14701 0.379883Z"
        fill="black" />
      <path fillRule="evenodd" clipRule="evenodd"
        d="M1.20312 0.379883H1.2195L1.24022 0.428981L1.26105 0.379883H1.27742V0.452032H1.26671V0.388678L1.24577 0.438163H1.23473L1.21379 0.388678V0.452032H1.20312V0.379883Z"
        fill="black" />
    </g>
  </g>
  <defs>
    <clipPath id="clip0_2334_696">
      <rect width="50" height="50" fill="white" transform="translate(0.5 0.301758)" />
    </clipPath>
  </defs>
</svg>
  