<svg width="25" height="24" viewBox="0 0 25 24" fill="none" xmlns="http://www.w3.org/2000/svg">
  <path
    d="M21 18.75V3C21 2.40326 20.7629 1.83097 20.341 1.40901C19.919 0.987053 19.3467 0.75 18.75 0.75H6.75C6.15326 0.75 5.58097 0.987053 5.15901 1.40901C4.73705 1.83097 4.5 2.40326 4.5 3V18.75H21ZM11.625 3H13.875C14.0739 3 14.2647 3.07902 14.4053 3.21967C14.546 3.36032 14.625 3.55109 14.625 3.75C14.625 3.94891 14.546 4.13968 14.4053 4.28033C14.2647 4.42098 14.0739 4.5 13.875 4.5H11.625C11.4261 4.5 11.2353 4.42098 11.0947 4.28033C10.954 4.13968 10.875 3.94891 10.875 3.75C10.875 3.55109 10.954 3.36032 11.0947 3.21967C11.2353 3.07902 11.4261 3 11.625 3ZM12.75 6.75C13.7884 6.75 14.8034 7.05791 15.6667 7.63478C16.5301 8.21166 17.203 9.0316 17.6004 9.99091C17.9977 10.9502 18.1017 12.0058 17.8991 13.0242C17.6966 14.0426 17.1965 14.9781 16.4623 15.7123C15.7281 16.4465 14.7926 16.9466 13.7742 17.1491C12.7558 17.3517 11.7002 17.2477 10.7409 16.8504C9.7816 16.453 8.96166 15.7801 8.38478 14.9167C7.80791 14.0534 7.5 13.0384 7.5 12C7.5 10.6076 8.05312 9.27226 9.03769 8.28769C10.0223 7.30312 11.3576 6.75 12.75 6.75Z"
    fill="currentColor" />
  <path
    d="M12.75 15.75C13.4917 15.75 14.2167 15.5301 14.8334 15.118C15.4501 14.706 15.9307 14.1203 16.2145 13.4351C16.4984 12.7498 16.5726 11.9958 16.4279 11.2684C16.2833 10.541 15.9261 9.8728 15.4017 9.34835C14.8772 8.8239 14.209 8.46675 13.4816 8.32206C12.7542 8.17736 12.0002 8.25162 11.3149 8.53545C10.6297 8.81928 10.044 9.29993 9.63199 9.91661C9.21993 10.5333 9 11.2583 9 12C9 12.9946 9.39509 13.9484 10.0983 14.6517C10.8016 15.3549 11.7554 15.75 12.75 15.75ZM10.335 11.25C10.4755 11.1103 10.6656 11.0319 10.8637 11.0319C11.0619 11.0319 11.252 11.1103 11.3925 11.25L12.2775 12.0975L14.1075 10.3425C14.1765 10.2658 14.2606 10.2041 14.3545 10.1614C14.4484 10.1186 14.5501 10.0957 14.6533 10.0941C14.7564 10.0925 14.8588 10.1121 14.9541 10.1519C15.0493 10.1916 15.1353 10.2506 15.2066 10.3251C15.278 10.3996 15.3333 10.488 15.3689 10.5848C15.4046 10.6816 15.4199 10.7848 15.4139 10.8878C15.4079 10.9908 15.3806 11.0914 15.334 11.1834C15.2873 11.2755 15.2221 11.3568 15.1425 11.4225L12.795 13.6725C12.656 13.8065 12.4706 13.8817 12.2775 13.8825C12.0818 13.8837 11.8934 13.8083 11.7525 13.6725L10.3575 12.3375C10.2823 12.269 10.2218 12.1859 10.1797 12.0932C10.1376 12.0006 10.1148 11.9003 10.1127 11.7986C10.1106 11.6968 10.1293 11.5957 10.1675 11.5014C10.2057 11.4071 10.2627 11.3216 10.335 11.25ZM4.5 20.25V21C4.5 21.5967 4.73705 22.169 5.15901 22.591C5.58097 23.0129 6.15326 23.25 6.75 23.25H18.75C19.3467 23.25 19.919 23.0129 20.341 22.591C20.7629 22.169 21 21.5967 21 21V20.25H4.5Z"
    fill="currentColor" />
</svg>
  