<svg width="26" height="26" viewBox="0 0 26 26" fill="none" xmlns="http://www.w3.org/2000/svg">
  <path d="M24.1485 21.0882C24.2468 20.9336 24.2714 20.7403 24.2047 20.5682C23.9658 19.9217 23.4458 19.2787 22.8871 18.9309C22.852 18.8044 22.7712 18.692 22.6517 18.6112C22.1001 18.2387 21.4571 18.0068 20.7966 17.9436C20.6103 17.9225 20.4312 17.9963 20.3117 18.1368C19.5879 17.9576 19.3912 17.4939 19.3666 16.8052C20.3644 16.352 21.1444 15.3331 21.4536 14.0612H21.4606C22.1282 14.0612 22.6728 13.5201 22.6728 12.8525C22.6725 12.5901 22.5871 12.3348 22.4293 12.1251C22.2715 11.9154 22.05 11.7626 21.7979 11.6895C21.8752 10.7866 21.7241 10.119 21.3341 9.71143C20.9933 9.35657 20.5682 9.29332 20.3117 9.29332H20.3082C20.0341 8.73819 19.4895 8.51332 19.0047 8.42548V2.72305C19.0047 2.189 18.5725 1.75684 18.0385 1.75684H2.72305C2.189 1.75684 1.75684 2.189 1.75684 2.72305V18.042C1.75684 18.576 2.189 19.0082 2.72305 19.0082H13.636C12.7612 19.7109 12.1955 20.7895 12.1955 21.9982V23.9798C12.1955 24.1274 12.3149 24.2433 12.459 24.2433C12.6066 24.2433 12.7225 24.1274 12.7225 23.9798V21.9982C12.7225 20.1747 14.2052 18.692 16.0287 18.692C16.5944 18.692 17.1109 18.3406 17.3147 17.8136C17.3849 17.6309 17.4587 17.3955 17.5325 16.9809C17.7503 17.0371 17.9752 17.0652 18.2071 17.0652C18.4249 17.0652 18.6393 17.0371 18.8466 16.9879C18.8993 17.6555 19.1417 18.3371 20.0517 18.6147C19.5703 19.4685 14.7744 21.2358 14.7744 21.3833V23.9798C14.7744 24.1274 14.8939 24.2433 15.0379 24.2433C15.1855 24.2433 24.2187 24.2749 24.2187 24.1274V21.9982C24.2187 21.7066 24.1801 21.4149 24.1168 21.1339C24.1274 21.1198 24.1379 21.1022 24.1485 21.0882ZM4.29008 18.4812H2.72305C2.48062 18.4812 2.28386 18.2844 2.28386 18.042V17.5782H4.29008V18.4812ZM4.29008 17.0512H2.28386V16.1482H4.29008V17.0512ZM4.29008 15.6212H2.28386V14.7182H4.29008V15.6212ZM9.22305 10.1471H5.08062C4.64494 10.1471 4.29008 10.502 4.29008 10.9376V14.1912H2.28386V6.54575H18.4776V7.39602H16.1833C15.846 7.39602 15.5685 7.67008 15.5685 8.01089V8.68197C15.5685 8.79792 15.6071 8.90332 15.6668 8.99819C15.4068 9.17386 15.1855 9.38467 15.0098 9.63765C14.5636 10.2912 14.5039 11.0676 14.5636 11.7071C14.3247 11.7888 14.1174 11.9432 13.9706 12.1485C13.8238 12.3539 13.7449 12.6001 13.7449 12.8525C13.7449 13.5201 14.2895 14.0612 14.9571 14.0612H14.9606C14.9712 14.1068 14.9817 14.149 14.9958 14.1912H10.0136V10.9376C10.0136 10.502 9.65873 10.1471 9.22305 10.1471ZM10.0136 15.6212V14.7182H12.0198V15.6212H10.0136ZM10.7514 16.1482V17.0512H10.0136V16.1482H10.7514ZM11.2785 16.1482H13.2847V17.0512H11.2785V16.1482ZM12.5468 15.6212V14.7182H14.5531V15.6212H12.5468ZM13.8117 16.1482H15.8179V17.0512H13.8117V16.1482ZM15.0801 15.6212V14.7182H15.1714C15.3014 15.0449 15.4666 15.3471 15.6563 15.6212H15.0801ZM12.0198 18.4812H10.0136V17.5782H12.0198V18.4812ZM14.5531 18.4601C14.5355 18.4671 14.5214 18.4741 14.5074 18.4812H12.5468V17.5782H14.5531V18.4601ZM16.8228 17.6239C16.6963 17.9471 16.3801 18.1649 16.0287 18.1649C15.702 18.1649 15.3858 18.2106 15.0801 18.2879V17.5782H16.8403C16.8333 17.5922 16.8263 17.6098 16.8228 17.6239ZM16.9844 17.0512H16.3449V16.3695C16.5593 16.5452 16.7876 16.6858 17.0301 16.7982C17.0125 16.8931 16.9985 16.9739 16.9844 17.0512ZM18.2071 16.5382C17.522 16.5382 16.8931 16.2255 16.3976 15.709C16.3941 15.702 16.3906 15.6985 16.3871 15.6949C16.0463 15.3331 15.7758 14.8763 15.5931 14.3528C15.4385 13.9066 15.3471 13.4112 15.3436 12.8947C15.3436 12.8876 15.3401 12.8841 15.3436 12.8771C15.3436 12.8701 15.3436 12.8666 15.3471 12.8631C15.3752 12.1287 15.6739 11.6122 16.1868 11.4085C16.7525 11.1836 17.4728 11.3874 18.0244 11.9285C18.1263 12.0303 18.2914 12.0303 18.3933 11.9285C18.9449 11.3874 19.6652 11.1836 20.2274 11.4085C20.7403 11.6122 21.039 12.1287 21.0706 12.8595C21.0671 14.8868 19.7847 16.5382 18.2071 16.5382Z" fill="currentColor"/>
  <path d="M6.28248 7.39648H3.74572C3.40843 7.39648 3.13086 7.67054 3.13086 8.01135V8.68243C3.13086 9.01973 3.40843 9.2973 3.74572 9.2973H6.28248C6.61978 9.2973 6.89735 9.01973 6.89735 8.68243V8.01135C6.89735 7.67054 6.61978 7.39648 6.28248 7.39648ZM10.1719 8.01135C10.1719 7.67054 9.89437 7.39648 9.55708 7.39648H8.35897C8.02167 7.39648 7.7441 7.67054 7.7441 8.01135V8.68243C7.7441 9.01973 8.02167 9.2973 8.35897 9.2973H9.55708C9.89437 9.2973 10.1719 9.01973 10.1719 8.68243V8.01135ZM11.6336 9.2973H14.1036C14.4409 9.2973 14.7184 9.01973 14.7184 8.68243V8.01135C14.7184 7.67054 14.4409 7.39648 14.1036 7.39648H11.6336C11.2928 7.39648 11.0187 7.67054 11.0187 8.01135V8.68243C11.0187 9.01973 11.2928 9.2973 11.6336 9.2973Z" fill="currentColor"/>
</svg>