<svg width="19" height="19" viewBox="0 0 19 19" fill="none" xmlns="http://www.w3.org/2000/svg">
  <g clip-path="url(#clip0_2376_3141)">
    <path
      d="M8.05259 5.12535C6.36414 5.51903 5.00496 6.85803 4.58991 8.5366C4.17355 10.2205 4.65006 11.937 5.86464 13.128C6.29425 13.5494 6.55078 14.2247 6.55078 14.9345V15.0479C6.55078 15.5153 6.75472 15.9359 7.07812 16.2258V17.1572C7.07812 18.0296 7.78782 18.7393 8.66016 18.7393H9.71484C10.5872 18.7393 11.2969 18.0296 11.2969 17.1572V16.2258C11.6203 15.9359 11.8242 15.5153 11.8242 15.0479V14.9325C11.8242 14.2334 12.0945 13.5453 12.5471 13.0917C13.4412 12.1956 13.9336 11.0051 13.9336 9.73926C13.9336 6.71304 11.1292 4.40823 8.05259 5.12535ZM10.2422 17.1572C10.2422 17.448 10.0056 17.6846 9.71484 17.6846H8.66016C8.36938 17.6846 8.13281 17.448 8.13281 17.1572V16.6299H10.2422V17.1572ZM11.8005 12.3467C11.1453 13.0033 10.7695 13.9457 10.7695 14.9325V15.0479C10.7695 15.3386 10.533 15.5752 10.2422 15.5752H8.13281C7.84204 15.5752 7.60547 15.3386 7.60547 15.0479V14.9345C7.60547 13.9326 7.24009 12.9997 6.60306 12.375C5.65771 11.448 5.2879 10.1077 5.61373 8.78976C5.93453 7.49225 6.98584 6.45704 8.29207 6.15251C10.7063 5.58955 12.8789 7.3918 12.8789 9.73926C12.8789 10.7238 12.4959 11.6498 11.8005 12.3467ZM5.08571 4.8917L3.59414 3.40016C3.38823 3.19422 3.05432 3.19422 2.84837 3.40016C2.64243 3.60611 2.64243 3.93999 2.84837 4.14593L4.33995 5.63747C4.54586 5.84342 4.8798 5.84342 5.08571 5.63747C5.29166 5.43153 5.29166 5.09765 5.08571 4.8917ZM2.85938 9.21191H0.714844C0.423609 9.21191 0.1875 9.44802 0.1875 9.73926C0.1875 10.0305 0.423609 10.2666 0.714844 10.2666H2.85938C3.15061 10.2666 3.38672 10.0305 3.38672 9.73926C3.38672 9.44802 3.15061 9.21191 2.85938 9.21191ZM17.6602 9.21191H15.5156C15.2244 9.21191 14.9883 9.44802 14.9883 9.73926C14.9883 10.0305 15.2244 10.2666 15.5156 10.2666H17.6602C17.9514 10.2666 18.1875 10.0305 18.1875 9.73926C18.1875 9.44802 17.9514 9.21191 17.6602 9.21191ZM15.5266 3.40016C15.3208 3.19422 14.9868 3.19422 14.7809 3.40016L13.2893 4.8917C13.0833 5.09761 13.0833 5.43153 13.2893 5.63747C13.4952 5.84342 13.8291 5.84342 14.0351 5.63747L15.5266 4.14593C15.7326 3.94002 15.7326 3.60611 15.5266 3.40016ZM9.1875 0.739258C8.89627 0.739258 8.66016 0.975367 8.66016 1.2666V3.41113C8.66016 3.70237 8.89627 3.93848 9.1875 3.93848C9.47873 3.93848 9.71484 3.70237 9.71484 3.41113V1.2666C9.71484 0.975367 9.47873 0.739258 9.1875 0.739258Z"
      fill="currentColor" />
    <path
      d="M9.19076 7.09863C8.97398 7.09863 8.75317 7.12461 8.53481 7.17577C7.6255 7.388 6.86426 8.13652 6.64063 9.03831C6.57053 9.321 6.74283 9.60696 7.02549 9.6771C7.30821 9.7472 7.59417 9.57483 7.66427 9.29221C7.79298 8.77337 8.24952 8.32541 8.77497 8.20275C8.91496 8.16995 9.05488 8.15332 9.19076 8.15332C9.48199 8.15332 9.7181 7.91721 9.7181 7.62598C9.7181 7.33474 9.48199 7.09863 9.19076 7.09863Z"
      fill="currentColor" />
  </g>
  <defs>
    <clipPath id="clip0_2376_3141">
      <rect width="18" height="18" fill="white" transform="translate(0.1875 0.739258)" />
    </clipPath>
  </defs>
</svg>
  