<svg width="16" height="16" viewBox="0 0 16 16" fill="currentColor" xmlns="http://www.w3.org/2000/svg">
<path d="M8 0C12.2 0 15 1.1 15 2.5V3V4C15.5531 4 16 4.44687 16 5V7C16 7.55313 15.5531 8 15 8V13C15 13.5531 14.5531 14 14 14V15C14 15.5531 13.5531 16 13 16H12C11.4469 16 11 15.5531 11 15V14H5V15C5 15.5531 4.55313 16 4 16H3C2.44687 16 2 15.5531 2 15V14C1.44687 14 1 13.5531 1 13V8C0.446875 8 0 7.55313 0 7V5C0 4.44687 0.446875 4 1 4V3V2.5C1 1.1 3.8 0 8 0ZM3 5V8C3 8.55313 3.44687 9 4 9H7.5V4H4C3.44687 4 3 4.44687 3 5ZM8.5 9H12C12.5531 9 13 8.55313 13 8V5C13 4.44687 12.5531 4 12 4H8.5V9ZM3.5 12.5C3.76522 12.5 4.01957 12.3946 4.20711 12.2071C4.39464 12.0196 4.5 11.7652 4.5 11.5C4.5 11.2348 4.39464 10.9804 4.20711 10.7929C4.01957 10.6054 3.76522 10.5 3.5 10.5C3.23478 10.5 2.98043 10.6054 2.79289 10.7929C2.60536 10.9804 2.5 11.2348 2.5 11.5C2.5 11.7652 2.60536 12.0196 2.79289 12.2071C2.98043 12.3946 3.23478 12.5 3.5 12.5ZM12.5 12.5C12.7652 12.5 13.0196 12.3946 13.2071 12.2071C13.3946 12.0196 13.5 11.7652 13.5 11.5C13.5 11.2348 13.3946 10.9804 13.2071 10.7929C13.0196 10.6054 12.7652 10.5 12.5 10.5C12.2348 10.5 11.9804 10.6054 11.7929 10.7929C11.6054 10.9804 11.5 11.2348 11.5 11.5C11.5 11.7652 11.6054 12.0196 11.7929 12.2071C11.9804 12.3946 12.2348 12.5 12.5 12.5ZM11 2.5C11 2.225 10.775 2 10.5 2H5.5C5.225 2 5 2.225 5 2.5C5 2.775 5.225 3 5.5 3H10.5C10.775 3 11 2.775 11 2.5Z" fill="currentColor"/>
</svg>
