<svg width="14" height="14" viewBox="0 0 14 14" fill="currentColor" xmlns="http://www.w3.org/2000/svg">
  <path
    d="M12.0312 3.9375H11.8125V3.5C11.8125 2.29381 10.8312 1.3125 9.625 1.3125H4.375C3.16881 1.3125 2.1875 2.29381 2.1875 3.5V3.9375H1.96875C1.67878 3.93785 1.40078 4.05319 1.19574 4.25824C0.990693 4.46328 0.875347 4.74128 0.875 5.03125V6.125C0.875 6.24103 0.921094 6.35231 1.00314 6.43436C1.08519 6.51641 1.19647 6.5625 1.3125 6.5625C1.42853 6.5625 1.53981 6.51641 1.62186 6.43436C1.70391 6.35231 1.75 6.24103 1.75 6.125V5.03125C1.75 4.97323 1.77305 4.91759 1.81407 4.87657C1.85509 4.83555 1.91073 4.8125 1.96875 4.8125H2.1875V9.1875C2.1875 9.89975 2.53487 10.5276 3.06337 10.927L3.0625 10.9375V11.8125C3.0625 12.0446 3.15469 12.2671 3.31878 12.4312C3.48288 12.5953 3.70544 12.6875 3.9375 12.6875H4.375C4.60706 12.6875 4.82962 12.5953 4.99372 12.4312C5.15781 12.2671 5.25 12.0446 5.25 11.8125V11.375H8.75V11.8125C8.75 12.0446 8.84219 12.2671 9.00628 12.4312C9.17038 12.5953 9.39294 12.6875 9.625 12.6875H10.0625C10.2946 12.6875 10.5171 12.5953 10.6812 12.4312C10.8453 12.2671 10.9375 12.0446 10.9375 11.8125V10.9375L10.9366 10.927C11.4651 10.5271 11.8125 9.89975 11.8125 9.1875V4.8125H12.0312C12.0893 4.8125 12.1449 4.83555 12.1859 4.87657C12.227 4.91759 12.25 4.97323 12.25 5.03125V6.125C12.25 6.24103 12.2961 6.35231 12.3781 6.43436C12.4602 6.51641 12.5715 6.5625 12.6875 6.5625C12.8035 6.5625 12.9148 6.51641 12.9969 6.43436C13.0789 6.35231 13.125 6.24103 13.125 6.125V5.03125C13.125 4.42838 12.6346 3.9375 12.0312 3.9375ZM4.15625 10.0625C4.07004 10.0625 3.98468 10.0455 3.90505 10.0124C3.82541 9.97943 3.75306 9.93105 3.69212 9.87007C3.63118 9.80909 3.58285 9.73671 3.54989 9.65705C3.51692 9.57739 3.49997 9.49202 3.5 9.40581C3.50003 9.3196 3.51704 9.23424 3.55005 9.15461C3.58307 9.07497 3.63145 9.00262 3.69243 8.94168C3.75341 8.88074 3.82579 8.83241 3.90545 8.79945C3.98511 8.76649 4.07048 8.74953 4.15669 8.74956C4.33079 8.74962 4.49775 8.81884 4.62082 8.94199C4.74389 9.06515 4.813 9.23214 4.81294 9.40625C4.81288 9.58036 4.74366 9.74731 4.62051 9.87038C4.49735 9.99345 4.33036 10.0626 4.15625 10.0625ZM9.84375 10.0625C9.75754 10.0625 9.67218 10.0455 9.59255 10.0124C9.51291 9.97943 9.44056 9.93105 9.37962 9.87007C9.31868 9.80909 9.27035 9.73671 9.23739 9.65705C9.20442 9.57739 9.18747 9.49202 9.1875 9.40581C9.18753 9.3196 9.20454 9.23424 9.23755 9.15461C9.27057 9.07497 9.31895 9.00262 9.37993 8.94168C9.44091 8.88074 9.51329 8.83241 9.59295 8.79945C9.67261 8.76649 9.75798 8.74953 9.84419 8.74956C10.0183 8.74962 10.1852 8.81884 10.3083 8.94199C10.4314 9.06515 10.5005 9.23214 10.5004 9.40625C10.5004 9.58036 10.4312 9.74731 10.308 9.87038C10.1849 9.99345 10.0179 10.0626 9.84375 10.0625ZM10.9375 6.33281C10.9375 6.76025 10.6299 7.13256 10.2073 7.19644C8.08106 7.51628 5.91893 7.51628 3.79269 7.19644C3.37006 7.13256 3.0625 6.76025 3.0625 6.33281V3.9375C3.0625 3.70544 3.15469 3.48288 3.31878 3.31878C3.48288 3.15469 3.70544 3.0625 3.9375 3.0625H10.0625C10.2946 3.0625 10.5171 3.15469 10.6812 3.31878C10.8453 3.48288 10.9375 3.70544 10.9375 3.9375V6.33281Z"
    fill="currentColor" />
</svg>
  