<svg width="16" height="17" viewBox="0 0 16 17" fill="none" xmlns="http://www.w3.org/2000/svg">
  <g clip-path="url(#clip0_2376_18957)">
    <path
      d="M8 0.27832C3.58862 0.27832 0 3.86695 0 8.27832C0 12.6897 3.58862 16.2783 8 16.2783C12.4114 16.2783 16 12.6897 16 8.27832C16 3.86695 12.4114 0.27832 8 0.27832ZM12.0547 6.58301L7.72131 10.9163C7.59131 11.0463 7.42066 11.1117 7.25 11.1117C7.07934 11.1117 6.90869 11.0463 6.77869 10.9163L4.61206 8.74963C4.35131 8.48901 4.35131 8.06763 4.61206 7.80701C4.87269 7.54626 5.29394 7.54626 5.55469 7.80701L7.25 9.50232L11.1121 5.64038C11.3727 5.37963 11.7939 5.37963 12.0547 5.64038C12.3153 5.90101 12.3153 6.32226 12.0547 6.58301Z"
      fill="currentColor" />
  </g>
  <defs>
    <clipPath id="clip0_2376_18957">
      <rect width="16" height="16" fill="white" transform="translate(0 0.27832)" />
    </clipPath>
  </defs>
</svg>
  