<svg width="16" height="17" viewBox="0 0 16 17" fill="none" xmlns="http://www.w3.org/2000/svg">
  <g clip-path="url(#clip0_2376_18994)">
    <path
      d="M8 0.27832C3.58862 0.27832 0 3.86695 0 8.27832C0 12.6897 3.58862 16.2783 8 16.2783C12.4114 16.2783 16 12.6897 16 8.27832C16 3.86695 12.4114 0.27832 8 0.27832Z"
      fill="currentColor" />
    <path
      d="M10.9469 10.2825C11.2076 10.5433 11.2076 10.9645 10.9469 11.2253C10.8851 11.2873 10.8116 11.3364 10.7307 11.3699C10.6498 11.4035 10.5631 11.4207 10.4755 11.4206C10.3049 11.4206 10.1342 11.3553 10.0042 11.2253L8.00091 9.22185L5.99763 11.2253C5.93579 11.2873 5.86232 11.3364 5.78144 11.37C5.70055 11.4035 5.61384 11.4207 5.52628 11.4206C5.43871 11.4207 5.35199 11.4035 5.27109 11.37C5.1902 11.3365 5.11672 11.2873 5.05488 11.2253C4.79425 10.9645 4.79425 10.5433 5.05488 10.2825L7.05828 8.27923L5.05484 6.27595C4.79422 6.0152 4.79422 5.59391 5.05484 5.3332C5.31559 5.07257 5.73688 5.07257 5.99763 5.3332L8.00091 7.3366L10.0042 5.33316C10.2649 5.07254 10.6862 5.07254 10.9469 5.33316C11.2076 5.59391 11.2076 6.0152 10.9469 6.27595L8.94353 8.27923L10.9469 10.2825Z"
      fill="#FAFAFA" />
  </g>
  <defs>
    <clipPath id="clip0_2376_18994">
      <rect width="16" height="16" fill="white" transform="translate(0 0.27832)" />
    </clipPath>
  </defs>
</svg>
  