<svg width="25" height="25" viewBox="0 0 25 25" fill="none" xmlns="http://www.w3.org/2000/svg">
  <g clip-path="url(#clip0_2009_26098)">
    <path
      d="M9.22822 4.67676L6.75 6.74386V11.4873C6.75 13.1422 7.21297 14.759 8.08894 16.1631C8.96362 17.5659 10.2147 18.6949 11.6998 19.4213L12.167 19.6501L12.6342 19.4213C14.1192 18.6949 15.3704 17.5659 16.2451 16.1631C17.1205 14.7607 17.5845 13.1406 17.584 11.4873V6.74386L15.1058 4.67676H9.22822ZM11.4166 14.9216L8.50358 12.0085L9.49801 11.0141L11.4166 12.9327L14.836 9.51333L15.8304 10.5078L11.4166 14.9216Z"
      fill="currentColor" />
    <path
      d="M17.2622 0.458008H7.07268L2.53125 4.24587V11.5484C2.53125 16.771 5.61148 21.524 10.3784 23.6574L12.1675 24.458L13.9566 23.6574C18.7234 21.524 21.8037 16.771 21.8037 11.5484V4.24587L17.2622 0.458008ZM18.9908 11.4878C18.9908 13.4061 18.4541 15.2803 17.4387 16.9079C16.4233 18.5355 14.9759 19.8415 13.2529 20.6849L12.1674 21.2163L11.0819 20.6849C9.36043 19.8428 7.91012 18.5341 6.89618 16.9079C5.88134 15.2822 5.34355 13.4042 5.34409 11.4878V6.08603L8.71914 3.27089H15.6157L18.9908 6.08603V11.4878Z"
      fill="currentColor" />
  </g>
  <defs>
    <clipPath id="clip0_2009_26098">
      <rect width="24" height="24" fill="currentColor" transform="translate(0.166992 0.458008)" />
    </clipPath>
  </defs>
</svg>
  