<svg width="16" height="17" viewBox="0 0 16 17" fill="none" xmlns="http://www.w3.org/2000/svg">
  <path
    d="M13.8918 7.71341C13.7764 7.71325 13.6647 7.67248 13.5764 7.59828C13.4882 7.52407 13.429 7.42118 13.4093 7.30774C13.3414 6.91212 13.2334 6.52442 13.0868 6.15062C13.0634 6.09076 13.0521 6.0269 13.0535 5.96268C13.0549 5.89847 13.0689 5.83515 13.0949 5.77634C13.1208 5.71754 13.158 5.6644 13.2046 5.61997C13.2511 5.57553 13.3059 5.54067 13.3659 5.51737C13.4871 5.47031 13.6221 5.4732 13.7412 5.5254C13.8001 5.55125 13.8534 5.58843 13.8979 5.63481C13.9425 5.6812 13.9775 5.73588 14.0008 5.79574C14.1703 6.23108 14.2958 6.68217 14.3756 7.14234C14.3864 7.20558 14.3847 7.27033 14.3705 7.3329C14.3562 7.39547 14.3298 7.45463 14.2926 7.507C14.2554 7.55937 14.2083 7.60392 14.1539 7.63811C14.0994 7.6723 14.0388 7.69545 13.9754 7.70625C13.9477 7.7109 13.9198 7.71329 13.8918 7.71341ZM12.9523 5.30411C12.8702 5.30427 12.7894 5.28383 12.7173 5.24469C12.6452 5.20555 12.5841 5.14895 12.5397 5.08011C12.3216 4.74217 12.0703 4.42675 11.7895 4.13854C11.744 4.09268 11.7081 4.03828 11.6838 3.97848C11.6595 3.91869 11.6473 3.85468 11.648 3.79017C11.6486 3.72565 11.662 3.6619 11.6875 3.6026C11.713 3.5433 11.75 3.48962 11.7964 3.44467C11.8428 3.39972 11.8977 3.36438 11.9579 3.34071C12.0181 3.31703 12.0824 3.30548 12.147 3.30673C12.2117 3.30798 12.2755 3.32199 12.3347 3.34797C12.3939 3.37394 12.4474 3.41137 12.492 3.45807C12.8182 3.79281 13.1101 4.15904 13.3636 4.55137C13.4112 4.62511 13.438 4.71027 13.4412 4.79791C13.4444 4.88555 13.4239 4.97244 13.3819 5.04944C13.3398 5.12645 13.2777 5.19073 13.2021 5.23555C13.1265 5.28036 13.0402 5.30404 12.9523 5.30411ZM11.1425 3.44765C11.0441 3.44791 10.948 3.41814 10.867 3.36235C10.534 3.13619 10.1796 2.94318 9.80874 2.78607C9.74533 2.76412 9.68712 2.72941 9.63773 2.68408C9.58834 2.63876 9.54882 2.58379 9.52163 2.52259C9.49443 2.46139 9.48014 2.39526 9.47965 2.32833C9.47915 2.26139 9.49245 2.19506 9.51873 2.13346C9.54502 2.07187 9.58371 2.01632 9.63242 1.97027C9.68113 1.92421 9.73881 1.88864 9.80189 1.86576C9.86496 1.84287 9.93208 1.83316 9.99907 1.83723C10.0661 1.84131 10.1315 1.85907 10.1913 1.88942C10.6218 2.07114 11.033 2.29539 11.4187 2.55882C11.505 2.6177 11.5701 2.7026 11.6046 2.80107C11.639 2.89954 11.6409 3.00642 11.6101 3.10606C11.5792 3.2057 11.5172 3.29287 11.433 3.3548C11.3489 3.41674 11.2471 3.45019 11.1425 3.45026V3.44765ZM8.755 2.44096C8.72259 2.44077 8.69025 2.43772 8.65838 2.43184C8.26329 2.35283 7.86135 2.31291 7.4584 2.31268C7.32854 2.31268 7.20399 2.26123 7.11217 2.16964C7.02034 2.07805 6.96875 1.95383 6.96875 1.82431C6.96875 1.69478 7.02034 1.57057 7.11217 1.47898C7.20399 1.38739 7.32854 1.33594 7.4584 1.33594C7.92603 1.33587 8.39251 1.38211 8.85098 1.47398C8.96981 1.49805 9.07547 1.56524 9.14749 1.66254C9.21951 1.75985 9.25276 1.88034 9.24082 2.0007C9.22887 2.12105 9.17257 2.23271 9.08283 2.31404C8.99308 2.39537 8.87626 2.4406 8.755 2.44096Z"
    fill="currentColor" />
  <path
    d="M7.45585 15.3359C5.59447 15.3359 3.80932 14.5984 2.49313 13.2857C1.17693 11.9729 0.4375 10.1924 0.4375 8.33592C0.4375 6.47941 1.17693 4.69894 2.49313 3.38618C3.80932 2.07343 5.59447 1.33594 7.45585 1.33594C7.58572 1.33594 7.71026 1.38739 7.80209 1.47898C7.89392 1.57057 7.94551 1.69478 7.94551 1.82431C7.94551 1.95383 7.89392 2.07805 7.80209 2.16964C7.71026 2.26123 7.58572 2.31268 7.45585 2.31268C6.28712 2.31223 5.14337 2.65004 4.16333 3.28513C3.18328 3.92022 2.40906 4.8253 1.93458 5.89058C1.46009 6.95587 1.30573 8.13559 1.4902 9.28665C1.67468 10.4377 2.19008 11.5107 2.97388 12.3753C3.75767 13.24 4.77619 13.8593 5.9059 14.158C7.0356 14.4567 8.22794 14.4221 9.3383 14.0583C10.4487 13.6945 11.4293 13.0172 12.1613 12.1085C12.8933 11.1998 13.3453 10.0987 13.4623 8.93889C13.4786 8.81297 13.5435 8.69835 13.6432 8.61934C13.7429 8.54034 13.8695 8.50316 13.9962 8.5157C14.1229 8.52823 14.2397 8.58949 14.3219 8.68649C14.404 8.78348 14.4451 8.90858 14.4363 9.03527C14.2687 10.764 13.4601 12.368 12.169 13.5334C10.8779 14.6988 9.19717 15.3415 7.45585 15.3359Z"
    fill="currentColor" />
  <path
    d="M7.44953 3.125C6.41652 3.125 5.40672 3.43052 4.5478 4.00292C3.68889 4.57533 3.01945 5.38891 2.62414 6.34078C2.22883 7.29265 2.12539 8.34007 2.32692 9.35057C2.52845 10.3611 3.02589 11.2893 3.75633 12.0178C4.48678 12.7463 5.41742 13.2425 6.43058 13.4435C7.44373 13.6445 8.4939 13.5413 9.44827 13.147C10.4026 12.7528 11.2184 12.0851 11.7923 11.2284C12.3662 10.3718 12.6725 9.36459 12.6725 8.33429C12.6725 6.9527 12.1222 5.6277 11.1427 4.65077C10.1632 3.67383 8.83474 3.125 7.44953 3.125ZM10.4527 10.5808C10.3748 10.6844 10.2588 10.7529 10.1303 10.7712C10.0017 10.7896 9.87111 10.7562 9.76721 10.6785L7.15573 8.72499C7.0945 8.67989 7.04484 8.62098 7.0108 8.55308C6.97676 8.48518 6.95931 8.4102 6.95987 8.33429V5.07848C6.95987 4.94896 7.01146 4.82474 7.10329 4.73315C7.19512 4.64157 7.31966 4.59011 7.44953 4.59011C7.57939 4.59011 7.70393 4.64157 7.79576 4.73315C7.88759 4.82474 7.93918 4.94896 7.93918 5.07848V8.08685L10.3548 9.89707C10.4062 9.93555 10.4496 9.98376 10.4823 10.0389C10.5151 10.0941 10.5366 10.1552 10.5457 10.2187C10.5548 10.2822 10.5513 10.3468 10.5353 10.409C10.5194 10.4711 10.4913 10.5295 10.4527 10.5808Z"
    fill="currentColor" />
</svg>
  