<svg width="15" height="15" viewBox="0 0 15 15" fill="none" xmlns="http://www.w3.org/2000/svg">
<path d="M13.8918 7.21341C13.7764 7.21325 13.6647 7.17248 13.5764 7.09828C13.4882 7.02407 13.429 6.92118 13.4093 6.80774C13.3414 6.41212 13.2334 6.02442 13.0868 5.65062C13.0634 5.59076 13.0521 5.5269 13.0535 5.46268C13.0549 5.39847 13.0689 5.33515 13.0949 5.27634C13.1208 5.21754 13.158 5.1644 13.2046 5.11997C13.2511 5.07553 13.3059 5.04067 13.3659 5.01737C13.4871 4.97031 13.6221 4.9732 13.7412 5.0254C13.8001 5.05125 13.8534 5.08843 13.8979 5.13481C13.9425 5.1812 13.9775 5.23588 14.0008 5.29574C14.1703 5.73108 14.2958 6.18217 14.3756 6.64234C14.3864 6.70558 14.3847 6.77033 14.3705 6.8329C14.3562 6.89547 14.3298 6.95463 14.2926 7.007C14.2554 7.05937 14.2083 7.10392 14.1539 7.13811C14.0994 7.1723 14.0388 7.19545 13.9754 7.20625C13.9477 7.2109 13.9198 7.21329 13.8918 7.21341ZM12.9523 4.80411C12.8702 4.80427 12.7894 4.78383 12.7173 4.74469C12.6452 4.70555 12.5841 4.64895 12.5397 4.58011C12.3216 4.24217 12.0703 3.92675 11.7895 3.63854C11.744 3.59268 11.7081 3.53828 11.6838 3.47848C11.6595 3.41869 11.6473 3.35468 11.648 3.29017C11.6486 3.22565 11.662 3.1619 11.6875 3.1026C11.713 3.0433 11.75 2.98962 11.7964 2.94467C11.8428 2.89972 11.8977 2.86438 11.9579 2.84071C12.0181 2.81703 12.0824 2.80548 12.147 2.80673C12.2117 2.80798 12.2755 2.82199 12.3347 2.84797C12.3939 2.87394 12.4474 2.91137 12.492 2.95807C12.8182 3.29281 13.1101 3.65904 13.3636 4.05137C13.4112 4.12511 13.438 4.21027 13.4412 4.29791C13.4444 4.38555 13.4239 4.47244 13.3819 4.54944C13.3398 4.62645 13.2777 4.69073 13.2021 4.73555C13.1265 4.78036 13.0402 4.80404 12.9523 4.80411ZM11.1425 2.94765C11.0441 2.94791 10.948 2.91814 10.867 2.86235C10.534 2.63619 10.1796 2.44318 9.80874 2.28607C9.74533 2.26412 9.68712 2.22941 9.63773 2.18408C9.58834 2.13876 9.54882 2.08379 9.52163 2.02259C9.49443 1.96139 9.48014 1.89526 9.47965 1.82833C9.47915 1.76139 9.49245 1.69506 9.51873 1.63346C9.54502 1.57187 9.58371 1.51632 9.63242 1.47027C9.68113 1.42421 9.73881 1.38864 9.80189 1.36576C9.86496 1.34287 9.93208 1.33316 9.99907 1.33723C10.0661 1.34131 10.1315 1.35907 10.1913 1.38942C10.6218 1.57114 11.033 1.79539 11.4187 2.05882C11.505 2.1177 11.5701 2.2026 11.6046 2.30107C11.639 2.39954 11.6409 2.50642 11.6101 2.60606C11.5792 2.7057 11.5172 2.79287 11.433 2.8548C11.3489 2.91674 11.2471 2.95019 11.1425 2.95026V2.94765ZM8.755 1.94096C8.72259 1.94077 8.69025 1.93772 8.65838 1.93184C8.26329 1.85283 7.86135 1.81291 7.4584 1.81268C7.32854 1.81268 7.20399 1.76123 7.11217 1.66964C7.02034 1.57805 6.96875 1.45383 6.96875 1.32431C6.96875 1.19478 7.02034 1.07057 7.11217 0.978978C7.20399 0.887391 7.32854 0.835938 7.4584 0.835938C7.92603 0.835867 8.39251 0.88211 8.85098 0.973984C8.96981 0.998049 9.07547 1.06524 9.14749 1.16254C9.21951 1.25985 9.25276 1.38034 9.24082 1.5007C9.22887 1.62105 9.17257 1.73271 9.08283 1.81404C8.99308 1.89537 8.87626 1.9406 8.755 1.94096Z" fill="#EC1C24"/>
<path d="M7.45585 14.8359C5.59447 14.8359 3.80932 14.0984 2.49313 12.7857C1.17693 11.4729 0.4375 9.69243 0.4375 7.83592C0.4375 5.97941 1.17693 4.19894 2.49313 2.88618C3.80932 1.57343 5.59447 0.835938 7.45585 0.835938C7.58572 0.835937 7.71026 0.887391 7.80209 0.978978C7.89392 1.07057 7.94551 1.19478 7.94551 1.32431C7.94551 1.45383 7.89392 1.57805 7.80209 1.66964C7.71026 1.76123 7.58572 1.81268 7.45585 1.81268C6.28712 1.81223 5.14337 2.15004 4.16333 2.78513C3.18328 3.42022 2.40906 4.3253 1.93458 5.39058C1.46009 6.45587 1.30573 7.63559 1.4902 8.78665C1.67468 9.93771 2.19008 11.0107 2.97388 11.8753C3.75767 12.74 4.77619 13.3593 5.9059 13.658C7.0356 13.9567 8.22794 13.9221 9.3383 13.5583C10.4487 13.1945 11.4293 12.5172 12.1613 11.6085C12.8933 10.6998 13.3453 9.59871 13.4623 8.43889C13.4786 8.31297 13.5435 8.19835 13.6432 8.11934C13.7429 8.04034 13.8695 8.00316 13.9962 8.0157C14.1229 8.02823 14.2397 8.08949 14.3219 8.18649C14.404 8.28348 14.4451 8.40858 14.4363 8.53527C14.2687 10.264 13.4601 11.868 12.169 13.0334C10.8779 14.1988 9.19717 14.8415 7.45585 14.8359Z" fill="#EC1C24"/>
<path d="M7.44953 2.625C6.41652 2.625 5.40672 2.93052 4.5478 3.50292C3.68889 4.07533 3.01945 4.88891 2.62414 5.84078C2.22883 6.79265 2.12539 7.84007 2.32692 8.85057C2.52845 9.86107 3.02589 10.7893 3.75633 11.5178C4.48678 12.2463 5.41742 12.7425 6.43058 12.9435C7.44373 13.1445 8.4939 13.0413 9.44827 12.647C10.4026 12.2528 11.2184 11.5851 11.7923 10.7284C12.3662 9.87175 12.6725 8.86459 12.6725 7.83429C12.6725 6.4527 12.1222 5.1277 11.1427 4.15077C10.1632 3.17383 8.83474 2.625 7.44953 2.625ZM10.4527 10.0808C10.3748 10.1844 10.2588 10.2529 10.1303 10.2712C10.0017 10.2896 9.87111 10.2562 9.76721 10.1785L7.15573 8.22499C7.0945 8.17989 7.04484 8.12098 7.0108 8.05308C6.97676 7.98518 6.95931 7.9102 6.95987 7.83429V4.57848C6.95987 4.44896 7.01146 4.32474 7.10329 4.23315C7.19512 4.14157 7.31966 4.09011 7.44953 4.09011C7.57939 4.09011 7.70393 4.14157 7.79576 4.23315C7.88759 4.32474 7.93918 4.44896 7.93918 4.57848V7.58685L10.3548 9.39707C10.4062 9.43555 10.4496 9.48376 10.4823 9.53895C10.5151 9.59414 10.5366 9.65522 10.5457 9.71871C10.5548 9.7822 10.5513 9.84685 10.5353 9.90898C10.5194 9.9711 10.4913 10.0295 10.4527 10.0808Z" fill="#EC1C24"/>
</svg>
