<svg width="60" height="60" viewBox="0 0 60 60" fill="none" xmlns="http://www.w3.org/2000/svg">
  <path
    d="M50.8357 12.4533L39.5361 1.7632C38.3343 0.626133 36.7611 0 35.1067 0H13.5938C10.0398 0 7.14844 2.89137 7.14844 6.44531V53.5547C7.14844 57.1086 10.0398 60 13.5938 60H46.4062C49.9602 60 52.8516 57.1086 52.8516 53.5547V17.1354C52.8516 15.3718 52.1168 13.6652 50.8357 12.4533ZM47.4212 14.0625H38.6719C38.3488 14.0625 38.0859 13.7996 38.0859 13.4766V5.23078L47.4212 14.0625ZM46.4062 56.4844H13.5938C11.9783 56.4844 10.6641 55.1701 10.6641 53.5547V6.44531C10.6641 4.82988 11.9783 3.51562 13.5938 3.51562H34.5703V13.4766C34.5703 15.7382 36.4103 17.5781 38.6719 17.5781H49.3359V53.5547C49.3359 55.1701 48.0217 56.4844 46.4062 56.4844Z"
    fill="currentColor" />
  <path
    d="M42.5391 23.4375H16.7578C15.787 23.4375 15 24.2245 15 25.1953C15 26.1661 15.787 26.9531 16.7578 26.9531H42.5391C43.5098 26.9531 44.2969 26.1661 44.2969 25.1953C44.2969 24.2245 43.5098 23.4375 42.5391 23.4375ZM42.5391 32.8125H16.7578C15.787 32.8125 15 33.5995 15 34.5703C15 35.5411 15.787 36.3281 16.7578 36.3281H42.5391C43.5098 36.3281 44.2969 35.5411 44.2969 34.5703C44.2969 33.5995 43.5098 32.8125 42.5391 32.8125ZM25.2797 42.1875H16.7578C15.787 42.1875 15 42.9745 15 43.9453C15 44.9161 15.787 45.7031 16.7578 45.7031H25.2797C26.2505 45.7031 27.0375 44.9161 27.0375 43.9453C27.0375 42.9745 26.2505 42.1875 25.2797 42.1875Z"
    fill="currentColor" />
</svg>