<svg width="16" height="16" viewBox="0 0 16 16" fill="none" xmlns="http://www.w3.org/2000/svg">
<path d="M4.25 7.5625C1.92378 7.5625 0.03125 9.45503 0.03125 11.7812C0.03125 14.1075 1.92378 16 4.25 16C6.57622 16 8.46875 14.1075 8.46875 11.7812C8.46875 9.45503 6.57622 7.5625 4.25 7.5625ZM6.11269 11.2689L3.92519 13.4564C3.83369 13.548 3.71372 13.5938 3.59375 13.5938C3.47378 13.5938 3.35381 13.548 3.26231 13.4564L2.32481 12.5189C2.14175 12.3359 2.14175 12.0391 2.32481 11.856C2.50784 11.673 2.80466 11.673 2.98772 11.856L3.59375 12.4621L5.44981 10.606C5.63284 10.423 5.92966 10.423 6.11272 10.606C6.29575 10.7891 6.29575 11.0859 6.11269 11.2689Z" fill="#EC1C24"/>
<path d="M12.375 4.0625C12.1161 4.0625 11.9062 3.85262 11.9062 3.59375V0H5.1875C4.41209 0 3.78125 0.630844 3.78125 1.40625V6.64653C3.93569 6.63253 4.09197 6.625 4.25 6.625C5.84775 6.625 7.27803 7.3555 8.22456 8.5H13.3125C13.5714 8.5 13.7812 8.70988 13.7812 8.96875C13.7812 9.22762 13.5714 9.4375 13.3125 9.4375H8.84212C9.14162 10.0219 9.32584 10.6585 9.38472 11.3125H13.3125C13.5714 11.3125 13.7812 11.5224 13.7812 11.7812C13.7812 12.0401 13.5714 12.25 13.3125 12.25H9.38472C9.24453 13.7981 8.41741 15.1508 7.21119 16H14.5625C15.3379 16 15.9688 15.3692 15.9688 14.5938V4.0625H12.375ZM13.3125 6.625H6.4375C6.17863 6.625 5.96875 6.41512 5.96875 6.15625C5.96875 5.89738 6.17863 5.6875 6.4375 5.6875H13.3125C13.5714 5.6875 13.7812 5.89738 13.7812 6.15625C13.7812 6.41512 13.5714 6.625 13.3125 6.625Z" fill="#EC1C24"/>
<path d="M12.8438 0.273438V3.12397H15.6941L12.8438 0.273438Z" fill="#EC1C24"/>
</svg>
