<svg width="61" height="60" viewBox="0 0 61 60" fill="none" xmlns="http://www.w3.org/2000/svg">
  <path
    d="M39.2344 17.5781C36.9728 17.5781 35.1328 15.7382 35.1328 13.4766V0H14.1562C10.6023 0 7.71094 2.89137 7.71094 6.44531V53.5547C7.71094 57.1086 10.6023 60 14.1562 60H46.9688C50.5227 60 53.4141 57.1086 53.4141 53.5547V17.5781H39.2344ZM17.3203 42.1875H25.8422C26.813 42.1875 27.6 42.9745 27.6 43.9453C27.6 44.9161 26.813 45.7031 25.8422 45.7031H17.3203C16.3495 45.7031 15.5625 44.9161 15.5625 43.9453C15.5625 42.9745 16.3495 42.1875 17.3203 42.1875ZM15.5625 34.5703C15.5625 33.5995 16.3495 32.8125 17.3203 32.8125H43.1016C44.0723 32.8125 44.8594 33.5995 44.8594 34.5703C44.8594 35.5411 44.0723 36.3281 43.1016 36.3281H17.3203C16.3495 36.3281 15.5625 35.5411 15.5625 34.5703ZM43.1016 23.4375C44.0723 23.4375 44.8594 24.2245 44.8594 25.1953C44.8594 26.1661 44.0723 26.9531 43.1016 26.9531H17.3203C16.3495 26.9531 15.5625 26.1661 15.5625 25.1953C15.5625 24.2245 16.3495 23.4375 17.3203 23.4375H43.1016Z"
    fill="currentColor" />
  <path
    d="M38.6484 13.4761C38.6484 13.7991 38.9113 14.062 39.2344 14.062H52.6305C52.3075 13.4638 51.8916 12.9207 51.3983 12.4528L40.0988 1.7627C39.6654 1.35267 39.1774 1.00464 38.6486 0.728516V13.4761H38.6484Z"
    fill="currentColor" />
</svg>
  