<svg width="16" height="12" viewBox="0 0 16 12" fill="currentColor" xmlns="http://www.w3.org/2000/svg">
<path d="M15.8591 1.17878L11.0066 6L15.8591 10.8212C15.9468 10.6379 16 10.4352 16 10.2188V1.78125C16 1.56478 15.9468 1.36213 15.8591 1.17878ZM14.5938 0.375H1.40625C1.18978 0.375 0.987125 0.428219 0.803781 0.515938L7.00575 6.68666C7.55413 7.23503 8.44588 7.23503 8.99425 6.68666L15.1962 0.515938C15.0129 0.428219 14.8102 0.375 14.5938 0.375ZM0.140938 1.17878C0.0532188 1.36213 0 1.56478 0 1.78125V10.2188C0 10.4352 0.0532188 10.6379 0.140938 10.8212L4.99341 6L0.140938 1.17878Z" fill="#F50308"/>
<path d="M10.3447 6.66406L9.658 7.35072C8.74428 8.26444 7.2575 8.26444 6.34378 7.35072L5.65716 6.66406L0.804688 11.4853C0.988031 11.573 1.19069 11.6262 1.40716 11.6262H14.5947C14.8111 11.6262 15.0138 11.573 15.1971 11.4853L10.3447 6.66406Z" fill="#F50308"/>
</svg>
