<svg width="18" height="18" viewBox="0 0 18 18" fill="none" xmlns="http://www.w3.org/2000/svg">
  <path
    d="M0.0581836 7.67093C0.00046072 7.53158 -0.0146471 7.37825 0.0147704 7.23031C0.044188 7.08238 0.11681 6.94649 0.223453 6.83983L3.69334 3.36995C3.99129 3.072 4.47409 3.072 4.772 3.36995C5.06985 3.66772 5.06985 4.1507 4.772 4.44847L2.60409 6.61638H17.2373C17.6585 6.61638 18 6.95782 18 7.37909C18 7.80037 17.6585 8.14181 17.2373 8.14181H0.762785C0.611939 8.14179 0.464484 8.09705 0.339066 8.01323C0.213648 7.92942 0.115901 7.81029 0.0581836 7.67093ZM17.2372 9.85793H0.762715C0.341508 9.85793 0 10.1994 0 10.6206C0 11.0419 0.341508 11.3834 0.762715 11.3834H15.3959L13.2279 13.5513C12.9302 13.849 12.9301 14.332 13.2279 14.6298C13.2987 14.7007 13.3827 14.757 13.4753 14.7953C13.5678 14.8337 13.6671 14.8534 13.7673 14.8532C13.8674 14.8534 13.9667 14.8337 14.0592 14.7953C14.1518 14.757 14.2358 14.7007 14.3066 14.6298L17.7765 11.1599C17.8832 11.0532 17.9558 10.9173 17.9852 10.7694C18.0147 10.6214 17.9995 10.4681 17.9418 10.3287C17.8841 10.1894 17.7863 10.0703 17.6609 9.98648C17.5355 9.90267 17.3881 9.85794 17.2372 9.85793Z"
    fill="currentColor" />
</svg>
  