<svg width="24" height="24" viewBox="0 0 24 24" fill="none" xmlns="http://www.w3.org/2000/svg">
<path d="M4.5 3.75L19.5 20.25" stroke="#777777" stroke-width="1.5" stroke-linecap="round" stroke-linejoin="round"/>
<path d="M14.5223 14.7762C13.7864 15.4451 12.8149 15.7943 11.8215 15.7469C10.8281 15.6996 9.89422 15.2596 9.22524 14.5237C8.55626 13.7878 8.20698 12.8163 8.25424 11.8229C8.3015 10.8295 8.74142 9.89561 9.47724 9.22656" stroke="#777777" stroke-width="1.5" stroke-linecap="round" stroke-linejoin="round"/>
<path d="M6.93698 6.42969C3.11486 8.36521 1.5 11.999 1.5 11.999C1.5 11.999 4.5 18.7483 12 18.7483C13.7572 18.7623 15.4926 18.3576 17.0623 17.5676" stroke="#777777" stroke-width="1.5" stroke-linecap="round" stroke-linejoin="round"/>
<path d="M19.5586 15.8538C21.6025 14.0231 22.5015 12.0007 22.5015 12.0007C22.5015 12.0007 19.5015 5.25002 12.0015 5.25002C11.3519 5.24895 10.7033 5.30176 10.0625 5.4079" stroke="#777777" stroke-width="1.5" stroke-linecap="round" stroke-linejoin="round"/>
<path d="M12.707 8.31641C13.5041 8.46945 14.23 8.8768 14.7759 9.47734C15.3219 10.0779 15.6584 10.8392 15.735 11.6472" stroke="#777777" stroke-width="1.5" stroke-linecap="round" stroke-linejoin="round"/>
</svg>
