<svg width="24" height="24" viewBox="0 0 24 24" fill="none" xmlns="http://www.w3.org/2000/svg">
<path fillRule="evenodd" clipRule="evenodd" d="M21.5818 12.4116C19.6451 15.8894 15.9724 18.0499 11.9988 18.0499C8.02253 18.0499 4.34983 15.8894 2.41314 12.4116C2.26398 12.1416 2.26398 11.8561 2.41314 11.5863C4.34983 8.10856 8.02253 5.94837 11.9988 5.94837C15.9724 5.94837 19.6451 8.10856 21.5818 11.5863C21.7336 11.8561 21.7336 12.1416 21.5818 12.4116ZM22.8189 10.8968C20.6328 6.9702 16.4868 4.53125 11.9988 4.53125C7.50813 4.53125 3.36217 6.9702 1.17602 10.8968C0.785078 11.5974 0.785078 12.4006 1.17602 13.1007C3.36217 17.0272 7.50813 19.4667 11.9988 19.4667C16.4868 19.4667 20.6328 17.0272 22.8189 13.1007C23.2098 12.4006 23.2098 11.5974 22.8189 10.8968ZM11.9988 14.9059C13.6011 14.9059 14.905 13.6019 14.905 11.9989C14.905 10.3958 13.6011 9.09181 11.9988 9.09181C10.3938 9.09181 9.08987 10.3958 9.08987 11.9989C9.08987 13.6019 10.3939 14.9059 11.9988 14.9059ZM11.9988 7.67469C9.61197 7.67469 7.67275 9.6147 7.67275 11.9989C7.67275 14.3836 9.61202 16.3228 11.9988 16.3228C14.383 16.3228 16.3222 14.3836 16.3222 11.9989C16.3222 9.6147 14.383 7.67469 11.9988 7.67469Z" fill="#606060"/>
</svg>
