<svg width="15" height="15" viewBox="0 0 15 15" fill="none" xmlns="http://www.w3.org/2000/svg">
<path fill-rule="evenodd" clip-rule="evenodd" d="M8.57135 3.42719L11.2164 6.07227L6.42847 10.8602L3.78339 8.21512L8.57135 3.42719ZM6.80515 11.6219L11.9781 6.44894C12.0842 6.34292 12.1372 6.21736 12.1372 6.07227C12.1372 5.92718 12.0842 5.80162 11.9781 5.69559L8.948 2.66547C8.84755 2.56502 8.72202 2.51479 8.57135 2.51479C8.42068 2.51479 8.29512 2.56502 8.19467 2.66547L3.02167 7.83846C2.91564 7.94448 2.86264 8.07003 2.86264 8.21512C2.86264 8.36021 2.91564 8.48577 3.02167 8.5918L6.05182 11.6219C6.15227 11.7224 6.2778 11.7726 6.42847 11.7726C6.57914 11.7726 6.7047 11.7224 6.80515 11.6219ZM14.2466 6.2899L6.65448 13.8903C6.44801 14.0968 6.19549 14.2001 5.89694 14.2001C5.59839 14.2001 5.34588 14.0968 5.1394 13.8903L4.08472 12.8356C4.39722 12.5231 4.55347 12.1437 4.55347 11.6973C4.55347 11.2508 4.39722 10.8714 4.08472 10.5589C3.77222 10.2464 3.39278 10.0901 2.94635 10.0901C2.49992 10.0901 2.12045 10.2464 1.80795 10.5589L0.761627 9.50418C0.555153 9.29771 0.451904 9.04521 0.451904 8.74666C0.451904 8.44811 0.555153 8.19559 0.761627 7.98912L8.3537 0.405411C8.56017 0.198937 8.81269 0.0957031 9.11124 0.0957031C9.40979 0.0957031 9.6623 0.198937 9.86877 0.405411L10.9151 1.45174C10.6026 1.76424 10.4464 2.14369 10.4464 2.59012C10.4464 3.03655 10.6026 3.41601 10.9151 3.72852C11.2276 4.04102 11.607 4.19727 12.0535 4.19727C12.4999 4.19727 12.8794 4.04102 13.1919 3.72852L14.2466 4.77484C14.453 4.98132 14.5563 5.23381 14.5563 5.53236C14.5563 5.83091 14.453 6.08343 14.2466 6.2899Z" fill="#606060"/>
</svg>
