<svg width="24" height="24" viewBox="0 0 24 24" fill="none" xmlns="http://www.w3.org/2000/svg">
  <g clip-path="url(#clip0_2009_27282)">
    <path
      d="M22.8282 2.91234H16.6667V0.703125C16.6667 0.314812 16.3519 0 15.9636 0H1.17188C0.783563 0 0.46875 0.314812 0.46875 0.703125V21.3553C0.46875 21.7436 0.783563 22.0584 1.17188 22.0584H7.33341V23.2969C7.33341 23.6852 7.64822 24 8.03653 24H22.8283C23.2166 24 23.5314 23.6852 23.5314 23.2969V3.61547C23.5313 3.22716 23.2165 2.91234 22.8282 2.91234ZM11.9893 2.91234L15.2605 1.71056V2.91234H11.9893ZM1.875 20.6522V1.40625H12.0108L7.79405 2.95547C7.65895 3.00511 7.54234 3.09502 7.45996 3.21305C7.37758 3.33107 7.33341 3.47154 7.33341 3.61547V20.6522H1.875ZM22.1251 22.5938H8.73966V4.31859H22.1251V22.5938H22.1251Z"
      fill="currentColor" />
    <path
      d="M16.8365 11.3439H19.9384C20.3267 11.3439 20.6415 11.0291 20.6415 10.6408V7.82812C20.6415 7.43981 20.3267 7.125 19.9384 7.125H16.8365C16.4482 7.125 16.1333 7.43981 16.1333 7.82812V10.6408C16.1333 11.0291 16.4482 11.3439 16.8365 11.3439ZM17.5396 8.53125H19.2352V9.93769H17.5396V8.53125ZM10.9219 11.3439H14.0238C14.4121 11.3439 14.7269 11.0291 14.7269 10.6408C14.7269 10.2525 14.4121 9.93769 14.0238 9.93769H10.9219C10.5336 9.93769 10.2188 10.2525 10.2188 10.6408C10.2188 11.0291 10.5336 11.3439 10.9219 11.3439ZM10.9219 8.53125H14.0238C14.4121 8.53125 14.7269 8.21644 14.7269 7.82812C14.7269 7.43981 14.4121 7.125 14.0238 7.125H10.9219C10.5336 7.125 10.2188 7.43981 10.2188 7.82812C10.2188 8.21644 10.5336 8.53125 10.9219 8.53125ZM10.9219 14.1565H19.9384C20.3267 14.1565 20.6415 13.8417 20.6415 13.4534C20.6415 13.0651 20.3267 12.7503 19.9384 12.7503H10.9219C10.5336 12.7503 10.2188 13.0651 10.2188 13.4534C10.2188 13.8417 10.5336 14.1565 10.9219 14.1565ZM10.9219 16.9692H19.9384C20.3267 16.9692 20.6415 16.6544 20.6415 16.2661C20.6415 15.8778 20.3267 15.563 19.9384 15.563H10.9219C10.5336 15.563 10.2188 15.8778 10.2188 16.2661C10.2188 16.6544 10.5336 16.9692 10.9219 16.9692ZM10.9219 19.7819H19.9384C20.3267 19.7819 20.6415 19.4671 20.6415 19.0788C20.6415 18.6905 20.3267 18.3757 19.9384 18.3757H10.9219C10.5336 18.3757 10.2188 18.6905 10.2188 19.0788C10.2188 19.4671 10.5336 19.7819 10.9219 19.7819Z"
      fill="currentColor" />
  </g>
  <defs>
    <clipPath id="clip0_2009_27282">
      <rect width="24" height="24" fill="white" />
    </clipPath>
  </defs>
</svg>
  