<svg width="19" height="19" viewBox="0 0 19 19" fill="none" xmlns="http://www.w3.org/2000/svg">
  <g clip-path="url(#clip0_2376_3220)">
    <path
      d="M17.4028 7.49478L15.2934 10.3089L12.6001 6.71582L9.67578 9.60496L17.4028 17.3671V7.49478ZM8.89496 10.3506L1.20312 18.1128H16.6571L8.89496 10.3506Z"
      fill="currentColor" />
    <path
      d="M15.2969 0.114258C13.5521 0.114258 12.1328 1.53355 12.1328 3.27832C12.1328 3.96689 12.3511 4.62196 12.7637 5.1725L15.2969 8.55176L17.8306 5.17141C18.2478 4.61577 18.4609 3.94805 18.4609 3.27832C18.4609 1.53355 17.0416 0.114258 15.2969 0.114258ZM15.2969 4.86035C14.4245 4.86035 13.7148 4.15062 13.7148 3.27832C13.7148 2.40602 14.4246 1.69629 15.2969 1.69629C16.1692 1.69629 16.8789 2.40602 16.8789 3.27832C16.8789 4.15062 16.1692 4.86035 15.2969 4.86035Z"
      fill="currentColor" />
    <path
      d="M15.2969 2.75098C15.0059 2.75098 14.7695 2.98733 14.7695 3.27832C14.7695 3.56931 15.0059 3.80566 15.2969 3.80566C15.5879 3.80566 15.8242 3.56931 15.8242 3.27832C15.8242 2.98733 15.5879 2.75098 15.2969 2.75098ZM11.9197 5.80475C11.3691 5.06992 11.0781 4.1965 11.0781 3.27832C11.0781 2.50654 11.3015 1.79202 11.6651 1.16895H0.460938V17.3686L11.9646 5.86491L11.9197 5.80475ZM7.84375 5.91504C7.84375 7.36882 6.66081 8.55176 5.20703 8.55176C3.75325 8.55176 2.57031 7.36882 2.57031 5.91504C2.57031 4.91034 3.12856 4.00658 4.02764 3.55641C4.97219 3.08373 6.10158 3.22418 7.0456 3.93036L6.41416 4.77482C5.78641 4.30527 5.08961 4.20529 4.4999 4.4993C3.96029 4.76972 3.625 5.31204 3.625 5.91504C3.625 6.78737 4.33473 7.49707 5.20703 7.49707C5.89451 7.49707 6.48102 7.05621 6.69899 6.44238H5.73438V5.3877H7.84375V5.91504Z"
      fill="currentColor" />
  </g>
  <defs>
    <clipPath id="clip0_2376_3220">
      <rect width="18" height="18" fill="white" transform="translate(0.460938 0.114258)" />
    </clipPath>
  </defs>
</svg>
  