<svg width="20" height="20" viewBox="0 0 20 20" fill="currentColor" xmlns="http://www.w3.org/2000/svg">
<path d="M10 3.75C10.1658 3.75 10.3247 3.68415 10.4419 3.56694C10.5592 3.44973 10.625 3.29076 10.625 3.125V1.875C10.625 1.70924 10.5592 1.55027 10.4419 1.43306C10.3247 1.31585 10.1658 1.25 10 1.25C9.83424 1.25 9.67527 1.31585 9.55806 1.43306C9.44085 1.55027 9.375 1.70924 9.375 1.875V3.125C9.375 3.29076 9.44085 3.44973 9.55806 3.56694C9.67527 3.68415 9.83424 3.75 10 3.75ZM10 16.25C9.83424 16.25 9.67527 16.3158 9.55806 16.4331C9.44085 16.5503 9.375 16.7092 9.375 16.875V18.125C9.375 18.2908 9.44085 18.4497 9.55806 18.5669C9.67527 18.6842 9.83424 18.75 10 18.75C10.1658 18.75 10.3247 18.6842 10.4419 18.5669C10.5592 18.4497 10.625 18.2908 10.625 18.125V16.875C10.625 16.7092 10.5592 16.5503 10.4419 16.4331C10.3247 16.3158 10.1658 16.25 10 16.25ZM3.125 9.375H1.875C1.70924 9.375 1.55027 9.44085 1.43306 9.55806C1.31585 9.67527 1.25 9.83424 1.25 10C1.25 10.1658 1.31585 10.3247 1.43306 10.4419C1.55027 10.5592 1.70924 10.625 1.875 10.625H3.125C3.29076 10.625 3.44973 10.5592 3.56694 10.4419C3.68415 10.3247 3.75 10.1658 3.75 10C3.75 9.83424 3.68415 9.67527 3.56694 9.55806C3.44973 9.44085 3.29076 9.375 3.125 9.375ZM4.69687 14.4194L3.8125 15.3031C3.75443 15.3612 3.70837 15.4301 3.67694 15.506C3.64551 15.5819 3.62934 15.6632 3.62934 15.7453C3.62934 15.8274 3.64551 15.9088 3.67694 15.9846C3.70837 16.0605 3.75443 16.1294 3.8125 16.1875C3.92978 16.3048 4.08884 16.3707 4.25469 16.3707C4.33681 16.3707 4.41813 16.3545 4.494 16.3231C4.56987 16.2916 4.63881 16.2456 4.69687 16.1875L5.58063 15.3038C5.64032 15.2461 5.68793 15.1771 5.72069 15.1009C5.75344 15.0246 5.77069 14.9426 5.77141 14.8596C5.77213 14.7766 5.75631 14.6943 5.72489 14.6175C5.69346 14.5407 5.64705 14.4709 5.58837 14.4123C5.52969 14.3536 5.45991 14.3072 5.3831 14.2757C5.30629 14.2443 5.22399 14.2285 5.141 14.2292C5.05801 14.2299 4.976 14.2472 4.89975 14.2799C4.82349 14.3127 4.75453 14.3603 4.69687 14.42V14.4194ZM4.69687 5.58063C4.81475 5.69447 4.97263 5.75747 5.1365 5.75605C5.30037 5.75462 5.45713 5.68889 5.57301 5.57301C5.68889 5.45713 5.75462 5.30037 5.75605 5.1365C5.75747 4.97263 5.69447 4.81475 5.58063 4.69687L4.69687 3.8125C4.5796 3.69522 4.42054 3.62934 4.25469 3.62934C4.08884 3.62934 3.92978 3.69522 3.8125 3.8125C3.69522 3.92978 3.62934 4.08884 3.62934 4.25469C3.62934 4.42054 3.69522 4.5796 3.8125 4.69687L4.69687 5.58063ZM10.625 5.0375C10.2098 4.9875 9.79017 4.9875 9.375 5.0375C8.16392 5.18667 7.04919 5.77356 6.24082 6.68761C5.43244 7.60166 4.98622 8.77977 4.98622 10C4.98622 11.2202 5.43244 12.3983 6.24082 13.3124C7.04919 14.2264 8.16392 14.8133 9.375 14.9625C9.79017 15.0125 10.2098 15.0125 10.625 14.9625C11.8361 14.8133 12.9508 14.2264 13.7592 13.3124C14.5676 12.3983 15.0138 11.2202 15.0138 10C15.0138 8.77977 14.5676 7.60166 13.7592 6.68761C12.9508 5.77356 11.8361 5.18667 10.625 5.0375ZM9.375 13.6938C8.50157 13.5469 7.70845 13.0952 7.13645 12.419C6.56446 11.7427 6.2506 10.8857 6.2506 10C6.2506 9.1143 6.56446 8.25726 7.13645 7.58103C7.70845 6.9048 8.50157 6.45315 9.375 6.30625C9.58117 6.26838 9.79038 6.24955 10 6.25V13.75C9.79038 13.7505 9.58117 13.7316 9.375 13.6938Z" fill="#4B4C4D"/>
</svg>
