<svg width="14" height="14" viewBox="0 0 14 14" fill="currentColor" xmlns="http://www.w3.org/2000/svg">
  <g clip-path="url(#clip0_2147_9805)">
    <path d="M6.125 10.0625H7.875V13.125H6.125V10.0625Z" fill="currentColor" />
    <path
      d="M12.6875 12.25H11.8125V3.5C11.8125 3.2375 11.6375 3.0625 11.375 3.0625H10.9375V1.3125C10.9375 1.05 10.7625 0.875 10.5 0.875H3.5C3.2375 0.875 3.0625 1.05 3.0625 1.3125V3.0625H2.625C2.3625 3.0625 2.1875 3.2375 2.1875 3.5V12.25H1.3125C1.05 12.25 0.875 12.425 0.875 12.6875C0.875 12.95 1.05 13.125 1.3125 13.125H5.25V9.625C5.25 9.3625 5.425 9.1875 5.6875 9.1875H8.3125C8.575 9.1875 8.75 9.3625 8.75 9.625V13.125H12.6875C12.95 13.125 13.125 12.95 13.125 12.6875C13.125 12.425 12.95 12.25 12.6875 12.25ZM9.625 4.375C9.8875 4.375 10.0625 4.55 10.0625 4.8125V5.6875C10.0625 5.95 9.8875 6.125 9.625 6.125C9.3625 6.125 9.1875 5.95 9.1875 5.6875V4.8125C9.1875 4.55 9.3625 4.375 9.625 4.375ZM4.375 10.9375C4.375 11.2 4.2 11.375 3.9375 11.375C3.675 11.375 3.5 11.2 3.5 10.9375V10.0625C3.5 9.8 3.675 9.625 3.9375 9.625C4.2 9.625 4.375 9.8 4.375 10.0625V10.9375ZM4.8125 8.3125C4.8125 8.575 4.6375 8.75 4.375 8.75C4.1125 8.75 3.9375 8.575 3.9375 8.3125V7.4375C3.9375 7.175 4.1125 7 4.375 7C4.6375 7 4.8125 7.175 4.8125 7.4375V8.3125ZM4.8125 5.6875C4.8125 5.95 4.6375 6.125 4.375 6.125C4.1125 6.125 3.9375 5.95 3.9375 5.6875V4.8125C3.9375 4.55 4.1125 4.375 4.375 4.375C4.6375 4.375 4.8125 4.55 4.8125 4.8125V5.6875ZM5.25 3.9375C4.9875 3.9375 4.8125 3.7625 4.8125 3.5V2.625C4.8125 2.3625 4.9875 2.1875 5.25 2.1875C5.5125 2.1875 5.6875 2.3625 5.6875 2.625V3.5C5.6875 3.7625 5.5125 3.9375 5.25 3.9375ZM6.5625 8.3125C6.5625 8.575 6.3875 8.75 6.125 8.75C5.8625 8.75 5.6875 8.575 5.6875 8.3125V7.4375C5.6875 7.175 5.8625 7 6.125 7C6.3875 7 6.5625 7.175 6.5625 7.4375V8.3125ZM6.5625 5.6875C6.5625 5.95 6.3875 6.125 6.125 6.125C5.8625 6.125 5.6875 5.95 5.6875 5.6875V4.8125C5.6875 4.55 5.8625 4.375 6.125 4.375C6.3875 4.375 6.5625 4.55 6.5625 4.8125V5.6875ZM7 3.9375C6.7375 3.9375 6.5625 3.7625 6.5625 3.5V2.625C6.5625 2.3625 6.7375 2.1875 7 2.1875C7.2625 2.1875 7.4375 2.3625 7.4375 2.625V3.5C7.4375 3.7625 7.2625 3.9375 7 3.9375ZM8.3125 8.3125C8.3125 8.575 8.1375 8.75 7.875 8.75C7.6125 8.75 7.4375 8.575 7.4375 8.3125V7.4375C7.4375 7.175 7.6125 7 7.875 7C8.1375 7 8.3125 7.175 8.3125 7.4375V8.3125ZM8.3125 5.6875C8.3125 5.95 8.1375 6.125 7.875 6.125C7.6125 6.125 7.4375 5.95 7.4375 5.6875V4.8125C7.4375 4.55 7.6125 4.375 7.875 4.375C8.1375 4.375 8.3125 4.55 8.3125 4.8125V5.6875ZM8.75 3.9375C8.4875 3.9375 8.3125 3.7625 8.3125 3.5V2.625C8.3125 2.3625 8.4875 2.1875 8.75 2.1875C9.0125 2.1875 9.1875 2.3625 9.1875 2.625V3.5C9.1875 3.7625 9.0125 3.9375 8.75 3.9375ZM9.1875 8.3125V7.4375C9.1875 7.175 9.3625 7 9.625 7C9.8875 7 10.0625 7.175 10.0625 7.4375V8.3125C10.0625 8.575 9.8875 8.75 9.625 8.75C9.3625 8.75 9.1875 8.575 9.1875 8.3125ZM10.5 10.9375C10.5 11.2 10.325 11.375 10.0625 11.375C9.8 11.375 9.625 11.2 9.625 10.9375V10.0625C9.625 9.8 9.8 9.625 10.0625 9.625C10.325 9.625 10.5 9.8 10.5 10.0625V10.9375Z"
      fill="currentColor" />
  </g>
  <defs>
    <clipPath id="clip0_2147_9805">
      <rect width="14" height="14" fill="white" />
    </clipPath>
  </defs>
</svg>
  