<svg width="14" height="15" viewBox="0 0 14 15" fill="none" xmlns="http://www.w3.org/2000/svg">
<path d="M6 4H8V0.5H6V4Z" fill="#F50308"/>
<path d="M13.5 1.5H12.5V11.5C12.5 11.8 12.3 12 12 12H11.5V14C11.5 14.3 11.3 14.5 11 14.5H3C2.7 14.5 2.5 14.3 2.5 14V12H2C1.7 12 1.5 11.8 1.5 11.5V1.5H0.5C0.2 1.5 0 1.3 0 1C0 0.7 0.2 0.5 0.5 0.5H5V4.5C5 4.8 5.2 5 5.5 5H8.5C8.8 5 9 4.8 9 4.5V0.5H13.5C13.8 0.5 14 0.7 14 1C14 1.3 13.8 1.5 13.5 1.5ZM10 10.5C10.3 10.5 10.5 10.3 10.5 10V9C10.5 8.7 10.3 8.5 10 8.5C9.7 8.5 9.5 8.7 9.5 9V10C9.5 10.3 9.7 10.5 10 10.5ZM4 3C4 2.7 3.8 2.5 3.5 2.5C3.2 2.5 3 2.7 3 3V4C3 4.3 3.2 4.5 3.5 4.5C3.8 4.5 4 4.3 4 4V3ZM4.5 6C4.5 5.7 4.3 5.5 4 5.5C3.7 5.5 3.5 5.7 3.5 6V7C3.5 7.3 3.7 7.5 4 7.5C4.3 7.5 4.5 7.3 4.5 7V6ZM4.5 9C4.5 8.7 4.3 8.5 4 8.5C3.7 8.5 3.5 8.7 3.5 9V10C3.5 10.3 3.7 10.5 4 10.5C4.3 10.5 4.5 10.3 4.5 10V9ZM5 11C4.7 11 4.5 11.2 4.5 11.5V12.5C4.5 12.8 4.7 13 5 13C5.3 13 5.5 12.8 5.5 12.5V11.5C5.5 11.2 5.3 11 5 11ZM6.5 6C6.5 5.7 6.3 5.5 6 5.5C5.7 5.5 5.5 5.7 5.5 6V7C5.5 7.3 5.7 7.5 6 7.5C6.3 7.5 6.5 7.3 6.5 7V6ZM6.5 9C6.5 8.7 6.3 8.5 6 8.5C5.7 8.5 5.5 8.7 5.5 9V10C5.5 10.3 5.7 10.5 6 10.5C6.3 10.5 6.5 10.3 6.5 10V9ZM7 11C6.7 11 6.5 11.2 6.5 11.5V12.5C6.5 12.8 6.7 13 7 13C7.3 13 7.5 12.8 7.5 12.5V11.5C7.5 11.2 7.3 11 7 11ZM8.5 6C8.5 5.7 8.3 5.5 8 5.5C7.7 5.5 7.5 5.7 7.5 6V7C7.5 7.3 7.7 7.5 8 7.5C8.3 7.5 8.5 7.3 8.5 7V6ZM8.5 9C8.5 8.7 8.3 8.5 8 8.5C7.7 8.5 7.5 8.7 7.5 9V10C7.5 10.3 7.7 10.5 8 10.5C8.3 10.5 8.5 10.3 8.5 10V9ZM9 11C8.7 11 8.5 11.2 8.5 11.5V12.5C8.5 12.8 8.7 13 9 13C9.3 13 9.5 12.8 9.5 12.5V11.5C9.5 11.2 9.3 11 9 11ZM9.5 6V7C9.5 7.3 9.7 7.5 10 7.5C10.3 7.5 10.5 7.3 10.5 7V6C10.5 5.7 10.3 5.5 10 5.5C9.7 5.5 9.5 5.7 9.5 6ZM11 3C11 2.7 10.8 2.5 10.5 2.5C10.2 2.5 10 2.7 10 3V4C10 4.3 10.2 4.5 10.5 4.5C10.8 4.5 11 4.3 11 4V3Z" fill="#F50308"/>
</svg>
