<svg width="26" height="27" viewBox="0 0 26 27" fill="none" xmlns="http://www.w3.org/2000/svg">
  <path d="M19.2115 10.9924C19.998 11.1024 20.7846 10.6072 21.2565 9.83687L17.2713 9.17659C17.6384 10.167 18.32 10.8823 19.2115 10.9924ZM14.7543 10.3321C15.5933 10.4421 16.3274 9.94692 16.7994 9.12156L12.7617 8.40625C13.1288 9.45171 13.8629 10.222 14.7543 10.3321ZM23.9308 11.7077H24.1405V10.3321L22.0431 9.94692C22.4101 10.8823 23.0918 11.5976 23.9308 11.7077Z" fill="currentColor"/>
  <path d="M12.4477 6.59232L24.1412 8.62821V4.39136L12.3429 2.35547L1.85547 4.39136V8.73826L12.4477 6.59232Z" fill="currentColor"/>
  <path d="M10.4027 10.3363C11.2941 10.1713 11.9758 9.40093 12.2904 8.35547L8.30522 9.18083C8.77715 10.0062 9.5637 10.5014 10.4027 10.3363ZM2.79933 10.2263L1.85547 10.4464V11.3818C2.22253 11.1067 2.58959 10.7215 2.79933 10.2263ZM5.89312 10.9966C6.67967 10.8866 7.36135 10.1713 7.72841 9.29088L3.95295 10.0612C4.42488 10.7215 5.10656 11.1067 5.89312 10.9966Z" fill="currentColor"/>
  <path d="M23.8266 13.5271C22.6729 13.4171 21.834 12.2065 21.6766 10.7209C21.3096 12.0965 20.3133 12.9769 19.2121 12.8668C18.1109 12.7568 17.2719 11.6013 17.0622 10.2257C16.6427 11.4912 15.6988 12.3166 14.6501 12.2066C13.6014 12.0965 12.7624 11.051 12.5526 9.73047C12.3429 11.051 11.5563 12.0415 10.5076 12.2066C9.35396 12.3716 8.35765 11.4912 7.99059 10.0606C7.83328 11.4912 6.99429 12.7018 5.89312 12.8668C4.7395 13.0319 3.69076 12.0965 3.3237 10.6659C3.21883 11.8764 2.64202 12.9219 1.85547 13.3621V20.02L12.1856 21.2305L24.1412 20.6252V13.5271H23.8266ZM1.85547 21.1204V23.1563L11.9758 24.642L24.1412 23.6515V21.7257L12.1331 22.331L1.85547 21.1204Z" fill="currentColor"/>
</svg>