<svg width="24" height="24" viewBox="0 0 24 24" fill="none" xmlns="http://www.w3.org/2000/svg">
  <path
    d="M11 4C10.448 4 10 4.44798 10 4.99998C10 5.55198 10.448 6.00002 11 6.00002C11.552 6.00002 12 5.55203 12 5.00003C12 4.44803 11.552 4 11 4Z"
    fill="currentColor" />
  <path
    d="M18 6C18 2.68673 15.3133 0 12 0C8.68673 0 6 2.68673 6 6C6 8.97253 8.16263 11.4403 11 11.9166V23C11 23.5523 11.4477 24 12 24C12.5523 24 13 23.5523 13 23V11.9166C15.8374 11.4403 18 8.97253 18 6ZM12 9.99998C9.7913 9.99998 8.00002 8.2087 8.00002 6C8.00002 3.7913 9.7913 2.00002 12 2.00002C14.2087 2.00002 16 3.7913 16 6C16 8.2087 14.2087 9.99998 12 9.99998Z"
    fill="currentColor" />
</svg>
  