<svg width="121" height="120" viewBox="0 0 121 120" fill="none" xmlns="http://www.w3.org/2000/svg">
  <g clip-path="url(#clip0_2352_6895)">
    <path
      d="M60.4995 25.6111C58.1537 25.6111 56.252 23.7096 56.252 21.3635V4.24758C56.252 1.90148 58.1537 0 60.4995 0C62.8454 0 64.7471 1.90148 64.7471 4.24758V21.3638C64.7471 23.7096 62.8454 25.6111 60.4995 25.6111Z"
      fill="currentColor" />
    <path opacity="0.52"
      d="M60.4995 120C58.1537 120 56.252 118.099 56.252 115.752V98.6362C56.252 96.2902 58.1537 94.3887 60.4995 94.3887C62.8454 94.3887 64.7471 96.2902 64.7471 98.6362V115.752C64.7471 118.099 62.8454 120 60.4995 120Z"
      fill="currentColor" />
    <path opacity="0.58"
      d="M81.5697 115.866C79.8949 115.866 78.3077 114.868 77.6357 113.222L71.1677 97.3757C70.2811 95.2037 71.3233 92.7243 73.495 91.8381C75.6654 90.9505 78.146 91.9932 79.0326 94.165L85.5007 110.012C86.3873 112.184 85.345 114.663 83.1733 115.549C82.6645 115.758 82.1197 115.865 81.5697 115.866Z"
      fill="currentColor" />
    <path opacity="0.94"
      d="M75.0987 28.478C74.5641 28.478 74.0205 28.3768 73.4951 28.1619C71.3231 27.2759 70.2811 24.7962 71.1677 22.6243L77.6358 6.77749C78.5222 4.60554 81.0014 3.56046 83.1734 4.45039C85.3453 5.33632 86.3873 7.81601 85.5007 9.98796L79.0326 25.8348C78.3607 27.481 76.7735 28.478 75.0987 28.478Z"
      fill="currentColor" />
    <path opacity="0.46"
      d="M39.4287 115.866C38.8941 115.866 38.3506 115.764 37.8252 115.549C35.6532 114.664 34.6112 112.184 35.4978 110.012L41.9659 94.1651C42.8525 91.9931 45.3315 90.9504 47.5034 91.8382C49.6754 92.7241 50.7174 95.2038 49.8308 97.3758L43.3627 113.223C42.6908 114.869 41.1036 115.866 39.4287 115.866Z"
      fill="currentColor" />
    <path opacity="0.36"
      d="M8.88297 85.3179C7.20813 85.3179 5.62094 84.3215 4.94898 82.6748C4.06234 80.5029 5.10438 78.0234 7.27609 77.1372L23.1227 70.669C25.2944 69.7798 27.7738 70.8232 28.6605 72.9958C29.5471 75.1678 28.5051 77.6473 26.3334 78.5334L10.4868 85.0017C9.97785 85.2104 9.43306 85.3178 8.88297 85.3179Z"
      fill="currentColor" />
    <path opacity="0.82"
      d="M96.2716 49.6477C94.5968 49.6477 93.0096 48.6513 92.3377 47.0046C91.451 44.8327 92.493 42.3532 94.6648 41.467L110.511 34.9988C112.682 34.1102 115.163 35.153 116.049 37.3259C116.936 39.4978 115.894 41.9773 113.722 42.8634L97.8755 49.3317C97.3665 49.5403 96.8217 49.6476 96.2716 49.6477Z"
      fill="currentColor" />
    <path opacity="0.24"
      d="M24.7265 49.647C24.1919 49.647 23.6484 49.5457 23.1227 49.3308L7.27613 42.8625C5.10417 41.9766 4.06238 39.4969 4.94902 37.325C5.83542 35.153 8.31417 34.1112 10.4868 34.9978L26.3334 41.4661C28.5053 42.3521 29.5471 44.8318 28.6605 47.0037C27.9885 48.6497 26.4011 49.647 24.7265 49.647Z"
      fill="currentColor" />
    <path opacity="0.7"
      d="M112.117 85.3182C111.583 85.3182 111.039 85.217 110.513 85.0021L94.6667 78.5338C92.4948 77.6479 91.453 75.1682 92.3396 72.9962C93.2263 70.8259 95.705 69.7832 97.8775 70.6693L113.724 77.1376C115.896 78.0236 116.938 80.5032 116.051 82.6752C115.379 84.321 113.792 85.3182 112.117 85.3182Z"
      fill="currentColor" />
    <path opacity="0.88"
      d="M87.8197 36.9279C86.7326 36.9279 85.6458 36.5131 84.8164 35.6837C83.1577 34.0252 83.1575 31.3358 84.8162 29.6773L96.9188 17.5744C98.5775 15.9153 101.267 15.9153 102.926 17.5744C104.584 19.2329 104.585 21.9223 102.926 23.5808L90.8232 35.6837C90.4292 36.0787 89.9611 36.392 89.4456 36.6056C88.9302 36.8191 88.3776 36.9287 87.8197 36.9279Z"
      fill="currentColor" />
    <path opacity="0.4"
      d="M21.0775 103.67C19.9904 103.67 18.9037 103.255 18.0742 102.426C16.4155 100.767 16.4153 98.0779 18.074 96.4195L30.1766 84.3166C31.8353 82.6575 34.5247 82.6575 36.1834 84.3166C37.8421 85.9751 37.8423 88.6645 36.1837 90.3229L24.081 102.426C23.687 102.821 23.2188 103.134 22.7034 103.348C22.188 103.561 21.6354 103.671 21.0775 103.67Z"
      fill="currentColor" />
    <path opacity="0.18"
      d="M33.1802 36.9274C32.093 36.9274 31.0064 36.5126 30.1767 35.6831L18.0741 23.5802C16.4154 21.9218 16.4154 19.2323 18.0743 17.5739C19.7327 15.9155 22.4222 15.9155 24.0811 17.5739L36.1837 29.6768C37.8424 31.3352 37.8424 34.0247 36.1835 35.6831C35.7896 36.0782 35.3214 36.3915 34.806 36.605C34.2906 36.8185 33.7381 36.9281 33.1802 36.9274Z"
      fill="currentColor" />
    <path opacity="0.64"
      d="M99.9223 103.67C98.8351 103.67 97.7485 103.255 96.9188 102.425L84.8162 90.3224C83.1575 88.664 83.1577 85.9745 84.8164 84.3161C86.4751 82.6577 89.1645 82.6577 90.8232 84.3161L102.926 96.419C104.585 98.0774 104.585 100.767 102.926 102.425C102.532 102.82 102.064 103.134 101.548 103.347C101.033 103.561 100.48 103.67 99.9223 103.67Z"
      fill="currentColor" />
    <path opacity="0.3"
      d="M21.863 64.2471H4.74758C2.40172 64.2471 0.5 62.3456 0.5 59.9995C0.5 57.6534 2.40172 55.752 4.74758 55.752H21.863C24.2089 55.752 26.1106 57.6534 26.1106 59.9995C26.1106 62.3456 24.2089 64.2471 21.863 64.2471Z"
      fill="currentColor" />
    <path opacity="0.76"
      d="M116.252 64.2471H99.1362C96.7904 64.2471 94.8887 62.3456 94.8887 59.9995C94.8887 57.6534 96.7904 55.752 99.1362 55.752H116.252C118.598 55.752 120.5 57.6534 120.5 59.9995C120.5 62.3456 118.598 64.2471 116.252 64.2471Z"
      fill="currentColor" />
  </g>
  <defs>
    <clipPath id="clip0_2352_6895">
      <rect width="120" height="120" fill="white" transform="translate(0.5)" />
    </clipPath>
  </defs>
</svg>
  