<svg width="16" height="20" viewBox="0 0 16 20" fill="none" xmlns="http://www.w3.org/2000/svg">
<path d="M8.00781 0C6.0195 0.00264579 4.11338 0.793672 2.70743 2.19962C1.30148 3.60557 0.510458 5.51169 0.507812 7.5C0.507813 12.8844 7.49531 19.6281 7.79219 19.9125C7.84993 19.9686 7.92729 20 8.00781 20C8.08834 20 8.16569 19.9686 8.22344 19.9125C8.52031 19.6281 15.5078 12.8844 15.5078 7.5C15.5052 5.51169 14.7141 3.60557 13.3082 2.19962C11.9022 0.793672 9.99612 0.00264579 8.00781 0ZM8.00781 10.9375C7.32794 10.9375 6.66333 10.7359 6.09804 10.3582C5.53275 9.98046 5.09215 9.4436 4.83198 8.81547C4.5718 8.18735 4.50373 7.49619 4.63636 6.82938C4.769 6.16257 5.09639 5.55006 5.57713 5.06932C6.05788 4.58858 6.67038 4.26119 7.33719 4.12855C8.004 3.99591 8.69517 4.06399 9.32329 4.32416C9.95141 4.58434 10.4883 5.02493 10.866 5.59023C11.2437 6.15552 11.4453 6.82013 11.4453 7.5C11.4447 8.4115 11.0824 9.28551 10.4379 9.93004C9.79332 10.5746 8.91932 10.9369 8.00781 10.9375Z" fill="#F50308"/>
</svg>
