<svg width="24" height="24" viewBox="0 0 24 24" fill="none" xmlns="http://www.w3.org/2000/svg">
  <path
    d="M12.0002 1.50283C10.0122 1.50658 8.10663 2.29798 6.70089 3.70372C5.29514 5.10947 4.50375 7.01499 4.5 9.00301C4.5 11.9509 6.27725 15.1823 7.99782 17.7617C9.71838 20.3411 11.4418 22.2516 11.4418 22.2516C11.5122 22.3294 11.5981 22.3917 11.6941 22.4342C11.79 22.4768 11.8938 22.4988 11.9988 22.4988C12.1037 22.4988 12.2075 22.4768 12.3034 22.4342C12.3994 22.3917 12.4853 22.3294 12.5557 22.2516C12.5557 22.2516 14.2791 20.3411 15.9997 17.7617C17.7203 15.1823 19.4975 11.9509 19.4975 9.00301C19.4953 7.01476 18.7048 5.1085 17.2995 3.70207C15.8941 2.29563 13.9884 1.50658 12.0002 1.50283ZM12.0002 2.99947C15.3251 2.99947 17.9952 5.68094 17.9952 9.00301C17.9952 11.3075 16.4079 14.4482 14.7525 16.9312C13.3749 18.9947 12.4254 20.0379 12.003 20.5226C11.5778 20.0379 10.6254 18.9947 9.24784 16.9312C7.59531 14.4482 5.99947 11.3075 5.99947 9.00301C5.99947 5.68094 8.6781 2.99947 12.0002 2.99947ZM12.0002 6.00407C10.3533 6.00407 9.00124 7.35615 9.00124 9.00301C9.00124 10.6499 10.3533 12.0019 12.0002 12.0019C13.6499 12.0019 15.0019 10.6499 15.0019 9.00301C15.0019 7.35615 13.6499 6.00407 12.0002 6.00407ZM12.0002 7.50071C12.8392 7.50071 13.5025 8.16682 13.5025 9.00301C13.5025 9.8392 12.8392 10.5053 12.0002 10.5053C11.8026 10.5068 11.6067 10.469 11.4239 10.394C11.2411 10.319 11.0751 10.2083 10.9355 10.0685C10.7959 9.92866 10.6856 9.76242 10.6109 9.57949C10.5363 9.39655 10.4988 9.20058 10.5007 9.00301C10.5007 8.16682 11.1612 7.50071 12.0002 7.50071Z"
    fill="currentColor" />
</svg>
  