<svg width="19" height="19" viewBox="0 0 19 19" fill="none" xmlns="http://www.w3.org/2000/svg">
  <g clip-path="url(#clip0_2376_3210)">
    <path
      d="M14.5234 13.0518C13.7899 13.0518 13.1712 13.5231 12.9394 14.1768H5.98244C5.74956 13.5231 5.13194 13.0518 4.39844 13.0518C3.46694 13.0518 2.71094 13.8078 2.71094 14.7393C2.71094 15.6708 3.46694 16.4268 4.39844 16.4268C5.13194 16.4268 5.75069 15.9554 5.98244 15.3018H12.9394C13.1723 15.9554 13.7899 16.4268 14.5234 16.4268C15.4549 16.4268 16.2109 15.6708 16.2109 14.7393C16.2109 13.8078 15.4549 13.0518 14.5234 13.0518ZM4.39844 1.80176C2.22719 1.80176 0.460938 3.56801 0.460938 5.73926C0.460938 7.75976 3.61994 11.3384 3.97994 11.74C4.08681 11.8581 4.23869 11.9268 4.39844 11.9268C4.55819 11.9268 4.71006 11.8581 4.81694 11.74C5.17694 11.3384 8.33594 7.75976 8.33594 5.73926C8.33594 3.56801 6.56969 1.80176 4.39844 1.80176ZM4.39844 7.42676C3.46694 7.42676 2.71094 6.67076 2.71094 5.73926C2.71094 4.80776 3.46694 4.05176 4.39844 4.05176C5.32994 4.05176 6.08594 4.80776 6.08594 5.73926C6.08594 6.67076 5.32994 7.42676 4.39844 7.42676ZM14.5234 1.80176C12.3522 1.80176 10.5859 3.56801 10.5859 5.73926C10.5859 7.75976 13.7449 11.3384 14.1049 11.74C14.2118 11.8581 14.3637 11.9268 14.5234 11.9268C14.6832 11.9268 14.8351 11.8581 14.9419 11.74C15.3019 11.3384 18.4609 7.75976 18.4609 5.73926C18.4609 3.56801 16.6947 1.80176 14.5234 1.80176ZM14.5234 7.42676C13.5919 7.42676 12.8359 6.67076 12.8359 5.73926C12.8359 4.80776 13.5919 4.05176 14.5234 4.05176C15.4549 4.05176 16.2109 4.80776 16.2109 5.73926C16.2109 6.67076 15.4549 7.42676 14.5234 7.42676Z"
      fill="currentColor" />
  </g>
  <defs>
    <clipPath id="clip0_2376_3210">
      <rect width="18" height="18" fill="white" transform="translate(0.460938 0.114258)" />
    </clipPath>
  </defs>
</svg>
  