<svg width="12" height="15" viewBox="0 0 12 15" fill="none" xmlns="http://www.w3.org/2000/svg">
<path fill-rule="evenodd" clip-rule="evenodd" d="M6 0.328125C3.518 0.328125 1.5 2.36413 1.5 4.87546C1.5 5.72613 1.87467 6.78146 2.42 7.83413C3.62067 10.1521 5.62067 12.4868 5.62067 12.4868C5.66761 12.5415 5.72581 12.5853 5.79128 12.6154C5.85675 12.6455 5.92795 12.6611 6 12.6611C6.07205 12.6611 6.14325 12.6455 6.20872 12.6154C6.2742 12.5853 6.33239 12.5415 6.37933 12.4868C6.37933 12.4868 8.37933 10.1521 9.58 7.83413C10.1253 6.78146 10.5 5.72613 10.5 4.87546C10.5 2.36413 8.482 0.328125 6 0.328125ZM6 2.99479C5.52233 3.00767 5.06855 3.20648 4.73525 3.54889C4.40195 3.8913 4.21545 4.35028 4.21545 4.82812C4.21545 5.30597 4.40195 5.76495 4.73525 6.10736C5.06855 6.44977 5.52233 6.64858 6 6.66146C6.47767 6.64858 6.93145 6.44977 7.26475 6.10736C7.59805 5.76495 7.78455 5.30597 7.78455 4.82812C7.78455 4.35028 7.59805 3.8913 7.26475 3.54889C6.93145 3.20648 6.47767 3.00767 6 2.99479Z" fill="#F50308"/>
<path fill-rule="evenodd" clip-rule="evenodd" d="M9.19454 11.0807C9.73654 11.2434 10.1832 11.4447 10.4919 11.6807C10.6919 11.8327 10.8385 11.9814 10.8385 12.1627C10.8385 12.2694 10.7779 12.3661 10.6925 12.4627C10.5512 12.6221 10.3412 12.7654 10.0812 12.8987C9.16254 13.3687 7.67721 13.6627 6.00521 13.6627C4.33321 13.6627 2.84787 13.3687 1.92921 12.8987C1.66921 12.7654 1.45921 12.6221 1.31787 12.4627C1.23254 12.3661 1.17187 12.2694 1.17187 12.1627C1.17187 11.9814 1.31854 11.8327 1.51854 11.6807C1.82721 11.4447 2.27387 11.2434 2.81587 11.0807C2.94291 11.0425 3.04958 10.9555 3.1124 10.8386C3.17523 10.7218 3.18907 10.5848 3.15087 10.4577C3.11268 10.3307 3.02559 10.224 2.90876 10.1612C2.79192 10.0984 2.65491 10.0845 2.52787 10.1227C1.70254 10.3714 1.06121 10.7121 0.675875 11.0887C0.337208 11.4187 0.171875 11.7881 0.171875 12.1627C0.171875 12.6307 0.436542 13.0974 0.974542 13.4867C1.91854 14.1694 3.81454 14.6627 6.00521 14.6627C8.19587 14.6627 10.0919 14.1694 11.0359 13.4867C11.5739 13.0974 11.8385 12.6307 11.8385 12.1627C11.8385 11.7881 11.6732 11.4187 11.3345 11.0887C10.9492 10.7121 10.3079 10.3714 9.48254 10.1227C9.41964 10.1038 9.35363 10.0975 9.28827 10.1041C9.22292 10.1107 9.15951 10.1301 9.10166 10.1612C9.04381 10.1923 8.99265 10.2345 8.95111 10.2854C8.90957 10.3363 8.87845 10.3948 8.85954 10.4577C8.84063 10.5206 8.8343 10.5867 8.8409 10.652C8.8475 10.7174 8.86691 10.7808 8.89801 10.8386C8.92912 10.8965 8.97132 10.9476 9.0222 10.9892C9.07308 11.0307 9.13164 11.0618 9.19454 11.0807Z" fill="#F50308"/>
</svg>
