<svg width="16" height="17" viewBox="0 0 16 17" fill="none" xmlns="http://www.w3.org/2000/svg">
  <path fill-rule="evenodd" clip-rule="evenodd"
    d="M8 1.32812C5.518 1.32812 3.5 3.36413 3.5 5.87546C3.5 6.72613 3.87467 7.78146 4.42 8.83413C5.62067 11.1521 7.62067 13.4868 7.62067 13.4868C7.66761 13.5415 7.72581 13.5853 7.79128 13.6154C7.85675 13.6455 7.92795 13.6611 8 13.6611C8.07205 13.6611 8.14325 13.6455 8.20872 13.6154C8.2742 13.5853 8.33239 13.5415 8.37933 13.4868C8.37933 13.4868 10.3793 11.1521 11.58 8.83413C12.1253 7.78146 12.5 6.72613 12.5 5.87546C12.5 3.36413 10.482 1.32812 8 1.32812ZM8 3.99479C7.52233 4.00767 7.06855 4.20648 6.73525 4.54889C6.40195 4.8913 6.21545 5.35028 6.21545 5.82812C6.21545 6.30597 6.40195 6.76495 6.73525 7.10736C7.06855 7.44977 7.52233 7.64858 8 7.66146C8.47767 7.64858 8.93145 7.44977 9.26475 7.10736C9.59805 6.76495 9.78455 6.30597 9.78455 5.82812C9.78455 5.35028 9.59805 4.8913 9.26475 4.54889C8.93145 4.20648 8.47767 4.00767 8 3.99479Z"
    fill="currentColor" />
  <path fill-rule="evenodd" clip-rule="evenodd"
    d="M11.1945 12.0807C11.7365 12.2434 12.1832 12.4447 12.4919 12.6807C12.6919 12.8327 12.8385 12.9814 12.8385 13.1627C12.8385 13.2694 12.7779 13.3661 12.6925 13.4627C12.5512 13.6221 12.3412 13.7654 12.0812 13.8987C11.1625 14.3687 9.67721 14.6627 8.00521 14.6627C6.33321 14.6627 4.84787 14.3687 3.92921 13.8987C3.66921 13.7654 3.45921 13.6221 3.31787 13.4627C3.23254 13.3661 3.17187 13.2694 3.17187 13.1627C3.17187 12.9814 3.31854 12.8327 3.51854 12.6807C3.82721 12.4447 4.27387 12.2434 4.81587 12.0807C4.94291 12.0425 5.04958 11.9555 5.1124 11.8386C5.17523 11.7218 5.18907 11.5848 5.15087 11.4577C5.11268 11.3307 5.02559 11.224 4.90876 11.1612C4.79192 11.0984 4.65491 11.0845 4.52787 11.1227C3.70254 11.3714 3.06121 11.7121 2.67588 12.0887C2.33721 12.4187 2.17188 12.7881 2.17188 13.1627C2.17188 13.6307 2.43654 14.0974 2.97454 14.4867C3.91854 15.1694 5.81454 15.6627 8.00521 15.6627C10.1959 15.6627 12.0919 15.1694 13.0359 14.4867C13.5739 14.0974 13.8385 13.6307 13.8385 13.1627C13.8385 12.7881 13.6732 12.4187 13.3345 12.0887C12.9492 11.7121 12.3079 11.3714 11.4825 11.1227C11.4196 11.1038 11.3536 11.0975 11.2883 11.1041C11.2229 11.1107 11.1595 11.1301 11.1017 11.1612C11.0438 11.1923 10.9927 11.2345 10.9511 11.2854C10.9096 11.3363 10.8785 11.3948 10.8595 11.4577C10.8406 11.5206 10.8343 11.5867 10.8409 11.652C10.8475 11.7174 10.8669 11.7808 10.898 11.8386C10.9291 11.8965 10.9713 11.9476 11.0222 11.9892C11.0731 12.0307 11.1316 12.0618 11.1945 12.0807Z"
    fill="currentColor" />
</svg>
  