<svg width="24" height="24" viewBox="0 0 24 24" fill="currentColor" xmlns="http://www.w3.org/2000/svg">
<g clip-path="url(#clip0_759_66411)">
<path d="M17.396 16.2544V11.812C17.396 11.0465 16.9497 10.3838 16.3043 10.0706V9.46872C16.3043 7.09079 14.3729 5.15625 11.9988 5.15625C9.62464 5.15625 7.69324 7.09079 7.69324 9.46872V10.0706C7.04777 10.3837 6.60156 11.0465 6.60156 11.812V16.2544C6.60156 17.3203 7.46735 18.1875 8.53095 18.1875H15.4666C16.5302 18.1875 17.396 17.3203 17.396 16.2544ZM11.9988 6.56251C13.5989 6.56251 14.9003 7.8661 14.9003 9.46872V9.87883H9.0972V9.46872C9.0972 7.8661 10.3987 6.56251 11.9988 6.56251ZM11.2966 14.5195V13.5469C11.2966 13.1587 11.6111 12.8437 11.9988 12.8437C12.3864 12.8437 12.701 13.1587 12.701 13.5469V14.5195C12.701 14.9081 12.3864 15.2226 11.9988 15.2226C11.6111 15.2226 11.2966 14.9081 11.2966 14.5195Z" fill="#606060"/>
<path d="M10.3672 21.489C8.15979 21.1109 6.13961 19.9564 4.6788 18.2381C3.20176 16.5008 2.38833 14.2854 2.38833 12C2.38833 9.71469 3.20176 7.49928 4.6788 5.76199C5.79208 4.45253 7.23035 3.47101 8.82861 2.91048L8.57966 3.35312C8.38934 3.69147 8.50887 4.12023 8.84666 4.31083C9.17834 4.49969 9.61147 4.38475 9.80282 4.04336L10.8579 2.16756C11.0478 1.84852 10.9324 1.40236 10.6114 1.21599L8.76659 0.101204C8.43458 -0.0994222 8.00314 0.00750013 7.80289 0.340033C7.60264 0.672565 7.70937 1.10471 8.04134 1.30529L8.45155 1.55316C6.58507 2.19034 4.9052 3.32673 3.6099 4.85027C1.91682 6.84171 0.984375 9.3809 0.984375 12C0.984375 14.6192 1.91682 17.1584 3.6099 19.1498C5.28367 21.1185 7.5994 22.4415 10.1305 22.8751C10.504 22.9418 10.8772 22.6854 10.9408 22.3006C11.0061 21.9179 10.7494 21.5545 10.3672 21.489ZM20.3902 4.85027C18.7164 2.88156 16.4007 1.55855 13.8696 1.125C13.4873 1.05961 13.1246 1.31677 13.0593 1.69951C12.9939 2.08229 13.2507 2.44562 13.6328 2.5111C15.8402 2.88925 17.8604 4.04373 19.3212 5.76199C20.7983 7.49928 21.6118 9.71469 21.6118 12C21.6118 14.2854 20.7983 16.5008 19.3212 18.2381C18.208 19.5476 16.7697 20.5291 15.1714 21.0896L15.4204 20.647C15.6107 20.3086 15.4912 19.8799 15.1534 19.6893C14.8156 19.4988 14.3876 19.6184 14.1973 19.9567L13.1422 21.8325C12.9523 22.1519 13.0675 22.5976 13.3887 22.7841L15.2335 23.8989C15.5602 24.0978 15.9958 23.9954 16.1972 23.6601C16.3975 23.3275 16.2908 22.8954 15.9588 22.6948L15.5486 22.4469C17.4151 21.8098 19.095 20.6734 20.3903 19.1498C22.0834 17.1584 23.0158 14.6192 23.0158 12C23.0158 9.3809 22.0833 6.84171 20.3902 4.85027Z" fill="#606060"/>
</g>
<defs>
<clipPath id="clip0_759_66411">
<rect width="24" height="24" fill="currentColor"/>
</clipPath>
</defs>
</svg>
