<svg width="24" height="25" viewBox="0 0 24 25" fill="currentColor" xmlns="http://www.w3.org/2000/svg">
  <path
    d="M6.23844 2.89844C5.22001 2.89844 4.24329 3.30301 3.52315 4.02315C2.80301 4.74329 2.39844 5.72001 2.39844 6.73844V11.5384H12.561L10.3597 9.33716C10.1848 9.1561 10.0881 8.9136 10.0903 8.66189C10.0925 8.41018 10.1934 8.1694 10.3714 7.99141C10.5494 7.81342 10.7902 7.71246 11.0419 7.71027C11.2936 7.70808 11.5361 7.80485 11.7172 7.97972L15.5572 11.8197L15.5639 11.8264C15.7395 12.0049 15.8381 12.2452 15.8384 12.4956V12.5013C15.8384 12.7624 15.7328 12.9986 15.5639 13.1714L15.5562 13.1781L11.7172 17.0181C11.537 17.1981 11.2928 17.2992 11.0381 17.2991C10.7834 17.299 10.5392 17.1978 10.3592 17.0176C10.1792 16.8375 10.0782 16.5932 10.0782 16.3386C10.0783 16.0839 10.1796 15.8397 10.3597 15.6597L12.561 13.4584H2.39844V18.2584C2.39844 19.2769 2.80301 20.2536 3.52315 20.9737C4.24329 21.6939 5.22001 22.0984 6.23844 22.0984H17.7584C18.7769 22.0984 19.7536 21.6939 20.4737 20.9737C21.1939 20.2536 21.5984 19.2769 21.5984 18.2584V6.73844C21.5984 5.72001 21.1939 4.74329 20.4737 4.02315C19.7536 3.30301 18.7769 2.89844 17.7584 2.89844H6.23844Z"
    fill="currentColor" />
</svg>
  