<svg width="19" height="18" viewBox="0 0 19 18" fill="currentColor" xmlns="http://www.w3.org/2000/svg">
<path d="M11.8203 1.37109C11.8203 1.19665 11.9623 1.05469 12.1367 1.05469H13.9648C14.1393 1.05469 14.2812 1.19665 14.2812 1.37109V3.256H15.3359V1.37109C15.3359 0.615059 14.7209 0 13.9648 0H12.1367C11.3807 0 10.7656 0.615059 10.7656 1.37109V3.256H11.8203V1.37109ZM6.91032 16.9453C6.67991 16.5873 6.54688 16.1635 6.54688 15.7149V7.80877H1.73047C1.05199 7.80877 0.5 8.36075 0.5 9.03923V15.7149C0.5 16.3337 0.959176 16.847 1.55469 16.9326V17.4725C1.55469 17.7638 1.7908 17.9999 2.08203 17.9999C2.37327 17.9999 2.60938 17.7638 2.60938 17.4725V16.9453H6.91032V16.9453ZM2.60938 9.74236C2.60938 9.45113 2.84548 9.21502 3.13672 9.21502C3.42795 9.21502 3.66406 9.45113 3.66406 9.74236V15.0118C3.66406 15.303 3.42795 15.5391 3.13672 15.5391C2.84548 15.5391 2.60938 15.303 2.60938 15.0118V9.74236ZM5.42188 5.92383C5.42188 5.74938 5.56384 5.60742 5.73828 5.60742H6.54688V5.54115C6.54688 5.1873 6.62773 4.85202 6.77194 4.55273H5.73828C4.98225 4.55273 4.36719 5.16779 4.36719 5.92383V6.75404H5.42188V5.92383ZM17.2695 4.31072H8.83203C8.15355 4.31072 7.60156 4.86271 7.60156 5.54119V15.7149C7.60156 16.3337 8.06074 16.847 8.65625 16.9326V17.4725C8.65625 17.7638 8.89236 17.9999 9.18359 17.9999C9.47483 17.9999 9.71094 17.7638 9.71094 17.4725V16.9453H16.3906V17.4725C16.3906 17.7638 16.6267 17.9999 16.918 17.9999C17.2092 17.9999 17.4453 17.7638 17.4453 17.4725V16.9326C18.0408 16.847 18.5 16.3337 18.5 15.7149V5.54119C18.5 4.86267 17.948 4.31072 17.2695 4.31072ZM10.7656 15.0118C10.7656 15.303 10.5295 15.5391 10.2383 15.5391C9.94705 15.5391 9.71094 15.303 9.71094 15.0118V6.24431C9.71094 5.95308 9.94705 5.71697 10.2383 5.71697C10.5295 5.71697 10.7656 5.95308 10.7656 6.24431V15.0118ZM15.8633 15.5391C15.572 15.5391 15.3359 15.303 15.3359 15.0118V6.24431C15.3359 5.95308 15.572 5.71697 15.8633 5.71697C16.1545 5.71697 16.3906 5.95308 16.3906 6.24431V15.0118C16.3906 15.303 16.1545 15.5391 15.8633 15.5391Z" fill="#777777"/>
</svg>
