<svg width="19" height="19" viewBox="0 0 19 19" fill="none" xmlns="http://www.w3.org/2000/svg">
  <g clip-path="url(#clip0_2376_3215)">
    <path fillRule="evenodd" clipRule="evenodd"
      d="M11.6317 17.095C11.7644 17.3093 11.9764 17.4625 12.2216 17.521C12.4668 17.5795 12.7251 17.5385 12.9402 17.4071C13.1553 17.2758 13.3097 17.0646 13.3696 16.8197C13.4295 16.5749 13.39 16.3163 13.2599 16.1005L11.0749 12.5555L10.6163 10.7C10.5943 10.7256 10.5728 10.7515 10.5514 10.7776L9.06949 12.3715L9.25104 13.1052C9.27192 13.2216 9.31433 13.3331 9.37609 13.434L11.6317 17.095ZM4.34322 16.2485L5.76315 12.4875C5.81301 12.3546 5.89171 12.2344 5.9936 12.1356L8.21241 9.67929V5.64926C8.21301 5.34361 8.33469 5.05066 8.55081 4.83453C8.76694 4.61841 9.05989 4.49673 9.36554 4.49613C9.67629 4.49613 9.80805 4.58209 10.0606 4.70855L14.8562 7.47731C14.9528 7.53324 15.0374 7.60763 15.1052 7.69625C15.173 7.78487 15.2227 7.88598 15.2514 7.9938C15.2801 8.10162 15.2873 8.21405 15.2726 8.32466C15.2579 8.43527 15.2215 8.5419 15.1656 8.63845C15.1097 8.73501 15.0353 8.81961 14.9467 8.88741C14.8581 8.95522 14.757 9.00491 14.6491 9.03364C14.5413 9.06237 14.4289 9.06958 14.3183 9.05486C14.2077 9.04015 14.101 9.00379 14.0045 8.94786L10.5186 6.93527V9.63932C10.5186 10.1366 10.4548 10.1177 10.1802 10.454L7.5037 13.3327L6.14667 16.9275C6.05662 17.1666 5.87526 17.3602 5.6425 17.4656C5.40974 17.571 5.14464 17.5796 4.90551 17.4896C4.66639 17.3995 4.47283 17.2182 4.36742 16.9854C4.26201 16.7526 4.25338 16.4875 4.34343 16.2484L4.34322 16.2485ZM8.91905 0.676758C8.64067 0.676758 8.36853 0.759309 8.13706 0.913973C7.90559 1.06864 7.72518 1.28847 7.61865 1.54566C7.51211 1.80286 7.48424 2.08587 7.53855 2.35891C7.59286 2.63195 7.72692 2.88275 7.92377 3.0796C8.12062 3.27645 8.37142 3.4105 8.64446 3.46481C8.91749 3.51912 9.20051 3.49125 9.4577 3.38472C9.7149 3.27818 9.93473 3.09777 10.0894 2.8663C10.2441 2.63483 10.3266 2.3627 10.3266 2.08431C10.3266 1.711 10.1783 1.35299 9.91434 1.08902C9.65038 0.825053 9.29236 0.676758 8.91905 0.676758ZM7.72023 8.15312V5.68712L6.60409 6.83262L4.27101 7.49043C4.05471 7.55043 3.87094 7.69359 3.75983 7.88864C3.64872 8.08369 3.61931 8.31477 3.67801 8.53144C3.73671 8.7481 3.87876 8.93273 4.07313 9.04501C4.2675 9.1573 4.49841 9.1881 4.71542 9.13071L7.36047 8.41465C7.45021 8.39147 7.53184 8.34403 7.59641 8.27754L7.72023 8.15312Z"
      fill="currentColor" />
  </g>
  <defs>
    <clipPath id="clip0_2376_3215">
      <rect width="18" height="18" fill="white" transform="translate(0.460938 0.114258)" />
    </clipPath>
  </defs>
</svg>
  