<svg width="20" height="20" viewBox="0 0 20 20" fill="none" xmlns="http://www.w3.org/2000/svg">
<path d="M16.875 8.75V5" stroke="currentColor" stroke-width="1.5" stroke-linecap="round" stroke-linejoin="round"/>
<path d="M18.75 6.875H15" stroke="currentColor" stroke-width="1.5" stroke-linecap="round" stroke-linejoin="round"/>
<path d="M13.125 1.875V4.375" stroke="currentColor" stroke-width="1.5" stroke-linecap="round" stroke-linejoin="round"/>
<path d="M14.375 3.125H11.875" stroke="currentColor" stroke-width="1.5" stroke-linecap="round" stroke-linejoin="round"/>
<path d="M16.9267 11.9267C15.6999 12.2676 14.4045 12.2766 13.173 11.9527C11.9415 11.6288 10.8181 10.9837 9.91768 10.0833C9.01727 9.18287 8.37214 8.05949 8.04825 6.828C7.72436 5.59652 7.73333 4.3011 8.07425 3.07422L8.07445 3.07428C6.86435 3.41092 5.76357 4.05875 4.88178 4.95324C3.99999 5.84773 3.36796 6.95766 3.04865 8.17245C2.72935 9.38724 2.73392 10.6645 3.0619 11.877C3.38989 13.0894 4.02984 14.1948 4.91801 15.083C5.80618 15.9711 6.91156 16.6111 8.12404 16.9391C9.33652 17.267 10.6138 17.2716 11.8286 16.9523C13.0433 16.633 14.1533 16.0009 15.0477 15.1191C15.9422 14.2373 16.5901 13.1365 16.9267 11.9264L16.9267 11.9267Z" stroke="#4B4C4D" stroke-width="1.5" stroke-linecap="round" stroke-linejoin="round"/>
</svg>
