<svg width="12" height="15" viewBox="0 0 12 15" fill="currentColor" xmlns="http://www.w3.org/2000/svg">
<path d="M9 12C9 12.1326 8.94732 12.2598 8.85355 12.3536C8.75979 12.4473 8.63261 12.5 8.5 12.5H3.5C3.36739 12.5 3.24021 12.4473 3.14645 12.3536C3.05268 12.2598 3 12.1326 3 12C3 11.8674 3.05268 11.7402 3.14645 11.6464C3.24021 11.5527 3.36739 11.5 3.5 11.5H8.5C8.63261 11.5 8.75979 11.5527 8.85355 11.6464C8.94732 11.7402 9 11.8674 9 12ZM10.5 0H1.5C0.675 0 0 0.675 0 1.5V13.5C0 14.325 0.675 15 1.5 15H10.5C11.325 15 12 14.325 12 13.5V1.5C12 0.675 11.325 0 10.5 0ZM6 10C3.795 10 2 8.205 2 6C2 3.795 3.795 2 6 2C8.205 2 10 3.795 10 6C10 8.205 8.205 10 6 10ZM7.57 3.45C7.8 4.04 7.94 4.76 7.985 5.5H8.955C8.88318 5.07947 8.72249 4.67909 8.48366 4.32558C8.24483 3.97208 7.93335 3.67358 7.57 3.45ZM7.57 8.55C7.93333 8.32635 8.24483 8.02784 8.48374 7.67435C8.72264 7.32087 8.88347 6.92052 8.9555 6.5H7.9855C7.94 7.24 7.8 7.96 7.57 8.55ZM6 3C5.68 3 5.125 3.94 5.02 5.5H6.98C6.875 3.94 6.32 3 6 3ZM6 9C6.32 9 6.875 8.06 6.98 6.5H5.02C5.125 8.06 5.68 9 6 9ZM3.045 5.5H4.015C4.06 4.76 4.2 4.04 4.43 3.45C4.06665 3.67358 3.75517 3.97208 3.51634 4.32558C3.27751 4.67909 3.11682 5.07947 3.045 5.5ZM3.045 6.5C3.11685 6.92059 3.2776 7.32101 3.51652 7.67452C3.75545 8.02803 4.06704 8.3265 4.4305 8.55C4.2005 7.96 4.0605 7.24 4.0155 6.5H3.045ZM7.985 6.5C7.94 7.24 7.8 7.96 7.57 8.55C7.93333 8.32635 8.24483 8.02784 8.48374 7.67435C8.72264 7.32087 8.88347 6.92052 8.9555 6.5H7.985ZM4.015 6.5H3.045C3.11685 6.92059 3.2776 7.32101 3.51652 7.67452C3.75545 8.02803 4.06704 8.3265 4.4305 8.55C4.2 7.96 4.06 7.24 4.015 6.5ZM3.045 5.5H4.015C4.06 4.76 4.2 4.04 4.43 3.45C4.06665 3.67358 3.75517 3.97208 3.51634 4.32558C3.27751 4.67909 3.11682 5.07947 3.045 5.5ZM6 3C5.68 3 5.125 3.94 5.02 5.5H6.98C6.875 3.94 6.32 3 6 3ZM5.02 6.5C5.125 8.06 5.68 9 6 9C6.32 9 6.875 8.06 6.98 6.5H5.02ZM7.57 3.45C7.8 4.04 7.94 4.76 7.985 5.5H8.955C8.88318 5.07947 8.72249 4.67909 8.48366 4.32558C8.24483 3.97208 7.93335 3.67358 7.57 3.45ZM8.955 5.5C8.88318 5.07947 8.72249 4.67909 8.48366 4.32558C8.24483 3.97208 7.93335 3.67358 7.57 3.45C7.8 4.04 7.94 4.76 7.985 5.5H8.955ZM7.57 8.55C7.93333 8.32635 8.24483 8.02784 8.48374 7.67435C8.72264 7.32087 8.88347 6.92052 8.9555 6.5H7.9855C7.94 7.24 7.8 7.96 7.57 8.55ZM6 3C5.68 3 5.125 3.94 5.02 5.5H6.98C6.875 3.94 6.32 3 6 3ZM6 9C6.32 9 6.875 8.06 6.98 6.5H5.02C5.125 8.06 5.68 9 6 9ZM3.045 5.5H4.015C4.06 4.76 4.2 4.04 4.43 3.45C4.06665 3.67358 3.75517 3.97208 3.51634 4.32558C3.27751 4.67909 3.11682 5.07947 3.045 5.5ZM3.045 6.5C3.11685 6.92059 3.2776 7.32101 3.51652 7.67452C3.75545 8.02803 4.06704 8.3265 4.4305 8.55C4.2005 7.96 4.0605 7.24 4.0155 6.5H3.045Z" fill="currentColor"/>
</svg>
