<svg width="14" height="14" viewBox="0 0 14 14" fill="currentColor" xmlns="http://www.w3.org/2000/svg">
  <path
    d="M9.6257 1.31451C9.62444 1.2117 9.59904 1.11062 9.55154 1.01943C9.50405 0.928238 9.43579 0.849482 9.35227 0.789512C9.26687 0.726764 9.16754 0.685632 9.06278 0.669632C8.95802 0.653632 8.85094 0.663241 8.7507 0.697637L4.47852 2.18951H9.6257V1.31451ZM7.21945 8.64264C7.32445 8.64264 7.61539 8.11764 7.65695 7.11139H6.78195C6.82352 8.11764 7.11445 8.64264 7.21945 8.64264ZM7.21945 5.14264C7.11445 5.14264 6.82352 5.66764 6.78195 6.67389H7.65695C7.61539 5.66764 7.32445 5.14264 7.21945 5.14264ZM6.6157 8.53326C6.44364 8.07859 6.35185 7.59748 6.34445 7.11139H5.48477C5.52507 7.4292 5.65184 7.72986 5.85126 7.98058C6.05069 8.23131 6.31511 8.42248 6.6157 8.53326ZM6.6157 5.25201C6.31511 5.36279 6.05069 5.55397 5.85126 5.80469C5.65184 6.05541 5.52507 6.35607 5.48477 6.67389H6.34445C6.35185 6.1878 6.44364 5.70669 6.6157 5.25201Z"
    fill="currentColor" />
  <path
    d="M3.0625 3.28125V12.9062C3.0625 13.0803 3.13164 13.2472 3.25471 13.3703C3.37778 13.4934 3.5447 13.5625 3.71875 13.5625H10.7188C10.8928 13.5625 11.0597 13.4934 11.1828 13.3703C11.3059 13.2472 11.375 13.0803 11.375 12.9062V3.28125C11.375 3.1072 11.3059 2.94028 11.1828 2.81721C11.0597 2.69414 10.8928 2.625 10.7188 2.625H3.71875C3.5447 2.625 3.37778 2.69414 3.25471 2.81721C3.13164 2.94028 3.0625 3.1072 3.0625 3.28125ZM8.96875 11.4844H5.46875C5.41073 11.4844 5.35509 11.4613 5.31407 11.4203C5.27305 11.3793 5.25 11.3236 5.25 11.2656C5.25 11.2076 5.27305 11.152 5.31407 11.1109C5.35509 11.0699 5.41073 11.0469 5.46875 11.0469H8.96875C9.02677 11.0469 9.08241 11.0699 9.12343 11.1109C9.16445 11.152 9.1875 11.2076 9.1875 11.2656C9.1875 11.3236 9.16445 11.3793 9.12343 11.4203C9.08241 11.4613 9.02677 11.4844 8.96875 11.4844ZM6.125 10.6094C6.125 10.5514 6.14805 10.4957 6.18907 10.4547C6.23009 10.4137 6.28573 10.3906 6.34375 10.3906H8.09375C8.15177 10.3906 8.20741 10.4137 8.24843 10.4547C8.28945 10.4957 8.3125 10.5514 8.3125 10.6094C8.3125 10.6674 8.28945 10.723 8.24843 10.7641C8.20741 10.8051 8.15177 10.8281 8.09375 10.8281H6.34375C6.28573 10.8281 6.23009 10.8051 6.18907 10.7641C6.14805 10.723 6.125 10.6674 6.125 10.6094ZM7.21875 4.70312C7.6514 4.70312 8.07433 4.83142 8.43406 5.07179C8.79379 5.31215 9.07417 5.65379 9.23974 6.05351C9.4053 6.45322 9.44862 6.89305 9.36422 7.31739C9.27981 7.74172 9.07147 8.13149 8.76555 8.43742C8.45962 8.74335 8.06984 8.95169 7.64551 9.03609C7.22118 9.1205 6.78134 9.07718 6.38163 8.91161C5.98192 8.74605 5.64028 8.46567 5.39991 8.10594C5.15954 7.7462 5.03125 7.32327 5.03125 6.89062C5.03125 6.31046 5.26172 5.75406 5.67195 5.34383C6.08219 4.93359 6.63859 4.70312 7.21875 4.70312Z"
    fill="currentColor" />
  <path
    d="M8.95516 6.67188C8.91485 6.35406 8.78808 6.0534 8.58866 5.80268C8.38924 5.55195 8.12482 5.36078 7.82422 5.25C7.99629 5.70468 8.08807 6.18579 8.09547 6.67188H8.95516ZM8.95516 7.10938H8.09547C8.08807 7.59546 7.99629 8.07657 7.82422 8.53125C8.12482 8.42047 8.38924 8.2293 8.58866 7.97857C8.78808 7.72785 8.91485 7.42719 8.95516 7.10938Z"
    fill="currentColor" />
</svg>
  