<svg width="23" height="22" viewBox="0 0 23 22" fill="none" xmlns="http://www.w3.org/2000/svg">
  <path
    d="M18.5712 10.9988C18.1372 10.9988 17.7854 11.3505 17.7854 11.7845V19.6415C17.7854 20.0754 17.4337 20.4272 16.9997 20.4272H2.85711C2.42316 20.4272 2.07139 20.0754 2.07139 19.6415V3.92742C2.07139 3.49348 2.42316 3.1417 2.85711 3.1417H12.2855C12.7195 3.1417 13.0713 2.78993 13.0713 2.35599C13.0713 1.92204 12.7195 1.57031 12.2855 1.57031H2.85711C1.55531 1.57031 0.5 2.62563 0.5 3.92742V19.6415C0.5 20.9433 1.55531 21.9986 2.85711 21.9986H16.9998C18.3016 21.9986 19.3569 20.9433 19.3569 19.6415V11.7844C19.3569 11.3505 19.0051 10.9988 18.5712 10.9988Z"
    fill="currentColor" />
  <path
    d="M21.6195 0.881075C21.3401 0.601701 21.0085 0.380098 20.6435 0.228922C20.2785 0.0777471 19.8873 -3.73146e-05 19.4923 1.26134e-05C19.0971 -0.00113618 18.7055 0.0761975 18.3404 0.227528C17.9753 0.378859 17.6439 0.601175 17.3654 0.881581L7.01607 11.23C6.93022 11.3165 6.86543 11.4217 6.82672 11.5372L5.25533 16.2515C5.11818 16.6632 5.34077 17.1081 5.75248 17.2452C5.83236 17.2718 5.91601 17.2854 6.00017 17.2855C6.08452 17.2853 6.16832 17.2718 6.24844 17.2454L10.9627 15.674C11.0784 15.6353 11.1836 15.5702 11.2699 15.4839L21.6192 5.1346C22.7938 3.9601 22.7939 2.05572 21.6195 0.881075ZM20.5082 4.02436L10.294 14.2385L7.24234 15.2576L8.25825 12.2098L18.4763 1.99568C19.0381 1.43504 19.948 1.43596 20.5086 1.99771C20.7764 2.26605 20.9273 2.62935 20.9285 3.00846C20.929 3.19716 20.8921 3.38408 20.8199 3.55845C20.7478 3.73281 20.6418 3.89116 20.5082 4.02436Z"
    fill="currentColor" />
</svg>
  