<svg width="14" height="15" viewBox="0 0 14 15" fill="none" xmlns="http://www.w3.org/2000/svg">
<path d="M8.04609 3.05412C8.66259 3.51344 9.09489 4.2907 9.17359 5.19293C9.4321 5.33744 9.71423 5.41251 9.99992 5.41281C11.08 5.41281 11.9554 4.37256 11.9554 3.08931C11.9554 1.80587 11.08 0.765625 9.99992 0.765625C8.93016 0.76602 8.0624 1.78768 8.04609 3.05412ZM6.76501 7.81183C7.84508 7.81183 8.7205 6.77139 8.7205 5.48814C8.7205 4.20489 7.84492 3.16465 6.76501 3.16465C5.68509 3.16465 4.80919 4.20509 4.80919 5.48834C4.80919 6.77159 5.68509 7.81183 6.76501 7.81183ZM7.59449 7.97021H5.93519C4.5546 7.97021 3.43142 9.30506 3.43142 10.9456V13.3569L3.43658 13.3947L3.57636 13.4467C4.89388 13.9358 6.03852 14.099 6.98066 14.099C8.82083 14.099 9.88743 13.4755 9.95316 13.4358L10.0838 13.3573H10.0978V10.9456C10.0983 9.30506 8.97508 7.97021 7.59449 7.97021ZM10.8297 5.57138H9.18324C9.16652 6.32685 8.89916 7.04383 8.43945 7.56605C9.66663 7.99967 10.5645 9.35193 10.5645 10.9492V11.6922C12.1902 11.6214 13.127 11.0739 13.1887 11.0372L13.3194 10.9585H13.3333V8.54639C13.3333 6.90604 12.2102 5.57138 10.8297 5.57138ZM3.33375 5.4132C3.71629 5.4132 4.07222 5.28053 4.37373 5.05452C4.46833 4.32738 4.79389 3.67098 5.28341 3.22041C5.28541 3.17691 5.28891 3.1338 5.28891 3.08991C5.28891 1.80646 4.41333 0.766218 3.33375 0.766218C2.2535 0.766218 1.37826 1.80646 1.37826 3.08991C1.37826 4.37276 2.2535 5.4132 3.33375 5.4132ZM5.0899 7.56605C4.63274 7.04633 4.36579 6.33392 4.3466 5.58246C4.28554 5.57712 4.22513 5.57138 4.1629 5.57138H2.50376C1.12317 5.57138 0 6.90604 0 8.54639V10.9581L0.00515828 10.9952L0.144931 11.0476C1.20188 11.4397 2.14518 11.6204 2.96452 11.6774V10.9492C2.96485 9.35193 3.86239 8.00007 5.0899 7.56605Z" fill="#F50308"/>
</svg>
