<svg width="16" height="17" viewBox="0 0 16 17" fill="currentColor" xmlns="http://www.w3.org/2000/svg">
  <path
    d="M8.04609 4.05412C8.66259 4.51344 9.09489 5.2907 9.17359 6.19293C9.4321 6.33744 9.71423 6.41251 9.99992 6.41281C11.08 6.41281 11.9554 5.37256 11.9554 4.08931C11.9554 2.80587 11.08 1.76562 9.99992 1.76562C8.93016 1.76602 8.0624 2.78768 8.04609 4.05412ZM6.76501 8.81183C7.84509 8.81183 8.7205 7.77139 8.7205 6.48814C8.7205 5.20489 7.84492 4.16465 6.76501 4.16465C5.68509 4.16465 4.80919 5.20509 4.80919 6.48834C4.80919 7.77159 5.68509 8.81183 6.76501 8.81183ZM7.59449 8.97021H5.93519C4.5546 8.97021 3.43142 10.3051 3.43142 11.9456V14.3569L3.43658 14.3947L3.57636 14.4467C4.89388 14.9358 6.03852 15.099 6.98066 15.099C8.82083 15.099 9.88743 14.4755 9.95316 14.4358L10.0838 14.3573H10.0978V11.9456C10.0983 10.3051 8.97508 8.97021 7.59449 8.97021ZM10.8297 6.57138H9.18324C9.16652 7.32685 8.89916 8.04383 8.43945 8.56605C9.66663 8.99967 10.5645 10.3519 10.5645 11.9492V12.6922C12.1902 12.6214 13.127 12.0739 13.1887 12.0372L13.3194 11.9585H13.3333V9.54639C13.3333 7.90604 12.2102 6.57138 10.8297 6.57138ZM3.33375 6.4132C3.71629 6.4132 4.07222 6.28053 4.37373 6.05452C4.46833 5.32738 4.79389 4.67098 5.28341 4.22041C5.28541 4.17691 5.28891 4.1338 5.28891 4.08991C5.28891 2.80646 4.41333 1.76622 3.33375 1.76622C2.2535 1.76622 1.37826 2.80646 1.37826 4.08991C1.37826 5.37276 2.2535 6.4132 3.33375 6.4132ZM5.0899 8.56605C4.63274 8.04633 4.36579 7.33392 4.3466 6.58246C4.28554 6.57712 4.22513 6.57138 4.1629 6.57138H2.50376C1.12317 6.57138 0 7.90604 0 9.54639V11.9581L0.00515828 11.9952L0.144931 12.0476C1.20188 12.4397 2.14518 12.6204 2.96452 12.6774V11.9492C2.96485 10.3519 3.86239 9.00007 5.0899 8.56605Z"
    fill="currentColor" />
</svg>
  