<svg width="24" height="24" viewBox="0 0 24 24" fill="none" xmlns="http://www.w3.org/2000/svg">
  <path
    d="M22.8163 17.2885C22.7527 17.0482 22.6394 16.8239 22.4838 16.6301C22.3281 16.4363 22.1335 16.2774 21.9126 16.1635L17.2738 13.7597C16.8995 13.5613 16.4664 13.504 16.0533 13.5983C15.6403 13.6926 15.2749 13.9322 15.0238 14.2735L14.2738 15.301C14.2353 15.3544 14.1786 15.3918 14.1144 15.4063C14.0501 15.4208 13.9828 15.4114 13.9251 15.3797C12.8221 14.7521 11.8123 13.9733 10.9251 13.066C10.0178 12.1787 9.23902 11.1689 8.61134 10.066C8.57968 10.0082 8.57021 9.94092 8.58472 9.87669C8.59922 9.81246 8.63669 9.75575 8.69009 9.71722L9.71384 8.96722C10.0551 8.71614 10.2947 8.35076 10.389 7.93773C10.4833 7.5247 10.426 7.09153 10.2276 6.71722L7.83884 2.08222C7.72412 1.86099 7.56407 1.66642 7.36913 1.51119C7.17419 1.35595 6.94872 1.24354 6.70743 1.18127C6.46613 1.119 6.21443 1.10827 5.96871 1.14979C5.72299 1.1913 5.48878 1.28413 5.28134 1.42222L2.36759 3.37222C1.95845 3.64464 1.62808 4.01979 1.40958 4.46009C1.19107 4.90039 1.0921 5.39038 1.12259 5.88097C1.16115 6.71043 1.27283 7.53488 1.45634 8.34472C2.24759 11.3972 4.15634 14.536 6.80759 17.191C9.45884 19.846 12.6013 21.7472 15.6538 22.531C16.4637 22.7144 17.2881 22.8261 18.1176 22.8647H18.3051C18.7627 22.8637 19.2131 22.7508 19.6171 22.5357C20.021 22.3207 20.3662 22.0101 20.6226 21.631L22.5651 18.7172C22.7053 18.5102 22.8002 18.2759 22.8435 18.0297C22.8868 17.7835 22.8775 17.5309 22.8163 17.2885ZM21.3163 17.881L19.3851 20.7985C19.2569 20.9877 19.0815 21.1402 18.8763 21.2408C18.6711 21.3414 18.4432 21.3867 18.2151 21.3722C17.4795 21.3382 16.7481 21.2416 16.0288 21.0835C13.2313 20.356 10.3363 18.5972 7.87259 16.1222C5.40884 13.6472 3.64259 10.7635 2.91509 7.96597C2.7556 7.24686 2.65775 6.51546 2.62259 5.77972C2.6076 5.55209 2.65272 5.32452 2.75342 5.11983C2.85412 4.91513 3.00687 4.74051 3.19634 4.61347L6.11009 2.67097C6.15445 2.64127 6.20671 2.62559 6.26009 2.62597H6.33134C6.36826 2.63559 6.40273 2.65293 6.43246 2.67685C6.4622 2.70076 6.48652 2.73071 6.50384 2.76472L8.90384 7.40347C8.93367 7.46099 8.94212 7.52723 8.9277 7.5904C8.91328 7.65357 8.87692 7.70958 8.82509 7.74847L7.80134 8.49847C7.45419 8.75674 7.21366 9.13322 7.12522 9.55678C7.03678 9.98033 7.10655 10.4216 7.32134 10.7972C8.01542 12.0105 8.8735 13.1222 9.87134 14.101C10.8501 15.0989 11.9618 15.957 13.1751 16.651C13.5507 16.8658 13.992 16.9355 14.4155 16.8471C14.8391 16.7586 15.2156 16.5181 15.4738 16.171L16.2238 15.1435C16.2627 15.0916 16.3187 15.0553 16.3819 15.0409C16.4451 15.0264 16.5113 15.0349 16.5688 15.0647L21.2076 17.4647C21.2415 17.4825 21.2714 17.5072 21.2952 17.5372C21.319 17.5673 21.3362 17.602 21.3458 17.6391C21.3553 17.6762 21.357 17.7149 21.3506 17.7527C21.3442 17.7905 21.33 17.8265 21.3088 17.8585L21.3163 17.881Z"
    fill="currentColor" />
</svg>
  