<svg width="14" height="14" viewBox="0 0 14 14" fill="none" xmlns="http://www.w3.org/2000/svg">
<path d="M13.6945 10.68C13.2575 10.3135 10.6945 8.6905 10.2685 8.765C10.0685 8.8005 9.91555 8.971 9.50605 9.4595C9.31667 9.69994 9.1087 9.92514 8.88405 10.133C8.47244 10.0336 8.07401 9.88588 7.69705 9.693C6.21869 8.97325 5.02436 7.77857 4.30505 6.3C4.11217 5.92303 3.96448 5.52461 3.86505 5.113C4.07291 4.88835 4.2981 4.68038 4.53855 4.491C5.02655 4.0815 5.19755 3.9295 5.23305 3.7285C5.30755 3.3015 3.68305 0.7395 3.31805 0.3025C3.16505 0.1215 3.02605 0 2.84805 0C2.33205 0 -0.00195312 2.886 -0.00195312 3.26C-0.00195312 3.2905 0.0480468 6.295 3.84255 10.1555C7.70305 13.95 10.7075 14 10.738 14C11.112 14 13.998 11.666 13.998 11.15C13.998 10.972 13.8765 10.833 13.6945 10.68ZM10.498 6.5H11.498C11.4969 5.4395 11.075 4.42278 10.3252 3.67289C9.57527 2.923 8.55855 2.50119 7.49805 2.5V3.5C8.29345 3.50079 9.05605 3.81712 9.61849 4.37956C10.1809 4.94199 10.4973 5.70459 10.498 6.5Z" fill="#F50308"/>
</svg>
