<svg width="16" height="16" viewBox="0 0 16 16" fill="none" xmlns="http://www.w3.org/2000/svg">
<path d="M14.6945 11.68C14.2575 11.3135 11.6945 9.6905 11.2685 9.765C11.0685 9.8005 10.9155 9.971 10.506 10.4595C10.3167 10.6999 10.1087 10.9251 9.88405 11.133C9.47244 11.0336 9.07401 10.8859 8.69705 10.693C7.21869 9.97325 6.02436 8.77857 5.30505 7.3C5.11217 6.92303 4.96448 6.52461 4.86505 6.113C5.07291 5.88835 5.2981 5.68038 5.53855 5.491C6.02655 5.0815 6.19755 4.9295 6.23305 4.7285C6.30755 4.3015 4.68305 1.7395 4.31805 1.3025C4.16505 1.1215 4.02605 1 3.84805 1C3.33205 1 0.998047 3.886 0.998047 4.26C0.998047 4.2905 1.04805 7.295 4.84255 11.1555C8.70305 14.95 11.7075 15 11.738 15C12.112 15 14.998 12.666 14.998 12.15C14.998 11.972 14.8765 11.833 14.6945 11.68ZM11.498 7.5H12.498C12.4969 6.4395 12.075 5.42278 11.3252 4.67289C10.5753 3.923 9.55855 3.50119 8.49805 3.5V4.5C9.29345 4.50079 10.0561 4.81712 10.6185 5.37956C11.1809 5.94199 11.4973 6.70459 11.498 7.5Z" fill="#F50308"/>
<path d="M13.998 7.5H14.998C14.9961 5.7767 14.3106 4.12455 13.092 2.906C11.8735 1.68744 10.2213 1.00198 8.49805 1V2C9.95621 2.00172 11.3542 2.58174 12.3852 3.61281C13.4163 4.64389 13.9963 6.04184 13.998 7.5Z" fill="#F50308"/>
</svg>
