<svg width="14" height="13" viewBox="0 0 14 13" fill="none" xmlns="http://www.w3.org/2000/svg">
<path d="M12.9146 0.592072L12.9023 0.579822C12.2778 -0.0141158 11.0305 1.04073 11.0305 1.04073L8.76606 2.82351L6.38216 2.40101C6.72606 1.90248 6.82966 1.40757 6.60037 1.17829C6.30341 0.881322 5.56091 1.14235 4.942 1.76126C4.83763 1.86547 4.74056 1.97675 4.65147 2.09429L2.82103 1.76988L1.60178 2.80876L6.57191 5.08935L3.38556 8.93945L1.40103 8.56738L0.898438 9.06926L4.42522 12.5959L4.92703 12.0934L4.55497 10.1088L8.40509 6.92248L10.6857 11.8926L11.7246 10.6733L11.4002 8.84289C11.5177 8.7538 11.629 8.65673 11.7332 8.55235C12.3521 7.93345 12.6132 7.19098 12.3162 6.89404C12.0869 6.66473 11.5919 6.76835 11.0934 7.11223L10.6709 4.72835L12.4537 2.46385C12.4537 2.46385 13.5086 1.2166 12.9146 0.592072Z" fill="#F50308"/>
</svg>
