<svg width="14" height="14" viewBox="0 0 14 14" fill="currentColor" xmlns="http://www.w3.org/2000/svg">
  <g clip-path="url(#clip0_2147_9793)">
    <path
      d="M10.1086 13.9825L7 12.852L3.89142 13.9825C3.84735 13.9984 3.8001 14.0035 3.75366 13.9973C3.70723 13.9911 3.66295 13.9738 3.62458 13.947C3.58621 13.9201 3.55486 13.8844 3.53318 13.8428C3.5115 13.8013 3.50012 13.7552 3.5 13.7083V12.8648C3.5 12.5615 3.654 12.2838 3.91125 12.1228L5.83333 10.9217V7.13942L0.400167 9.31292C0.355857 9.33037 0.307959 9.33676 0.260624 9.33152C0.21329 9.32628 0.167946 9.30958 0.128526 9.28286C0.0891046 9.25614 0.0567957 9.22021 0.0343995 9.17818C0.0120033 9.13615 0.000195573 9.08929 3.02983e-09 9.04167V8.48283C-1.51084e-05 8.24838 0.0564965 8.01738 0.164744 7.80942C0.272992 7.60145 0.429786 7.42265 0.621833 7.28817L5.83333 3.64V1.16667C5.83333 0.52325 6.35658 0 7 0C7.64342 0 8.16667 0.52325 8.16667 1.16667V3.64L13.3782 7.28758C13.5702 7.42223 13.727 7.60114 13.8352 7.80919C13.9434 8.01725 14 8.24831 14 8.48283V9.04167C14 9.08934 13.9883 9.13629 13.9659 9.17839C13.9436 9.2205 13.9112 9.25648 13.8717 9.28319C13.8323 9.3099 13.7868 9.32652 13.7394 9.3316C13.692 9.33668 13.6441 9.33007 13.5998 9.31233L8.16667 7.13883V10.9212L10.0887 12.1228C10.346 12.2844 10.5 12.5615 10.5 12.8648V13.7083C10.4997 13.7551 10.4883 13.8012 10.4666 13.8427C10.4448 13.8841 10.4135 13.9198 10.3752 13.9466C10.3368 13.9735 10.2926 13.9907 10.2462 13.997C10.1999 14.0032 10.1527 13.9983 10.1086 13.9825Z"
      fill="currentColor" />
  </g>
  <defs>
    <clipPath id="clip0_2147_9793">
      <rect width="14" height="14" fill="white" />
    </clipPath>
  </defs>
</svg>
  