<svg width="16" height="16" viewBox="0 0 16 16" fill="none" xmlns="http://www.w3.org/2000/svg">
<g clip-path="url(#clip0_2448_28213)">
<path d="M15.347 3.28353H13.3878V1.52026C13.3878 1.15958 13.0954 0.867188 12.7347 0.867188H3.26529C2.90461 0.867188 2.61221 1.15955 2.61221 1.52026V3.28353H0.653021C0.292366 3.28353 0 3.57592 0 3.9366V10.3366C0 10.6973 0.292366 10.9897 0.653073 10.9897H2.61227V14.4314C2.61227 14.6491 2.65629 14.8116 2.82458 14.9655C2.90296 15.0372 2.98665 15.0837 3.08887 15.1124C3.18353 15.1389 3.2771 15.1367 3.37279 15.1367H12.6272C12.7229 15.1367 12.8166 15.1389 12.9113 15.1123C13.0136 15.0836 13.0974 15.037 13.1757 14.9652C13.344 14.8111 13.3877 14.6484 13.3877 14.4307V10.9897H15.3469C15.7076 10.9897 16 10.6973 16 10.3366V3.93663C16 3.57595 15.7077 3.28353 15.347 3.28353ZM1.63266 5.58557C1.31707 5.58557 1.06123 5.32973 1.06123 5.01415C1.06123 4.69857 1.31707 4.44272 1.63266 4.44272C1.94824 4.44272 2.20408 4.69857 2.20408 5.01415C2.20408 5.32973 1.94824 5.58557 1.63266 5.58557ZM12.7347 14.4835H3.26531V9.32438H12.7347V14.4835ZM12.7347 3.28353H3.26531V2.17333C3.26531 1.81265 3.55768 1.52026 3.91839 1.52026H12.0817C12.4423 1.52026 12.7347 1.81263 12.7347 2.17333L12.7347 3.28353Z" fill="#F50308"/>
</g>
<defs>
<clipPath id="clip0_2448_28213">
<rect width="16" height="16" fill="white"/>
</clipPath>
</defs>
</svg>
