<svg width="18" height="18" viewBox="0 0 18 18" fill="none" xmlns="http://www.w3.org/2000/svg">
<path d="M17.9418 7.67093C17.9995 7.53158 18.0146 7.37825 17.9852 7.23031C17.9558 7.08238 17.8832 6.94649 17.7765 6.83983L14.3067 3.36995C14.0087 3.072 13.5259 3.072 13.228 3.36995C12.9302 3.66772 12.9302 4.1507 13.228 4.44847L15.3959 6.61638H0.762714C0.341509 6.61638 0 6.95782 0 7.37909C0 7.80037 0.341509 8.14181 0.762714 8.14181H17.2372C17.3881 8.14179 17.5355 8.09705 17.6609 8.01323C17.7864 7.92942 17.8841 7.81029 17.9418 7.67093ZM0.762785 9.85793H17.2373C17.6585 9.85793 18 10.1994 18 10.6206C18 11.0419 17.6585 11.3834 17.2373 11.3834H2.60409L4.77207 13.5513C5.06985 13.849 5.06992 14.332 4.77207 14.6298C4.70133 14.7007 4.61727 14.757 4.52471 14.7953C4.43215 14.8337 4.33293 14.8534 4.23274 14.8532C4.13256 14.8534 4.03333 14.8337 3.94078 14.7953C3.84822 14.757 3.76416 14.7007 3.69341 14.6298L0.223454 11.1599C0.116804 11.0532 0.0441818 10.9173 0.0147648 10.7694C-0.0146542 10.6214 0.000455856 10.4681 0.0581837 10.3287C0.115911 10.1894 0.213661 10.0703 0.339079 9.98648C0.464495 9.90267 0.611946 9.85794 0.762785 9.85793Z" fill="#F50308"/>
</svg>
