<svg width="33" height="33" viewBox="0 0 33 33" fill="currentColor" xmlns="http://www.w3.org/2000/svg">
  <path d="M24.2438 22.6563L29.9545 28.3657L28.0678 30.2523L22.3585 24.5417C20.2341 26.2446 17.5918 27.1709 14.8691 27.167C8.24514 27.167 2.86914 21.791 2.86914 15.167C2.86914 8.54299 8.24514 3.16699 14.8691 3.16699C21.4931 3.16699 26.8691 8.54299 26.8691 15.167C26.873 17.8897 25.9468 20.532 24.2438 22.6563ZM21.5691 21.667C23.2613 19.9268 24.2063 17.5942 24.2025 15.167C24.2025 10.0097 20.0251 5.83366 14.8691 5.83366C9.71181 5.83366 5.53581 10.0097 5.53581 15.167C5.53581 20.323 9.71181 24.5003 14.8691 24.5003C17.2964 24.5041 19.629 23.5591 21.3691 21.867L21.5691 21.667Z" fill="currentColor"/>
</svg>