<svg width="20" height="21" viewBox="0 0 20 21" fill="currentColor" xmlns="http://www.w3.org/2000/svg">
<path d="M4.23844 0.898438C3.22001 0.898438 2.24329 1.30301 1.52315 2.02315C0.803008 2.74329 0.398438 3.72001 0.398438 4.73844V9.53844H10.561L8.35972 7.33716C8.18485 7.1561 8.08808 6.9136 8.09027 6.66189C8.09246 6.41018 8.19342 6.1694 8.37141 5.99141C8.5494 5.81342 8.79018 5.71246 9.04189 5.71027C9.2936 5.70808 9.5361 5.80485 9.71716 5.97972L13.5572 9.81972L13.5639 9.82644C13.7395 10.0049 13.8381 10.2452 13.8384 10.4956V10.5013C13.8384 10.7624 13.7328 10.9986 13.5639 11.1714L13.5562 11.1781L9.71716 15.0181C9.53702 15.1981 9.29276 15.2992 9.0381 15.2991C8.78344 15.299 8.53924 15.1978 8.35924 15.0176C8.17923 14.8375 8.07815 14.5932 8.07824 14.3386C8.07833 14.0839 8.17958 13.8397 8.35972 13.6597L10.561 11.4584H0.398438V16.2584C0.398438 17.2769 0.803008 18.2536 1.52315 18.9737C2.24329 19.6939 3.22001 20.0984 4.23844 20.0984H15.7584C16.7769 20.0984 17.7536 19.6939 18.4737 18.9737C19.1939 18.2536 19.5984 17.2769 19.5984 16.2584V4.73844C19.5984 3.72001 19.1939 2.74329 18.4737 2.02315C17.7536 1.30301 16.7769 0.898438 15.7584 0.898438H4.23844Z" fill="currentColor"/>
</svg>
