<svg width="17" height="15" viewBox="0 0 17 15" fill="none" xmlns="http://www.w3.org/2000/svg">
<path d="M15.3571 0C14.7857 0 10.7857 0.9375 10.7857 5.15625V8.4375C10.7857 9.47168 11.8107 10.3125 13.0714 10.3125H14.2143V14.0625C14.2143 14.5811 14.725 15 15.3571 15C15.9893 15 16.5 14.5811 16.5 14.0625V10.3125V7.03125V0.9375C16.5 0.418945 15.9893 0 15.3571 0ZM2.78571 0.46875C2.78571 0.228516 2.56786 0.0292969 2.275 0.00292969C1.98214 -0.0234375 1.72143 0.134766 1.65714 0.366211L0.575 4.35938C0.525 4.54395 0.5 4.73145 0.5 4.91895C0.5 6.26367 1.75357 7.36816 3.35714 7.48828V14.0625C3.35714 14.5811 3.86786 15 4.5 15C5.13214 15 5.64286 14.5811 5.64286 14.0625V7.48828C7.24643 7.36816 8.5 6.26367 8.5 4.91895C8.5 4.73145 8.475 4.54395 8.425 4.35938L7.34286 0.366211C7.27857 0.131836 7.01071 -0.0234375 6.72143 0.00292969C6.43214 0.0292969 6.21429 0.228516 6.21429 0.46875V4.40039C6.21429 4.55859 6.05714 4.6875 5.86429 4.6875C5.68214 4.6875 5.53214 4.57324 5.51429 4.42383L5.06786 0.427734C5.04286 0.18457 4.79643 0 4.5 0C4.20357 0 3.95714 0.18457 3.93214 0.427734L3.48929 4.42383C3.47143 4.57324 3.32143 4.6875 3.13929 4.6875C2.94643 4.6875 2.78929 4.55859 2.78929 4.40039V0.46875H2.78571ZM4.51071 4.92188H4.5H4.48929L4.5 4.90137L4.51071 4.92188Z" fill="#F50308"/>
</svg>
