<svg width="19" height="19" viewBox="0 0 19 19" fill="currentColor" xmlns="http://www.w3.org/2000/svg">
  <path
    d="M16.8261 9.20288L13.8842 12.2303L14.5794 16.512C14.6169 16.7289 14.5921 16.9519 14.5078 17.1552C14.4236 17.3585 14.2834 17.5338 14.1036 17.6606C13.7537 17.9064 13.3048 17.9306 12.9308 17.7236L9.32344 15.7217L5.71556 17.7236C5.53401 17.8247 5.32758 17.8725 5.12007 17.8613C4.91256 17.8502 4.71243 17.7806 4.54275 17.6606C4.3627 17.534 4.22232 17.3588 4.13798 17.1554C4.05363 16.9521 4.02878 16.7289 4.06631 16.512L4.76156 12.2303L1.81969 9.20288C1.6689 9.04729 1.56404 8.85306 1.5167 8.64163C1.46935 8.4302 1.48135 8.2098 1.55138 8.00476C1.61594 7.80614 1.73418 7.62925 1.89301 7.49364C2.05185 7.35804 2.24509 7.269 2.45138 7.23638L6.49406 6.61594L8.30644 2.77013C8.39507 2.5748 8.53803 2.4091 8.71826 2.2928C8.89849 2.1765 9.10838 2.11452 9.32288 2.11426C9.7605 2.11426 10.1503 2.36626 10.3393 2.77126L12.1517 6.61538L16.1944 7.23582C16.4006 7.26862 16.5937 7.35772 16.7526 7.4933C16.9114 7.62888 17.0296 7.80567 17.0944 8.00419C17.1644 8.20923 17.1764 8.42964 17.1291 8.64107C17.0817 8.8525 16.9769 9.04673 16.8261 9.20232V9.20288Z"
    fill="currentColor" />
</svg>
  