<svg width="20" height="20" viewBox="0 0 20 20" fill="none" xmlns="http://www.w3.org/2000/svg">
<path d="M7.24638 4.60762L6.64844 3.16406" stroke="currentColor" stroke-width="1.5" stroke-linecap="round" stroke-linejoin="round"/>
<path d="M3.35762 8.50029L1.91406 7.90234" stroke="currentColor" stroke-width="1.5" stroke-linecap="round" stroke-linejoin="round"/>
<path d="M16.6406 8.50029L18.0842 7.90234" stroke="currentColor" stroke-width="1.5" stroke-linecap="round" stroke-linejoin="round"/>
<path d="M12.75 4.60762L13.3479 3.16406" stroke="currentColor" stroke-width="1.5" stroke-linecap="round" stroke-linejoin="round"/>
<path d="M18.75 12.5H1.25" stroke="currentColor" stroke-width="1.5" stroke-linecap="round" stroke-linejoin="round"/>
<path d="M16.25 15.625H3.75" stroke="currentColor" stroke-width="1.5" stroke-linecap="round" stroke-linejoin="round"/>
<path d="M5.48102 12.4995C5.28921 11.8036 5.26071 11.0728 5.39773 10.3641C5.53475 9.65539 5.8336 8.9879 6.27097 8.41366C6.70835 7.83942 7.27243 7.37395 7.91926 7.05353C8.56608 6.73311 9.27816 6.56641 10 6.56641C10.7218 6.56641 11.4339 6.73311 12.0807 7.05353C12.7276 7.37394 13.2916 7.83941 13.729 8.41365C14.1664 8.98789 14.4652 9.65538 14.6023 10.3641C14.7393 11.0728 14.7108 11.8036 14.519 12.4995" stroke="#4B4C4D" stroke-width="1.5" stroke-linecap="round" stroke-linejoin="round"/>
</svg>
