<svg width="16" height="16" viewBox="0 0 16 16" fill="currentColor" xmlns="http://www.w3.org/2000/svg">
<path d="M8 0C3.58862 0 0 3.58862 0 8C0 12.4114 3.58862 16 8 16C12.4114 16 16 12.4114 16 8C16 3.58862 12.4114 0 8 0ZM12.0547 6.30469L7.72131 10.6379C7.59131 10.7679 7.42066 10.8334 7.25 10.8334C7.07934 10.8334 6.90869 10.7679 6.77869 10.6379L4.61206 8.47131C4.35131 8.21069 4.35131 7.78931 4.61206 7.52869C4.87269 7.26794 5.29394 7.26794 5.55469 7.52869L7.25 9.224L11.1121 5.36206C11.3727 5.10131 11.7939 5.10131 12.0547 5.36206C12.3153 5.62269 12.3153 6.04394 12.0547 6.30469Z" fill="#F50308"/>
</svg>
