<svg width="18" height="18" viewBox="0 0 18 18" fill="currentColor" xmlns="http://www.w3.org/2000/svg">
<path d="M11.1117 4.03588C12.2262 4.03588 13.1296 3.13241 13.1296 2.01794C13.1296 0.903462 12.2262 0 11.1117 0C9.99721 0 9.09375 0.903462 9.09375 2.01794C9.09375 3.13241 9.99721 4.03588 11.1117 4.03588Z" fill="#777777"/>
<path d="M16.1491 6.93777C14.3458 6.75229 12.5975 4.80093 12.1575 4.53069C11.8875 4.33579 11.5682 4.20817 11.2628 4.16053C11.2628 4.16053 11.0458 4.11548 10.8214 4.14024C10.6067 4.1641 10.2802 4.17519 9.80216 4.53153C9.76755 4.55305 9.52335 4.76566 9.44633 4.85831C8.85135 5.47503 7.20266 7.2988 6.38199 9.3619C6.266 9.65497 6.33959 9.97331 6.54162 10.188L5.57783 11.9054L4.22014 11.1427C4.05807 11.0515 3.85238 11.1084 3.76133 11.2707L1.19157 15.8115C1.1006 15.9736 1.15816 16.1802 1.32062 16.2704L2.34844 16.8484C2.18482 17.1397 2.2242 17.5164 2.47138 17.7669C2.76943 18.0711 3.25911 18.0748 3.56283 17.7759C3.84514 17.4974 3.8682 17.0552 3.62898 16.7503L5.03215 14.2886L6.01518 12.5369L7.23364 10.4246C7.49712 10.3827 7.73325 10.2071 7.83935 9.94066C8.18667 9.06613 8.72453 8.22357 9.24395 7.52536L9.48873 10.3384C9.51709 10.6689 9.65476 10.9461 9.85881 11.1649C9.22773 12.3094 7.52937 15.4389 6.91621 16.5021C6.64154 16.9793 6.8048 17.5889 7.28168 17.864C7.46072 17.9666 7.65885 18.0089 7.85073 17.995C8.16987 17.9719 8.47185 17.7956 8.64344 17.498C9.21471 16.5076 10.7047 13.502 11.3582 12.3722C11.8821 13.2429 12.7748 14.8451 13.9073 17.4037C14.0719 17.7766 14.4368 17.9975 14.8198 17.9975C14.9552 17.9975 15.0917 17.9703 15.2232 17.9119C15.7265 17.6893 15.9542 17.1006 15.731 16.5975C14.3955 13.5781 13.4122 11.9019 12.8674 11.0192C13.0827 10.7489 13.2124 10.4128 13.1785 10.0185L12.9468 7.35403C13.6179 7.88989 14.4936 8.34131 15.9889 8.49592C16.0167 8.4989 16.0436 8.50024 16.0708 8.50024C16.4668 8.50024 16.8073 8.20056 16.8489 7.79771C16.8925 7.36697 16.5797 6.98205 16.1491 6.93777ZM3.00585 17.5317C2.85059 17.5317 2.72467 17.4058 2.72467 17.2507C2.72467 17.0955 2.85059 16.9696 3.00585 16.9696C3.08038 16.9697 3.15185 16.9993 3.20454 17.052C3.25724 17.1047 3.28686 17.1762 3.28689 17.2507C3.28687 17.3252 3.25725 17.3967 3.20455 17.4494C3.15185 17.5021 3.08038 17.5317 3.00585 17.5317Z" fill="#777777"/>
</svg>
