<svg width="16" height="18" viewBox="0 0 16 18" fill="currentColor" xmlns="http://www.w3.org/2000/svg">
<path d="M7.77344 0C5.20167 0 3.10938 2.0923 3.10938 4.66406C3.10938 7.23583 5.20167 9.32812 7.77344 9.32812C10.3452 9.32812 12.4375 7.23583 12.4375 4.66406C12.4375 2.0923 10.3452 0 7.77344 0ZM13.5764 12.3751C12.2995 11.0786 10.6067 10.3646 8.8099 10.3646H6.73698C4.94018 10.3646 3.24736 11.0786 1.97045 12.3751C0.699782 13.6653 0 15.3684 0 17.1707C0 17.4569 0.232028 17.6889 0.518229 17.6889H15.0286C15.3148 17.6889 15.5469 17.4569 15.5469 17.1707C15.5469 15.3684 14.8471 13.6653 13.5764 12.3751Z" fill="currentColor"/>
</svg>
