<svg width="24" height="24" viewBox="0 0 24 24" fill="currentColor" xmlns="http://www.w3.org/2000/svg">
  <path
    d="M11.7734 3C9.20167 3 7.10938 5.0923 7.10938 7.66406C7.10938 10.2358 9.20167 12.3281 11.7734 12.3281C14.3452 12.3281 16.4375 10.2358 16.4375 7.66406C16.4375 5.0923 14.3452 3 11.7734 3ZM17.5764 15.3751C16.2995 14.0786 14.6067 13.3646 12.8099 13.3646H10.737C8.94018 13.3646 7.24736 14.0786 5.97045 15.3751C4.69978 16.6653 4 18.3684 4 20.1707C4 20.4569 4.23203 20.6889 4.51823 20.6889H19.0286C19.3148 20.6889 19.5469 20.4569 19.5469 20.1707C19.5469 18.3684 18.8471 16.6653 17.5764 15.3751Z"
    fill="currentColor" />
</svg>
  