<svg width="24" height="24" viewBox="0 0 24 24" fill="none" xmlns="http://www.w3.org/2000/svg">
  <path fill-rule="evenodd" clip-rule="evenodd"
    d="M6.3588 16.3732C7.92149 15.4738 9.8082 15 11.7277 15C13.6472 15 15.5339 15.4738 17.0966 16.3732C18.6587 17.2722 19.8465 18.5702 20.3968 20.1106C20.5826 20.6307 20.3116 21.203 19.7915 21.3888C19.2714 21.5746 18.6992 21.3036 18.5134 20.7835C18.1521 19.7723 17.3312 18.8157 16.099 18.1066C14.8674 17.3978 13.3303 17 11.7277 17C10.125 17 8.58799 17.3978 7.35638 18.1066C6.12419 18.8157 5.30324 19.7723 4.94198 20.7835C4.75617 21.3036 4.18392 21.5746 3.66383 21.3888C3.14374 21.203 2.87276 20.6307 3.05857 20.1106C3.6089 18.5702 4.79668 17.2721 6.3588 16.3732Z"
    fill="currentColor" />
  <path fill-rule="evenodd" clip-rule="evenodd"
    d="M11.7266 5C10.0697 5 8.72656 6.34315 8.72656 8C8.72656 9.65685 10.0697 11 11.7266 11C13.3834 11 14.7266 9.65685 14.7266 8C14.7266 6.34315 13.3834 5 11.7266 5ZM6.72656 8C6.72656 5.23858 8.96514 3 11.7266 3C14.488 3 16.7266 5.23858 16.7266 8C16.7266 10.7614 14.488 13 11.7266 13C8.96514 13 6.72656 10.7614 6.72656 8Z"
    fill="currentColor" />
</svg>