<svg width="61" height="62" viewBox="0 0 61 62" fill="none" xmlns="http://www.w3.org/2000/svg">
  <path
    d="M41.9375 48.1455C41.9375 48.6511 41.7367 49.1359 41.3792 49.4934C41.0217 49.8509 40.5368 50.0518 40.0312 50.0518H20.9688C20.4632 50.0518 19.9783 49.8509 19.6208 49.4934C19.2633 49.1359 19.0625 48.6511 19.0625 48.1455C19.0625 47.6399 19.2633 47.1551 19.6208 46.7976C19.9783 46.4401 20.4632 46.2393 20.9688 46.2393H40.0312C40.5368 46.2393 41.0217 46.4401 41.3792 46.7976C41.7367 47.1551 41.9375 47.6399 41.9375 48.1455ZM47.6562 2.39551H13.3438C10.1984 2.39551 7.625 4.96895 7.625 8.11426V53.8643C7.625 57.0096 10.1984 59.583 13.3438 59.583H47.6562C50.8016 59.583 53.375 57.0096 53.375 53.8643V8.11426C53.375 4.96895 50.8016 2.39551 47.6562 2.39551ZM30.5 40.5205C22.0934 40.5205 15.25 33.6771 15.25 25.2705C15.25 16.8639 22.0934 10.0205 30.5 10.0205C38.9066 10.0205 45.75 16.8639 45.75 25.2705C45.75 33.6771 38.9066 40.5205 30.5 40.5205ZM36.4856 15.5486C37.3625 17.798 37.8962 20.543 38.0678 23.3643H41.7659C41.4921 21.761 40.8795 20.2345 39.969 18.8868C39.0584 17.5391 37.8709 16.401 36.4856 15.5486ZM36.4856 34.9924C37.8708 34.1397 39.0584 33.0016 39.9692 31.654C40.8801 30.3063 41.4932 28.78 41.7678 27.1768H38.0697C37.8963 29.998 37.3625 32.743 36.4856 34.9924ZM30.5 13.833C29.28 13.833 27.1641 17.4168 26.7638 23.3643H34.2362C33.8359 17.4168 31.72 13.833 30.5 13.833ZM30.5 36.708C31.72 36.708 33.8359 33.1243 34.2362 27.1768H26.7638C27.1641 33.1243 29.28 36.708 30.5 36.708ZM19.2341 23.3643H22.9322C23.1037 20.543 23.6375 17.798 24.5144 15.5486C23.1291 16.401 21.9416 17.5391 21.031 18.8868C20.1205 20.2345 19.5079 21.761 19.2341 23.3643ZM19.2341 27.1768C19.508 28.7802 20.1208 30.3068 21.0317 31.6546C21.9426 33.0024 23.1306 34.1403 24.5163 34.9924C23.6394 32.743 23.1057 29.998 22.9341 27.1768H19.2341ZM38.0678 27.1768C37.8962 29.998 37.3625 32.743 36.4856 34.9924C37.8708 34.1397 39.0584 33.0016 39.9692 31.654C40.8801 30.3063 41.4932 28.78 41.7678 27.1768H38.0678ZM22.9322 27.1768H19.2341C19.508 28.7802 20.1208 30.3068 21.0317 31.6546C21.9426 33.0024 23.1306 34.1403 24.5163 34.9924C23.6375 32.743 23.1037 29.998 22.9322 27.1768ZM19.2341 23.3643H22.9322C23.1037 20.543 23.6375 17.798 24.5144 15.5486C23.1291 16.401 21.9416 17.5391 21.031 18.8868C20.1205 20.2345 19.5079 21.761 19.2341 23.3643ZM30.5 13.833C29.28 13.833 27.1641 17.4168 26.7638 23.3643H34.2362C33.8359 17.4168 31.72 13.833 30.5 13.833ZM26.7638 27.1768C27.1641 33.1243 29.28 36.708 30.5 36.708C31.72 36.708 33.8359 33.1243 34.2362 27.1768H26.7638ZM36.4856 15.5486C37.3625 17.798 37.8962 20.543 38.0678 23.3643H41.7659C41.4921 21.761 40.8795 20.2345 39.969 18.8868C39.0584 17.5391 37.8709 16.401 36.4856 15.5486ZM41.7659 23.3643C41.4921 21.761 40.8795 20.2345 39.969 18.8868C39.0584 17.5391 37.8709 16.401 36.4856 15.5486C37.3625 17.798 37.8962 20.543 38.0678 23.3643H41.7659ZM36.4856 34.9924C37.8708 34.1397 39.0584 33.0016 39.9692 31.654C40.8801 30.3063 41.4932 28.78 41.7678 27.1768H38.0697C37.8963 29.998 37.3625 32.743 36.4856 34.9924ZM30.5 13.833C29.28 13.833 27.1641 17.4168 26.7638 23.3643H34.2362C33.8359 17.4168 31.72 13.833 30.5 13.833ZM30.5 36.708C31.72 36.708 33.8359 33.1243 34.2362 27.1768H26.7638C27.1641 33.1243 29.28 36.708 30.5 36.708ZM19.2341 23.3643H22.9322C23.1037 20.543 23.6375 17.798 24.5144 15.5486C23.1291 16.401 21.9416 17.5391 21.031 18.8868C20.1205 20.2345 19.5079 21.761 19.2341 23.3643ZM19.2341 27.1768C19.508 28.7802 20.1208 30.3068 21.0317 31.6546C21.9426 33.0024 23.1306 34.1403 24.5163 34.9924C23.6394 32.743 23.1057 29.998 22.9341 27.1768H19.2341Z"
    fill="currentColor" />
</svg>
  