<svg width="16" height="16" viewBox="0 0 16 16" fill="none" xmlns="http://www.w3.org/2000/svg">
<g clip-path="url(#clip0_3167_15420)">
<path d="M8 0C3.58187 0 0 3.58187 0 8C0 12.4181 3.58187 16 8 16C12.4181 16 16 12.4181 16 8C16 3.58187 12.4181 0 8 0ZM3.625 8.31875V7.68406C3.62517 7.56999 3.67055 7.46063 3.75122 7.37997C3.83188 7.2993 3.94124 7.25392 4.05531 7.25375H7.75219V6.88625C7.75197 6.80658 7.77389 6.72841 7.8155 6.66047C7.85711 6.59253 7.91679 6.53748 7.98786 6.50148C8.05893 6.46547 8.13861 6.44992 8.21801 6.45655C8.2974 6.46319 8.37339 6.49176 8.4375 6.53906L9.94781 7.6475C10.0021 7.68741 10.0463 7.73951 10.0768 7.79961C10.1073 7.8597 10.1233 7.92612 10.1234 7.99351C10.1236 8.0609 10.1079 8.12739 10.0777 8.18762C10.0474 8.24786 10.0035 8.30016 9.94938 8.34031L8.4375 9.45969C8.36381 9.51484 8.27424 9.54466 8.18219 9.54469C8.06789 9.5446 7.9583 9.49919 7.87745 9.4184C7.7966 9.33761 7.7511 9.22805 7.75094 9.11375V8.75H4.05531C3.94108 8.74983 3.83158 8.70432 3.75089 8.62345C3.6702 8.54258 3.62492 8.43299 3.625 8.31875ZM12.375 11.3909C12.3749 11.5258 12.3213 11.6552 12.2259 11.7506C12.1305 11.846 12.0012 11.8996 11.8663 11.8997H7.26312C7.12819 11.8996 6.99881 11.846 6.90337 11.7506C6.80792 11.6552 6.75423 11.5259 6.75406 11.3909V10.7347C6.75423 10.5998 6.80792 10.4704 6.90337 10.375C6.99881 10.2796 7.12819 10.226 7.26312 10.2259H10.7006V5.77375H7.26312C7.12819 5.77367 6.99881 5.72005 6.90337 5.62467C6.80792 5.52929 6.75423 5.39993 6.75406 5.265V4.60875C6.75423 4.47382 6.80792 4.34446 6.90337 4.24908C6.99881 4.1537 7.12819 4.10008 7.26312 4.1H11.8663C12.0012 4.10008 12.1306 4.15375 12.226 4.24921C12.3214 4.34467 12.375 4.4741 12.375 4.60906V11.3909Z" fill="#EC1C24"/>
</g>
<defs>
<clipPath id="clip0_3167_15420">
<rect width="16" height="16" fill="white"/>
</clipPath>
</defs>
</svg>
