<svg width="78" height="78" viewBox="0 0 78 78" fill="none" xmlns="http://www.w3.org/2000/svg">
<path d="M38.9948 77.6673C60.3498 77.6673 77.6615 60.3557 77.6615 39.0007C77.6615 17.6456 60.3498 0.333984 38.9948 0.333984C17.6398 0.333984 0.328125 17.6456 0.328125 39.0007C0.328125 60.3557 17.6398 77.6673 38.9948 77.6673Z" fill="#FFEFEF"/>
<path d="M44.6189 38.9988L54.4496 48.8295C54.798 49.1793 54.9937 49.653 54.9937 50.1468C54.9937 50.6406 54.798 51.1143 54.4496 51.4641L51.4602 54.4535C51.1104 54.802 50.6367 54.9976 50.1429 54.9976C49.6491 54.9976 49.1754 54.802 48.8256 54.4535L38.9949 44.6228L29.1642 54.4535C28.8144 54.802 28.3407 54.9976 27.8469 54.9976C27.3531 54.9976 26.8794 54.802 26.5296 54.4535L23.5402 51.4641C23.1918 51.1143 22.9961 50.6406 22.9961 50.1468C22.9961 49.653 23.1918 49.1793 23.5402 48.8295L33.3709 38.9988L23.5402 29.1681C23.1918 28.8183 22.9961 28.3446 22.9961 27.8508C22.9961 27.357 23.1918 26.8833 23.5402 26.5335L26.5296 23.5441C26.8794 23.1957 27.3531 23 27.8469 23C28.3407 23 28.8144 23.1957 29.1642 23.5441L38.9949 33.3748L48.8256 23.5441C49.1754 23.1957 49.6491 23 50.1429 23C50.6367 23 51.1104 23.1957 51.4602 23.5441L54.4496 26.5335C54.798 26.8833 54.9937 27.357 54.9937 27.8508C54.9937 28.3446 54.798 28.8183 54.4496 29.1681L44.6189 38.9988Z" fill="#F50308"/>
</svg>
