<svg width="400" height="400" viewBox="0 0 400 400" fill="none" xmlns="http://www.w3.org/2000/svg">
  <g clip-path="url(#clip0_2231_11671)">
    <mask id="mask0_2231_11671" style="mask-type:luminance" maskUnits="userSpaceOnUse" x="0" y="0"
      width="400" height="400">
      <path d="M400 0H0V400H400V0Z" fill="white" />
    </mask>
    <g mask="url(#mask0_2231_11671)">
      <path
        d="M200 358.666C231.645 358.666 262.579 349.282 288.891 331.701C315.203 314.12 335.711 289.132 347.821 259.895C359.931 230.659 363.099 198.489 356.926 167.452C350.752 136.415 335.513 107.905 313.137 85.529C290.761 63.1526 262.251 47.9141 231.214 41.7404C200.178 35.5668 168.007 38.7353 138.771 50.8454C109.534 62.9554 84.5459 83.463 66.9649 109.775C49.3838 136.087 40 167.021 40 198.666C40 241.101 56.8571 281.797 86.8629 311.803C116.869 341.809 157.565 358.666 200 358.666Z"
        fill="url(#paint0_linear_2231_11671)" />
      <path
        d="M263.388 84.7461H140.001C128.219 84.7461 118.668 94.2973 118.668 106.079V270.119C118.668 281.902 128.219 291.453 140.001 291.453H263.388C275.17 291.453 284.721 281.902 284.721 270.119V106.079C284.721 94.2973 275.17 84.7461 263.388 84.7461Z"
        fill="white" />
      <path
        d="M193.469 111.412H139.869C136.261 111.412 133.336 114.337 133.336 117.945C133.336 121.554 136.261 124.479 139.869 124.479H193.469C197.078 124.479 200.003 121.554 200.003 117.945C200.003 114.337 197.078 111.412 193.469 111.412Z"
        fill="#FFEFEF" />
      <path
        d="M260.136 148.479H139.869C136.261 148.479 133.336 151.404 133.336 155.012C133.336 158.62 136.261 161.545 139.869 161.545H260.136C263.744 161.545 266.669 158.62 266.669 155.012C266.669 151.404 263.744 148.479 260.136 148.479Z"
        fill="#D5D5D5" />
      <path
        d="M260.136 185.547H139.869C136.261 185.547 133.336 188.472 133.336 192.08C133.336 195.688 136.261 198.614 139.869 198.614H260.136C263.744 198.614 266.669 195.688 266.669 192.08C266.669 188.472 263.744 185.547 260.136 185.547Z"
        fill="#D5D5D5" />
      <path
        d="M260.136 222.613H139.869C136.261 222.613 133.336 225.538 133.336 229.147C133.336 232.755 136.261 235.68 139.869 235.68H260.136C263.744 235.68 266.669 232.755 266.669 229.147C266.669 225.538 263.744 222.613 260.136 222.613Z"
        fill="#D5D5D5" />
      <path
        d="M139.869 259.68H260.136C261.869 259.68 263.53 260.368 264.756 261.593C265.981 262.818 266.669 264.48 266.669 266.213C266.669 267.946 265.981 269.608 264.756 270.833C263.53 272.058 261.869 272.746 260.136 272.746H139.869C138.137 272.746 136.475 272.058 135.25 270.833C134.024 269.608 133.336 267.946 133.336 266.213C133.336 264.48 134.024 262.818 135.25 261.593C136.475 260.368 138.137 259.68 139.869 259.68Z"
        fill="#D5D5D5" />
      <path
        d="M384.201 61.8926H304.094C302.254 61.9415 300.508 62.7188 299.241 64.0538C297.973 65.3888 297.288 67.1723 297.334 69.0126V108.639C297.291 110.477 297.979 112.257 299.246 113.589C300.513 114.922 302.256 115.697 304.094 115.746H384.201C386.039 115.697 387.782 114.922 389.049 113.589C390.317 112.257 391.004 110.477 390.961 108.639V69.0126C391.008 67.1723 390.322 65.3888 389.054 64.0538C387.787 62.7188 386.041 61.9415 384.201 61.8926Z"
        fill="white" />
      <path
        d="M317.336 97.332C318.918 97.332 320.465 96.8628 321.78 95.9838C323.096 95.1047 324.121 93.8553 324.727 92.3935C325.332 90.9317 325.491 89.3232 325.182 87.7713C324.874 86.2195 324.112 84.794 322.993 83.6752C321.874 82.5564 320.449 81.7944 318.897 81.4858C317.345 81.1771 315.736 81.3355 314.274 81.941C312.813 82.5465 311.563 83.5719 310.684 84.8875C309.805 86.2031 309.336 87.7498 309.336 89.332C309.336 91.4538 310.179 93.4886 311.679 94.9889C313.179 96.4892 315.214 97.332 317.336 97.332Z"
        fill="#FFEFEF" />
      <path
        d="M344 81.332H370.667C372.788 81.332 374.823 82.1749 376.324 83.6752C377.824 85.1755 378.667 87.2103 378.667 89.332C378.667 91.4538 377.824 93.4886 376.324 94.9889C374.823 96.4892 372.788 97.332 370.667 97.332H344C341.878 97.332 339.843 96.4892 338.343 94.9889C336.843 93.4886 336 91.4538 336 89.332C336 87.2103 336.843 85.1755 338.343 83.6752C339.843 82.1749 341.878 81.332 344 81.332Z"
        fill="#FFDCDC" />
      <path fillRule="evenodd" clipRule="evenodd"
        d="M246.813 300.747C263.333 300.781 279.487 295.878 293.2 286.667L347.467 338.467L367.147 315.627L314.787 265.653C325.599 250.42 330.98 231.996 330.066 213.338C329.153 194.68 321.998 176.87 309.75 162.765C297.502 148.661 280.871 139.08 262.525 135.56C244.18 132.04 225.183 134.785 208.585 143.354C191.986 151.923 178.747 165.821 170.993 182.816C163.239 199.81 161.418 218.917 165.824 237.071C170.23 255.224 180.606 271.371 195.288 282.921C209.97 294.47 228.107 300.753 246.787 300.76L246.813 300.747ZM317.893 217.413C317.896 231.37 313.76 245.014 306.008 256.619C298.255 268.225 287.235 277.271 274.342 282.613C261.448 287.955 247.26 289.354 233.571 286.631C219.883 283.909 207.309 277.189 197.44 267.32C187.571 257.451 180.851 244.877 178.129 231.189C175.406 217.5 176.805 203.312 182.147 190.418C187.489 177.525 196.535 166.505 208.141 158.752C219.746 151 233.39 146.864 247.347 146.867C266.057 146.867 284.001 154.299 297.231 167.529C310.461 180.759 317.893 198.703 317.893 217.413Z"
        fill="#FFDCDC" />
      <path
        d="M247.335 289.332C287.468 289.332 320.001 257.092 320.001 217.332C320.001 177.572 287.468 145.332 247.335 145.332C207.201 145.332 174.668 177.572 174.668 217.332C174.668 257.092 207.201 289.332 247.335 289.332Z"
        fill="white" fill-opacity="0.3" />
      <path
        d="M259.896 217.333L277.483 199.813C278.709 198.52 279.531 196.897 279.847 195.144C280.164 193.39 279.961 191.583 279.264 189.943C278.568 188.303 277.407 186.902 275.925 185.913C274.443 184.923 272.705 184.388 270.923 184.373C268.525 184.332 266.206 185.227 264.456 186.867L246.83 204.387L229.243 186.867C228.4 185.973 227.384 185.261 226.256 184.773C225.125 184.276 223.905 184.013 222.67 184C221.437 183.975 220.211 184.199 219.066 184.657C217.921 185.115 216.879 185.798 216.003 186.667C215.131 187.531 214.446 188.566 213.99 189.707C213.525 190.838 213.293 192.053 213.309 193.276C213.325 194.5 213.589 195.707 214.083 196.827C214.583 197.946 215.299 198.957 216.19 199.8L233.843 217.333L216.216 234.853C215.326 235.696 214.61 236.707 214.11 237.827C213.615 238.946 213.352 240.153 213.336 241.377C213.32 242.601 213.551 243.815 214.016 244.947C214.463 246.089 215.139 247.129 216.003 248C216.879 248.868 217.921 249.551 219.066 250.009C220.211 250.467 221.437 250.691 222.67 250.667C223.901 250.651 225.116 250.388 226.243 249.893C227.371 249.406 228.387 248.693 229.23 247.8L246.856 230.28L264.483 247.8C266.246 249.343 268.53 250.159 270.871 250.082C273.213 250.005 275.438 249.042 277.096 247.387C278.755 245.745 279.719 243.528 279.789 241.194C279.858 238.861 279.028 236.591 277.47 234.853L259.896 217.333Z"
        fill="#F50308" />
      <path
        d="M347.469 338.454L367.149 315.627L370.109 318.454C372.994 321.282 374.702 325.098 374.89 329.135C375.078 333.171 373.732 337.129 371.122 340.214C369.862 341.696 368.314 342.907 366.572 343.773C364.831 344.639 362.931 345.143 360.989 345.254C359.051 345.343 357.115 345.034 355.301 344.346C353.487 343.658 351.834 342.605 350.442 341.254L347.482 338.427L347.469 338.454Z"
        fill="#FADADA" />
      <path fillRule="evenodd" clipRule="evenodd"
        d="M75.0818 121.56C75.0653 119.622 74.8191 117.693 74.3485 115.813C72.6685 109.04 65.2151 104.68 57.3351 103.667C49.4551 102.653 41.1351 105 37.9485 110.867C37.1454 112.153 36.6129 113.59 36.3837 115.089C36.1544 116.589 36.2332 118.119 36.6151 119.587C37.4785 122.109 39.2074 124.244 41.4951 125.613C48.1618 130 59.7885 130.947 65.1085 129.053C67.5736 128.202 69.979 127.186 72.3085 126.013C70.9751 133.68 65.9885 140.933 59.3351 147.48C44.8951 161.693 22.4685 172.48 10.2551 176.453C9.92213 176.55 9.63981 176.772 9.46806 177.074C9.29631 177.375 9.24863 177.731 9.33515 178.067C9.37804 178.228 9.45292 178.378 9.55532 178.51C9.65771 178.641 9.78552 178.75 9.93112 178.831C10.0767 178.912 10.2371 178.963 10.4027 178.98C10.5684 178.998 10.7358 178.982 10.8951 178.933C23.3485 174.933 46.2018 163.867 60.9351 149.373C68.5485 141.88 73.9751 133.453 74.8951 124.587C92.1085 114.987 106.228 97.5734 118.308 82.9067C118.525 82.6444 118.634 82.3092 118.611 81.9695C118.589 81.6299 118.438 81.3117 118.188 81.0801C118.066 80.9688 117.923 80.8836 117.766 80.8298C117.61 80.776 117.445 80.7547 117.28 80.7671C117.115 80.7796 116.954 80.8256 116.808 80.9024C116.662 80.9791 116.532 81.0849 116.428 81.2134C104.895 95.28 91.4418 112 75.0818 121.56ZM72.5885 122.893C72.7017 120.73 72.5042 118.561 72.0018 116.453C70.5618 110.6 63.9085 107.12 57.0285 106.24C52.9674 105.616 48.8129 106.133 45.0285 107.733C42.9152 108.608 41.1487 110.154 40.0018 112.133C39.373 113.111 38.9495 114.206 38.757 115.352C38.5645 116.498 38.6069 117.671 38.8818 118.8C39.5742 120.741 40.9294 122.374 42.7085 123.413C48.7751 127.413 59.3751 128.267 64.2151 126.587C67.0982 125.602 69.8982 124.389 72.5885 122.96V122.893Z"
        fill="#F50308" />
      <path
        d="M380 253.332C384.418 253.332 388 249.75 388 245.332C388 240.914 384.418 237.332 380 237.332C375.582 237.332 372 240.914 372 245.332C372 249.75 375.582 253.332 380 253.332Z"
        fill="#F50308" />
      <path fillRule="evenodd" clipRule="evenodd"
        d="M77.8431 300.519C79.3336 300.018 80.7206 299.25 81.9364 298.252C83.1653 297.05 83.9741 295.484 84.2431 293.786C84.7364 291.652 84.9231 289.386 85.5097 287.252C85.6176 286.756 85.9078 286.318 86.3231 286.026C86.7025 285.733 87.179 285.594 87.6564 285.639C88.0127 285.658 88.3572 285.774 88.653 285.974C88.9489 286.173 89.185 286.449 89.3364 286.772C89.4234 286.965 89.4904 287.166 89.5364 287.372C89.5364 287.572 89.5364 288.186 89.6564 288.439C89.7631 289.066 89.8564 289.692 89.9497 290.319C90.0753 292.308 90.5258 294.263 91.2831 296.106C92.5231 298.772 93.7764 300.306 95.4564 301.026C97.4366 301.64 99.5562 301.64 101.536 301.026L102.243 300.866C102.519 300.821 102.801 300.832 103.072 300.899C103.343 300.966 103.598 301.087 103.821 301.255C104.045 301.423 104.231 301.635 104.37 301.878C104.509 302.12 104.597 302.388 104.63 302.666C104.74 303.207 104.638 303.77 104.345 304.239C104.052 304.708 103.591 305.047 103.056 305.186L102.39 305.332C99.0164 306.212 95.1231 309.332 92.8564 312.079C92.1497 312.932 91.1364 315.292 90.0964 316.799C89.5298 317.719 88.7042 318.452 87.7231 318.906C87.3247 319.037 86.8948 319.037 86.4964 318.906C85.9975 318.787 85.5632 318.482 85.2831 318.052C85.0759 317.757 84.9349 317.421 84.8697 317.066C84.8697 316.866 84.8697 316.359 84.8697 316.119C84.6564 315.359 84.4031 314.599 84.2164 313.826C83.7221 312.159 82.9068 310.606 81.8164 309.252C80.9435 307.898 79.6981 306.824 78.2297 306.159C77.4134 305.966 76.6079 305.73 75.8164 305.452C75.2244 305.185 74.7503 304.711 74.4831 304.119C74.2942 303.701 74.2161 303.242 74.2564 302.786C74.3075 302.237 74.5479 301.723 74.9364 301.332C75.2811 301.027 75.6991 300.815 76.1497 300.719C76.5764 300.586 77.6964 300.532 77.8431 300.519ZM87.4031 297.506L87.6431 298.039C89.4698 301.866 91.4964 303.999 93.9631 305.026H94.0564C92.4813 306.241 91.0418 307.622 89.7631 309.146C89.1018 310.1 88.5135 311.103 88.0031 312.146C87.3537 310.195 86.385 308.366 85.1364 306.732C84.2841 305.426 83.1942 304.29 81.9231 303.386C82.8781 302.874 83.7726 302.257 84.5897 301.546C85.825 300.433 86.7876 299.05 87.4031 297.506Z"
        fill="#F50308" />
    </g>
  </g>
  <defs>
    <linearGradient id="paint0_linear_2231_11671" x1="198.76" y1="-13.4272" x2="202.04" y2="548.466"
      gradientUnits="userSpaceOnUse">
      <stop stop-color="#F2F2F2" />
      <stop offset="1" stop-color="#EFEFEF" />
    </linearGradient>
    <clipPath id="clip0_2231_11671">
      <rect width="400" height="400" fill="white" />
    </clipPath>
  </defs>
</svg>
  